M48
;Layer_Color=9474304
;FILE_FORMAT=2:5
INCH,TZ
;TYPE=PLATED
T1F00S00C0.02362
T2F00S00C0.03100
T3F00S00C0.03150
T4F00S00C0.03200
T5F00S00C0.03400
T6F00S00C0.03500
T7F00S00C0.04500
%
T01
X369189Y166157
Y176000
Y185843
Y195685
X381000
Y185843
Y176000
Y166157
T02
X124500Y21000
X136500Y38000
X146500
X159500Y21000
X161500Y34500
X231500Y33500
X228500Y18500
X263500
X258000Y37500
X248000
Y67500
X258000
X231500Y68500
X161500Y69500
X146500Y68000
X136500
Y292500
X146500
Y322500
X136500
X121000Y350000
X156000
X161500Y323500
Y288500
X172500Y258500
X189167
X205833
X222500
Y223500
X205833
X189167
X172500
X233000Y288000
X249500Y291000
X259500
Y321000
X249500
X233000Y323000
X236000Y350500
X271000
T03
X16500Y24000
Y39500
X78000Y16000
X376500Y40000
Y60000
X384000Y77000
X359500Y76000
X323500Y112000
X271500Y77429
X243000Y104500
X232000Y130500
X231000Y140500
X199000Y104500
X134000Y156500
X97000Y142000
X72000Y134500
Y112500
X44500Y91000
X34000Y76000
X16500Y59500
X45500Y240000
X44500Y266500
X33000Y277500
X16500Y300500
Y320500
X378500Y321000
Y301000
X383500Y286500
X365500
X370000Y221000
T04
X181500Y18500
Y28500
X178500Y46000
Y56000
X210500Y55000
Y45000
X206500Y28000
Y18000
X381500Y127000
Y135000
X210500Y65000
X178500Y66000
X22500Y111000
Y119000
X12000Y237000
Y245000
X178500Y298000
Y308000
Y318000
X212000Y317000
Y307000
Y297000
X211500Y350000
X221500
X182000Y349500
X172000
X363500Y247500
Y239500
T05
X181500Y123500
X191500
X201500
X211500
Y152000
X201500
X191500
X181500
Y176500
X191500
X201500
X211500
X211150Y209000
X201150
X191150
X181150
X276000Y211500
Y201500
Y191500
X275500Y181500
Y171500
Y161500
Y151500
X276000Y221500
T06
X122500Y35000
X271000Y34000
Y69000
X122500Y70000
Y289500
Y324500
X273000Y323500
Y288500
T07
X51500Y28000
X99500
X109500Y52000
X285000Y51500
X295000Y27500
X343000
Y75500
X295000
X99500Y76000
X51500
Y284000
X99500
X109500Y308000
X99500Y332000
X51500
X296500Y331500
X286500Y307500
X296500Y283500
X344500
Y331500
M30
