G04*
G04 #@! TF.GenerationSoftware,Altium Limited,Altium Designer,18.0.7 (293)*
G04*
G04 Layer_Color=8388736*
%FSLAX25Y25*%
%MOIN*%
G70*
G01*
G75*
%ADD20R,0.03359X0.07690*%
%ADD21O,0.03359X0.07690*%
%ADD22O,0.10800X0.07300*%
%ADD23R,0.10800X0.07300*%
%ADD24R,0.08800X0.08800*%
%ADD25C,0.08800*%
%ADD26C,0.07800*%
%ADD27P,0.06061X8X292.5*%
%ADD28C,0.07099*%
%ADD29R,0.07099X0.07099*%
%ADD30R,0.09800X0.08300*%
%ADD31O,0.09800X0.08300*%
%ADD32R,0.08300X0.09800*%
%ADD33O,0.08300X0.09800*%
%ADD34C,0.12800*%
%ADD35R,0.07300X0.10800*%
%ADD36O,0.07300X0.10800*%
%ADD37R,0.06800X0.09800*%
%ADD38O,0.06800X0.09800*%
%ADD39O,0.10800X0.07400*%
D20*
X369000Y92500D02*
D03*
X10500Y76500D02*
D03*
X24000Y280047D02*
D03*
X380500Y279547D02*
D03*
D21*
X374000Y92500D02*
D03*
X379000D02*
D03*
X384000D02*
D03*
X369000Y114547D02*
D03*
X374000D02*
D03*
X379000D02*
D03*
X384000D02*
D03*
X25500Y98547D02*
D03*
X20500D02*
D03*
X15500D02*
D03*
X10500D02*
D03*
X25500Y76500D02*
D03*
X20500D02*
D03*
X15500D02*
D03*
X9000Y258000D02*
D03*
X14000D02*
D03*
X19000D02*
D03*
X24000D02*
D03*
X9000Y280047D02*
D03*
X14000D02*
D03*
X19000D02*
D03*
X365500Y257500D02*
D03*
X370500D02*
D03*
X375500D02*
D03*
X380500D02*
D03*
X365500Y279547D02*
D03*
X370500D02*
D03*
X375500D02*
D03*
D22*
X181500Y28500D02*
D03*
X206500Y28000D02*
D03*
D23*
X181500Y18500D02*
D03*
X206500Y18000D02*
D03*
D24*
X271000Y69000D02*
D03*
X122500Y35000D02*
D03*
Y289500D02*
D03*
X273000Y323500D02*
D03*
D25*
X271000Y34000D02*
D03*
X122500Y70000D02*
D03*
Y324500D02*
D03*
X273000Y288500D02*
D03*
D26*
X228500Y18500D02*
D03*
X263500D02*
D03*
X159500Y21000D02*
D03*
X124500D02*
D03*
X121000Y350000D02*
D03*
X156000D02*
D03*
X271000Y350500D02*
D03*
X236000D02*
D03*
X233000Y288000D02*
D03*
Y323000D02*
D03*
X172500Y237000D02*
D03*
Y202000D02*
D03*
X189167Y237000D02*
D03*
Y202000D02*
D03*
X222500Y237000D02*
D03*
Y202000D02*
D03*
X205833Y237000D02*
D03*
Y202000D02*
D03*
X161500Y69500D02*
D03*
Y34500D02*
D03*
Y323500D02*
D03*
Y288500D02*
D03*
X231500Y68500D02*
D03*
Y33500D02*
D03*
D27*
X12000Y245000D02*
D03*
Y237000D02*
D03*
X22500Y119000D02*
D03*
Y111000D02*
D03*
X381500Y135000D02*
D03*
Y127000D02*
D03*
X363500Y239500D02*
D03*
Y247500D02*
D03*
D28*
X376500Y60000D02*
D03*
X16500Y300500D02*
D03*
Y39500D02*
D03*
X378500Y321000D02*
D03*
X33000Y277500D02*
D03*
X243000Y104500D02*
D03*
X199000D02*
D03*
X16500Y24000D02*
D03*
X380000Y221500D02*
D03*
X72000Y134500D02*
D03*
Y112500D02*
D03*
X134000Y156500D02*
D03*
X365500Y286500D02*
D03*
X383500D02*
D03*
X323500Y112000D02*
D03*
X78000Y16000D02*
D03*
X231000Y140500D02*
D03*
X232000Y130500D02*
D03*
X44500Y266500D02*
D03*
X45500Y240000D02*
D03*
X97000Y142000D02*
D03*
X271500Y77429D02*
D03*
X384000Y77000D02*
D03*
X359500Y76000D02*
D03*
X44500Y91000D02*
D03*
X34000Y76000D02*
D03*
D29*
X376500Y40000D02*
D03*
X16500Y320500D02*
D03*
Y59500D02*
D03*
X378500Y301000D02*
D03*
D30*
X275500Y181500D02*
D03*
X276000Y221500D02*
D03*
D31*
X275500Y171500D02*
D03*
Y161500D02*
D03*
Y151500D02*
D03*
X276000Y191500D02*
D03*
Y201500D02*
D03*
Y211500D02*
D03*
D32*
X211150Y187500D02*
D03*
X211500Y155000D02*
D03*
X181000Y123500D02*
D03*
D33*
X201150Y187500D02*
D03*
X191150D02*
D03*
X181150D02*
D03*
X201500Y155000D02*
D03*
X191500D02*
D03*
X181500D02*
D03*
X191000Y123500D02*
D03*
X201000D02*
D03*
X211000D02*
D03*
D34*
X99500Y76000D02*
D03*
X51500Y28000D02*
D03*
X109500Y52000D02*
D03*
X51500Y76000D02*
D03*
X99500Y28000D02*
D03*
Y284000D02*
D03*
X51500Y332000D02*
D03*
X109500Y308000D02*
D03*
X51500Y284000D02*
D03*
X99500Y332000D02*
D03*
X295000Y75500D02*
D03*
X343000Y27500D02*
D03*
X285000Y51500D02*
D03*
X343000Y75500D02*
D03*
X295000Y27500D02*
D03*
X296500Y331500D02*
D03*
X344500Y283500D02*
D03*
X286500Y307500D02*
D03*
X344500Y331500D02*
D03*
X296500Y283500D02*
D03*
D35*
X172000Y349500D02*
D03*
X221500Y350000D02*
D03*
D36*
X182000Y349500D02*
D03*
X211500Y350000D02*
D03*
D37*
X136500Y38000D02*
D03*
Y292500D02*
D03*
X248000Y37500D02*
D03*
X249500Y291000D02*
D03*
D38*
X146500Y38000D02*
D03*
Y68000D02*
D03*
X136500D02*
D03*
X146500Y292500D02*
D03*
Y322500D02*
D03*
X136500D02*
D03*
X258000Y37500D02*
D03*
Y67500D02*
D03*
X248000D02*
D03*
X259500Y291000D02*
D03*
Y321000D02*
D03*
X249500D02*
D03*
D39*
X178500Y46000D02*
D03*
Y56000D02*
D03*
Y66000D02*
D03*
Y298000D02*
D03*
Y308000D02*
D03*
Y318000D02*
D03*
X210500Y45000D02*
D03*
Y55000D02*
D03*
Y65000D02*
D03*
X212000Y297000D02*
D03*
Y307000D02*
D03*
Y317000D02*
D03*
M02*
