G04*
G04 #@! TF.GenerationSoftware,Altium Limited,Altium Designer,18.0.7 (293)*
G04*
G04 Layer_Color=2752767*
%FSLAX25Y25*%
%MOIN*%
G70*
G01*
G75*
%ADD61C,0.00200*%
%ADD62C,0.00267*%
D61*
X180700Y27700D02*
Y29300D01*
X182300D01*
Y27700D01*
X180700D01*
Y17700D02*
Y19300D01*
X182300D01*
Y17700D01*
X180700D01*
X205700Y27200D02*
Y28800D01*
X207300D01*
Y27200D01*
X205700D01*
Y17200D02*
Y18800D01*
X207300D01*
Y17200D01*
X205700D01*
X228500Y17700D02*
X227700Y19300D01*
X229300D01*
X228500Y17700D01*
X263500D02*
X262700Y19300D01*
X264300D01*
X263500Y17700D01*
X11200Y244200D02*
Y245800D01*
X12800D01*
Y244200D01*
X11200D01*
Y236200D02*
Y237800D01*
X12800D01*
Y236200D01*
X11200D01*
X376500Y59200D02*
X376900Y59600D01*
X377300D01*
X376900Y60000D01*
X377300Y60400D01*
X376900D01*
X376500Y60800D01*
X376100Y60400D01*
X375700D01*
X376100Y60000D01*
X375700Y59600D01*
X376100D01*
X376500Y59200D01*
Y39200D02*
X376900Y39600D01*
X377300D01*
X376900Y40000D01*
X377300Y40400D01*
X376900D01*
X376500Y40800D01*
X376100Y40400D01*
X375700D01*
X376100Y40000D01*
X375700Y39600D01*
X376100D01*
X376500Y39200D01*
X274700Y180700D02*
X275100Y181500D01*
X274700Y182300D01*
X275500Y181900D01*
X276300Y182300D01*
X275900Y181500D01*
X276300Y180700D01*
X275500Y181100D01*
X274700Y180700D01*
Y170700D02*
X275100Y171500D01*
X274700Y172300D01*
X275500Y171900D01*
X276300Y172300D01*
X275900Y171500D01*
X276300Y170700D01*
X275500Y171100D01*
X274700Y170700D01*
Y160700D02*
X275100Y161500D01*
X274700Y162300D01*
X275500Y161900D01*
X276300Y162300D01*
X275900Y161500D01*
X276300Y160700D01*
X275500Y161100D01*
X274700Y160700D01*
Y150700D02*
X275100Y151500D01*
X274700Y152300D01*
X275500Y151900D01*
X276300Y152300D01*
X275900Y151500D01*
X276300Y150700D01*
X275500Y151100D01*
X274700Y150700D01*
X210350Y186700D02*
X210750Y187500D01*
X210350Y188300D01*
X211150Y187900D01*
X211950Y188300D01*
X211550Y187500D01*
X211950Y186700D01*
X211150Y187100D01*
X210350Y186700D01*
X200350D02*
X200750Y187500D01*
X200350Y188300D01*
X201150Y187900D01*
X201950Y188300D01*
X201550Y187500D01*
X201950Y186700D01*
X201150Y187100D01*
X200350Y186700D01*
X190350D02*
X190750Y187500D01*
X190350Y188300D01*
X191150Y187900D01*
X191950Y188300D01*
X191550Y187500D01*
X191950Y186700D01*
X191150Y187100D01*
X190350Y186700D01*
X180350D02*
X180750Y187500D01*
X180350Y188300D01*
X181150Y187900D01*
X181950Y188300D01*
X181550Y187500D01*
X181950Y186700D01*
X181150Y187100D01*
X180350Y186700D01*
X210700Y154200D02*
X211100Y155000D01*
X210700Y155800D01*
X211500Y155400D01*
X212300Y155800D01*
X211900Y155000D01*
X212300Y154200D01*
X211500Y154600D01*
X210700Y154200D01*
X200700D02*
X201100Y155000D01*
X200700Y155800D01*
X201500Y155400D01*
X202300Y155800D01*
X201900Y155000D01*
X202300Y154200D01*
X201500Y154600D01*
X200700Y154200D01*
X190700D02*
X191100Y155000D01*
X190700Y155800D01*
X191500Y155400D01*
X192300Y155800D01*
X191900Y155000D01*
X192300Y154200D01*
X191500Y154600D01*
X190700Y154200D01*
X180700D02*
X181100Y155000D01*
X180700Y155800D01*
X181500Y155400D01*
X182300Y155800D01*
X181900Y155000D01*
X182300Y154200D01*
X181500Y154600D01*
X180700Y154200D01*
X180200Y122700D02*
X180600Y123500D01*
X180200Y124300D01*
X181000Y123900D01*
X181800Y124300D01*
X181400Y123500D01*
X181800Y122700D01*
X181000Y123100D01*
X180200Y122700D01*
X190200D02*
X190600Y123500D01*
X190200Y124300D01*
X191000Y123900D01*
X191800Y124300D01*
X191400Y123500D01*
X191800Y122700D01*
X191000Y123100D01*
X190200Y122700D01*
X200200D02*
X200600Y123500D01*
X200200Y124300D01*
X201000Y123900D01*
X201800Y124300D01*
X201400Y123500D01*
X201800Y122700D01*
X201000Y123100D01*
X200200Y122700D01*
X210200D02*
X210600Y123500D01*
X210200Y124300D01*
X211000Y123900D01*
X211800Y124300D01*
X211400Y123500D01*
X211800Y122700D01*
X211000Y123100D01*
X210200Y122700D01*
X16500Y299700D02*
X16900Y300100D01*
X17300D01*
X16900Y300500D01*
X17300Y300900D01*
X16900D01*
X16500Y301300D01*
X16100Y300900D01*
X15700D01*
X16100Y300500D01*
X15700Y300100D01*
X16100D01*
X16500Y299700D01*
Y319700D02*
X16900Y320100D01*
X17300D01*
X16900Y320500D01*
X17300Y320900D01*
X16900D01*
X16500Y321300D01*
X16100Y320900D01*
X15700D01*
X16100Y320500D01*
X15700Y320100D01*
X16100D01*
X16500Y319700D01*
Y38700D02*
X16900Y39100D01*
X17300D01*
X16900Y39500D01*
X17300Y39900D01*
X16900D01*
X16500Y40300D01*
X16100Y39900D01*
X15700D01*
X16100Y39500D01*
X15700Y39100D01*
X16100D01*
X16500Y38700D01*
Y58700D02*
X16900Y59100D01*
X17300D01*
X16900Y59500D01*
X17300Y59900D01*
X16900D01*
X16500Y60300D01*
X16100Y59900D01*
X15700D01*
X16100Y59500D01*
X15700Y59100D01*
X16100D01*
X16500Y58700D01*
X378500Y320200D02*
X378900Y320600D01*
X379300D01*
X378900Y321000D01*
X379300Y321400D01*
X378900D01*
X378500Y321800D01*
X378100Y321400D01*
X377700D01*
X378100Y321000D01*
X377700Y320600D01*
X378100D01*
X378500Y320200D01*
Y300200D02*
X378900Y300600D01*
X379300D01*
X378900Y301000D01*
X379300Y301400D01*
X378900D01*
X378500Y301800D01*
X378100Y301400D01*
X377700D01*
X378100Y301000D01*
X377700Y300600D01*
X378100D01*
X378500Y300200D01*
X159500Y20200D02*
X158700Y21800D01*
X160300D01*
X159500Y20200D01*
X124500D02*
X123700Y21800D01*
X125300D01*
X124500Y20200D01*
X99100Y75600D02*
Y75200D01*
X99900D01*
Y75600D01*
X100300D01*
Y76400D01*
X99900D01*
Y76800D01*
X99100D01*
Y76400D01*
X98700D01*
Y75600D01*
X99100D01*
X51100Y27600D02*
Y27200D01*
X51900D01*
Y27600D01*
X52300D01*
Y28400D01*
X51900D01*
Y28800D01*
X51100D01*
Y28400D01*
X50700D01*
Y27600D01*
X51100D01*
X109100Y51600D02*
Y51200D01*
X109900D01*
Y51600D01*
X110300D01*
Y52400D01*
X109900D01*
Y52800D01*
X109100D01*
Y52400D01*
X108700D01*
Y51600D01*
X109100D01*
X51100Y75600D02*
Y75200D01*
X51900D01*
Y75600D01*
X52300D01*
Y76400D01*
X51900D01*
Y76800D01*
X51100D01*
Y76400D01*
X50700D01*
Y75600D01*
X51100D01*
X99100Y27600D02*
Y27200D01*
X99900D01*
Y27600D01*
X100300D01*
Y28400D01*
X99900D01*
Y28800D01*
X99100D01*
Y28400D01*
X98700D01*
Y27600D01*
X99100D01*
X121000Y349200D02*
X120200Y350800D01*
X121800D01*
X121000Y349200D01*
X156000D02*
X155200Y350800D01*
X156800D01*
X156000Y349200D01*
X171200Y348700D02*
Y350300D01*
X172800D01*
Y348700D01*
X171200D01*
X181200D02*
Y350300D01*
X182800D01*
Y348700D01*
X181200D01*
X271000Y349700D02*
X270200Y351300D01*
X271800D01*
X271000Y349700D01*
X236000D02*
X235200Y351300D01*
X236800D01*
X236000Y349700D01*
X233000Y287200D02*
X232200Y288800D01*
X233800D01*
X233000Y287200D01*
Y322200D02*
X232200Y323800D01*
X233800D01*
X233000Y322200D01*
X220700Y349200D02*
Y350800D01*
X222300D01*
Y349200D01*
X220700D01*
X210700D02*
Y350800D01*
X212300D01*
Y349200D01*
X210700D01*
X21700Y118200D02*
Y119800D01*
X23300D01*
Y118200D01*
X21700D01*
Y110200D02*
Y111800D01*
X23300D01*
Y110200D01*
X21700D01*
X380700Y134200D02*
Y135800D01*
X382300D01*
Y134200D01*
X380700D01*
Y126200D02*
Y127800D01*
X382300D01*
Y126200D01*
X380700D01*
X362700Y238700D02*
Y240300D01*
X364300D01*
Y238700D01*
X362700D01*
Y246700D02*
Y248300D01*
X364300D01*
Y246700D01*
X362700D01*
X136500Y37200D02*
X135700Y38800D01*
X137300D01*
X136500Y37200D01*
X146500D02*
X145700Y38800D01*
X147300D01*
X146500Y37200D01*
Y67200D02*
X145700Y68800D01*
X147300D01*
X146500Y67200D01*
X136500D02*
X135700Y68800D01*
X137300D01*
X136500Y67200D01*
Y291700D02*
X135700Y293300D01*
X137300D01*
X136500Y291700D01*
X146500D02*
X145700Y293300D01*
X147300D01*
X146500Y291700D01*
Y321700D02*
X145700Y323300D01*
X147300D01*
X146500Y321700D01*
X136500D02*
X135700Y323300D01*
X137300D01*
X136500Y321700D01*
X172500Y236200D02*
X171700Y237800D01*
X173300D01*
X172500Y236200D01*
Y201200D02*
X171700Y202800D01*
X173300D01*
X172500Y201200D01*
X189167Y236200D02*
X188367Y237800D01*
X189967D01*
X189167Y236200D01*
Y201200D02*
X188367Y202800D01*
X189967D01*
X189167Y201200D01*
X248000Y36700D02*
X247200Y38300D01*
X248800D01*
X248000Y36700D01*
X258000D02*
X257200Y38300D01*
X258800D01*
X258000Y36700D01*
Y66700D02*
X257200Y68300D01*
X258800D01*
X258000Y66700D01*
X248000D02*
X247200Y68300D01*
X248800D01*
X248000Y66700D01*
X249500Y290200D02*
X248700Y291800D01*
X250300D01*
X249500Y290200D01*
X259500D02*
X258700Y291800D01*
X260300D01*
X259500Y290200D01*
Y320200D02*
X258700Y321800D01*
X260300D01*
X259500Y320200D01*
X249500D02*
X248700Y321800D01*
X250300D01*
X249500Y320200D01*
X222500Y236200D02*
X221700Y237800D01*
X223300D01*
X222500Y236200D01*
Y201200D02*
X221700Y202800D01*
X223300D01*
X222500Y201200D01*
X205833Y236200D02*
X205033Y237800D01*
X206633D01*
X205833Y236200D01*
Y201200D02*
X205033Y202800D01*
X206633D01*
X205833Y201200D01*
X275200Y190700D02*
X275600Y191500D01*
X275200Y192300D01*
X276000Y191900D01*
X276800Y192300D01*
X276400Y191500D01*
X276800Y190700D01*
X276000Y191100D01*
X275200Y190700D01*
Y200700D02*
X275600Y201500D01*
X275200Y202300D01*
X276000Y201900D01*
X276800Y202300D01*
X276400Y201500D01*
X276800Y200700D01*
X276000Y201100D01*
X275200Y200700D01*
Y210700D02*
X275600Y211500D01*
X275200Y212300D01*
X276000Y211900D01*
X276800Y212300D01*
X276400Y211500D01*
X276800Y210700D01*
X276000Y211100D01*
X275200Y210700D01*
Y220700D02*
X275600Y221500D01*
X275200Y222300D01*
X276000Y221900D01*
X276800Y222300D01*
X276400Y221500D01*
X276800Y220700D01*
X276000Y221100D01*
X275200Y220700D01*
X99100Y283600D02*
Y283200D01*
X99900D01*
Y283600D01*
X100300D01*
Y284400D01*
X99900D01*
Y284800D01*
X99100D01*
Y284400D01*
X98700D01*
Y283600D01*
X99100D01*
X51100Y331600D02*
Y331200D01*
X51900D01*
Y331600D01*
X52300D01*
Y332400D01*
X51900D01*
Y332800D01*
X51100D01*
Y332400D01*
X50700D01*
Y331600D01*
X51100D01*
X109100Y307600D02*
Y307200D01*
X109900D01*
Y307600D01*
X110300D01*
Y308400D01*
X109900D01*
Y308800D01*
X109100D01*
Y308400D01*
X108700D01*
Y307600D01*
X109100D01*
X51100Y283600D02*
Y283200D01*
X51900D01*
Y283600D01*
X52300D01*
Y284400D01*
X51900D01*
Y284800D01*
X51100D01*
Y284400D01*
X50700D01*
Y283600D01*
X51100D01*
X99100Y331600D02*
Y331200D01*
X99900D01*
Y331600D01*
X100300D01*
Y332400D01*
X99900D01*
Y332800D01*
X99100D01*
Y332400D01*
X98700D01*
Y331600D01*
X99100D01*
X161500Y68700D02*
X160700Y70300D01*
X162300D01*
X161500Y68700D01*
Y33700D02*
X160700Y35300D01*
X162300D01*
X161500Y33700D01*
Y322700D02*
X160700Y324300D01*
X162300D01*
X161500Y322700D01*
Y287700D02*
X160700Y289300D01*
X162300D01*
X161500Y287700D01*
X177700Y45200D02*
Y46800D01*
X179300D01*
Y45200D01*
X177700D01*
Y55200D02*
Y56800D01*
X179300D01*
Y55200D01*
X177700D01*
Y65200D02*
Y66800D01*
X179300D01*
Y65200D01*
X177700D01*
Y297200D02*
Y298800D01*
X179300D01*
Y297200D01*
X177700D01*
Y307200D02*
Y308800D01*
X179300D01*
Y307200D01*
X177700D01*
Y317200D02*
Y318800D01*
X179300D01*
Y317200D01*
X177700D01*
X294600Y75100D02*
Y74700D01*
X295400D01*
Y75100D01*
X295800D01*
Y75900D01*
X295400D01*
Y76300D01*
X294600D01*
Y75900D01*
X294200D01*
Y75100D01*
X294600D01*
X342600Y27100D02*
Y26700D01*
X343400D01*
Y27100D01*
X343800D01*
Y27900D01*
X343400D01*
Y28300D01*
X342600D01*
Y27900D01*
X342200D01*
Y27100D01*
X342600D01*
X284600Y51100D02*
Y50700D01*
X285400D01*
Y51100D01*
X285800D01*
Y51900D01*
X285400D01*
Y52300D01*
X284600D01*
Y51900D01*
X284200D01*
Y51100D01*
X284600D01*
X342600Y75100D02*
Y74700D01*
X343400D01*
Y75100D01*
X343800D01*
Y75900D01*
X343400D01*
Y76300D01*
X342600D01*
Y75900D01*
X342200D01*
Y75100D01*
X342600D01*
X294600Y27100D02*
Y26700D01*
X295400D01*
Y27100D01*
X295800D01*
Y27900D01*
X295400D01*
Y28300D01*
X294600D01*
Y27900D01*
X294200D01*
Y27100D01*
X294600D01*
X296100Y331100D02*
Y330700D01*
X296900D01*
Y331100D01*
X297300D01*
Y331900D01*
X296900D01*
Y332300D01*
X296100D01*
Y331900D01*
X295700D01*
Y331100D01*
X296100D01*
X344100Y283100D02*
Y282700D01*
X344900D01*
Y283100D01*
X345300D01*
Y283900D01*
X344900D01*
Y284300D01*
X344100D01*
Y283900D01*
X343700D01*
Y283100D01*
X344100D01*
X286100Y307100D02*
Y306700D01*
X286900D01*
Y307100D01*
X287300D01*
Y307900D01*
X286900D01*
Y308300D01*
X286100D01*
Y307900D01*
X285700D01*
Y307100D01*
X286100D01*
X344100Y331100D02*
Y330700D01*
X344900D01*
Y331100D01*
X345300D01*
Y331900D01*
X344900D01*
Y332300D01*
X344100D01*
Y331900D01*
X343700D01*
Y331100D01*
X344100D01*
X296100Y283100D02*
Y282700D01*
X296900D01*
Y283100D01*
X297300D01*
Y283900D01*
X296900D01*
Y284300D01*
X296100D01*
Y283900D01*
X295700D01*
Y283100D01*
X296100D01*
X231500Y67700D02*
X230700Y69300D01*
X232300D01*
X231500Y67700D01*
Y32700D02*
X230700Y34300D01*
X232300D01*
X231500Y32700D01*
X209700Y44200D02*
Y45800D01*
X211300D01*
Y44200D01*
X209700D01*
Y54200D02*
Y55800D01*
X211300D01*
Y54200D01*
X209700D01*
Y64200D02*
Y65800D01*
X211300D01*
Y64200D01*
X209700D01*
X211200Y296200D02*
Y297800D01*
X212800D01*
Y296200D01*
X211200D01*
Y306200D02*
Y307800D01*
X212800D01*
Y306200D01*
X211200D01*
Y316200D02*
Y317800D01*
X212800D01*
Y316200D01*
X211200D01*
X33000Y276700D02*
X33400Y277100D01*
X33800D01*
X33400Y277500D01*
X33800Y277900D01*
X33400D01*
X33000Y278300D01*
X32600Y277900D01*
X32200D01*
X32600Y277500D01*
X32200Y277100D01*
X32600D01*
X33000Y276700D01*
X243000Y103700D02*
X243400Y104100D01*
X243800D01*
X243400Y104500D01*
X243800Y104900D01*
X243400D01*
X243000Y105300D01*
X242600Y104900D01*
X242200D01*
X242600Y104500D01*
X242200Y104100D01*
X242600D01*
X243000Y103700D01*
X199000D02*
X199400Y104100D01*
X199800D01*
X199400Y104500D01*
X199800Y104900D01*
X199400D01*
X199000Y105300D01*
X198600Y104900D01*
X198200D01*
X198600Y104500D01*
X198200Y104100D01*
X198600D01*
X199000Y103700D01*
X16500Y23200D02*
X16900Y23600D01*
X17300D01*
X16900Y24000D01*
X17300Y24400D01*
X16900D01*
X16500Y24800D01*
X16100Y24400D01*
X15700D01*
X16100Y24000D01*
X15700Y23600D01*
X16100D01*
X16500Y23200D01*
X380000Y220700D02*
X380400Y221100D01*
X380800D01*
X380400Y221500D01*
X380800Y221900D01*
X380400D01*
X380000Y222300D01*
X379600Y221900D01*
X379200D01*
X379600Y221500D01*
X379200Y221100D01*
X379600D01*
X380000Y220700D01*
X72000Y133700D02*
X72400Y134100D01*
X72800D01*
X72400Y134500D01*
X72800Y134900D01*
X72400D01*
X72000Y135300D01*
X71600Y134900D01*
X71200D01*
X71600Y134500D01*
X71200Y134100D01*
X71600D01*
X72000Y133700D01*
Y111700D02*
X72400Y112100D01*
X72800D01*
X72400Y112500D01*
X72800Y112900D01*
X72400D01*
X72000Y113300D01*
X71600Y112900D01*
X71200D01*
X71600Y112500D01*
X71200Y112100D01*
X71600D01*
X72000Y111700D01*
X134000Y155700D02*
X134400Y156100D01*
X134800D01*
X134400Y156500D01*
X134800Y156900D01*
X134400D01*
X134000Y157300D01*
X133600Y156900D01*
X133200D01*
X133600Y156500D01*
X133200Y156100D01*
X133600D01*
X134000Y155700D01*
X365500Y285700D02*
X365900Y286100D01*
X366300D01*
X365900Y286500D01*
X366300Y286900D01*
X365900D01*
X365500Y287300D01*
X365100Y286900D01*
X364700D01*
X365100Y286500D01*
X364700Y286100D01*
X365100D01*
X365500Y285700D01*
X383500D02*
X383900Y286100D01*
X384300D01*
X383900Y286500D01*
X384300Y286900D01*
X383900D01*
X383500Y287300D01*
X383100Y286900D01*
X382700D01*
X383100Y286500D01*
X382700Y286100D01*
X383100D01*
X383500Y285700D01*
X323500Y111200D02*
X323900Y111600D01*
X324300D01*
X323900Y112000D01*
X324300Y112400D01*
X323900D01*
X323500Y112800D01*
X323100Y112400D01*
X322700D01*
X323100Y112000D01*
X322700Y111600D01*
X323100D01*
X323500Y111200D01*
X78000Y15200D02*
X78400Y15600D01*
X78800D01*
X78400Y16000D01*
X78800Y16400D01*
X78400D01*
X78000Y16800D01*
X77600Y16400D01*
X77200D01*
X77600Y16000D01*
X77200Y15600D01*
X77600D01*
X78000Y15200D01*
X231000Y139700D02*
X231400Y140100D01*
X231800D01*
X231400Y140500D01*
X231800Y140900D01*
X231400D01*
X231000Y141300D01*
X230600Y140900D01*
X230200D01*
X230600Y140500D01*
X230200Y140100D01*
X230600D01*
X231000Y139700D01*
X232000Y129700D02*
X232400Y130100D01*
X232800D01*
X232400Y130500D01*
X232800Y130900D01*
X232400D01*
X232000Y131300D01*
X231600Y130900D01*
X231200D01*
X231600Y130500D01*
X231200Y130100D01*
X231600D01*
X232000Y129700D01*
X44500Y265700D02*
X44900Y266100D01*
X45300D01*
X44900Y266500D01*
X45300Y266900D01*
X44900D01*
X44500Y267300D01*
X44100Y266900D01*
X43700D01*
X44100Y266500D01*
X43700Y266100D01*
X44100D01*
X44500Y265700D01*
X45500Y239200D02*
X45900Y239600D01*
X46300D01*
X45900Y240000D01*
X46300Y240400D01*
X45900D01*
X45500Y240800D01*
X45100Y240400D01*
X44700D01*
X45100Y240000D01*
X44700Y239600D01*
X45100D01*
X45500Y239200D01*
X97000Y141200D02*
X97400Y141600D01*
X97800D01*
X97400Y142000D01*
X97800Y142400D01*
X97400D01*
X97000Y142800D01*
X96600Y142400D01*
X96200D01*
X96600Y142000D01*
X96200Y141600D01*
X96600D01*
X97000Y141200D01*
X271500Y76629D02*
X271900Y77029D01*
X272300D01*
X271900Y77429D01*
X272300Y77829D01*
X271900D01*
X271500Y78229D01*
X271100Y77829D01*
X270700D01*
X271100Y77429D01*
X270700Y77029D01*
X271100D01*
X271500Y76629D01*
X384000Y76200D02*
X384400Y76600D01*
X384800D01*
X384400Y77000D01*
X384800Y77400D01*
X384400D01*
X384000Y77800D01*
X383600Y77400D01*
X383200D01*
X383600Y77000D01*
X383200Y76600D01*
X383600D01*
X384000Y76200D01*
X359500Y75200D02*
X359900Y75600D01*
X360300D01*
X359900Y76000D01*
X360300Y76400D01*
X359900D01*
X359500Y76800D01*
X359100Y76400D01*
X358700D01*
X359100Y76000D01*
X358700Y75600D01*
X359100D01*
X359500Y75200D01*
X44500Y90200D02*
X44900Y90600D01*
X45300D01*
X44900Y91000D01*
X45300Y91400D01*
X44900D01*
X44500Y91800D01*
X44100Y91400D01*
X43700D01*
X44100Y91000D01*
X43700Y90600D01*
X44100D01*
X44500Y90200D01*
X34000Y75200D02*
X34400Y75600D01*
X34800D01*
X34400Y76000D01*
X34800Y76400D01*
X34400D01*
X34000Y76800D01*
X33600Y76400D01*
X33200D01*
X33600Y76000D01*
X33200Y75600D01*
X33600D01*
X34000Y75200D01*
D62*
X271800Y69000D02*
X271247Y69761D01*
X270353Y69470D01*
Y68530D01*
X271247Y68239D01*
X271800Y69000D01*
Y34000D02*
X271247Y34761D01*
X270353Y34470D01*
Y33530D01*
X271247Y33239D01*
X271800Y34000D01*
X123300Y70000D02*
X122747Y70761D01*
X121853Y70470D01*
Y69530D01*
X122747Y69239D01*
X123300Y70000D01*
Y35000D02*
X122747Y35761D01*
X121853Y35470D01*
Y34530D01*
X122747Y34239D01*
X123300Y35000D01*
Y324500D02*
X122747Y325261D01*
X121853Y324970D01*
Y324030D01*
X122747Y323739D01*
X123300Y324500D01*
Y289500D02*
X122747Y290261D01*
X121853Y289970D01*
Y289030D01*
X122747Y288739D01*
X123300Y289500D01*
X273800Y288500D02*
X273247Y289261D01*
X272353Y288970D01*
Y288030D01*
X273247Y287739D01*
X273800Y288500D01*
Y323500D02*
X273247Y324261D01*
X272353Y323970D01*
Y323030D01*
X273247Y322739D01*
X273800Y323500D01*
M02*
