G04*
G04 #@! TF.GenerationSoftware,Altium Limited,Altium Designer,18.0.7 (293)*
G04*
G04 Layer_Color=65535*
%FSTAX24Y24*%
%MOIN*%
G70*
G01*
G75*
%ADD10C,0.0070*%
%ADD11C,0.0060*%
%ADD12C,0.0079*%
%ADD13C,0.0070*%
%ADD14C,0.0150*%
%ADD15C,0.0080*%
%ADD16C,0.0100*%
%ADD17R,0.1000X0.0200*%
G36*
X048545Y020855D02*
X049255D01*
X048905Y021205D01*
Y021215D01*
X048545Y020855D01*
D02*
G37*
G36*
X052305Y026995D02*
X051595D01*
X051945Y026645D01*
Y026635D01*
X052305Y026995D01*
D02*
G37*
G36*
X05227Y030245D02*
X05156D01*
X05191Y029895D01*
Y029885D01*
X05227Y030245D01*
D02*
G37*
G36*
X056855Y028505D02*
Y027795D01*
X057205Y028145D01*
X057215D01*
X056855Y028505D01*
D02*
G37*
G36*
X056905Y032505D02*
Y031795D01*
X057255Y032145D01*
X057265D01*
X056905Y032505D01*
D02*
G37*
D10*
X048548Y013027D02*
G03*
X049347Y013026I000398J-000679D01*
G01*
X051048Y012977D02*
G03*
X051847Y012976I000398J-000679D01*
G01*
X049177Y045352D02*
G03*
X049176Y044553I-000679J-000398D01*
G01*
X051773Y044598D02*
G03*
X051774Y045397I000679J000398D01*
G01*
D11*
X03245Y03465D02*
G03*
X03225Y03485I-0002J0D01*
G01*
X03175D02*
G03*
X03155Y03465I0J-0002D01*
G01*
Y03355D02*
G03*
X03175Y03335I0002J0D01*
G01*
X03225D02*
G03*
X03245Y03355I0J0002D01*
G01*
X0328Y02225D02*
G03*
X0326Y02205I0J-0002D01*
G01*
X0335D02*
G03*
X0333Y02225I-0002J0D01*
G01*
Y02075D02*
G03*
X0335Y02095I0J0002D01*
G01*
X0326D02*
G03*
X0328Y02075I0002J0D01*
G01*
X0687Y02385D02*
G03*
X0685Y02365I0J-0002D01*
G01*
X0694D02*
G03*
X0692Y02385I-0002J0D01*
G01*
Y02235D02*
G03*
X0694Y02255I0J0002D01*
G01*
X0685D02*
G03*
X0687Y02235I0002J0D01*
G01*
X0674Y0336D02*
G03*
X0676Y0338I0J0002D01*
G01*
X0667D02*
G03*
X0669Y0336I0002J0D01*
G01*
Y0351D02*
G03*
X0667Y0349I0J-0002D01*
G01*
X0676D02*
G03*
X0674Y0351I-0002J0D01*
G01*
X03175Y03485D02*
X03225D01*
X03175Y03335D02*
X03225D01*
X03155Y03355D02*
Y03465D01*
X03245Y03355D02*
Y03465D01*
X0326Y02095D02*
Y02205D01*
X0335Y02095D02*
Y02205D01*
X0328Y02225D02*
X0333D01*
X0328Y02075D02*
X0333D01*
X0685Y02255D02*
Y02365D01*
X0694Y02255D02*
Y02365D01*
X0687Y02385D02*
X0692D01*
X0687Y02235D02*
X0692D01*
X0676Y0338D02*
Y0349D01*
X0667Y0338D02*
Y0349D01*
X0669Y0336D02*
X0674D01*
X0669Y0351D02*
X0674D01*
D12*
X06745Y020227D02*
G03*
X06745Y020477I0J000125D01*
G01*
X0316Y018627D02*
G03*
X0316Y018877I0J000125D01*
G01*
X03345Y037027D02*
G03*
X03345Y036777I0J-000125D01*
G01*
X0691Y036977D02*
G03*
X0691Y036727I0J-000125D01*
G01*
X06745Y019923D02*
Y020227D01*
Y020477D02*
Y020782D01*
X06945D01*
Y019923D02*
Y020782D01*
X06745Y019923D02*
X06945D01*
X0316Y018323D02*
X0336D01*
Y019181D01*
X0316D02*
X0336D01*
X0316Y018877D02*
Y019181D01*
Y018323D02*
Y018627D01*
X03145Y037332D02*
X03345D01*
X03145Y036473D02*
Y037332D01*
Y036473D02*
X03345D01*
Y036777D01*
Y037027D02*
Y037332D01*
X0671Y037281D02*
X0691D01*
X0671Y036423D02*
Y037281D01*
Y036423D02*
X0691D01*
Y036727D01*
Y036977D02*
Y037281D01*
D13*
X04046Y01579D02*
G03*
X04045Y01463I000575J-000585D01*
G01*
X038686Y0152D02*
G03*
X038686Y0152I-000178J0D01*
G01*
X036576Y01454D02*
G03*
X036576Y01454I-000178J0D01*
G01*
X036586Y01605D02*
G03*
X036586Y01605I-000178J0D01*
G01*
X043946Y0148D02*
G03*
X04395Y0158I000017J0005D01*
G01*
X043946Y04025D02*
G03*
X04395Y04125I000017J0005D01*
G01*
X055096Y01475D02*
G03*
X0551Y01575I000017J0005D01*
G01*
X055246Y0401D02*
G03*
X05525Y0411I000017J0005D01*
G01*
X036586Y04165D02*
G03*
X036586Y04165I-000178J0D01*
G01*
X036576Y04014D02*
G03*
X036576Y04014I-000178J0D01*
G01*
X038686Y0408D02*
G03*
X038686Y0408I-000178J0D01*
G01*
X04046Y04139D02*
G03*
X04045Y04023I000575J-000585D01*
G01*
X04905Y014401D02*
G03*
X049082Y016765I-000524J00119D01*
G01*
X04905Y039601D02*
G03*
X049082Y041965I-000524J00119D01*
G01*
X06482Y0143D02*
G03*
X06482Y0143I-000178J0D01*
G01*
X06483Y01581D02*
G03*
X06483Y01581I-000178J0D01*
G01*
X06272Y01515D02*
G03*
X06272Y01515I-000178J0D01*
G01*
X06059Y01456D02*
G03*
X0606Y01572I-000575J000585D01*
G01*
X06497Y0399D02*
G03*
X06497Y0399I-000178J0D01*
G01*
X06498Y04141D02*
G03*
X06498Y04141I-000178J0D01*
G01*
X06287Y04075D02*
G03*
X06287Y04075I-000178J0D01*
G01*
X06074Y04016D02*
G03*
X06075Y04132I-000575J000585D01*
G01*
X05225Y014301D02*
G03*
X052282Y016665I-000524J00119D01*
G01*
X0524Y039501D02*
G03*
X052432Y041865I-000524J00119D01*
G01*
X04863Y01248D02*
X04929D01*
X04895D02*
X04924Y01219D01*
X04866D02*
X04895Y01248D01*
X048552Y013029D02*
X049343D01*
X04831Y01248D02*
X04848Y01231D01*
X04834Y01264D02*
X04851Y01247D01*
X05113Y01243D02*
X05179D01*
X05145D02*
X05174Y01214D01*
X05116D02*
X05145Y01243D01*
X051052Y012979D02*
X051843D01*
X05081Y01243D02*
X05098Y01226D01*
X05084Y01259D02*
X05101Y01242D01*
X05774Y01615D02*
X0579D01*
X05811D01*
X0574Y01574D02*
X05837D01*
X0579Y01615D02*
Y01645D01*
Y01385D02*
Y01415D01*
X0574Y01615D02*
X0579D01*
X0574Y01415D02*
Y01615D01*
Y01415D02*
X0584D01*
Y01615D01*
X0579D02*
X0584D01*
X05632Y01147D02*
Y01223D01*
X05447Y01147D02*
Y01223D01*
X05632D01*
X05413Y01185D02*
X05447D01*
Y01147D02*
X05632D01*
Y01185D02*
X05667D01*
X05737Y02515D02*
X05767D01*
Y02565D01*
X05737D02*
X05767D01*
X05735Y02763D02*
X05765D01*
Y02813D01*
X05735D02*
X05765D01*
X05975Y02415D02*
Y02915D01*
X05735Y02415D02*
X05835D01*
X05735D02*
Y02915D01*
X05975D01*
X05835Y02415D02*
X05975D01*
X048915Y02943D02*
Y02973D01*
Y02943D02*
X049415D01*
Y02973D01*
X051395Y02945D02*
Y02975D01*
Y02945D02*
X051895D01*
Y02975D01*
X047915Y02735D02*
X052915D01*
X047915Y02875D02*
Y02975D01*
X052915D01*
Y02735D02*
Y02975D01*
X047915Y02735D02*
Y02875D01*
X04895Y02618D02*
Y02648D01*
Y02618D02*
X04945D01*
Y02648D01*
X05143Y0262D02*
Y0265D01*
Y0262D02*
X05193D01*
Y0265D01*
X04795Y0241D02*
X05295D01*
X04795Y0255D02*
Y0265D01*
X05295D01*
Y0241D02*
Y0265D01*
X04795Y0241D02*
Y0255D01*
X0519Y02137D02*
Y02167D01*
X0514D02*
X0519D01*
X0514Y02137D02*
Y02167D01*
X04942Y02135D02*
Y02165D01*
X04892D02*
X04942D01*
X04892Y02135D02*
Y02165D01*
X0479Y02375D02*
X0529D01*
Y02135D02*
Y02235D01*
X0479Y02135D02*
X0529D01*
X0479D02*
Y02375D01*
X0529Y02235D02*
Y02375D01*
X04408Y01172D02*
Y01248D01*
X04593Y01172D02*
Y01248D01*
X04408Y01172D02*
X04593D01*
Y0121D02*
X04627D01*
X04408Y01248D02*
X04593D01*
X04373Y0121D02*
X04408D01*
X04046Y01348D02*
Y01462D01*
X04047Y0158D02*
Y01693D01*
X03649Y01481D02*
X03688Y0152D01*
X03831D01*
X03596Y01632D02*
X03623Y01605D01*
X03596Y01632D02*
Y01698D01*
Y01422D02*
X03622Y01448D01*
X03596Y01346D02*
Y01422D01*
X03475Y01205D02*
X04215D01*
X03475Y01835D02*
X04215D01*
Y01205D02*
Y01835D01*
X03475Y01205D02*
Y01835D01*
X03871Y01521D02*
X04104D01*
X04338Y045D02*
X04373D01*
Y04538D02*
X04558D01*
Y045D02*
X04592D01*
X04373Y04462D02*
X04558D01*
Y04538D01*
X04373Y04462D02*
Y04538D01*
X04862Y04539D02*
X04879Y04556D01*
X04846Y04542D02*
X04863Y04559D01*
X049179Y044557D02*
Y045348D01*
X04834Y04524D02*
X04863Y04495D01*
X04834Y04466D02*
X04863Y04495D01*
Y04461D02*
Y04527D01*
X05707Y04505D02*
X05742D01*
X05522Y04467D02*
X05707D01*
X05488Y04505D02*
X05522D01*
Y04543D02*
X05707D01*
X05522Y04467D02*
Y04543D01*
X05707Y04467D02*
Y04543D01*
X05372Y04147D02*
X05448D01*
X05372Y03962D02*
X05448D01*
X05372D02*
Y04147D01*
X0541Y03928D02*
Y03962D01*
X05448D02*
Y04147D01*
X0541D02*
Y04182D01*
X05216Y04439D02*
X05233Y04456D01*
X05232Y04436D02*
X05249Y04453D01*
X051771Y044602D02*
Y045393D01*
X05232Y045D02*
X05261Y04471D01*
X05232Y045D02*
X05261Y04529D01*
X05232Y04468D02*
Y04534D01*
X04395Y0173D02*
X04595D01*
Y0133D02*
Y0173D01*
X04395Y0133D02*
X04595D01*
X04395Y01581D02*
Y0173D01*
Y0133D02*
Y0148D01*
Y04275D02*
X04595D01*
Y03875D02*
Y04275D01*
X04395Y03875D02*
X04595D01*
X04395Y04126D02*
Y04275D01*
Y03875D02*
Y04025D01*
X04805Y03287D02*
Y03322D01*
X04843Y03102D02*
Y03287D01*
X04805Y03068D02*
Y03102D01*
X04767D02*
Y03287D01*
Y03102D02*
X04843D01*
X04767Y03287D02*
X04843D01*
X049717D02*
Y03322D01*
X050097Y03102D02*
Y03287D01*
X049717Y03068D02*
Y03102D01*
X049337D02*
Y03287D01*
Y03102D02*
X050097D01*
X049337Y03287D02*
X050097D01*
X0551Y01725D02*
X0571D01*
Y01325D02*
Y01725D01*
X0551Y01325D02*
X0571D01*
X0551Y01576D02*
Y01725D01*
Y01325D02*
Y01475D01*
X05525Y0426D02*
X05725D01*
Y0386D02*
Y0426D01*
X05525Y0386D02*
X05725D01*
X05525Y04111D02*
Y0426D01*
Y0386D02*
Y0401D01*
X05305Y03287D02*
Y03322D01*
X05343Y03102D02*
Y03287D01*
X05305Y03068D02*
Y03102D01*
X05267D02*
Y03287D01*
Y03102D02*
X05343D01*
X05267Y03287D02*
X05343D01*
X051383D02*
Y03322D01*
X051763Y03102D02*
Y03287D01*
X051383Y03068D02*
Y03102D01*
X051003D02*
Y03287D01*
Y03102D02*
X051763D01*
X051003Y03287D02*
X051763D01*
X0584Y02815D02*
X0598D01*
X0574Y03315D02*
X0598D01*
X0574Y02815D02*
Y03315D01*
Y02815D02*
X0584D01*
X0598D02*
Y03315D01*
X0574Y03213D02*
X0577D01*
Y03163D02*
Y03213D01*
X0574Y03163D02*
X0577D01*
X05742Y02965D02*
X05772D01*
Y02915D02*
Y02965D01*
X05742Y02915D02*
X05772D01*
X03871Y04081D02*
X04104D01*
X03475Y03765D02*
Y04395D01*
X04215Y03765D02*
Y04395D01*
X03475D02*
X04215D01*
X03475Y03765D02*
X04215D01*
X03596Y03906D02*
Y03982D01*
X03622Y04008D01*
X03596Y04192D02*
Y04258D01*
Y04192D02*
X03623Y04165D01*
X03688Y0408D02*
X03831D01*
X03649Y04041D02*
X03688Y0408D01*
X04047Y0414D02*
Y04253D01*
X04046Y03908D02*
Y04022D01*
X04255Y01425D02*
X04305D01*
X04255D02*
Y01625D01*
X04355D01*
Y01425D02*
Y01625D01*
X04305Y01425D02*
X04355D01*
X04305Y01625D02*
Y01655D01*
Y01395D02*
Y01425D01*
X04258Y01466D02*
X04355D01*
X04284Y01425D02*
X04305D01*
X04321D01*
X04255Y0397D02*
X04305D01*
X04255D02*
Y0417D01*
X04355D01*
Y0397D02*
Y0417D01*
X04305Y0397D02*
X04355D01*
X04305Y0417D02*
Y042D01*
Y0394D02*
Y0397D01*
X04258Y04011D02*
X04355D01*
X04284Y0397D02*
X04305D01*
X04321D01*
X04695Y01612D02*
Y01647D01*
X04733Y01427D02*
Y01612D01*
X04695Y01393D02*
Y01427D01*
X04657D02*
Y01612D01*
Y01427D02*
X04733D01*
X04657Y01612D02*
X04733D01*
X04695Y04152D02*
Y04187D01*
X04733Y03967D02*
Y04152D01*
X04695Y03933D02*
Y03967D01*
X04657D02*
Y04152D01*
Y03967D02*
X04733D01*
X04657Y04152D02*
X04733D01*
X048Y01455D02*
Y01658D01*
Y01455D02*
X04826Y01442D01*
X048Y01658D02*
X048248Y016753D01*
X048Y03975D02*
Y04178D01*
Y03975D02*
X04826Y03962D01*
X048Y04178D02*
X048248Y041953D01*
X06001Y01514D02*
X06234D01*
X0663Y012D02*
Y0183D01*
X0589Y012D02*
Y0183D01*
Y012D02*
X0663D01*
X0589Y0183D02*
X0663D01*
X06509Y01613D02*
Y01689D01*
X06483Y01587D02*
X06509Y01613D01*
Y01337D02*
Y01403D01*
X06482Y0143D02*
X06509Y01403D01*
X06274Y01515D02*
X06417D01*
X06456Y01554D01*
X06058Y01342D02*
Y01455D01*
X06059Y01573D02*
Y01687D01*
X06016Y04074D02*
X06249D01*
X06645Y0376D02*
Y0439D01*
X05905Y0376D02*
Y0439D01*
Y0376D02*
X06645D01*
X05905Y0439D02*
X06645D01*
X06524Y04173D02*
Y04249D01*
X06498Y04147D02*
X06524Y04173D01*
Y03897D02*
Y03963D01*
X06497Y0399D02*
X06524Y03963D01*
X06289Y04075D02*
X06432D01*
X06471Y04114D01*
X06073Y03902D02*
Y04015D01*
X06074Y04133D02*
Y04247D01*
X0581Y0416D02*
X0586D01*
Y0396D02*
Y0416D01*
X0576Y0396D02*
X0586D01*
X0576D02*
Y0416D01*
X0581D01*
Y0393D02*
Y0396D01*
Y0416D02*
Y0419D01*
X0576Y04119D02*
X05857D01*
X0581Y0416D02*
X05831D01*
X05794D02*
X0581D01*
X05395Y01602D02*
Y01637D01*
X05433Y01417D02*
Y01602D01*
X05395Y01383D02*
Y01417D01*
X05357D02*
Y01602D01*
Y01417D02*
X05433D01*
X05357Y01602D02*
X05433D01*
X0512Y01445D02*
Y01648D01*
Y01445D02*
X05146Y01432D01*
X0512Y01648D02*
X051448Y016653D01*
X05135Y03965D02*
Y04168D01*
Y03965D02*
X05161Y03952D01*
X05135Y04168D02*
X051598Y041853D01*
D14*
X04454Y01457D02*
G03*
X04454Y01457I-00008J0D01*
G01*
Y04002D02*
G03*
X04454Y04002I-00008J0D01*
G01*
X05569Y01452D02*
G03*
X05569Y01452I-00008J0D01*
G01*
X05584Y03987D02*
G03*
X05584Y03987I-00008J0D01*
G01*
D15*
X0317Y0342D02*
X0323D01*
X0317Y03405D02*
X0323D01*
X03275Y02155D02*
X03335D01*
X03275Y0214D02*
X03335D01*
X06865Y02315D02*
X06925D01*
X06865Y023D02*
X06925D01*
X06685Y0343D02*
X06745D01*
X06685Y03445D02*
X06745D01*
D16*
X0692Y0135D02*
Y0165D01*
X0677D02*
X0692D01*
X0677Y0135D02*
Y0165D01*
Y0135D02*
X0692D01*
X0317Y03955D02*
Y04255D01*
Y03955D02*
X0332D01*
Y04255D01*
X0317D02*
X0332D01*
X0317Y01345D02*
Y01645D01*
Y01345D02*
X0332D01*
Y01645D01*
X0317D02*
X0332D01*
X0694Y0396D02*
Y0426D01*
X0679D02*
X0694D01*
X0679Y0396D02*
Y0426D01*
Y0396D02*
X0694D01*
X06635Y01945D02*
X06685D01*
X06695Y01955D01*
Y01975D01*
X06685Y01985D01*
X06635D01*
X06695Y02005D02*
Y02025D01*
Y02015D01*
X06635D01*
X06645Y02005D01*
X06695Y02095D02*
Y02055D01*
X06655Y02095D01*
X06645D01*
X06635Y02085D01*
Y02065D01*
X06645Y02055D01*
X0662Y035505D02*
X0667D01*
X0668Y035605D01*
Y035805D01*
X0667Y035905D01*
X0662D01*
X0668Y036105D02*
Y036304D01*
Y036205D01*
X0662D01*
X0663Y036105D01*
X0668Y036604D02*
Y036804D01*
Y036704D01*
X0662D01*
X0663Y036604D01*
X03085Y0182D02*
X03135D01*
X03145Y0183D01*
Y0185D01*
X03135Y0186D01*
X03085D01*
Y0192D02*
X03095Y019D01*
X03115Y0188D01*
X03135D01*
X03145Y0189D01*
Y0191D01*
X03135Y0192D01*
X03125D01*
X03115Y0191D01*
Y0188D01*
X0319Y0372D02*
Y0367D01*
X032Y0366D01*
X0322D01*
X0323Y0367D01*
Y0372D01*
X0325Y0371D02*
X0326Y0372D01*
X0328D01*
X0329Y0371D01*
Y037D01*
X0328Y0369D01*
X0327D01*
X0328D01*
X0329Y0368D01*
Y0367D01*
X0328Y0366D01*
X0326D01*
X0325Y0367D01*
X0549Y0115D02*
Y0121D01*
X0552D01*
X0553Y012D01*
Y0118D01*
X0552Y0117D01*
X0549D01*
X0551D02*
X0553Y0115D01*
X0559Y0121D02*
X0557Y012D01*
X0555Y0118D01*
Y0116D01*
X0556Y0115D01*
X0558D01*
X0559Y0116D01*
Y0117D01*
X0558Y0118D01*
X0555D01*
X05405Y04385D02*
Y04445D01*
X05435D01*
X05445Y04435D01*
Y04415D01*
X05435Y04405D01*
X05405D01*
X05425D02*
X05445Y04385D01*
X05505Y04445D02*
X05465D01*
Y04415D01*
X05485Y04425D01*
X05495D01*
X05505Y04415D01*
Y04395D01*
X05495Y04385D01*
X05475D01*
X05465Y04395D01*
X0445Y01175D02*
Y01235D01*
X0448D01*
X0449Y01225D01*
Y01205D01*
X0448Y01195D01*
X0445D01*
X0447D02*
X0449Y01175D01*
X0454D02*
Y01235D01*
X0451Y01205D01*
X0455D01*
X0441Y0447D02*
Y0453D01*
X0444D01*
X0445Y0452D01*
Y045D01*
X0444Y0449D01*
X0441D01*
X0443D02*
X0445Y0447D01*
X0447Y0452D02*
X0448Y0453D01*
X045D01*
X0451Y0452D01*
Y0451D01*
X045Y045D01*
X0449D01*
X045D01*
X0451Y0449D01*
Y0448D01*
X045Y0447D01*
X0448D01*
X0447Y0448D01*
X05085Y011D02*
Y0104D01*
X05125D01*
X05185Y011D02*
X05145D01*
Y0104D01*
X05185D01*
X05145Y0107D02*
X05165D01*
X05205Y011D02*
Y0104D01*
X05235D01*
X052449Y0105D01*
Y0109D01*
X05235Y011D01*
X05205D01*
X052949Y0104D02*
Y011D01*
X052649Y0107D01*
X053049D01*
X0507Y0436D02*
X0513D01*
Y044D01*
X0507Y0446D02*
Y0442D01*
X0513D01*
Y0446D01*
X051Y0442D02*
Y0444D01*
X0507Y0448D02*
X0513D01*
Y0451D01*
X0512Y045199D01*
X0508D01*
X0507Y0451D01*
Y0448D01*
X0508Y045399D02*
X0507Y045499D01*
Y045699D01*
X0508Y045799D01*
X0509D01*
X051Y045699D01*
Y045599D01*
Y045699D01*
X0511Y045799D01*
X0512D01*
X0513Y045699D01*
Y045499D01*
X0512Y045399D01*
X04775Y011D02*
Y0104D01*
X04815D01*
X04875Y011D02*
X04835D01*
Y0104D01*
X04875D01*
X04835Y0107D02*
X04855D01*
X04895Y011D02*
Y0104D01*
X04925D01*
X049349Y0105D01*
Y0109D01*
X04925Y011D01*
X04895D01*
X049949Y0104D02*
X049549D01*
X049949Y0108D01*
Y0109D01*
X049849Y011D01*
X049649D01*
X049549Y0109D01*
X0503Y0458D02*
X0497D01*
Y0454D01*
X0503Y0448D02*
Y0452D01*
X0497D01*
Y0448D01*
X05Y0452D02*
Y045D01*
X0503Y0446D02*
X0497D01*
Y0443D01*
X0498Y044201D01*
X0502D01*
X0503Y0443D01*
Y0446D01*
X0497Y044001D02*
Y043801D01*
Y043901D01*
X0503D01*
X0502Y044001D01*
X0464Y0217D02*
Y0211D01*
Y0214D01*
X0468D01*
Y0217D01*
Y0211D01*
X0474Y0217D02*
X047D01*
Y0214D01*
X0472Y0215D01*
X0473D01*
X0474Y0214D01*
Y0212D01*
X0473Y0211D01*
X0471D01*
X047Y0212D01*
X06897Y02468D02*
X06887Y02478D01*
X06867D01*
X06857Y02468D01*
Y02428D01*
X06867Y02418D01*
X06887D01*
X06897Y02428D01*
X06947Y02418D02*
Y02478D01*
X06917Y02448D01*
X06957D01*
X06717Y03593D02*
X06707Y03603D01*
X06687D01*
X06677Y03593D01*
Y03553D01*
X06687Y03543D01*
X06707D01*
X06717Y03553D01*
X06737Y03593D02*
X06747Y03603D01*
X06767D01*
X06777Y03593D01*
Y03583D01*
X06767Y03573D01*
X06757D01*
X06767D01*
X06777Y03563D01*
Y03553D01*
X06767Y03543D01*
X06747D01*
X06737Y03553D01*
X03307Y02308D02*
X03297Y02318D01*
X03277D01*
X03267Y02308D01*
Y02268D01*
X03277Y02258D01*
X03297D01*
X03307Y02268D01*
X03367Y02258D02*
X03327D01*
X03367Y02298D01*
Y02308D01*
X03357Y02318D01*
X03337D01*
X03327Y02308D01*
X03285Y0341D02*
X03275Y034D01*
Y0338D01*
X03285Y0337D01*
X03325D01*
X03335Y0338D01*
Y034D01*
X03325Y0341D01*
X03335Y0343D02*
Y0345D01*
Y0344D01*
X03275D01*
X03285Y0343D01*
X04635Y02615D02*
Y02555D01*
Y02585D01*
X04675D01*
Y02615D01*
Y02555D01*
X04725D02*
Y02615D01*
X04695Y02585D01*
X04735D01*
X05511Y01818D02*
Y01768D01*
X05521Y01758D01*
X05541D01*
X05551Y01768D01*
Y01818D01*
X05571Y01758D02*
X05591D01*
X05581D01*
Y01818D01*
X05571Y01808D01*
X05621D02*
X05631Y01818D01*
X05651D01*
X05661Y01808D01*
Y01768D01*
X05651Y01758D01*
X05631D01*
X05621Y01768D01*
Y01808D01*
X05526Y04353D02*
Y04303D01*
X05536Y04293D01*
X05556D01*
X05566Y04303D01*
Y04353D01*
X05586Y04303D02*
X05596Y04293D01*
X05616D01*
X05626Y04303D01*
Y04343D01*
X05616Y04353D01*
X05596D01*
X05586Y04343D01*
Y04333D01*
X05596Y04323D01*
X05626D01*
X04396Y01823D02*
Y01773D01*
X04406Y01763D01*
X04426D01*
X04436Y01773D01*
Y01823D01*
X04456Y01813D02*
X04466Y01823D01*
X04486D01*
X04496Y01813D01*
Y01803D01*
X04486Y01793D01*
X04496Y01783D01*
Y01773D01*
X04486Y01763D01*
X04466D01*
X04456Y01773D01*
Y01783D01*
X04466Y01793D01*
X04456Y01803D01*
Y01813D01*
X04466Y01793D02*
X04486D01*
X04396Y04368D02*
Y04318D01*
X04406Y04308D01*
X04426D01*
X04436Y04318D01*
Y04368D01*
X04456D02*
X04496D01*
Y04358D01*
X04456Y04318D01*
Y04308D01*
X049347Y0344D02*
Y035D01*
X049647D01*
X049747Y0349D01*
Y0347D01*
X049647Y0346D01*
X049347D01*
X049547D02*
X049747Y0344D01*
X050246D02*
Y035D01*
X049946Y0347D01*
X050346D01*
X050946Y035D02*
X050746Y0349D01*
X050546Y0347D01*
Y0345D01*
X050646Y0344D01*
X050846D01*
X050946Y0345D01*
Y0346D01*
X050846Y0347D01*
X050546D01*
X05268Y0344D02*
Y035D01*
X05298D01*
X05308Y0349D01*
Y0347D01*
X05298Y0346D01*
X05268D01*
X05288D02*
X05308Y0344D01*
X05328D02*
X05348D01*
X05338D01*
Y035D01*
X05328Y0349D01*
X05378Y0344D02*
X05398D01*
X05388D01*
Y035D01*
X05378Y0349D01*
X051013Y0344D02*
Y035D01*
X051313D01*
X051413Y0349D01*
Y0347D01*
X051313Y0346D01*
X051013D01*
X051213D02*
X051413Y0344D01*
X051613D02*
X051813D01*
X051713D01*
Y035D01*
X051613Y0349D01*
X052113D02*
X052213Y035D01*
X052413D01*
X052513Y0349D01*
Y0345D01*
X052413Y0344D01*
X052213D01*
X052113Y0345D01*
Y0349D01*
X04768Y0344D02*
Y035D01*
X04798D01*
X04808Y0349D01*
Y0347D01*
X04798Y0346D01*
X04768D01*
X04788D02*
X04808Y0344D01*
X04828Y0345D02*
X04838Y0344D01*
X04858D01*
X04868Y0345D01*
Y0349D01*
X04858Y035D01*
X04838D01*
X04828Y0349D01*
Y0348D01*
X04838Y0347D01*
X04868D01*
X0676Y01895D02*
Y01845D01*
X0677Y01835D01*
X0679D01*
X068Y01845D01*
Y01895D01*
X0686D02*
X0682D01*
Y01865D01*
X0684Y01875D01*
X0685D01*
X0686Y01865D01*
Y01845D01*
X0685Y01835D01*
X0683D01*
X0682Y01845D01*
X0682Y0439D02*
Y0434D01*
X0683Y0433D01*
X0685D01*
X0686Y0434D01*
Y0439D01*
X0691Y0433D02*
Y0439D01*
X0688Y0436D01*
X0692D01*
X0331Y0121D02*
Y0116D01*
X0332Y0115D01*
X0334D01*
X0335Y0116D01*
Y0121D01*
X0341Y0115D02*
X0337D01*
X0341Y0119D01*
Y012D01*
X034Y0121D01*
X0338D01*
X0337Y012D01*
X03225Y0443D02*
Y0438D01*
X03235Y0437D01*
X03255D01*
X03265Y0438D01*
Y0443D01*
X03285Y0437D02*
X03305D01*
X03295D01*
Y0443D01*
X03285Y0442D01*
X05876Y01863D02*
Y01923D01*
X05906D01*
X05916Y01913D01*
Y01893D01*
X05906Y01883D01*
X05876D01*
X05896D02*
X05916Y01863D01*
X05936Y01923D02*
Y01863D01*
X05976D01*
X06026D02*
Y01923D01*
X05996Y01893D01*
X060359D01*
X05891Y04424D02*
Y04484D01*
X05921D01*
X05931Y04474D01*
Y04454D01*
X05921Y04444D01*
X05891D01*
X05911D02*
X05931Y04424D01*
X05951Y04484D02*
Y04424D01*
X05991D01*
X06011Y04474D02*
X06021Y04484D01*
X06041D01*
X060509Y04474D01*
Y04464D01*
X06041Y04454D01*
X06031D01*
X06041D01*
X060509Y04444D01*
Y04434D01*
X06041Y04424D01*
X06021D01*
X06011Y04434D01*
X0364Y0186D02*
Y0192D01*
X0367D01*
X0368Y0191D01*
Y0189D01*
X0367Y0188D01*
X0364D01*
X0366D02*
X0368Y0186D01*
X037Y0192D02*
Y0186D01*
X0374D01*
X037999D02*
X0376D01*
X037999Y019D01*
Y0191D01*
X0379Y0192D01*
X0377D01*
X0376Y0191D01*
X03479Y04429D02*
Y04489D01*
X03509D01*
X03519Y04479D01*
Y04459D01*
X03509Y04449D01*
X03479D01*
X03499D02*
X03519Y04429D01*
X03539Y04489D02*
Y04429D01*
X03579D01*
X03599D02*
X03619D01*
X03609D01*
Y04489D01*
X03599Y04479D01*
X05358Y01755D02*
Y01815D01*
X05388D01*
X05398Y01805D01*
Y01785D01*
X05388Y01775D01*
X05358D01*
X05378D02*
X05398Y01755D01*
X05418Y01805D02*
X05428Y01815D01*
X05448D01*
X05458Y01805D01*
Y01795D01*
X05448Y01785D01*
X05458Y01775D01*
Y01765D01*
X05448Y01755D01*
X05428D01*
X05418Y01765D01*
Y01775D01*
X05428Y01785D01*
X05418Y01795D01*
Y01805D01*
X05428Y01785D02*
X05448D01*
X05285Y04255D02*
Y04315D01*
X05315D01*
X05325Y04305D01*
Y04285D01*
X05315Y04275D01*
X05285D01*
X05305D02*
X05325Y04255D01*
X05345Y04315D02*
X05385D01*
Y04305D01*
X05345Y04265D01*
Y04255D01*
X04658Y01765D02*
Y01825D01*
X04688D01*
X04698Y01815D01*
Y01795D01*
X04688Y01785D01*
X04658D01*
X04678D02*
X04698Y01765D01*
X04758D02*
X04718D01*
X04758Y01805D01*
Y01815D01*
X04748Y01825D01*
X04728D01*
X04718Y01815D01*
X04658Y04305D02*
Y04365D01*
X04688D01*
X04698Y04355D01*
Y04335D01*
X04688Y04325D01*
X04658D01*
X04678D02*
X04698Y04305D01*
X04718D02*
X04738D01*
X04728D01*
Y04365D01*
X04718Y04355D01*
X05166Y01727D02*
Y01767D01*
X05156Y01777D01*
X05136D01*
X05126Y01767D01*
Y01727D01*
X05136Y01717D01*
X05156D01*
X05146Y01737D02*
X05166Y01717D01*
X05156D02*
X05166Y01727D01*
X05216Y01717D02*
Y01777D01*
X05186Y01747D01*
X05226D01*
X05181Y04247D02*
Y04287D01*
X05171Y04297D01*
X05151D01*
X05141Y04287D01*
Y04247D01*
X05151Y04237D01*
X05171D01*
X05161Y04257D02*
X05181Y04237D01*
X05171D02*
X05181Y04247D01*
X05201Y04287D02*
X05211Y04297D01*
X05231D01*
X05241Y04287D01*
Y04277D01*
X05231Y04267D01*
X05221D01*
X05231D01*
X05241Y04257D01*
Y04247D01*
X05231Y04237D01*
X05211D01*
X05201Y04247D01*
X04846Y01737D02*
Y01777D01*
X04836Y01787D01*
X04816D01*
X04806Y01777D01*
Y01737D01*
X04816Y01727D01*
X04836D01*
X04826Y01747D02*
X04846Y01727D01*
X04836D02*
X04846Y01737D01*
X04906Y01727D02*
X04866D01*
X04906Y01767D01*
Y01777D01*
X04896Y01787D01*
X04876D01*
X04866Y01777D01*
X04847Y04257D02*
Y04297D01*
X04837Y04307D01*
X04817D01*
X04807Y04297D01*
Y04257D01*
X04817Y04247D01*
X04837D01*
X04827Y04267D02*
X04847Y04247D01*
X04837D02*
X04847Y04257D01*
X04867Y04247D02*
X04887D01*
X04877D01*
Y04307D01*
X04867Y04297D01*
X04625Y02935D02*
Y02875D01*
Y02905D01*
X04665D01*
Y02935D01*
Y02875D01*
X04685Y02925D02*
X04695Y02935D01*
X04715D01*
X04725Y02925D01*
Y02915D01*
X04715Y02905D01*
X04705D01*
X04715D01*
X04725Y02895D01*
Y02885D01*
X04715Y02875D01*
X04695D01*
X04685Y02885D01*
X0564Y026D02*
X057D01*
X0567D01*
Y0264D01*
X0564D01*
X057D01*
Y027D02*
Y0266D01*
X0566Y027D01*
X0565D01*
X0564Y0269D01*
Y0267D01*
X0565Y0266D01*
X057Y03408D02*
Y03348D01*
Y03378D01*
X0574D01*
Y03408D01*
Y03348D01*
X0576D02*
X0578D01*
X0577D01*
Y03408D01*
X0576Y03398D01*
X0575Y01915D02*
Y01855D01*
X0578D01*
X0579Y01865D01*
Y01905D01*
X0578Y01915D01*
X0575D01*
X0584Y01855D02*
Y01915D01*
X0581Y01885D01*
X0585D01*
X05766Y04369D02*
Y04309D01*
X05796D01*
X05806Y04319D01*
Y04359D01*
X05796Y04369D01*
X05766D01*
X05826Y04359D02*
X05836Y04369D01*
X05856D01*
X05866Y04359D01*
Y04349D01*
X05856Y04339D01*
X05846D01*
X05856D01*
X05866Y04329D01*
Y04319D01*
X05856Y04309D01*
X05836D01*
X05826Y04319D01*
X04262Y01834D02*
Y01774D01*
X04292D01*
X04302Y01784D01*
Y01824D01*
X04292Y01834D01*
X04262D01*
X04362Y01774D02*
X04322D01*
X04362Y01814D01*
Y01824D01*
X04352Y01834D01*
X04332D01*
X04322Y01824D01*
X04262Y04379D02*
Y04319D01*
X04292D01*
X04302Y04329D01*
Y04369D01*
X04292Y04379D01*
X04262D01*
X04322Y04319D02*
X04342D01*
X04332D01*
Y04379D01*
X04322Y04369D01*
D17*
X0579Y01605D02*
D03*
X04305Y01435D02*
D03*
Y0398D02*
D03*
X0581Y0415D02*
D03*
M02*
