G04*
G04 #@! TF.GenerationSoftware,Altium Limited,Altium Designer,18.0.7 (293)*
G04*
G04 Layer_Physical_Order=1*
G04 Layer_Color=255*
%FSLAX25Y25*%
%MOIN*%
G70*
G01*
G75*
%ADD18R,0.02559X0.06890*%
%ADD19O,0.02559X0.06890*%
%ADD42C,0.02953*%
%ADD43C,0.04921*%
%ADD44C,0.07087*%
%ADD45R,0.07087X0.07087*%
%ADD46O,0.07500X0.09000*%
%ADD47R,0.07500X0.09000*%
%ADD48O,0.10000X0.06500*%
%ADD49R,0.10000X0.06500*%
%ADD50R,0.08000X0.08000*%
%ADD51C,0.08000*%
%ADD52C,0.07000*%
%ADD53P,0.05196X8X292.5*%
%ADD54C,0.06299*%
%ADD55R,0.06299X0.06299*%
%ADD56R,0.09000X0.07500*%
%ADD57O,0.09000X0.07500*%
%ADD58C,0.12000*%
%ADD59R,0.06500X0.10000*%
%ADD60O,0.06500X0.10000*%
%ADD61R,0.06000X0.09000*%
%ADD62O,0.06000X0.09000*%
%ADD63O,0.10000X0.06600*%
G36*
X389000Y287765D02*
X388500Y287733D01*
X388486Y287836D01*
X387971Y289081D01*
X387150Y290150D01*
X386081Y290971D01*
X384836Y291486D01*
X383500Y291662D01*
X382164Y291486D01*
X380919Y290971D01*
X379850Y290150D01*
X379029Y289081D01*
X378514Y287836D01*
X378338Y286500D01*
X378367Y286280D01*
X378043Y285957D01*
X377556Y285322D01*
X377252Y284961D01*
X376752Y284710D01*
X376348Y284877D01*
X375500Y284989D01*
X374652Y284877D01*
X373862Y284550D01*
X373349Y284156D01*
X373000Y284073D01*
X372651Y284156D01*
X372138Y284550D01*
X371348Y284877D01*
X370931Y284932D01*
X370509Y285152D01*
X370525Y285460D01*
X370662Y286500D01*
X370486Y287836D01*
X369971Y289081D01*
X369150Y290150D01*
X368081Y290971D01*
X366836Y291486D01*
X365500Y291662D01*
X364164Y291486D01*
X362919Y290971D01*
X361850Y290150D01*
X361029Y289081D01*
X360514Y287836D01*
X360338Y286500D01*
X360514Y285164D01*
X361029Y283919D01*
X361739Y282994D01*
X361756Y282962D01*
X361774Y282942D01*
X361782Y282922D01*
X361824Y282790D01*
X361872Y282580D01*
X361913Y282340D01*
X362010Y281051D01*
X362017Y280543D01*
X362025Y280502D01*
Y279547D01*
X362144Y278648D01*
X362224Y278454D01*
Y277382D01*
X362336Y276534D01*
X362663Y275744D01*
X363183Y275065D01*
X363862Y274545D01*
X364652Y274218D01*
X365500Y274106D01*
X366348Y274218D01*
X367138Y274545D01*
X367651Y274938D01*
X368000Y275022D01*
X368349Y274938D01*
X368862Y274545D01*
X369652Y274218D01*
X370500Y274106D01*
X371348Y274218D01*
X372138Y274545D01*
X372651Y274938D01*
X373000Y275022D01*
X373349Y274938D01*
X373862Y274545D01*
X374652Y274218D01*
X375500Y274106D01*
X376348Y274218D01*
X376752Y274385D01*
X377252Y274134D01*
Y274134D01*
X383748D01*
Y278387D01*
X383856Y278648D01*
X383975Y279547D01*
Y281400D01*
X384836Y281514D01*
X386081Y282029D01*
X387150Y282850D01*
X387971Y283919D01*
X388486Y285164D01*
X388500Y285267D01*
X389000Y285235D01*
Y79610D01*
X388500Y79510D01*
X388471Y79581D01*
X387761Y80506D01*
X387744Y80537D01*
X387726Y80559D01*
X387718Y80578D01*
X387676Y80710D01*
X387628Y80920D01*
X387587Y81160D01*
X387490Y82449D01*
X387483Y82957D01*
X387475Y82998D01*
Y92500D01*
X387356Y93399D01*
X387276Y93593D01*
Y94665D01*
X387164Y95513D01*
X386837Y96303D01*
X386316Y96982D01*
X385638Y97502D01*
X384848Y97830D01*
X384000Y97941D01*
X383152Y97830D01*
X382362Y97502D01*
X381683Y96982D01*
X381316D01*
X380638Y97502D01*
X379848Y97830D01*
X379000Y97941D01*
X378152Y97830D01*
X377362Y97502D01*
X376683Y96982D01*
X376316D01*
X375638Y97502D01*
X374848Y97830D01*
X374000Y97941D01*
X373152Y97830D01*
X372748Y97662D01*
X372248Y97913D01*
Y97913D01*
X365752D01*
Y96054D01*
X365594Y96028D01*
X365229Y95996D01*
X364727Y95983D01*
X364691Y95975D01*
X363000D01*
X362101Y95856D01*
X361263Y95509D01*
X360543Y94957D01*
X357043Y91457D01*
X356491Y90737D01*
X356144Y89899D01*
X356025Y89000D01*
Y81998D01*
X356017Y81957D01*
X356010Y81415D01*
X355991Y80971D01*
X355916Y80179D01*
X355872Y79920D01*
X355824Y79710D01*
X355782Y79578D01*
X355774Y79558D01*
X355756Y79537D01*
X355739Y79506D01*
X355029Y78581D01*
X354514Y77336D01*
X354338Y76000D01*
X354514Y74664D01*
X355029Y73419D01*
X355850Y72350D01*
X356919Y71529D01*
X358164Y71014D01*
X359500Y70838D01*
X360836Y71014D01*
X362081Y71529D01*
X363150Y72350D01*
X363971Y73419D01*
X364486Y74664D01*
X364662Y76000D01*
X364486Y77336D01*
X363971Y78581D01*
X363261Y79506D01*
X363244Y79537D01*
X363226Y79558D01*
X363218Y79578D01*
X363176Y79710D01*
X363128Y79920D01*
X363087Y80160D01*
X362990Y81449D01*
X362983Y81957D01*
X362975Y81998D01*
Y87561D01*
X364439Y89025D01*
X364691D01*
X364727Y89017D01*
X365229Y89004D01*
X365594Y88972D01*
X365752Y88946D01*
Y87087D01*
X372248D01*
Y87087D01*
X372748Y87338D01*
X373152Y87170D01*
X374000Y87059D01*
X374848Y87170D01*
X375638Y87498D01*
X376316Y88018D01*
X376683D01*
X377362Y87498D01*
X378152Y87170D01*
X379000Y87059D01*
X379848Y87170D01*
X380110Y87279D01*
X380525Y87001D01*
Y82998D01*
X380517Y82957D01*
X380510Y82415D01*
X380491Y81972D01*
X380416Y81179D01*
X380372Y80920D01*
X380324Y80710D01*
X380282Y80578D01*
X380274Y80559D01*
X380256Y80537D01*
X380239Y80506D01*
X379529Y79581D01*
X379014Y78336D01*
X378838Y77000D01*
X379014Y75664D01*
X379529Y74419D01*
X380350Y73350D01*
X381419Y72529D01*
X382664Y72014D01*
X384000Y71838D01*
X385336Y72014D01*
X386581Y72529D01*
X387650Y73350D01*
X388471Y74419D01*
X388500Y74490D01*
X389000Y74390D01*
Y1000D01*
X500D01*
Y23483D01*
X1000Y23583D01*
X1131Y23266D01*
X1841Y22341D01*
X3341Y20841D01*
X4266Y20131D01*
X5344Y19685D01*
X6500Y19533D01*
X13915D01*
X13919Y19529D01*
X15164Y19014D01*
X16500Y18838D01*
X17836Y19014D01*
X19081Y19529D01*
X20150Y20350D01*
X20971Y21419D01*
X21486Y22664D01*
X21662Y24000D01*
X21486Y25336D01*
X20971Y26581D01*
X20150Y27650D01*
X19081Y28471D01*
X17836Y28986D01*
X16500Y29162D01*
X15164Y28986D01*
X13919Y28471D01*
X13915Y28467D01*
X9467D01*
Y67500D01*
X9315Y68656D01*
X8869Y69734D01*
X8667Y69997D01*
X8620Y70722D01*
X8963Y71087D01*
X13748D01*
Y71087D01*
X14248Y71338D01*
X14652Y71170D01*
X15500Y71059D01*
X16348Y71170D01*
X17138Y71497D01*
X17817Y72018D01*
X18183D01*
X18862Y71497D01*
X19652Y71170D01*
X20500Y71059D01*
X21348Y71170D01*
X22138Y71497D01*
X22817Y72018D01*
X23183D01*
X23862Y71497D01*
X24652Y71170D01*
X25500Y71059D01*
X26348Y71170D01*
X27138Y71497D01*
X27589Y71843D01*
X27737Y71930D01*
X27786Y71995D01*
X27817Y72018D01*
X27841Y72049D01*
X27905Y72099D01*
X27998Y72203D01*
X28013Y72215D01*
X28059Y72246D01*
X28148Y72290D01*
X28285Y72343D01*
X28474Y72396D01*
X28685Y72438D01*
X29122Y72482D01*
X29821Y72416D01*
X30080Y72372D01*
X30290Y72324D01*
X30422Y72282D01*
X30441Y72274D01*
X30463Y72256D01*
X30494Y72239D01*
X31419Y71529D01*
X32664Y71014D01*
X34000Y70838D01*
X35336Y71014D01*
X36581Y71529D01*
X37650Y72350D01*
X38471Y73419D01*
X38986Y74664D01*
X39162Y76000D01*
X38986Y77336D01*
X38471Y78581D01*
X37650Y79650D01*
X36581Y80471D01*
X35336Y80986D01*
X34000Y81162D01*
X32664Y80986D01*
X31419Y80471D01*
X30494Y79761D01*
X30463Y79744D01*
X30441Y79726D01*
X30422Y79718D01*
X30290Y79676D01*
X30080Y79628D01*
X29840Y79587D01*
X28962Y79521D01*
X28867Y79529D01*
X28643Y79565D01*
X28625Y79608D01*
X28625Y79609D01*
X28624Y79610D01*
X28543Y79807D01*
X28541Y79813D01*
X28539Y79817D01*
X28337Y80303D01*
X27817Y80982D01*
X27138Y81502D01*
X26348Y81830D01*
X25500Y81941D01*
X24652Y81830D01*
X23862Y81502D01*
X23183Y80982D01*
X22817D01*
X22138Y81502D01*
X21348Y81830D01*
X20500Y81941D01*
X19652Y81830D01*
X18862Y81502D01*
X18183Y80982D01*
X17817D01*
X17138Y81502D01*
X16348Y81830D01*
X15500Y81941D01*
X14652Y81830D01*
X14248Y81662D01*
X13748Y81913D01*
Y81913D01*
X7252D01*
Y79876D01*
X7101Y79856D01*
X6754Y79712D01*
X6263Y79509D01*
X5543Y78957D01*
X2543Y75957D01*
X1991Y75237D01*
X1644Y74399D01*
X1545Y73651D01*
X1517Y73511D01*
X1513Y72786D01*
X1455Y71031D01*
X1385Y70270D01*
X1352Y70062D01*
X1339Y70005D01*
X1131Y69734D01*
X1000Y69417D01*
X500Y69516D01*
Y371500D01*
X389000D01*
Y287765D01*
D02*
G37*
G36*
X379233Y281035D02*
X379731Y281024D01*
Y278071D01*
X379233Y278059D01*
Y276594D01*
X379203Y276875D01*
X379114Y277126D01*
X378967Y277347D01*
X378760Y277539D01*
X378494Y277702D01*
X378169Y277835D01*
X377922Y277901D01*
X377653Y277836D01*
X377296Y277704D01*
X377004Y277542D01*
X376776Y277351D01*
X376614Y277131D01*
X376516Y276881D01*
X376484Y276602D01*
Y278065D01*
X376280Y278071D01*
Y281024D01*
X376484Y281029D01*
Y282493D01*
X376516Y282214D01*
X376614Y281964D01*
X376776Y281744D01*
X377004Y281553D01*
X377296Y281391D01*
X377653Y281259D01*
X377922Y281193D01*
X378169Y281260D01*
X378494Y281393D01*
X378760Y281555D01*
X378967Y281747D01*
X379114Y281968D01*
X379203Y282220D01*
X379233Y282500D01*
Y281035D01*
D02*
G37*
G36*
X367566Y284085D02*
X367442Y283875D01*
X367333Y283619D01*
X367239Y283319D01*
X367159Y282973D01*
X367093Y282582D01*
X367005Y281665D01*
X367001Y281555D01*
X367003Y281553D01*
X367296Y281391D01*
X367653Y281259D01*
X368000Y281174D01*
X368347Y281259D01*
X368704Y281391D01*
X368997Y281553D01*
X369224Y281744D01*
X369386Y281964D01*
X369484Y282214D01*
X369516Y282493D01*
Y281029D01*
X369731Y281024D01*
Y278071D01*
X369516Y278066D01*
Y276602D01*
X369484Y276881D01*
X369386Y277131D01*
X369224Y277351D01*
X368997Y277542D01*
X368704Y277704D01*
X368347Y277836D01*
X368000Y277920D01*
X367653Y277836D01*
X367296Y277704D01*
X367003Y277542D01*
X366776Y277351D01*
X366614Y277131D01*
X366516Y276881D01*
X366484Y276602D01*
Y278066D01*
X366269Y278071D01*
Y280568D01*
X364024D01*
X364016Y281139D01*
X363907Y282582D01*
X363842Y282973D01*
X363761Y283319D01*
X363667Y283619D01*
X363558Y283875D01*
X363434Y284085D01*
X363295Y284251D01*
X367705D01*
X367566Y284085D01*
D02*
G37*
G36*
X383016Y93981D02*
X383231Y93976D01*
Y91024D01*
X383016Y91018D01*
Y89555D01*
X382984Y89834D01*
X382886Y90083D01*
X382724Y90304D01*
X382497Y90495D01*
X382204Y90656D01*
X381847Y90789D01*
X381500Y90873D01*
X381153Y90789D01*
X380796Y90656D01*
X380504Y90495D01*
X380276Y90304D01*
X380114Y90083D01*
X380016Y89834D01*
X379984Y89555D01*
Y91018D01*
X379769Y91024D01*
Y93976D01*
X379984Y93981D01*
Y95446D01*
X380016Y95166D01*
X380114Y94917D01*
X380276Y94696D01*
X380504Y94505D01*
X380796Y94344D01*
X381153Y94211D01*
X381500Y94127D01*
X381847Y94211D01*
X382204Y94344D01*
X382497Y94505D01*
X382724Y94696D01*
X382886Y94917D01*
X382984Y95166D01*
X383016Y95446D01*
Y93981D01*
D02*
G37*
G36*
X370297Y95172D02*
X370386Y94921D01*
X370533Y94700D01*
X370740Y94508D01*
X371006Y94345D01*
X371330Y94213D01*
X371578Y94146D01*
X371847Y94211D01*
X372204Y94344D01*
X372497Y94505D01*
X372724Y94696D01*
X372886Y94917D01*
X372984Y95166D01*
X373016Y95446D01*
Y93982D01*
X373220Y93976D01*
Y91024D01*
X373016Y91018D01*
Y89555D01*
X372984Y89834D01*
X372886Y90083D01*
X372724Y90304D01*
X372497Y90495D01*
X372204Y90656D01*
X371847Y90789D01*
X371578Y90854D01*
X371330Y90787D01*
X371006Y90654D01*
X370740Y90492D01*
X370533Y90300D01*
X370386Y90079D01*
X370297Y89828D01*
X370268Y89547D01*
Y91012D01*
X369769Y91024D01*
Y93976D01*
X370268Y93988D01*
Y95453D01*
X370297Y95172D01*
D02*
G37*
G36*
X367744Y89547D02*
X367715Y89828D01*
X367626Y90079D01*
X367478Y90300D01*
X367270Y90492D01*
X367003Y90654D01*
X366677Y90787D01*
X366292Y90891D01*
X365847Y90965D01*
X365343Y91009D01*
X364780Y91024D01*
Y93976D01*
X365343Y93991D01*
X365847Y94035D01*
X366292Y94109D01*
X366677Y94213D01*
X367003Y94345D01*
X367270Y94508D01*
X367478Y94700D01*
X367626Y94921D01*
X367715Y95172D01*
X367744Y95453D01*
Y89547D01*
D02*
G37*
G36*
X385484Y82361D02*
X385593Y80918D01*
X385659Y80527D01*
X385739Y80181D01*
X385833Y79880D01*
X385943Y79625D01*
X386066Y79415D01*
X386205Y79249D01*
X381795D01*
X381934Y79415D01*
X382057Y79625D01*
X382167Y79880D01*
X382261Y80181D01*
X382342Y80527D01*
X382407Y80918D01*
X382494Y81835D01*
X382516Y82361D01*
X382524Y82932D01*
X385476D01*
X385484Y82361D01*
D02*
G37*
G36*
X360984Y81361D02*
X361093Y79918D01*
X361158Y79527D01*
X361239Y79181D01*
X361333Y78881D01*
X361442Y78625D01*
X361566Y78415D01*
X361705Y78249D01*
X357295D01*
X357434Y78415D01*
X357558Y78625D01*
X357667Y78881D01*
X357761Y79181D01*
X357841Y79527D01*
X357907Y79918D01*
X357995Y80835D01*
X358016Y81361D01*
X358024Y81932D01*
X360976D01*
X360984Y81361D01*
D02*
G37*
G36*
X24516Y77982D02*
X24731Y77976D01*
Y75024D01*
X24516Y75019D01*
Y73554D01*
X24484Y73834D01*
X24386Y74083D01*
X24224Y74304D01*
X23997Y74495D01*
X23704Y74656D01*
X23347Y74789D01*
X23000Y74873D01*
X22653Y74789D01*
X22296Y74656D01*
X22004Y74495D01*
X21776Y74304D01*
X21614Y74083D01*
X21516Y73834D01*
X21484Y73554D01*
Y75019D01*
X21269Y75024D01*
Y77976D01*
X21484Y77982D01*
Y79445D01*
X21516Y79166D01*
X21614Y78917D01*
X21776Y78696D01*
X22004Y78505D01*
X22296Y78344D01*
X22653Y78211D01*
X23000Y78127D01*
X23347Y78211D01*
X23704Y78344D01*
X23997Y78505D01*
X24224Y78696D01*
X24386Y78917D01*
X24484Y79166D01*
X24516Y79445D01*
Y77982D01*
D02*
G37*
G36*
X26743Y78671D02*
X26821Y78420D01*
X26963Y78199D01*
X27167Y78007D01*
X27436Y77845D01*
X27768Y77712D01*
X28163Y77609D01*
X28623Y77535D01*
X28953Y77507D01*
X30082Y77593D01*
X30473Y77658D01*
X30819Y77739D01*
X31119Y77833D01*
X31375Y77943D01*
X31585Y78066D01*
X31751Y78205D01*
Y73795D01*
X31585Y73934D01*
X31375Y74058D01*
X31119Y74167D01*
X30819Y74261D01*
X30473Y74341D01*
X30082Y74407D01*
X29166Y74494D01*
X29098Y74497D01*
X28387Y74425D01*
X28004Y74349D01*
X27655Y74250D01*
X27339Y74130D01*
X27056Y73988D01*
X26805Y73824D01*
X26588Y73638D01*
X26404Y73431D01*
X26729Y78951D01*
X26743Y78671D01*
D02*
G37*
G36*
X11797Y79172D02*
X11886Y78921D01*
X12033Y78700D01*
X12240Y78508D01*
X12506Y78346D01*
X12831Y78213D01*
X13078Y78146D01*
X13347Y78211D01*
X13704Y78344D01*
X13996Y78505D01*
X14224Y78696D01*
X14386Y78917D01*
X14484Y79166D01*
X14516Y79445D01*
Y77982D01*
X14720Y77976D01*
Y75024D01*
X14516Y75018D01*
Y73554D01*
X14484Y73834D01*
X14386Y74083D01*
X14224Y74304D01*
X13996Y74495D01*
X13704Y74656D01*
X13347Y74789D01*
X13078Y74854D01*
X12831Y74787D01*
X12506Y74655D01*
X12240Y74492D01*
X12033Y74300D01*
X11886Y74079D01*
X11797Y73828D01*
X11767Y73547D01*
Y75012D01*
X11269Y75024D01*
Y77976D01*
X11767Y77988D01*
Y79453D01*
X11797Y79172D01*
D02*
G37*
G36*
X6480Y72748D02*
X6675Y69685D01*
X6736Y69416D01*
X6805Y69216D01*
X6882Y69085D01*
X3118D01*
X3195Y69216D01*
X3264Y69416D01*
X3325Y69685D01*
X3377Y70023D01*
X3459Y70906D01*
X3520Y72748D01*
X3524Y73500D01*
X6476D01*
X6480Y72748D01*
D02*
G37*
%LPC*%
G36*
X226718Y356968D02*
X216282D01*
Y351822D01*
X215781Y351789D01*
X215641Y352859D01*
X215212Y353893D01*
X214531Y354781D01*
X213643Y355462D01*
X212610Y355891D01*
X212000Y355971D01*
Y350000D01*
Y344029D01*
X212610Y344109D01*
X213643Y344538D01*
X214531Y345219D01*
X215212Y346107D01*
X215641Y347141D01*
X215781Y348211D01*
X216282Y348178D01*
Y343032D01*
X226718D01*
Y356968D01*
D02*
G37*
G36*
X211000Y355971D02*
X210390Y355891D01*
X209357Y355462D01*
X208469Y354781D01*
X207788Y353893D01*
X207359Y352859D01*
X207213Y351750D01*
Y350500D01*
X211000D01*
Y355971D01*
D02*
G37*
G36*
X182500Y355471D02*
Y350000D01*
X186287D01*
Y351250D01*
X186141Y352360D01*
X185712Y353393D01*
X185031Y354281D01*
X184143Y354962D01*
X183109Y355391D01*
X182500Y355471D01*
D02*
G37*
G36*
X271000Y356016D02*
X269572Y355828D01*
X268242Y355277D01*
X267100Y354400D01*
X266223Y353258D01*
X265672Y351928D01*
X265484Y350500D01*
X265672Y349072D01*
X266223Y347742D01*
X267100Y346600D01*
X268242Y345723D01*
X269572Y345172D01*
X271000Y344984D01*
X272428Y345172D01*
X273758Y345723D01*
X274900Y346600D01*
X275777Y347742D01*
X276328Y349072D01*
X276516Y350500D01*
X276328Y351928D01*
X275777Y353258D01*
X274900Y354400D01*
X273758Y355277D01*
X272428Y355828D01*
X271000Y356016D01*
D02*
G37*
G36*
X236000D02*
X234572Y355828D01*
X233242Y355277D01*
X232100Y354400D01*
X231223Y353258D01*
X230672Y351928D01*
X230484Y350500D01*
X230672Y349072D01*
X231223Y347742D01*
X232100Y346600D01*
X233242Y345723D01*
X234572Y345172D01*
X236000Y344984D01*
X237428Y345172D01*
X238758Y345723D01*
X239900Y346600D01*
X240777Y347742D01*
X241328Y349072D01*
X241516Y350500D01*
X241328Y351928D01*
X240777Y353258D01*
X239900Y354400D01*
X238758Y355277D01*
X237428Y355828D01*
X236000Y356016D01*
D02*
G37*
G36*
X156000Y355516D02*
X154572Y355328D01*
X153242Y354777D01*
X152100Y353900D01*
X151223Y352758D01*
X150672Y351428D01*
X150484Y350000D01*
X150672Y348572D01*
X151223Y347242D01*
X152100Y346100D01*
X153242Y345223D01*
X154572Y344672D01*
X156000Y344484D01*
X157428Y344672D01*
X158758Y345223D01*
X159900Y346100D01*
X160777Y347242D01*
X161328Y348572D01*
X161516Y350000D01*
X161328Y351428D01*
X160777Y352758D01*
X159900Y353900D01*
X158758Y354777D01*
X157428Y355328D01*
X156000Y355516D01*
D02*
G37*
G36*
X121000D02*
X119572Y355328D01*
X118242Y354777D01*
X117100Y353900D01*
X116223Y352758D01*
X115672Y351428D01*
X115484Y350000D01*
X115672Y348572D01*
X116223Y347242D01*
X117100Y346100D01*
X118242Y345223D01*
X119572Y344672D01*
X121000Y344484D01*
X122428Y344672D01*
X123758Y345223D01*
X124900Y346100D01*
X125777Y347242D01*
X126328Y348572D01*
X126516Y350000D01*
X126328Y351428D01*
X125777Y352758D01*
X124900Y353900D01*
X123758Y354777D01*
X122428Y355328D01*
X121000Y355516D01*
D02*
G37*
G36*
X211000Y349500D02*
X207213D01*
Y348250D01*
X207359Y347141D01*
X207788Y346107D01*
X208469Y345219D01*
X209357Y344538D01*
X210390Y344109D01*
X211000Y344029D01*
Y349500D01*
D02*
G37*
G36*
X186287Y349000D02*
X182500D01*
Y343529D01*
X183109Y343609D01*
X184143Y344038D01*
X185031Y344719D01*
X185712Y345607D01*
X186141Y346640D01*
X186287Y347750D01*
Y349000D01*
D02*
G37*
G36*
X177218Y356469D02*
X166781D01*
Y342531D01*
X177218D01*
Y347678D01*
X177718Y347711D01*
X177859Y346640D01*
X178288Y345607D01*
X178969Y344719D01*
X179857Y344038D01*
X180891Y343609D01*
X181500Y343529D01*
Y349500D01*
Y355471D01*
X180891Y355391D01*
X179857Y354962D01*
X178969Y354281D01*
X178288Y353393D01*
X177859Y352360D01*
X177718Y351289D01*
X177218Y351322D01*
Y356469D01*
D02*
G37*
G36*
X146500Y329011D02*
X145203Y328841D01*
X143994Y328340D01*
X142956Y327544D01*
X142160Y326506D01*
X141771Y325566D01*
X141229D01*
X140840Y326506D01*
X140044Y327544D01*
X139006Y328340D01*
X137797Y328841D01*
X136500Y329011D01*
X135203Y328841D01*
X133994Y328340D01*
X132956Y327544D01*
X132160Y326506D01*
X131659Y325297D01*
X131489Y324000D01*
Y321000D01*
X131659Y319703D01*
X132160Y318494D01*
X132956Y317456D01*
X133994Y316660D01*
X135203Y316159D01*
X136500Y315989D01*
X137797Y316159D01*
X139006Y316660D01*
X140044Y317456D01*
X140840Y318494D01*
X141229Y319434D01*
X141771D01*
X142160Y318494D01*
X142956Y317456D01*
X143994Y316660D01*
X145203Y316159D01*
X146500Y315989D01*
X147797Y316159D01*
X149006Y316660D01*
X150044Y317456D01*
X150840Y318494D01*
X151341Y319703D01*
X151511Y321000D01*
Y324000D01*
X151341Y325297D01*
X150840Y326506D01*
X150044Y327544D01*
X149006Y328340D01*
X147797Y328841D01*
X146500Y329011D01*
D02*
G37*
G36*
X259500Y327511D02*
X258203Y327341D01*
X256994Y326840D01*
X255956Y326044D01*
X255160Y325006D01*
X254771Y324065D01*
X254229D01*
X253840Y325006D01*
X253044Y326044D01*
X252006Y326840D01*
X250797Y327341D01*
X249500Y327511D01*
X248203Y327341D01*
X246994Y326840D01*
X245956Y326044D01*
X245160Y325006D01*
X244659Y323797D01*
X244489Y322500D01*
Y319500D01*
X244659Y318203D01*
X245160Y316994D01*
X245956Y315956D01*
X246994Y315160D01*
X248203Y314659D01*
X249500Y314489D01*
X250797Y314659D01*
X252006Y315160D01*
X253044Y315956D01*
X253840Y316994D01*
X254229Y317934D01*
X254771D01*
X255160Y316994D01*
X255956Y315956D01*
X256994Y315160D01*
X258203Y314659D01*
X259500Y314489D01*
X260797Y314659D01*
X262006Y315160D01*
X263044Y315956D01*
X263840Y316994D01*
X264341Y318203D01*
X264511Y319500D01*
Y322500D01*
X264341Y323797D01*
X263840Y325006D01*
X263044Y326044D01*
X262006Y326840D01*
X260797Y327341D01*
X259500Y327511D01*
D02*
G37*
G36*
X99500Y340007D02*
X97938Y339853D01*
X96436Y339398D01*
X95051Y338658D01*
X93838Y337662D01*
X92842Y336449D01*
X92102Y335064D01*
X91647Y333562D01*
X91493Y332000D01*
X91647Y330438D01*
X92102Y328936D01*
X92842Y327552D01*
X93838Y326338D01*
X95051Y325342D01*
X96436Y324602D01*
X97938Y324147D01*
X99500Y323993D01*
X101062Y324147D01*
X102564Y324602D01*
X103948Y325342D01*
X105162Y326338D01*
X106158Y327552D01*
X106898Y328936D01*
X107353Y330438D01*
X107507Y332000D01*
X107353Y333562D01*
X106898Y335064D01*
X106158Y336449D01*
X105162Y337662D01*
X103948Y338658D01*
X102564Y339398D01*
X101062Y339853D01*
X99500Y340007D01*
D02*
G37*
G36*
X51500D02*
X49938Y339853D01*
X48436Y339398D01*
X47052Y338658D01*
X45838Y337662D01*
X44842Y336449D01*
X44102Y335064D01*
X43647Y333562D01*
X43493Y332000D01*
X43647Y330438D01*
X44102Y328936D01*
X44842Y327552D01*
X45838Y326338D01*
X47052Y325342D01*
X48436Y324602D01*
X49938Y324147D01*
X51500Y323993D01*
X53062Y324147D01*
X54564Y324602D01*
X55949Y325342D01*
X57162Y326338D01*
X58158Y327552D01*
X58898Y328936D01*
X59353Y330438D01*
X59507Y332000D01*
X59353Y333562D01*
X58898Y335064D01*
X58158Y336449D01*
X57162Y337662D01*
X55949Y338658D01*
X54564Y339398D01*
X53062Y339853D01*
X51500Y340007D01*
D02*
G37*
G36*
X344500Y339507D02*
X342938Y339353D01*
X341436Y338898D01*
X340052Y338158D01*
X338838Y337162D01*
X337842Y335948D01*
X337102Y334564D01*
X336647Y333062D01*
X336493Y331500D01*
X336647Y329938D01*
X337102Y328436D01*
X337842Y327051D01*
X338838Y325838D01*
X340052Y324842D01*
X341436Y324102D01*
X342938Y323647D01*
X344500Y323493D01*
X346062Y323647D01*
X347564Y324102D01*
X348949Y324842D01*
X350162Y325838D01*
X351158Y327051D01*
X351898Y328436D01*
X352353Y329938D01*
X352507Y331500D01*
X352353Y333062D01*
X351898Y334564D01*
X351158Y335948D01*
X350162Y337162D01*
X348949Y338158D01*
X347564Y338898D01*
X346062Y339353D01*
X344500Y339507D01*
D02*
G37*
G36*
X296500D02*
X294938Y339353D01*
X293436Y338898D01*
X292052Y338158D01*
X290838Y337162D01*
X289842Y335948D01*
X289102Y334564D01*
X288647Y333062D01*
X288493Y331500D01*
X288647Y329938D01*
X289102Y328436D01*
X289842Y327051D01*
X290838Y325838D01*
X292052Y324842D01*
X293436Y324102D01*
X294938Y323647D01*
X296500Y323493D01*
X298062Y323647D01*
X299564Y324102D01*
X300949Y324842D01*
X302162Y325838D01*
X303158Y327051D01*
X303898Y328436D01*
X304353Y329938D01*
X304507Y331500D01*
X304353Y333062D01*
X303898Y334564D01*
X303158Y335948D01*
X302162Y337162D01*
X300949Y338158D01*
X299564Y338898D01*
X298062Y339353D01*
X296500Y339507D01*
D02*
G37*
G36*
X122500Y330497D02*
X121330Y330382D01*
X120205Y330041D01*
X119168Y329487D01*
X118259Y328741D01*
X117513Y327832D01*
X116959Y326795D01*
X116618Y325670D01*
X116503Y324500D01*
X116618Y323330D01*
X116959Y322205D01*
X117513Y321168D01*
X118259Y320259D01*
X119168Y319513D01*
X120205Y318959D01*
X121330Y318618D01*
X122500Y318503D01*
X123670Y318618D01*
X124795Y318959D01*
X125832Y319513D01*
X126741Y320259D01*
X127487Y321168D01*
X128041Y322205D01*
X128382Y323330D01*
X128497Y324500D01*
X128382Y325670D01*
X128041Y326795D01*
X127487Y327832D01*
X126741Y328741D01*
X125832Y329487D01*
X124795Y330041D01*
X123670Y330382D01*
X122500Y330497D01*
D02*
G37*
G36*
X180200Y322337D02*
X179000D01*
Y318500D01*
X184471D01*
X184389Y319123D01*
X183956Y320169D01*
X183267Y321067D01*
X182369Y321756D01*
X181323Y322189D01*
X180200Y322337D01*
D02*
G37*
G36*
X178000D02*
X176800D01*
X175678Y322189D01*
X174631Y321756D01*
X173733Y321067D01*
X173044Y320169D01*
X172611Y319123D01*
X172529Y318500D01*
X178000D01*
Y322337D01*
D02*
G37*
G36*
X161500Y329016D02*
X160072Y328828D01*
X158742Y328277D01*
X157600Y327400D01*
X156723Y326258D01*
X156172Y324928D01*
X155984Y323500D01*
X156172Y322072D01*
X156723Y320742D01*
X157600Y319600D01*
X158742Y318723D01*
X160072Y318172D01*
X161500Y317984D01*
X162928Y318172D01*
X164258Y318723D01*
X165400Y319600D01*
X166277Y320742D01*
X166828Y322072D01*
X167016Y323500D01*
X166828Y324928D01*
X166277Y326258D01*
X165400Y327400D01*
X164258Y328277D01*
X162928Y328828D01*
X161500Y329016D01*
D02*
G37*
G36*
X278969Y329468D02*
X267032D01*
Y317531D01*
X278969D01*
Y329468D01*
D02*
G37*
G36*
X213700Y321337D02*
X212500D01*
Y317500D01*
X217971D01*
X217889Y318123D01*
X217456Y319169D01*
X216767Y320067D01*
X215869Y320756D01*
X214823Y321189D01*
X213700Y321337D01*
D02*
G37*
G36*
X211500D02*
X210300D01*
X209177Y321189D01*
X208131Y320756D01*
X207233Y320067D01*
X206544Y319169D01*
X206111Y318123D01*
X206029Y317500D01*
X211500D01*
Y321337D01*
D02*
G37*
G36*
X233000Y328516D02*
X231572Y328328D01*
X230242Y327777D01*
X229100Y326900D01*
X228223Y325758D01*
X227672Y324428D01*
X227484Y323000D01*
X227672Y321572D01*
X228223Y320242D01*
X229100Y319100D01*
X230242Y318223D01*
X231572Y317672D01*
X233000Y317484D01*
X234428Y317672D01*
X235758Y318223D01*
X236900Y319100D01*
X237777Y320242D01*
X238328Y321572D01*
X238516Y323000D01*
X238328Y324428D01*
X237777Y325758D01*
X236900Y326900D01*
X235758Y327777D01*
X234428Y328328D01*
X233000Y328516D01*
D02*
G37*
G36*
X378500Y326162D02*
X377164Y325986D01*
X375919Y325471D01*
X374850Y324650D01*
X374029Y323581D01*
X373514Y322336D01*
X373338Y321000D01*
X373514Y319664D01*
X374029Y318419D01*
X374850Y317350D01*
X375919Y316529D01*
X377164Y316014D01*
X378500Y315838D01*
X379836Y316014D01*
X381081Y316529D01*
X382150Y317350D01*
X382971Y318419D01*
X383486Y319664D01*
X383662Y321000D01*
X383486Y322336D01*
X382971Y323581D01*
X382150Y324650D01*
X381081Y325471D01*
X379836Y325986D01*
X378500Y326162D01*
D02*
G37*
G36*
X21618Y325618D02*
X11382D01*
Y324054D01*
X11224Y324028D01*
X10859Y323996D01*
X10357Y323983D01*
X10321Y323975D01*
X9000D01*
X8101Y323856D01*
X7754Y323712D01*
X7263Y323509D01*
X6543Y322957D01*
X3543Y319957D01*
X2991Y319237D01*
X2644Y318399D01*
X2525Y317500D01*
Y291000D01*
X2644Y290101D01*
X2991Y289263D01*
X3543Y288543D01*
X5525Y286561D01*
Y280047D01*
X5644Y279148D01*
X5724Y278954D01*
Y277882D01*
X5836Y277034D01*
X6163Y276244D01*
X6684Y275565D01*
X7362Y275045D01*
X8152Y274717D01*
X9000Y274606D01*
X9848Y274717D01*
X10638Y275045D01*
X11316Y275565D01*
X11683D01*
X12362Y275045D01*
X13152Y274717D01*
X14000Y274606D01*
X14848Y274717D01*
X15638Y275045D01*
X16151Y275438D01*
X16500Y275522D01*
X16849Y275438D01*
X17362Y275045D01*
X18152Y274717D01*
X19000Y274606D01*
X19848Y274717D01*
X20252Y274885D01*
X20752Y274634D01*
Y274634D01*
X24624D01*
X24810Y274491D01*
X25301Y274288D01*
X25648Y274144D01*
X26547Y274025D01*
X27002D01*
X27043Y274017D01*
X27585Y274010D01*
X28029Y273991D01*
X28821Y273916D01*
X29080Y273872D01*
X29290Y273824D01*
X29422Y273782D01*
X29441Y273774D01*
X29463Y273756D01*
X29494Y273739D01*
X30419Y273029D01*
X31664Y272514D01*
X33000Y272338D01*
X34336Y272514D01*
X35581Y273029D01*
X36650Y273850D01*
X37471Y274919D01*
X37986Y276164D01*
X38162Y277500D01*
X37986Y278836D01*
X37471Y280081D01*
X36650Y281150D01*
X35581Y281971D01*
X34336Y282486D01*
X33000Y282662D01*
X31664Y282486D01*
X30419Y281971D01*
X29494Y281261D01*
X29463Y281244D01*
X29441Y281226D01*
X29422Y281218D01*
X29290Y281176D01*
X29080Y281128D01*
X28840Y281087D01*
X27977Y281022D01*
X27530Y281511D01*
X27248Y281854D01*
Y285461D01*
X20752D01*
Y285461D01*
X20252Y285210D01*
X19848Y285377D01*
X19000Y285489D01*
X18152Y285377D01*
X17362Y285050D01*
X16849Y284656D01*
X16500Y284573D01*
X16151Y284656D01*
X15638Y285050D01*
X14848Y285377D01*
X14000Y285489D01*
X13152Y285377D01*
X12890Y285269D01*
X12475Y285546D01*
Y288000D01*
X12356Y288899D01*
X12212Y289246D01*
X12009Y289737D01*
X11457Y290457D01*
X9475Y292439D01*
Y316061D01*
X10429Y317015D01*
X10859Y317004D01*
X11224Y316972D01*
X11382Y316946D01*
Y315382D01*
X21618D01*
Y325618D01*
D02*
G37*
G36*
X109500Y316007D02*
X107938Y315853D01*
X106436Y315398D01*
X105052Y314658D01*
X103838Y313662D01*
X102842Y312449D01*
X102102Y311064D01*
X101647Y309562D01*
X101493Y308000D01*
X101647Y306438D01*
X102102Y304936D01*
X102842Y303552D01*
X103838Y302338D01*
X105052Y301342D01*
X106436Y300602D01*
X107938Y300147D01*
X109500Y299993D01*
X111062Y300147D01*
X112564Y300602D01*
X113949Y301342D01*
X115162Y302338D01*
X116158Y303552D01*
X116898Y304936D01*
X117353Y306438D01*
X117507Y308000D01*
X117353Y309562D01*
X116898Y311064D01*
X116158Y312449D01*
X115162Y313662D01*
X113949Y314658D01*
X112564Y315398D01*
X111062Y315853D01*
X109500Y316007D01*
D02*
G37*
G36*
X286500Y315507D02*
X284938Y315353D01*
X283436Y314898D01*
X282051Y314158D01*
X280838Y313162D01*
X279842Y311948D01*
X279102Y310564D01*
X278647Y309062D01*
X278493Y307500D01*
X278647Y305938D01*
X279102Y304436D01*
X279842Y303051D01*
X280838Y301838D01*
X282051Y300842D01*
X283436Y300102D01*
X284938Y299647D01*
X286500Y299493D01*
X288062Y299647D01*
X289564Y300102D01*
X290949Y300842D01*
X292162Y301838D01*
X293158Y303051D01*
X293898Y304436D01*
X294353Y305938D01*
X294507Y307500D01*
X294353Y309062D01*
X293898Y310564D01*
X293158Y311948D01*
X292162Y313162D01*
X290949Y314158D01*
X289564Y314898D01*
X288062Y315353D01*
X286500Y315507D01*
D02*
G37*
G36*
X383618Y306118D02*
X373382D01*
Y295882D01*
X383618D01*
Y306118D01*
D02*
G37*
G36*
X16500Y305662D02*
X15164Y305486D01*
X13919Y304971D01*
X12850Y304150D01*
X12029Y303081D01*
X11514Y301836D01*
X11338Y300500D01*
X11514Y299164D01*
X12029Y297919D01*
X12850Y296850D01*
X13919Y296029D01*
X15164Y295514D01*
X16500Y295338D01*
X17836Y295514D01*
X19081Y296029D01*
X20150Y296850D01*
X20971Y297919D01*
X21486Y299164D01*
X21662Y300500D01*
X21486Y301836D01*
X20971Y303081D01*
X20150Y304150D01*
X19081Y304971D01*
X17836Y305486D01*
X16500Y305662D01*
D02*
G37*
G36*
X147000Y297969D02*
Y293000D01*
X150534D01*
Y294000D01*
X150397Y295044D01*
X149994Y296017D01*
X149353Y296853D01*
X148517Y297494D01*
X147544Y297897D01*
X147000Y297969D01*
D02*
G37*
G36*
X146000D02*
X145456Y297897D01*
X144483Y297494D01*
X143647Y296853D01*
X143006Y296017D01*
X142603Y295044D01*
X142465Y294000D01*
Y293000D01*
X146000D01*
Y297969D01*
D02*
G37*
G36*
X184471Y317500D02*
X178500D01*
X172529D01*
X172611Y316878D01*
X173044Y315831D01*
X173733Y314933D01*
X174631Y314244D01*
X175678Y313811D01*
X176210Y313741D01*
Y313236D01*
X175425Y313133D01*
X174143Y312602D01*
X173043Y311757D01*
X172198Y310657D01*
X171667Y309375D01*
X171486Y308000D01*
X171667Y306625D01*
X172198Y305343D01*
X173043Y304242D01*
X174143Y303398D01*
X174500Y303250D01*
Y302750D01*
X174143Y302602D01*
X173043Y301758D01*
X172198Y300657D01*
X171667Y299375D01*
X171486Y298000D01*
X171667Y296625D01*
X172198Y295343D01*
X173043Y294243D01*
X174143Y293398D01*
X175425Y292867D01*
X176800Y292686D01*
X180200D01*
X181575Y292867D01*
X182857Y293398D01*
X183958Y294243D01*
X184802Y295343D01*
X185333Y296625D01*
X185514Y298000D01*
X185333Y299375D01*
X184802Y300657D01*
X183958Y301758D01*
X182857Y302602D01*
X182500Y302750D01*
Y303250D01*
X182857Y303398D01*
X183958Y304242D01*
X184802Y305343D01*
X185333Y306625D01*
X185514Y308000D01*
X185333Y309375D01*
X184802Y310657D01*
X183958Y311757D01*
X182857Y312602D01*
X181575Y313133D01*
X180790Y313236D01*
Y313741D01*
X181323Y313811D01*
X182369Y314244D01*
X183267Y314933D01*
X183956Y315831D01*
X184389Y316878D01*
X184471Y317500D01*
D02*
G37*
G36*
X212000Y317000D02*
D01*
Y316500D01*
X206029D01*
X206111Y315878D01*
X206544Y314831D01*
X207233Y313933D01*
X208131Y313244D01*
X209177Y312811D01*
X209710Y312741D01*
Y312236D01*
X208925Y312133D01*
X207643Y311602D01*
X206542Y310757D01*
X205698Y309657D01*
X205167Y308375D01*
X204986Y307000D01*
X205167Y305625D01*
X205698Y304343D01*
X206542Y303242D01*
X207643Y302398D01*
X208000Y302250D01*
Y301750D01*
X207643Y301602D01*
X206542Y300758D01*
X205698Y299657D01*
X205167Y298375D01*
X204986Y297000D01*
X205167Y295625D01*
X205698Y294343D01*
X206542Y293243D01*
X207643Y292398D01*
X208925Y291867D01*
X210300Y291686D01*
X213700D01*
X215075Y291867D01*
X216357Y292398D01*
X217458Y293243D01*
X218302Y294343D01*
X218833Y295625D01*
X219014Y297000D01*
X218833Y298375D01*
X218302Y299657D01*
X217458Y300758D01*
X216357Y301602D01*
X216000Y301750D01*
Y302250D01*
X216357Y302398D01*
X217458Y303242D01*
X218302Y304343D01*
X218833Y305625D01*
X219014Y307000D01*
X218833Y308375D01*
X218302Y309657D01*
X217458Y310757D01*
X216357Y311602D01*
X215075Y312133D01*
X214290Y312236D01*
Y312741D01*
X214823Y312811D01*
X215869Y313244D01*
X216767Y313933D01*
X217456Y314831D01*
X217889Y315878D01*
X217971Y316500D01*
X212000D01*
Y317000D01*
D02*
G37*
G36*
X260000Y296469D02*
Y291500D01*
X263534D01*
Y292500D01*
X263397Y293544D01*
X262994Y294517D01*
X262353Y295353D01*
X261517Y295994D01*
X260544Y296397D01*
X260000Y296469D01*
D02*
G37*
G36*
X259000D02*
X258456Y296397D01*
X257483Y295994D01*
X256647Y295353D01*
X256006Y294517D01*
X255603Y293544D01*
X255466Y292500D01*
Y291500D01*
X259000D01*
Y296469D01*
D02*
G37*
G36*
X150534Y292000D02*
X147000D01*
Y287031D01*
X147544Y287103D01*
X148517Y287506D01*
X149353Y288147D01*
X149994Y288983D01*
X150397Y289956D01*
X150534Y291000D01*
Y292000D01*
D02*
G37*
G36*
X146000D02*
X142465D01*
Y291000D01*
X142603Y289956D01*
X143006Y288983D01*
X143647Y288147D01*
X144483Y287506D01*
X145456Y287103D01*
X146000Y287031D01*
Y292000D01*
D02*
G37*
G36*
X141469Y298969D02*
X131532D01*
Y286032D01*
X141469D01*
Y298969D01*
D02*
G37*
G36*
X263534Y290500D02*
X260000D01*
Y285531D01*
X260544Y285603D01*
X261517Y286006D01*
X262353Y286647D01*
X262994Y287483D01*
X263397Y288456D01*
X263534Y289500D01*
Y290500D01*
D02*
G37*
G36*
X259000D02*
X255466D01*
Y289500D01*
X255603Y288456D01*
X256006Y287483D01*
X256647Y286647D01*
X257483Y286006D01*
X258456Y285603D01*
X259000Y285531D01*
Y290500D01*
D02*
G37*
G36*
X254468Y297468D02*
X244531D01*
Y284531D01*
X254468D01*
Y297468D01*
D02*
G37*
G36*
X128469Y295468D02*
X116532D01*
Y283531D01*
X128469D01*
Y295468D01*
D02*
G37*
G36*
X161500Y294016D02*
X160072Y293828D01*
X158742Y293277D01*
X157600Y292400D01*
X156723Y291258D01*
X156172Y289928D01*
X155984Y288500D01*
X156172Y287072D01*
X156723Y285742D01*
X157600Y284600D01*
X158742Y283723D01*
X160072Y283172D01*
X161500Y282984D01*
X162928Y283172D01*
X164258Y283723D01*
X165400Y284600D01*
X166277Y285742D01*
X166828Y287072D01*
X167016Y288500D01*
X166828Y289928D01*
X166277Y291258D01*
X165400Y292400D01*
X164258Y293277D01*
X162928Y293828D01*
X161500Y294016D01*
D02*
G37*
G36*
X273000Y294497D02*
X271830Y294382D01*
X270705Y294041D01*
X269668Y293487D01*
X268759Y292741D01*
X268013Y291832D01*
X267459Y290795D01*
X267118Y289670D01*
X267003Y288500D01*
X267118Y287330D01*
X267459Y286205D01*
X268013Y285168D01*
X268759Y284259D01*
X269668Y283513D01*
X270705Y282959D01*
X271830Y282618D01*
X273000Y282503D01*
X274170Y282618D01*
X275295Y282959D01*
X276332Y283513D01*
X277241Y284259D01*
X277987Y285168D01*
X278541Y286205D01*
X278882Y287330D01*
X278997Y288500D01*
X278882Y289670D01*
X278541Y290795D01*
X277987Y291832D01*
X277241Y292741D01*
X276332Y293487D01*
X275295Y294041D01*
X274170Y294382D01*
X273000Y294497D01*
D02*
G37*
G36*
X233000Y293516D02*
X231572Y293328D01*
X230242Y292777D01*
X229100Y291900D01*
X228223Y290758D01*
X227672Y289428D01*
X227484Y288000D01*
X227672Y286572D01*
X228223Y285242D01*
X229100Y284100D01*
X230242Y283223D01*
X231572Y282672D01*
X233000Y282484D01*
X234428Y282672D01*
X235758Y283223D01*
X236900Y284100D01*
X237777Y285242D01*
X238328Y286572D01*
X238516Y288000D01*
X238328Y289428D01*
X237777Y290758D01*
X236900Y291900D01*
X235758Y292777D01*
X234428Y293328D01*
X233000Y293516D01*
D02*
G37*
G36*
X99500Y292007D02*
X97938Y291853D01*
X96436Y291398D01*
X95051Y290658D01*
X93838Y289662D01*
X92842Y288449D01*
X92102Y287064D01*
X91647Y285562D01*
X91493Y284000D01*
X91647Y282438D01*
X92102Y280936D01*
X92842Y279552D01*
X93838Y278338D01*
X95051Y277342D01*
X96436Y276602D01*
X97938Y276147D01*
X99500Y275993D01*
X101062Y276147D01*
X102564Y276602D01*
X103948Y277342D01*
X105162Y278338D01*
X106158Y279552D01*
X106898Y280936D01*
X107353Y282438D01*
X107507Y284000D01*
X107353Y285562D01*
X106898Y287064D01*
X106158Y288449D01*
X105162Y289662D01*
X103948Y290658D01*
X102564Y291398D01*
X101062Y291853D01*
X99500Y292007D01*
D02*
G37*
G36*
X51500D02*
X49938Y291853D01*
X48436Y291398D01*
X47052Y290658D01*
X45838Y289662D01*
X44842Y288449D01*
X44102Y287064D01*
X43647Y285562D01*
X43493Y284000D01*
X43647Y282438D01*
X44102Y280936D01*
X44842Y279552D01*
X45838Y278338D01*
X47052Y277342D01*
X48436Y276602D01*
X49938Y276147D01*
X51500Y275993D01*
X53062Y276147D01*
X54564Y276602D01*
X55949Y277342D01*
X57162Y278338D01*
X58158Y279552D01*
X58898Y280936D01*
X59353Y282438D01*
X59507Y284000D01*
X59353Y285562D01*
X58898Y287064D01*
X58158Y288449D01*
X57162Y289662D01*
X55949Y290658D01*
X54564Y291398D01*
X53062Y291853D01*
X51500Y292007D01*
D02*
G37*
G36*
X344500Y291507D02*
X342938Y291353D01*
X341436Y290898D01*
X340052Y290158D01*
X338838Y289162D01*
X337842Y287948D01*
X337102Y286564D01*
X336647Y285062D01*
X336493Y283500D01*
X336647Y281938D01*
X337102Y280436D01*
X337842Y279051D01*
X338838Y277838D01*
X340052Y276842D01*
X341436Y276102D01*
X342938Y275647D01*
X344500Y275493D01*
X346062Y275647D01*
X347564Y276102D01*
X348949Y276842D01*
X350162Y277838D01*
X351158Y279051D01*
X351898Y280436D01*
X352353Y281938D01*
X352507Y283500D01*
X352353Y285062D01*
X351898Y286564D01*
X351158Y287948D01*
X350162Y289162D01*
X348949Y290158D01*
X347564Y290898D01*
X346062Y291353D01*
X344500Y291507D01*
D02*
G37*
G36*
X296500D02*
X294938Y291353D01*
X293436Y290898D01*
X292052Y290158D01*
X290838Y289162D01*
X289842Y287948D01*
X289102Y286564D01*
X288647Y285062D01*
X288493Y283500D01*
X288647Y281938D01*
X289102Y280436D01*
X289842Y279051D01*
X290838Y277838D01*
X292052Y276842D01*
X293436Y276102D01*
X294938Y275647D01*
X296500Y275493D01*
X298062Y275647D01*
X299564Y276102D01*
X300949Y276842D01*
X302162Y277838D01*
X303158Y279051D01*
X303898Y280436D01*
X304353Y281938D01*
X304507Y283500D01*
X304353Y285062D01*
X303898Y286564D01*
X303158Y287948D01*
X302162Y289162D01*
X300949Y290158D01*
X299564Y290898D01*
X298062Y291353D01*
X296500Y291507D01*
D02*
G37*
G36*
X44500Y271662D02*
X43164Y271486D01*
X41919Y270971D01*
X40994Y270261D01*
X40962Y270244D01*
X40942Y270226D01*
X40922Y270218D01*
X40790Y270176D01*
X40580Y270128D01*
X40340Y270087D01*
X39051Y269990D01*
X38543Y269983D01*
X38502Y269975D01*
X26000D01*
X25101Y269856D01*
X24263Y269509D01*
X23543Y268957D01*
X21543Y266957D01*
X20991Y266237D01*
X20644Y265399D01*
X20525Y264500D01*
Y263499D01*
X20110Y263221D01*
X19848Y263330D01*
X19000Y263441D01*
X18152Y263330D01*
X17362Y263002D01*
X16683Y262482D01*
X16317D01*
X15638Y263002D01*
X14848Y263330D01*
X14000Y263441D01*
X13152Y263330D01*
X12362Y263002D01*
X11683Y262482D01*
X11209Y261863D01*
X10714Y261771D01*
X10628Y261819D01*
X9889Y262313D01*
X9500Y262390D01*
Y258000D01*
Y253610D01*
X9889Y253687D01*
X10084Y253818D01*
X10525Y253582D01*
Y249369D01*
X9816D01*
X7632Y247184D01*
Y242816D01*
X9816Y240632D01*
X9824D01*
X10031Y240131D01*
X8600Y238700D01*
Y237500D01*
X12000D01*
X15400D01*
Y238700D01*
X13969Y240131D01*
X14176Y240632D01*
X14184D01*
X16368Y242816D01*
Y244455D01*
X16457Y244543D01*
X17009Y245263D01*
X17356Y246101D01*
X17475Y247000D01*
Y248958D01*
X17936Y249150D01*
X23543Y243543D01*
X24263Y242991D01*
X25101Y242644D01*
X26000Y242525D01*
X38061D01*
X38802Y241785D01*
X38824Y241749D01*
X39203Y241361D01*
X39504Y241034D01*
X40010Y240421D01*
X40163Y240207D01*
X40277Y240024D01*
X40341Y239901D01*
X40349Y239881D01*
X40351Y239854D01*
X40361Y239819D01*
X40514Y238664D01*
X41029Y237419D01*
X41850Y236350D01*
X42919Y235529D01*
X44164Y235014D01*
X45500Y234838D01*
X46836Y235014D01*
X48081Y235529D01*
X49150Y236350D01*
X49971Y237419D01*
X50486Y238664D01*
X50662Y240000D01*
X50486Y241336D01*
X49971Y242581D01*
X49150Y243650D01*
X48081Y244471D01*
X46836Y244986D01*
X45681Y245139D01*
X45646Y245149D01*
X45619Y245151D01*
X45599Y245159D01*
X45476Y245223D01*
X45293Y245337D01*
X45095Y245478D01*
X44114Y246321D01*
X43751Y246675D01*
X43716Y246698D01*
X41957Y248457D01*
X41237Y249009D01*
X40399Y249356D01*
X39500Y249475D01*
X27439D01*
X24706Y252208D01*
X24921Y252700D01*
X25638Y252997D01*
X26316Y253518D01*
X26837Y254197D01*
X27164Y254987D01*
X27276Y255835D01*
Y256907D01*
X27356Y257101D01*
X27475Y258000D01*
Y263025D01*
X38502D01*
X38543Y263017D01*
X39085Y263010D01*
X39529Y262991D01*
X40321Y262916D01*
X40580Y262872D01*
X40790Y262824D01*
X40922Y262782D01*
X40942Y262774D01*
X40962Y262756D01*
X40994Y262739D01*
X41919Y262029D01*
X43164Y261514D01*
X44500Y261338D01*
X45836Y261514D01*
X47081Y262029D01*
X48150Y262850D01*
X48971Y263919D01*
X49486Y265164D01*
X49662Y266500D01*
X49486Y267836D01*
X48971Y269081D01*
X48150Y270150D01*
X47081Y270971D01*
X45836Y271486D01*
X44500Y271662D01*
D02*
G37*
G36*
X380500Y262941D02*
X379652Y262830D01*
X378862Y262503D01*
X378349Y262109D01*
X378000Y262026D01*
X377651Y262109D01*
X377138Y262503D01*
X376348Y262830D01*
X375500Y262941D01*
X374652Y262830D01*
X373862Y262503D01*
X373349Y262109D01*
X373000Y262026D01*
X372651Y262109D01*
X372138Y262503D01*
X371348Y262830D01*
X370500Y262941D01*
X369652Y262830D01*
X368862Y262503D01*
X368183Y261982D01*
X367709Y261363D01*
X367214Y261271D01*
X367128Y261319D01*
X366389Y261813D01*
X366000Y261890D01*
Y257500D01*
Y253110D01*
X366389Y253187D01*
X366584Y253318D01*
X367025Y253082D01*
Y251537D01*
X366603Y251183D01*
X366525Y251170D01*
X366358Y251216D01*
X366324Y251228D01*
X365684Y251869D01*
X364828D01*
X364694Y251895D01*
X364617Y251880D01*
X364540Y251889D01*
X364466Y251869D01*
X361316D01*
X359132Y249684D01*
Y245316D01*
X361316Y243131D01*
X361324D01*
X361531Y242632D01*
X360100Y241200D01*
Y241069D01*
X360477Y241122D01*
X360884Y241204D01*
X361250Y241305D01*
X361575Y241423D01*
X361860Y241560D01*
X362103Y241715D01*
X362306Y241888D01*
Y240000D01*
X363500D01*
X366900D01*
Y241200D01*
X365469Y242632D01*
X365676Y243131D01*
X365684D01*
X366324Y243772D01*
X366358Y243784D01*
X366572Y243843D01*
X366847Y243900D01*
X367159Y243945D01*
X368030Y244009D01*
X368533Y244017D01*
X368686Y244050D01*
X369399Y244144D01*
X370237Y244491D01*
X370957Y245043D01*
X371564Y245650D01*
X372025Y245458D01*
Y239439D01*
X339043Y206457D01*
X338491Y205737D01*
X338144Y204899D01*
X338025Y204000D01*
Y146939D01*
X335061Y143975D01*
X236998D01*
X236957Y143983D01*
X236415Y143990D01*
X235971Y144009D01*
X235179Y144084D01*
X234920Y144128D01*
X234710Y144176D01*
X234578Y144218D01*
X234559Y144226D01*
X234538Y144244D01*
X234506Y144261D01*
X233581Y144971D01*
X232336Y145486D01*
X231000Y145662D01*
X229664Y145486D01*
X228419Y144971D01*
X227350Y144150D01*
X226529Y143081D01*
X226014Y141836D01*
X225838Y140500D01*
X226014Y139164D01*
X226529Y137919D01*
X227350Y136850D01*
X228419Y136029D01*
X229544Y135564D01*
X229614Y135052D01*
X229419Y134971D01*
X228350Y134150D01*
X227529Y133081D01*
X227014Y131836D01*
X226838Y130500D01*
X227014Y129164D01*
X227529Y127919D01*
X228350Y126850D01*
X229419Y126029D01*
X230664Y125514D01*
X232000Y125338D01*
X233336Y125514D01*
X234581Y126029D01*
X235506Y126739D01*
X235538Y126756D01*
X235559Y126774D01*
X235578Y126782D01*
X235710Y126824D01*
X235920Y126872D01*
X236160Y126913D01*
X237449Y127010D01*
X237957Y127017D01*
X237998Y127025D01*
X291404D01*
X291612Y126525D01*
X269043Y103957D01*
X268491Y103237D01*
X268144Y102399D01*
X268025Y101500D01*
Y83427D01*
X268017Y83386D01*
X268010Y82844D01*
X267991Y82401D01*
X267916Y81608D01*
X267872Y81349D01*
X267824Y81139D01*
X267782Y81007D01*
X267774Y80988D01*
X267756Y80967D01*
X267739Y80935D01*
X267029Y80010D01*
X266514Y78765D01*
X266338Y77429D01*
X266514Y76093D01*
X266807Y75384D01*
X266529Y74968D01*
X265032D01*
Y63032D01*
X276969D01*
Y74968D01*
X276471D01*
X276193Y75384D01*
X276486Y76093D01*
X276662Y77429D01*
X276486Y78765D01*
X275971Y80010D01*
X275261Y80935D01*
X275244Y80967D01*
X275226Y80988D01*
X275218Y81007D01*
X275176Y81139D01*
X275128Y81349D01*
X275087Y81589D01*
X274990Y82878D01*
X274983Y83386D01*
X274975Y83427D01*
Y100061D01*
X295939Y121025D01*
X363061D01*
X365525Y118561D01*
Y116134D01*
X364946Y115475D01*
X329498D01*
X329457Y115483D01*
X328915Y115490D01*
X328471Y115509D01*
X327679Y115584D01*
X327420Y115628D01*
X327210Y115676D01*
X327078Y115718D01*
X327059Y115726D01*
X327038Y115744D01*
X327006Y115761D01*
X326081Y116471D01*
X324836Y116986D01*
X323500Y117162D01*
X322164Y116986D01*
X320919Y116471D01*
X319850Y115650D01*
X319029Y114581D01*
X318514Y113336D01*
X318338Y112000D01*
X318514Y110664D01*
X319029Y109419D01*
X319850Y108350D01*
X320919Y107529D01*
X322164Y107014D01*
X323500Y106838D01*
X324836Y107014D01*
X326081Y107529D01*
X327006Y108239D01*
X327038Y108256D01*
X327059Y108274D01*
X327078Y108282D01*
X327210Y108324D01*
X327420Y108372D01*
X327660Y108413D01*
X328949Y108510D01*
X329457Y108517D01*
X329498Y108525D01*
X366453D01*
X367352Y108644D01*
X368190Y108991D01*
X368437Y109180D01*
X369000Y109106D01*
X369848Y109218D01*
X370638Y109545D01*
X371151Y109938D01*
X371500Y110022D01*
X371849Y109938D01*
X372362Y109545D01*
X373152Y109218D01*
X374000Y109106D01*
X374848Y109218D01*
X375638Y109545D01*
X376151Y109938D01*
X376500Y110022D01*
X376849Y109938D01*
X377362Y109545D01*
X378152Y109218D01*
X379000Y109106D01*
X379848Y109218D01*
X380638Y109545D01*
X381316Y110065D01*
X381791Y110684D01*
X382286Y110776D01*
X382372Y110728D01*
X383111Y110235D01*
X383500Y110157D01*
Y114547D01*
Y118937D01*
X383111Y118860D01*
X382916Y118730D01*
X382475Y118965D01*
Y122632D01*
X383684D01*
X385869Y124816D01*
Y129184D01*
X383684Y131369D01*
X383676D01*
X383469Y131869D01*
X383921Y132321D01*
X383819Y132405D01*
X383395Y132683D01*
X383012Y132878D01*
X382670Y132990D01*
X382370Y133019D01*
X382110Y132966D01*
X381890Y132831D01*
X381712Y132612D01*
X382859Y134500D01*
X381500D01*
X378100D01*
Y133300D01*
X379532Y131869D01*
X379324Y131369D01*
X379316D01*
X377132Y129184D01*
Y127545D01*
X376543Y126957D01*
X376519Y126926D01*
X376021Y126893D01*
X369957Y132957D01*
X369237Y133509D01*
X368399Y133856D01*
X367500Y133975D01*
X237998D01*
X237957Y133983D01*
X237415Y133990D01*
X236971Y134009D01*
X236179Y134084D01*
X235920Y134128D01*
X235710Y134176D01*
X235578Y134218D01*
X235559Y134226D01*
X235538Y134244D01*
X235506Y134261D01*
X234581Y134971D01*
X233456Y135436D01*
X233385Y135948D01*
X233581Y136029D01*
X234506Y136739D01*
X234538Y136756D01*
X234559Y136774D01*
X234578Y136782D01*
X234710Y136824D01*
X234920Y136872D01*
X235160Y136913D01*
X236449Y137010D01*
X236957Y137017D01*
X236998Y137025D01*
X336500D01*
X337399Y137144D01*
X338237Y137491D01*
X338957Y138043D01*
X343957Y143043D01*
X344509Y143763D01*
X344856Y144601D01*
X344975Y145500D01*
Y202561D01*
X364473Y222059D01*
X364946Y221826D01*
X364838Y221000D01*
X365014Y219664D01*
X365529Y218419D01*
X366350Y217350D01*
X367419Y216529D01*
X368664Y216014D01*
X370000Y215838D01*
X371336Y216014D01*
X372581Y216529D01*
X373506Y217239D01*
X373537Y217256D01*
X373558Y217274D01*
X373578Y217282D01*
X373710Y217324D01*
X373920Y217372D01*
X374160Y217413D01*
X375449Y217510D01*
X375957Y217517D01*
X375998Y217525D01*
X379500D01*
X380399Y217644D01*
X381237Y217991D01*
X381957Y218543D01*
X382957Y219543D01*
X383509Y220263D01*
X383856Y221101D01*
X383975Y222000D01*
Y257500D01*
X383856Y258399D01*
X383776Y258593D01*
Y259665D01*
X383664Y260513D01*
X383337Y261303D01*
X382817Y261982D01*
X382138Y262503D01*
X381348Y262830D01*
X380500Y262941D01*
D02*
G37*
G36*
X8500Y262390D02*
X8111Y262313D01*
X7357Y261809D01*
X6853Y261055D01*
X6676Y260165D01*
Y258500D01*
X8500D01*
Y262390D01*
D02*
G37*
G36*
X365000Y261890D02*
X364611Y261813D01*
X363857Y261309D01*
X363353Y260555D01*
X363176Y259665D01*
Y259170D01*
X363347Y259211D01*
X363704Y259344D01*
X363997Y259505D01*
X364224Y259696D01*
X364386Y259917D01*
X364484Y260166D01*
X364516Y260445D01*
Y258000D01*
X365000D01*
Y261890D01*
D02*
G37*
G36*
Y257000D02*
X364516D01*
Y254555D01*
X364484Y254834D01*
X364386Y255083D01*
X364224Y255304D01*
X363997Y255495D01*
X363704Y255656D01*
X363347Y255789D01*
X363176Y255830D01*
Y255335D01*
X363353Y254445D01*
X363857Y253691D01*
X364611Y253187D01*
X365000Y253110D01*
Y257000D01*
D02*
G37*
G36*
X8500Y257500D02*
X6676D01*
Y255835D01*
X6853Y254945D01*
X7357Y254191D01*
X8111Y253687D01*
X8500Y253610D01*
Y257500D01*
D02*
G37*
G36*
X222500Y264016D02*
X221072Y263828D01*
X219742Y263277D01*
X218600Y262400D01*
X217723Y261258D01*
X217172Y259928D01*
X216984Y258500D01*
X217172Y257072D01*
X217723Y255742D01*
X218600Y254600D01*
X219742Y253723D01*
X221072Y253172D01*
X222500Y252984D01*
X223928Y253172D01*
X225258Y253723D01*
X226400Y254600D01*
X227277Y255742D01*
X227828Y257072D01*
X228016Y258500D01*
X227828Y259928D01*
X227277Y261258D01*
X226400Y262400D01*
X225258Y263277D01*
X223928Y263828D01*
X222500Y264016D01*
D02*
G37*
G36*
X205833D02*
X204406Y263828D01*
X203076Y263277D01*
X201933Y262400D01*
X201057Y261258D01*
X200506Y259928D01*
X200318Y258500D01*
X200506Y257072D01*
X201057Y255742D01*
X201933Y254600D01*
X203076Y253723D01*
X204406Y253172D01*
X205833Y252984D01*
X207261Y253172D01*
X208591Y253723D01*
X209734Y254600D01*
X210610Y255742D01*
X211161Y257072D01*
X211349Y258500D01*
X211161Y259928D01*
X210610Y261258D01*
X209734Y262400D01*
X208591Y263277D01*
X207261Y263828D01*
X205833Y264016D01*
D02*
G37*
G36*
X189167D02*
X187739Y263828D01*
X186409Y263277D01*
X185266Y262400D01*
X184390Y261258D01*
X183839Y259928D01*
X183651Y258500D01*
X183839Y257072D01*
X184390Y255742D01*
X185266Y254600D01*
X186409Y253723D01*
X187739Y253172D01*
X189167Y252984D01*
X190594Y253172D01*
X191925Y253723D01*
X193067Y254600D01*
X193943Y255742D01*
X194494Y257072D01*
X194682Y258500D01*
X194494Y259928D01*
X193943Y261258D01*
X193067Y262400D01*
X191925Y263277D01*
X190594Y263828D01*
X189167Y264016D01*
D02*
G37*
G36*
X172500D02*
X171072Y263828D01*
X169742Y263277D01*
X168600Y262400D01*
X167723Y261258D01*
X167172Y259928D01*
X166984Y258500D01*
X167172Y257072D01*
X167723Y255742D01*
X168600Y254600D01*
X169742Y253723D01*
X171072Y253172D01*
X172500Y252984D01*
X173928Y253172D01*
X175258Y253723D01*
X176400Y254600D01*
X177277Y255742D01*
X177828Y257072D01*
X178016Y258500D01*
X177828Y259928D01*
X177277Y261258D01*
X176400Y262400D01*
X175258Y263277D01*
X173928Y263828D01*
X172500Y264016D01*
D02*
G37*
G36*
X363000Y239000D02*
X362306D01*
Y237112D01*
X362103Y237285D01*
X361860Y237440D01*
X361575Y237577D01*
X361250Y237695D01*
X360884Y237796D01*
X360477Y237878D01*
X360100Y237931D01*
Y237800D01*
X361800Y236100D01*
X363000D01*
Y239000D01*
D02*
G37*
G36*
X366900D02*
X364000D01*
Y236100D01*
X365200D01*
X366900Y237800D01*
Y239000D01*
D02*
G37*
G36*
X15400Y236500D02*
X12500D01*
Y233600D01*
X13700D01*
X15400Y235300D01*
Y236500D01*
D02*
G37*
G36*
X11500D02*
X8600D01*
Y235300D01*
X10300Y233600D01*
X11500D01*
Y236500D01*
D02*
G37*
G36*
X222500Y229016D02*
X221072Y228828D01*
X219742Y228277D01*
X218600Y227400D01*
X217723Y226258D01*
X217172Y224928D01*
X216984Y223500D01*
X217172Y222072D01*
X217723Y220742D01*
X218600Y219600D01*
X219742Y218723D01*
X221072Y218172D01*
X222500Y217984D01*
X223928Y218172D01*
X225258Y218723D01*
X226400Y219600D01*
X227277Y220742D01*
X227828Y222072D01*
X228016Y223500D01*
X227828Y224928D01*
X227277Y226258D01*
X226400Y227400D01*
X225258Y228277D01*
X223928Y228828D01*
X222500Y229016D01*
D02*
G37*
G36*
X205833D02*
X204406Y228828D01*
X203076Y228277D01*
X201933Y227400D01*
X201057Y226258D01*
X200506Y224928D01*
X200318Y223500D01*
X200506Y222072D01*
X201057Y220742D01*
X201933Y219600D01*
X203076Y218723D01*
X204406Y218172D01*
X205833Y217984D01*
X207261Y218172D01*
X208591Y218723D01*
X209734Y219600D01*
X210610Y220742D01*
X211161Y222072D01*
X211349Y223500D01*
X211161Y224928D01*
X210610Y226258D01*
X209734Y227400D01*
X208591Y228277D01*
X207261Y228828D01*
X205833Y229016D01*
D02*
G37*
G36*
X189167D02*
X187739Y228828D01*
X186409Y228277D01*
X185266Y227400D01*
X184390Y226258D01*
X183839Y224928D01*
X183651Y223500D01*
X183839Y222072D01*
X184390Y220742D01*
X185266Y219600D01*
X186409Y218723D01*
X187739Y218172D01*
X189167Y217984D01*
X190594Y218172D01*
X191925Y218723D01*
X193067Y219600D01*
X193943Y220742D01*
X194494Y222072D01*
X194682Y223500D01*
X194494Y224928D01*
X193943Y226258D01*
X193067Y227400D01*
X191925Y228277D01*
X190594Y228828D01*
X189167Y229016D01*
D02*
G37*
G36*
X172500D02*
X171072Y228828D01*
X169742Y228277D01*
X168600Y227400D01*
X167723Y226258D01*
X167172Y224928D01*
X166984Y223500D01*
X167172Y222072D01*
X167723Y220742D01*
X168600Y219600D01*
X169742Y218723D01*
X171072Y218172D01*
X172500Y217984D01*
X173928Y218172D01*
X175258Y218723D01*
X176400Y219600D01*
X177277Y220742D01*
X177828Y222072D01*
X178016Y223500D01*
X177828Y224928D01*
X177277Y226258D01*
X176400Y227400D01*
X175258Y228277D01*
X173928Y228828D01*
X172500Y229016D01*
D02*
G37*
G36*
X201150Y215518D02*
X199657Y215321D01*
X198266Y214745D01*
X197072Y213828D01*
X196465Y213038D01*
X195835D01*
X195229Y213828D01*
X194034Y214745D01*
X192643Y215321D01*
X191150Y215518D01*
X189657Y215321D01*
X188266Y214745D01*
X187072Y213828D01*
X186465Y213038D01*
X185835D01*
X185229Y213828D01*
X184034Y214745D01*
X182643Y215321D01*
X181150Y215518D01*
X179657Y215321D01*
X178266Y214745D01*
X177071Y213828D01*
X176155Y212634D01*
X175579Y211243D01*
X175382Y209750D01*
Y208250D01*
X175579Y206757D01*
X176155Y205366D01*
X177071Y204171D01*
X178266Y203255D01*
X179657Y202679D01*
X181150Y202482D01*
X182643Y202679D01*
X184034Y203255D01*
X185229Y204171D01*
X185835Y204962D01*
X186465D01*
X187072Y204171D01*
X188266Y203255D01*
X189657Y202679D01*
X191150Y202482D01*
X192643Y202679D01*
X194034Y203255D01*
X195229Y204171D01*
X195835Y204962D01*
X196465D01*
X197072Y204171D01*
X198266Y203255D01*
X199657Y202679D01*
X201150Y202482D01*
X202643Y202679D01*
X204034Y203255D01*
X204931Y203944D01*
X205432Y203697D01*
Y202532D01*
X216868D01*
Y215469D01*
X205432D01*
Y214303D01*
X204931Y214056D01*
X204034Y214745D01*
X202643Y215321D01*
X201150Y215518D01*
D02*
G37*
G36*
X381500Y200202D02*
Y196185D01*
X385517D01*
X385426Y196871D01*
X384969Y197976D01*
X384240Y198925D01*
X383291Y199654D01*
X382186Y200111D01*
X381500Y200202D01*
D02*
G37*
G36*
X380500D02*
X379814Y200111D01*
X378709Y199654D01*
X377760Y198925D01*
X377031Y197976D01*
X376574Y196871D01*
X376483Y196185D01*
X380500D01*
Y200202D01*
D02*
G37*
G36*
X373732Y200228D02*
X369689D01*
Y196185D01*
X373732D01*
Y200228D01*
D02*
G37*
G36*
X368689D02*
X364646D01*
Y196185D01*
X368689D01*
Y200228D01*
D02*
G37*
G36*
X282469Y227219D02*
X269531D01*
Y215781D01*
X270697D01*
X270944Y215282D01*
X270255Y214384D01*
X269679Y212993D01*
X269482Y211500D01*
X269679Y210007D01*
X270255Y208616D01*
X271171Y207421D01*
X271962Y206815D01*
Y206185D01*
X271171Y205578D01*
X270255Y204384D01*
X269679Y202993D01*
X269482Y201500D01*
X269679Y200007D01*
X270255Y198616D01*
X271171Y197422D01*
X271962Y196815D01*
Y196185D01*
X271171Y195579D01*
X270255Y194384D01*
X269679Y192993D01*
X269482Y191500D01*
X269679Y190007D01*
X270255Y188616D01*
X271171Y187422D01*
X272047Y186750D01*
X271877Y186250D01*
X270000D01*
Y182000D01*
X275500D01*
X281000D01*
Y186250D01*
X280123D01*
X279953Y186750D01*
X280828Y187422D01*
X281745Y188616D01*
X282321Y190007D01*
X282518Y191500D01*
X282321Y192993D01*
X281745Y194384D01*
X280828Y195579D01*
X280038Y196185D01*
Y196815D01*
X280828Y197422D01*
X281745Y198616D01*
X282321Y200007D01*
X282518Y201500D01*
X282321Y202993D01*
X281745Y204384D01*
X280828Y205578D01*
X280038Y206185D01*
Y206815D01*
X280828Y207421D01*
X281745Y208616D01*
X282321Y210007D01*
X282518Y211500D01*
X282321Y212993D01*
X281745Y214384D01*
X281056Y215282D01*
X281303Y215781D01*
X282469D01*
Y227219D01*
D02*
G37*
G36*
X201500Y183018D02*
X200007Y182821D01*
X198616Y182245D01*
X197422Y181328D01*
X196815Y180538D01*
X196185D01*
X195579Y181328D01*
X194384Y182245D01*
X192993Y182821D01*
X191500Y183018D01*
X190007Y182821D01*
X188616Y182245D01*
X187422Y181328D01*
X186815Y180538D01*
X186185D01*
X185579Y181328D01*
X184384Y182245D01*
X182993Y182821D01*
X181500Y183018D01*
X180007Y182821D01*
X178616Y182245D01*
X177421Y181328D01*
X176505Y180134D01*
X175929Y178743D01*
X175732Y177250D01*
Y175750D01*
X175929Y174257D01*
X176505Y172866D01*
X177421Y171671D01*
X178616Y170755D01*
X180007Y170179D01*
X181500Y169982D01*
X182993Y170179D01*
X184384Y170755D01*
X185579Y171671D01*
X186185Y172462D01*
X186815D01*
X187422Y171671D01*
X188616Y170755D01*
X190007Y170179D01*
X191500Y169982D01*
X192993Y170179D01*
X194384Y170755D01*
X195579Y171671D01*
X196185Y172462D01*
X196815D01*
X197422Y171671D01*
X198616Y170755D01*
X200007Y170179D01*
X201500Y169982D01*
X202993Y170179D01*
X204384Y170755D01*
X205281Y171444D01*
X205782Y171197D01*
Y170031D01*
X217218D01*
Y182968D01*
X205782D01*
Y181803D01*
X205281Y181556D01*
X204384Y182245D01*
X202993Y182821D01*
X201500Y183018D01*
D02*
G37*
G36*
X281000Y181000D02*
X275500D01*
X270000D01*
Y176750D01*
X274406D01*
X274439Y176250D01*
X273510Y176128D01*
X272355Y175649D01*
X271362Y174888D01*
X270601Y173896D01*
X270122Y172740D01*
X270025Y172000D01*
X275500D01*
X280975D01*
X280878Y172740D01*
X280399Y173896D01*
X279638Y174888D01*
X278645Y175649D01*
X277490Y176128D01*
X276561Y176250D01*
X276594Y176750D01*
X281000D01*
Y181000D01*
D02*
G37*
G36*
X280975Y171000D02*
X275500D01*
X270025D01*
X270122Y170260D01*
X270601Y169105D01*
X271362Y168112D01*
X272355Y167351D01*
X273510Y166872D01*
X274422Y166752D01*
Y166248D01*
X273510Y166128D01*
X272355Y165649D01*
X271362Y164888D01*
X270601Y163895D01*
X270122Y162740D01*
X270025Y162000D01*
X275500D01*
X280975D01*
X280878Y162740D01*
X280399Y163895D01*
X279638Y164888D01*
X278645Y165649D01*
X277490Y166128D01*
X276578Y166248D01*
Y166752D01*
X277490Y166872D01*
X278645Y167351D01*
X279638Y168112D01*
X280399Y169105D01*
X280878Y170260D01*
X280975Y171000D01*
D02*
G37*
G36*
X385517Y195185D02*
X376483D01*
X376574Y194499D01*
X377031Y193394D01*
X377760Y192445D01*
X378709Y191717D01*
X379090Y191559D01*
Y191017D01*
X378220Y190657D01*
X377069Y189774D01*
X376185Y188622D01*
X375630Y187281D01*
X375441Y185843D01*
X375630Y184404D01*
X376185Y183063D01*
X377069Y181912D01*
X377964Y181224D01*
Y180618D01*
X377069Y179931D01*
X376185Y178780D01*
X375630Y177439D01*
X375441Y176000D01*
X375630Y174561D01*
X376185Y173220D01*
X377069Y172069D01*
X377964Y171382D01*
Y170776D01*
X377069Y170089D01*
X376185Y168937D01*
X375630Y167596D01*
X375441Y166157D01*
X375630Y164719D01*
X376185Y163378D01*
X377069Y162226D01*
X378220Y161343D01*
X379561Y160788D01*
X381000Y160598D01*
X382439Y160788D01*
X383780Y161343D01*
X384931Y162226D01*
X385815Y163378D01*
X386370Y164719D01*
X386559Y166157D01*
X386370Y167596D01*
X385815Y168937D01*
X384931Y170089D01*
X384035Y170776D01*
Y171382D01*
X384931Y172069D01*
X385815Y173220D01*
X386370Y174561D01*
X386559Y176000D01*
X386370Y177439D01*
X385815Y178780D01*
X384931Y179931D01*
X384035Y180618D01*
Y181224D01*
X384931Y181912D01*
X385815Y183063D01*
X386370Y184404D01*
X386559Y185843D01*
X386370Y187281D01*
X385815Y188622D01*
X384931Y189774D01*
X383780Y190657D01*
X382910Y191017D01*
Y191559D01*
X383291Y191717D01*
X384240Y192445D01*
X384969Y193394D01*
X385426Y194499D01*
X385517Y195185D01*
D02*
G37*
G36*
X373732D02*
X364646D01*
Y191142D01*
X366191D01*
X366392Y190675D01*
X366389Y190642D01*
X365258Y189774D01*
X364374Y188622D01*
X363819Y187281D01*
X363630Y185843D01*
X363819Y184404D01*
X364374Y183063D01*
X365258Y181912D01*
X366154Y181224D01*
Y180618D01*
X365258Y179931D01*
X364374Y178780D01*
X363819Y177439D01*
X363630Y176000D01*
X363819Y174561D01*
X364374Y173220D01*
X365258Y172069D01*
X366154Y171382D01*
Y170776D01*
X365258Y170089D01*
X364374Y168937D01*
X363819Y167596D01*
X363630Y166157D01*
X363819Y164719D01*
X364374Y163378D01*
X365258Y162226D01*
X366409Y161343D01*
X367750Y160788D01*
X369189Y160598D01*
X370628Y160788D01*
X371969Y161343D01*
X373120Y162226D01*
X374004Y163378D01*
X374559Y164719D01*
X374748Y166157D01*
X374559Y167596D01*
X374004Y168937D01*
X373120Y170089D01*
X372224Y170776D01*
Y171382D01*
X373120Y172069D01*
X374004Y173220D01*
X374559Y174561D01*
X374748Y176000D01*
X374559Y177439D01*
X374004Y178780D01*
X373120Y179931D01*
X372224Y180618D01*
Y181224D01*
X373120Y181912D01*
X374004Y183063D01*
X374559Y184404D01*
X374748Y185843D01*
X374559Y187281D01*
X374004Y188622D01*
X373120Y189774D01*
X371989Y190642D01*
X371986Y190675D01*
X372187Y191142D01*
X373732D01*
Y195185D01*
D02*
G37*
G36*
X201500Y158518D02*
X200007Y158321D01*
X198616Y157745D01*
X197422Y156828D01*
X196815Y156038D01*
X196185D01*
X195579Y156828D01*
X194384Y157745D01*
X192993Y158321D01*
X191500Y158518D01*
X190007Y158321D01*
X188616Y157745D01*
X187422Y156828D01*
X186815Y156038D01*
X186185D01*
X185579Y156828D01*
X184384Y157745D01*
X182993Y158321D01*
X181500Y158518D01*
X180007Y158321D01*
X178616Y157745D01*
X177421Y156828D01*
X176505Y155634D01*
X175929Y154243D01*
X175732Y152750D01*
Y151250D01*
X175929Y149757D01*
X176505Y148366D01*
X177421Y147171D01*
X178616Y146255D01*
X180007Y145679D01*
X181500Y145482D01*
X182993Y145679D01*
X184384Y146255D01*
X185579Y147171D01*
X186185Y147962D01*
X186815D01*
X187422Y147171D01*
X188616Y146255D01*
X190007Y145679D01*
X191500Y145482D01*
X192993Y145679D01*
X194384Y146255D01*
X195579Y147171D01*
X196185Y147962D01*
X196815D01*
X197422Y147171D01*
X198616Y146255D01*
X200007Y145679D01*
X201500Y145482D01*
X202993Y145679D01*
X204384Y146255D01*
X205281Y146944D01*
X205782Y146697D01*
Y145531D01*
X217218D01*
Y158468D01*
X205782D01*
Y157303D01*
X205281Y157056D01*
X204384Y157745D01*
X202993Y158321D01*
X201500Y158518D01*
D02*
G37*
G36*
X280975Y161000D02*
X275500D01*
X270025D01*
X270122Y160260D01*
X270601Y159105D01*
X271362Y158112D01*
X272355Y157351D01*
X273510Y156872D01*
X274422Y156752D01*
Y156248D01*
X273510Y156128D01*
X272355Y155649D01*
X271362Y154888D01*
X270601Y153895D01*
X270122Y152740D01*
X270025Y152000D01*
X275500D01*
X280975D01*
X280878Y152740D01*
X280399Y153895D01*
X279638Y154888D01*
X278645Y155649D01*
X277490Y156128D01*
X276578Y156248D01*
Y156752D01*
X277490Y156872D01*
X278645Y157351D01*
X279638Y158112D01*
X280399Y159105D01*
X280878Y160260D01*
X280975Y161000D01*
D02*
G37*
G36*
Y151000D02*
X276000D01*
Y146709D01*
X276250D01*
X277490Y146872D01*
X278645Y147351D01*
X279638Y148112D01*
X280399Y149104D01*
X280878Y150260D01*
X280975Y151000D01*
D02*
G37*
G36*
X275000D02*
X270025D01*
X270122Y150260D01*
X270601Y149104D01*
X271362Y148112D01*
X272355Y147351D01*
X273510Y146872D01*
X274750Y146709D01*
X275000D01*
Y151000D01*
D02*
G37*
G36*
X97000Y147162D02*
X95664Y146986D01*
X94419Y146471D01*
X93494Y145761D01*
X93463Y145744D01*
X93441Y145726D01*
X93422Y145718D01*
X93290Y145676D01*
X93080Y145628D01*
X92840Y145587D01*
X91551Y145490D01*
X91043Y145483D01*
X91002Y145475D01*
X28500D01*
X27601Y145356D01*
X26763Y145009D01*
X26043Y144457D01*
X9240Y127654D01*
X8688Y126934D01*
X8341Y126096D01*
X8222Y125197D01*
Y106197D01*
X8341Y105298D01*
X8688Y104460D01*
X8945Y104125D01*
X8862Y103550D01*
X8184Y103029D01*
X7663Y102351D01*
X7336Y101560D01*
X7224Y100713D01*
Y99640D01*
X7144Y99446D01*
X7025Y98547D01*
Y92500D01*
X7144Y91601D01*
X7491Y90763D01*
X8043Y90043D01*
X9543Y88543D01*
X10263Y87991D01*
X10754Y87788D01*
X11101Y87644D01*
X12000Y87525D01*
X38502D01*
X38543Y87517D01*
X39085Y87510D01*
X39529Y87491D01*
X40321Y87416D01*
X40580Y87372D01*
X40790Y87324D01*
X40922Y87282D01*
X40942Y87274D01*
X40962Y87256D01*
X40994Y87239D01*
X41919Y86529D01*
X43164Y86014D01*
X44500Y85838D01*
X45836Y86014D01*
X47081Y86529D01*
X48150Y87350D01*
X48971Y88419D01*
X49486Y89664D01*
X49662Y91000D01*
X49486Y92336D01*
X48971Y93581D01*
X48150Y94650D01*
X47081Y95471D01*
X45836Y95986D01*
X44500Y96162D01*
X43164Y95986D01*
X41919Y95471D01*
X40994Y94761D01*
X40962Y94744D01*
X40942Y94726D01*
X40922Y94718D01*
X40790Y94676D01*
X40580Y94628D01*
X40340Y94587D01*
X39051Y94490D01*
X38543Y94483D01*
X38502Y94475D01*
X27569D01*
X27301Y94975D01*
X27647Y95493D01*
X27824Y96382D01*
Y98047D01*
X25500D01*
Y98547D01*
X25000D01*
Y102937D01*
X24611Y102860D01*
X24416Y102730D01*
X23975Y102965D01*
Y106632D01*
X24684D01*
X26869Y108816D01*
Y113184D01*
X24684Y115368D01*
X24676D01*
X24468Y115868D01*
X25900Y117300D01*
Y117481D01*
X25061Y117422D01*
X24727Y117365D01*
X24455Y117295D01*
X24243Y117212D01*
X24091Y117117D01*
X24000Y117009D01*
X23970Y116888D01*
Y118500D01*
X22500D01*
X19100D01*
Y117300D01*
X20531Y115868D01*
X20324Y115368D01*
X20316D01*
X18132Y113184D01*
Y111545D01*
X18043Y111457D01*
X17491Y110737D01*
X17144Y109899D01*
X17025Y109000D01*
Y106436D01*
X16564Y106244D01*
X15172Y107636D01*
Y123758D01*
X29939Y138525D01*
X68076D01*
X68254Y138025D01*
X67529Y137081D01*
X67014Y135836D01*
X66838Y134500D01*
X67014Y133164D01*
X67529Y131919D01*
X67533Y131915D01*
Y115085D01*
X67529Y115081D01*
X67014Y113836D01*
X66838Y112500D01*
X67014Y111164D01*
X67529Y109919D01*
X68350Y108850D01*
X69419Y108029D01*
X70664Y107514D01*
X72000Y107338D01*
X73336Y107514D01*
X74581Y108029D01*
X75650Y108850D01*
X76471Y109919D01*
X76986Y111164D01*
X77162Y112500D01*
X76986Y113836D01*
X76471Y115081D01*
X76467Y115085D01*
Y131915D01*
X76471Y131919D01*
X76986Y133164D01*
X77162Y134500D01*
X76986Y135836D01*
X76471Y137081D01*
X75746Y138025D01*
X75924Y138525D01*
X91002D01*
X91043Y138517D01*
X91585Y138510D01*
X92028Y138491D01*
X92821Y138416D01*
X93080Y138372D01*
X93290Y138324D01*
X93422Y138282D01*
X93441Y138274D01*
X93463Y138256D01*
X93494Y138239D01*
X94419Y137529D01*
X95664Y137014D01*
X97000Y136838D01*
X98336Y137014D01*
X99581Y137529D01*
X100650Y138350D01*
X101471Y139419D01*
X101986Y140664D01*
X102162Y142000D01*
X101986Y143336D01*
X101471Y144581D01*
X100650Y145650D01*
X99581Y146471D01*
X98336Y146986D01*
X97000Y147162D01*
D02*
G37*
G36*
X383200Y138400D02*
X382000D01*
Y135500D01*
X383466D01*
X383888Y136194D01*
X383919Y136259D01*
X384013Y136251D01*
X384170Y136170D01*
X384389Y136017D01*
X384671Y135791D01*
X384900Y135581D01*
Y136700D01*
X383200Y138400D01*
D02*
G37*
G36*
X381000D02*
X379800D01*
X378100Y136700D01*
Y135500D01*
X381000D01*
Y138400D01*
D02*
G37*
G36*
X211500Y130018D02*
X210007Y129821D01*
X208616Y129245D01*
X207421Y128329D01*
X206815Y127538D01*
X206185D01*
X205578Y128329D01*
X204384Y129245D01*
X202993Y129821D01*
X201500Y130018D01*
X200007Y129821D01*
X198616Y129245D01*
X197422Y128329D01*
X196815Y127538D01*
X196185D01*
X195579Y128329D01*
X194384Y129245D01*
X192993Y129821D01*
X191500Y130018D01*
X190007Y129821D01*
X188616Y129245D01*
X187718Y128556D01*
X187218Y128803D01*
Y129969D01*
X175782D01*
Y117032D01*
X187218D01*
Y118197D01*
X187718Y118444D01*
X188616Y117755D01*
X190007Y117179D01*
X191500Y116982D01*
X192993Y117179D01*
X194384Y117755D01*
X195579Y118672D01*
X196185Y119462D01*
X196815D01*
X197422Y118672D01*
X198616Y117755D01*
X200007Y117179D01*
X201500Y116982D01*
X202993Y117179D01*
X204384Y117755D01*
X205578Y118672D01*
X206185Y119462D01*
X206815D01*
X207421Y118672D01*
X208616Y117755D01*
X210007Y117179D01*
X211500Y116982D01*
X212993Y117179D01*
X214384Y117755D01*
X215579Y118672D01*
X216495Y119866D01*
X217071Y121257D01*
X217268Y122750D01*
Y124250D01*
X217071Y125743D01*
X216495Y127134D01*
X215579Y128329D01*
X214384Y129245D01*
X212993Y129821D01*
X211500Y130018D01*
D02*
G37*
G36*
X24200Y122400D02*
X23000D01*
Y119500D01*
X23970D01*
Y121112D01*
X24000Y120991D01*
X24091Y120883D01*
X24243Y120788D01*
X24455Y120705D01*
X24727Y120635D01*
X25061Y120578D01*
X25455Y120534D01*
X25900Y120510D01*
Y120700D01*
X24200Y122400D01*
D02*
G37*
G36*
X22000D02*
X20800D01*
X19100Y120700D01*
Y119500D01*
X22000D01*
Y122400D01*
D02*
G37*
G36*
X384500Y118937D02*
Y115047D01*
X386324D01*
Y116713D01*
X386147Y117602D01*
X385643Y118356D01*
X384889Y118860D01*
X384500Y118937D01*
D02*
G37*
G36*
X386324Y114047D02*
X384500D01*
Y110157D01*
X384889Y110235D01*
X385643Y110738D01*
X386147Y111493D01*
X386324Y112382D01*
Y114047D01*
D02*
G37*
G36*
X243000Y109662D02*
X241664Y109486D01*
X240419Y108971D01*
X240415Y108967D01*
X201585D01*
X201581Y108971D01*
X200336Y109486D01*
X199000Y109662D01*
X197664Y109486D01*
X196419Y108971D01*
X195350Y108150D01*
X194529Y107081D01*
X194014Y105836D01*
X193838Y104500D01*
X194014Y103164D01*
X194529Y101919D01*
X195350Y100850D01*
X196419Y100029D01*
X197664Y99514D01*
X199000Y99338D01*
X200336Y99514D01*
X201581Y100029D01*
X201585Y100033D01*
X240415D01*
X240419Y100029D01*
X241664Y99514D01*
X243000Y99338D01*
X244336Y99514D01*
X245581Y100029D01*
X246650Y100850D01*
X247471Y101919D01*
X247986Y103164D01*
X248162Y104500D01*
X247986Y105836D01*
X247471Y107081D01*
X246650Y108150D01*
X245581Y108971D01*
X244336Y109486D01*
X243000Y109662D01*
D02*
G37*
G36*
X26000Y102937D02*
Y99047D01*
X27824D01*
Y100713D01*
X27647Y101602D01*
X27143Y102356D01*
X26389Y102860D01*
X26000Y102937D01*
D02*
G37*
G36*
X146500Y74511D02*
X145203Y74341D01*
X143994Y73840D01*
X142956Y73044D01*
X142160Y72006D01*
X141771Y71065D01*
X141229D01*
X140840Y72006D01*
X140044Y73044D01*
X139006Y73840D01*
X137797Y74341D01*
X136500Y74511D01*
X135203Y74341D01*
X133994Y73840D01*
X132956Y73044D01*
X132160Y72006D01*
X131659Y70797D01*
X131489Y69500D01*
Y66500D01*
X131659Y65203D01*
X132160Y63994D01*
X132956Y62956D01*
X133994Y62160D01*
X135203Y61659D01*
X136500Y61489D01*
X137797Y61659D01*
X139006Y62160D01*
X140044Y62956D01*
X140840Y63994D01*
X141229Y64934D01*
X141771D01*
X142160Y63994D01*
X142956Y62956D01*
X143994Y62160D01*
X145203Y61659D01*
X146500Y61489D01*
X147797Y61659D01*
X149006Y62160D01*
X150044Y62956D01*
X150840Y63994D01*
X151341Y65203D01*
X151511Y66500D01*
Y69500D01*
X151341Y70797D01*
X150840Y72006D01*
X150044Y73044D01*
X149006Y73840D01*
X147797Y74341D01*
X146500Y74511D01*
D02*
G37*
G36*
X258000Y74011D02*
X256703Y73841D01*
X255494Y73340D01*
X254456Y72544D01*
X253660Y71506D01*
X253271Y70565D01*
X252729D01*
X252340Y71506D01*
X251544Y72544D01*
X250506Y73340D01*
X249297Y73841D01*
X248000Y74011D01*
X246703Y73841D01*
X245494Y73340D01*
X244456Y72544D01*
X243660Y71506D01*
X243159Y70297D01*
X242989Y69000D01*
Y66000D01*
X243159Y64703D01*
X243660Y63494D01*
X244456Y62456D01*
X245494Y61660D01*
X246703Y61159D01*
X248000Y60989D01*
X249297Y61159D01*
X250506Y61660D01*
X251544Y62456D01*
X252340Y63494D01*
X252729Y64434D01*
X253271D01*
X253660Y63494D01*
X254456Y62456D01*
X255494Y61660D01*
X256703Y61159D01*
X258000Y60989D01*
X259297Y61159D01*
X260506Y61660D01*
X261544Y62456D01*
X262340Y63494D01*
X262841Y64703D01*
X263011Y66000D01*
Y69000D01*
X262841Y70297D01*
X262340Y71506D01*
X261544Y72544D01*
X260506Y73340D01*
X259297Y73841D01*
X258000Y74011D01*
D02*
G37*
G36*
X99500Y84007D02*
X97938Y83853D01*
X96436Y83398D01*
X95051Y82658D01*
X93838Y81662D01*
X92842Y80449D01*
X92102Y79064D01*
X91647Y77562D01*
X91493Y76000D01*
X91647Y74438D01*
X92102Y72936D01*
X92842Y71552D01*
X93838Y70338D01*
X95051Y69342D01*
X96436Y68602D01*
X97938Y68147D01*
X99500Y67993D01*
X101062Y68147D01*
X102564Y68602D01*
X103948Y69342D01*
X105162Y70338D01*
X106158Y71552D01*
X106898Y72936D01*
X107353Y74438D01*
X107507Y76000D01*
X107353Y77562D01*
X106898Y79064D01*
X106158Y80449D01*
X105162Y81662D01*
X103948Y82658D01*
X102564Y83398D01*
X101062Y83853D01*
X99500Y84007D01*
D02*
G37*
G36*
X51500D02*
X49938Y83853D01*
X48436Y83398D01*
X47052Y82658D01*
X45838Y81662D01*
X44842Y80449D01*
X44102Y79064D01*
X43647Y77562D01*
X43493Y76000D01*
X43647Y74438D01*
X44102Y72936D01*
X44842Y71552D01*
X45838Y70338D01*
X47052Y69342D01*
X48436Y68602D01*
X49938Y68147D01*
X51500Y67993D01*
X53062Y68147D01*
X54564Y68602D01*
X55949Y69342D01*
X57162Y70338D01*
X58158Y71552D01*
X58898Y72936D01*
X59353Y74438D01*
X59507Y76000D01*
X59353Y77562D01*
X58898Y79064D01*
X58158Y80449D01*
X57162Y81662D01*
X55949Y82658D01*
X54564Y83398D01*
X53062Y83853D01*
X51500Y84007D01*
D02*
G37*
G36*
X343000Y83507D02*
X341438Y83353D01*
X339936Y82898D01*
X338551Y82158D01*
X337338Y81162D01*
X336342Y79949D01*
X335602Y78564D01*
X335147Y77062D01*
X334993Y75500D01*
X335147Y73938D01*
X335602Y72436D01*
X336342Y71052D01*
X337338Y69838D01*
X338551Y68842D01*
X339936Y68102D01*
X341438Y67647D01*
X343000Y67493D01*
X344562Y67647D01*
X346064Y68102D01*
X347448Y68842D01*
X348662Y69838D01*
X349658Y71052D01*
X350398Y72436D01*
X350853Y73938D01*
X351007Y75500D01*
X350853Y77062D01*
X350398Y78564D01*
X349658Y79949D01*
X348662Y81162D01*
X347448Y82158D01*
X346064Y82898D01*
X344562Y83353D01*
X343000Y83507D01*
D02*
G37*
G36*
X295000D02*
X293438Y83353D01*
X291936Y82898D01*
X290551Y82158D01*
X289338Y81162D01*
X288342Y79949D01*
X287602Y78564D01*
X287147Y77062D01*
X286993Y75500D01*
X287147Y73938D01*
X287602Y72436D01*
X288342Y71052D01*
X289338Y69838D01*
X290551Y68842D01*
X291936Y68102D01*
X293438Y67647D01*
X295000Y67493D01*
X296562Y67647D01*
X298064Y68102D01*
X299448Y68842D01*
X300662Y69838D01*
X301658Y71052D01*
X302398Y72436D01*
X302853Y73938D01*
X303007Y75500D01*
X302853Y77062D01*
X302398Y78564D01*
X301658Y79949D01*
X300662Y81162D01*
X299448Y82158D01*
X298064Y82898D01*
X296562Y83353D01*
X295000Y83507D01*
D02*
G37*
G36*
X180200Y70337D02*
X179000D01*
Y66500D01*
X184471D01*
X184389Y67123D01*
X183956Y68169D01*
X183267Y69067D01*
X182369Y69756D01*
X181323Y70189D01*
X180200Y70337D01*
D02*
G37*
G36*
X178000D02*
X176800D01*
X175678Y70189D01*
X174631Y69756D01*
X173733Y69067D01*
X173044Y68169D01*
X172611Y67123D01*
X172529Y66500D01*
X178000D01*
Y70337D01*
D02*
G37*
G36*
X212200Y69337D02*
X211000D01*
Y65500D01*
X216471D01*
X216389Y66123D01*
X215956Y67169D01*
X215267Y68067D01*
X214369Y68756D01*
X213322Y69189D01*
X212200Y69337D01*
D02*
G37*
G36*
X210000D02*
X208800D01*
X207678Y69189D01*
X206631Y68756D01*
X205733Y68067D01*
X205044Y67169D01*
X204611Y66123D01*
X204529Y65500D01*
X210000D01*
Y69337D01*
D02*
G37*
G36*
X122500Y75997D02*
X121330Y75882D01*
X120205Y75541D01*
X119168Y74987D01*
X118259Y74241D01*
X117513Y73332D01*
X116959Y72295D01*
X116618Y71170D01*
X116503Y70000D01*
X116618Y68830D01*
X116959Y67705D01*
X117513Y66668D01*
X118259Y65759D01*
X119168Y65013D01*
X120205Y64459D01*
X121330Y64118D01*
X122500Y64003D01*
X123670Y64118D01*
X124795Y64459D01*
X125832Y65013D01*
X126741Y65759D01*
X127487Y66668D01*
X128041Y67705D01*
X128382Y68830D01*
X128497Y70000D01*
X128382Y71170D01*
X128041Y72295D01*
X127487Y73332D01*
X126741Y74241D01*
X125832Y74987D01*
X124795Y75541D01*
X123670Y75882D01*
X122500Y75997D01*
D02*
G37*
G36*
X161500Y75016D02*
X160072Y74828D01*
X158742Y74277D01*
X157600Y73400D01*
X156723Y72258D01*
X156172Y70928D01*
X155984Y69500D01*
X156172Y68072D01*
X156723Y66742D01*
X157600Y65600D01*
X158742Y64723D01*
X160072Y64172D01*
X161500Y63984D01*
X162928Y64172D01*
X164258Y64723D01*
X165400Y65600D01*
X166277Y66742D01*
X166828Y68072D01*
X167016Y69500D01*
X166828Y70928D01*
X166277Y72258D01*
X165400Y73400D01*
X164258Y74277D01*
X162928Y74828D01*
X161500Y75016D01*
D02*
G37*
G36*
X231500Y74016D02*
X230072Y73828D01*
X228742Y73277D01*
X227600Y72400D01*
X226723Y71258D01*
X226172Y69928D01*
X225984Y68500D01*
X226172Y67072D01*
X226723Y65742D01*
X227600Y64600D01*
X228742Y63723D01*
X230072Y63172D01*
X231500Y62984D01*
X232928Y63172D01*
X234258Y63723D01*
X235400Y64600D01*
X236277Y65742D01*
X236828Y67072D01*
X237016Y68500D01*
X236828Y69928D01*
X236277Y71258D01*
X235400Y72400D01*
X234258Y73277D01*
X232928Y73828D01*
X231500Y74016D01*
D02*
G37*
G36*
X376500Y65162D02*
X375164Y64986D01*
X373919Y64471D01*
X372850Y63650D01*
X372029Y62581D01*
X371514Y61336D01*
X371338Y60000D01*
X371514Y58664D01*
X372029Y57419D01*
X372850Y56350D01*
X373919Y55529D01*
X375164Y55014D01*
X376500Y54838D01*
X377836Y55014D01*
X379081Y55529D01*
X380150Y56350D01*
X380971Y57419D01*
X381486Y58664D01*
X381662Y60000D01*
X381486Y61336D01*
X380971Y62581D01*
X380150Y63650D01*
X379081Y64471D01*
X377836Y64986D01*
X376500Y65162D01*
D02*
G37*
G36*
X21618Y64618D02*
X11382D01*
Y54382D01*
X21618D01*
Y64618D01*
D02*
G37*
G36*
X109500Y60007D02*
X107938Y59853D01*
X106436Y59398D01*
X105052Y58658D01*
X103838Y57662D01*
X102842Y56449D01*
X102102Y55064D01*
X101647Y53562D01*
X101493Y52000D01*
X101647Y50438D01*
X102102Y48936D01*
X102842Y47552D01*
X103838Y46338D01*
X105052Y45342D01*
X106436Y44602D01*
X107938Y44147D01*
X109500Y43993D01*
X111062Y44147D01*
X112564Y44602D01*
X113949Y45342D01*
X115162Y46338D01*
X116158Y47552D01*
X116898Y48936D01*
X117353Y50438D01*
X117507Y52000D01*
X117353Y53562D01*
X116898Y55064D01*
X116158Y56449D01*
X115162Y57662D01*
X113949Y58658D01*
X112564Y59398D01*
X111062Y59853D01*
X109500Y60007D01*
D02*
G37*
G36*
X285000Y59507D02*
X283438Y59353D01*
X281936Y58898D01*
X280552Y58158D01*
X279338Y57162D01*
X278342Y55949D01*
X277602Y54564D01*
X277147Y53062D01*
X276993Y51500D01*
X277147Y49938D01*
X277602Y48436D01*
X278342Y47052D01*
X279338Y45838D01*
X280552Y44842D01*
X281936Y44102D01*
X283438Y43647D01*
X285000Y43493D01*
X286562Y43647D01*
X288064Y44102D01*
X289448Y44842D01*
X290662Y45838D01*
X291658Y47052D01*
X292398Y48436D01*
X292853Y49938D01*
X293007Y51500D01*
X292853Y53062D01*
X292398Y54564D01*
X291658Y55949D01*
X290662Y57162D01*
X289448Y58158D01*
X288064Y58898D01*
X286562Y59353D01*
X285000Y59507D01*
D02*
G37*
G36*
X178500Y66000D02*
D01*
Y65500D01*
X172529D01*
X172611Y64877D01*
X173044Y63831D01*
X173733Y62933D01*
X174631Y62244D01*
X175678Y61811D01*
X176210Y61741D01*
Y61236D01*
X175425Y61133D01*
X174143Y60602D01*
X173043Y59758D01*
X172198Y58657D01*
X171667Y57375D01*
X171486Y56000D01*
X171667Y54625D01*
X172198Y53343D01*
X173043Y52242D01*
X174143Y51398D01*
X174500Y51250D01*
Y50750D01*
X174143Y50602D01*
X173043Y49758D01*
X172198Y48657D01*
X171667Y47375D01*
X171486Y46000D01*
X171667Y44625D01*
X172198Y43343D01*
X173043Y42243D01*
X174143Y41398D01*
X175425Y40867D01*
X176800Y40686D01*
X180200D01*
X181575Y40867D01*
X182857Y41398D01*
X183958Y42243D01*
X184802Y43343D01*
X185333Y44625D01*
X185514Y46000D01*
X185333Y47375D01*
X184802Y48657D01*
X183958Y49758D01*
X182857Y50602D01*
X182500Y50750D01*
Y51250D01*
X182857Y51398D01*
X183958Y52242D01*
X184802Y53343D01*
X185333Y54625D01*
X185514Y56000D01*
X185333Y57375D01*
X184802Y58657D01*
X183958Y59758D01*
X182857Y60602D01*
X181575Y61133D01*
X180790Y61236D01*
Y61741D01*
X181323Y61811D01*
X182369Y62244D01*
X183267Y62933D01*
X183956Y63831D01*
X184389Y64877D01*
X184471Y65500D01*
X178500D01*
Y66000D01*
D02*
G37*
G36*
X216471Y64500D02*
X210500D01*
X204529D01*
X204611Y63877D01*
X205044Y62831D01*
X205733Y61933D01*
X206631Y61244D01*
X207678Y60811D01*
X208210Y60741D01*
Y60236D01*
X207425Y60133D01*
X206143Y59602D01*
X205043Y58758D01*
X204198Y57657D01*
X203667Y56375D01*
X203486Y55000D01*
X203667Y53625D01*
X204198Y52343D01*
X205043Y51243D01*
X206143Y50398D01*
X206500Y50250D01*
Y49750D01*
X206143Y49602D01*
X205043Y48757D01*
X204198Y47657D01*
X203667Y46375D01*
X203486Y45000D01*
X203667Y43625D01*
X204198Y42343D01*
X205043Y41243D01*
X206143Y40398D01*
X207425Y39867D01*
X208800Y39686D01*
X212200D01*
X213575Y39867D01*
X214857Y40398D01*
X215957Y41243D01*
X216802Y42343D01*
X217333Y43625D01*
X217514Y45000D01*
X217333Y46375D01*
X216802Y47657D01*
X215957Y48757D01*
X214857Y49602D01*
X214500Y49750D01*
Y50250D01*
X214857Y50398D01*
X215957Y51243D01*
X216802Y52343D01*
X217333Y53625D01*
X217514Y55000D01*
X217333Y56375D01*
X216802Y57657D01*
X215957Y58758D01*
X214857Y59602D01*
X213575Y60133D01*
X212790Y60236D01*
Y60741D01*
X213322Y60811D01*
X214369Y61244D01*
X215267Y61933D01*
X215956Y62831D01*
X216389Y63877D01*
X216471Y64500D01*
D02*
G37*
G36*
X147000Y43469D02*
Y38500D01*
X150534D01*
Y39500D01*
X150397Y40544D01*
X149994Y41517D01*
X149353Y42353D01*
X148517Y42994D01*
X147544Y43397D01*
X147000Y43469D01*
D02*
G37*
G36*
X146000D02*
X145456Y43397D01*
X144483Y42994D01*
X143647Y42353D01*
X143006Y41517D01*
X142603Y40544D01*
X142465Y39500D01*
Y38500D01*
X146000D01*
Y43469D01*
D02*
G37*
G36*
X258500Y42969D02*
Y38000D01*
X262035D01*
Y39000D01*
X261897Y40044D01*
X261494Y41017D01*
X260853Y41853D01*
X260017Y42494D01*
X259044Y42897D01*
X258500Y42969D01*
D02*
G37*
G36*
X257500D02*
X256956Y42897D01*
X255983Y42494D01*
X255147Y41853D01*
X254506Y41017D01*
X254103Y40044D01*
X253965Y39000D01*
Y38000D01*
X257500D01*
Y42969D01*
D02*
G37*
G36*
X381618Y45118D02*
X371382D01*
Y34882D01*
X381618D01*
Y45118D01*
D02*
G37*
G36*
X16500Y44662D02*
X15164Y44486D01*
X13919Y43971D01*
X12850Y43150D01*
X12029Y42081D01*
X11514Y40836D01*
X11338Y39500D01*
X11514Y38164D01*
X12029Y36919D01*
X12850Y35850D01*
X13919Y35029D01*
X15164Y34514D01*
X16500Y34338D01*
X17836Y34514D01*
X19081Y35029D01*
X20150Y35850D01*
X20971Y36919D01*
X21486Y38164D01*
X21662Y39500D01*
X21486Y40836D01*
X20971Y42081D01*
X20150Y43150D01*
X19081Y43971D01*
X17836Y44486D01*
X16500Y44662D01*
D02*
G37*
G36*
X150534Y37500D02*
X147000D01*
Y32531D01*
X147544Y32603D01*
X148517Y33006D01*
X149353Y33647D01*
X149994Y34483D01*
X150397Y35456D01*
X150534Y36500D01*
Y37500D01*
D02*
G37*
G36*
X146000D02*
X142465D01*
Y36500D01*
X142603Y35456D01*
X143006Y34483D01*
X143647Y33647D01*
X144483Y33006D01*
X145456Y32603D01*
X146000Y32531D01*
Y37500D01*
D02*
G37*
G36*
X262035Y37000D02*
X258500D01*
Y32031D01*
X259044Y32103D01*
X260017Y32506D01*
X260853Y33147D01*
X261494Y33983D01*
X261897Y34956D01*
X262035Y36000D01*
Y37000D01*
D02*
G37*
G36*
X257500D02*
X253965D01*
Y36000D01*
X254103Y34956D01*
X254506Y33983D01*
X255147Y33147D01*
X255983Y32506D01*
X256956Y32103D01*
X257500Y32031D01*
Y37000D01*
D02*
G37*
G36*
X141469Y44469D02*
X131532D01*
Y31532D01*
X141469D01*
Y44469D01*
D02*
G37*
G36*
X252969Y43968D02*
X243032D01*
Y31032D01*
X252969D01*
Y43968D01*
D02*
G37*
G36*
X128469Y40968D02*
X116532D01*
Y29032D01*
X128469D01*
Y40968D01*
D02*
G37*
G36*
X183250Y32787D02*
X182000D01*
Y29000D01*
X187471D01*
X187391Y29610D01*
X186962Y30643D01*
X186281Y31531D01*
X185393Y32212D01*
X184360Y32641D01*
X183250Y32787D01*
D02*
G37*
G36*
X181000D02*
X179750D01*
X178640Y32641D01*
X177607Y32212D01*
X176719Y31531D01*
X176038Y30643D01*
X175609Y29610D01*
X175529Y29000D01*
X181000D01*
Y32787D01*
D02*
G37*
G36*
X161500Y40016D02*
X160072Y39828D01*
X158742Y39277D01*
X157600Y38400D01*
X156723Y37258D01*
X156172Y35928D01*
X155984Y34500D01*
X156172Y33072D01*
X156723Y31742D01*
X157600Y30600D01*
X158742Y29723D01*
X160072Y29172D01*
X161500Y28984D01*
X162928Y29172D01*
X164258Y29723D01*
X165400Y30600D01*
X166277Y31742D01*
X166828Y33072D01*
X167016Y34500D01*
X166828Y35928D01*
X166277Y37258D01*
X165400Y38400D01*
X164258Y39277D01*
X162928Y39828D01*
X161500Y40016D01*
D02*
G37*
G36*
X208250Y32287D02*
X207000D01*
Y28500D01*
X212471D01*
X212391Y29109D01*
X211962Y30143D01*
X211281Y31031D01*
X210393Y31712D01*
X209360Y32141D01*
X208250Y32287D01*
D02*
G37*
G36*
X206000D02*
X204750D01*
X203641Y32141D01*
X202607Y31712D01*
X201719Y31031D01*
X201038Y30143D01*
X200609Y29109D01*
X200529Y28500D01*
X206000D01*
Y32287D01*
D02*
G37*
G36*
X271000Y39997D02*
X269830Y39882D01*
X268705Y39541D01*
X267668Y38987D01*
X266759Y38241D01*
X266013Y37332D01*
X265459Y36295D01*
X265118Y35170D01*
X265003Y34000D01*
X265118Y32830D01*
X265459Y31705D01*
X266013Y30668D01*
X266759Y29759D01*
X267668Y29013D01*
X268705Y28459D01*
X269830Y28118D01*
X271000Y28003D01*
X272170Y28118D01*
X273295Y28459D01*
X274332Y29013D01*
X275241Y29759D01*
X275987Y30668D01*
X276541Y31705D01*
X276882Y32830D01*
X276997Y34000D01*
X276882Y35170D01*
X276541Y36295D01*
X275987Y37332D01*
X275241Y38241D01*
X274332Y38987D01*
X273295Y39541D01*
X272170Y39882D01*
X271000Y39997D01*
D02*
G37*
G36*
X231500Y39016D02*
X230072Y38828D01*
X228742Y38277D01*
X227600Y37400D01*
X226723Y36258D01*
X226172Y34928D01*
X225984Y33500D01*
X226172Y32072D01*
X226723Y30742D01*
X227600Y29600D01*
X228742Y28723D01*
X230072Y28172D01*
X231500Y27984D01*
X232928Y28172D01*
X234258Y28723D01*
X235400Y29600D01*
X236277Y30742D01*
X236828Y32072D01*
X237016Y33500D01*
X236828Y34928D01*
X236277Y36258D01*
X235400Y37400D01*
X234258Y38277D01*
X232928Y38828D01*
X231500Y39016D01*
D02*
G37*
G36*
X99500Y36007D02*
X97938Y35853D01*
X96436Y35398D01*
X95051Y34658D01*
X93838Y33662D01*
X92842Y32449D01*
X92102Y31064D01*
X91647Y29562D01*
X91493Y28000D01*
X91647Y26438D01*
X92102Y24936D01*
X92842Y23551D01*
X93838Y22338D01*
X95051Y21342D01*
X96436Y20602D01*
X97938Y20147D01*
X99500Y19993D01*
X101062Y20147D01*
X102564Y20602D01*
X103948Y21342D01*
X105162Y22338D01*
X106158Y23551D01*
X106898Y24936D01*
X107353Y26438D01*
X107507Y28000D01*
X107353Y29562D01*
X106898Y31064D01*
X106158Y32449D01*
X105162Y33662D01*
X103948Y34658D01*
X102564Y35398D01*
X101062Y35853D01*
X99500Y36007D01*
D02*
G37*
G36*
X51500D02*
X49938Y35853D01*
X48436Y35398D01*
X47052Y34658D01*
X45838Y33662D01*
X44842Y32449D01*
X44102Y31064D01*
X43647Y29562D01*
X43493Y28000D01*
X43647Y26438D01*
X44102Y24936D01*
X44842Y23551D01*
X45838Y22338D01*
X47052Y21342D01*
X48436Y20602D01*
X49938Y20147D01*
X51500Y19993D01*
X53062Y20147D01*
X54564Y20602D01*
X55949Y21342D01*
X57162Y22338D01*
X58158Y23551D01*
X58898Y24936D01*
X59353Y26438D01*
X59507Y28000D01*
X59353Y29562D01*
X58898Y31064D01*
X58158Y32449D01*
X57162Y33662D01*
X55949Y34658D01*
X54564Y35398D01*
X53062Y35853D01*
X51500Y36007D01*
D02*
G37*
G36*
X343000Y35507D02*
X341438Y35353D01*
X339936Y34898D01*
X338551Y34158D01*
X337338Y33162D01*
X336342Y31949D01*
X335602Y30564D01*
X335147Y29062D01*
X334993Y27500D01*
X335147Y25938D01*
X335602Y24436D01*
X336342Y23052D01*
X337338Y21838D01*
X338551Y20842D01*
X339936Y20102D01*
X341438Y19647D01*
X343000Y19493D01*
X344562Y19647D01*
X346064Y20102D01*
X347448Y20842D01*
X348662Y21838D01*
X349658Y23052D01*
X350398Y24436D01*
X350853Y25938D01*
X351007Y27500D01*
X350853Y29062D01*
X350398Y30564D01*
X349658Y31949D01*
X348662Y33162D01*
X347448Y34158D01*
X346064Y34898D01*
X344562Y35353D01*
X343000Y35507D01*
D02*
G37*
G36*
X295000D02*
X293438Y35353D01*
X291936Y34898D01*
X290551Y34158D01*
X289338Y33162D01*
X288342Y31949D01*
X287602Y30564D01*
X287147Y29062D01*
X286993Y27500D01*
X287147Y25938D01*
X287602Y24436D01*
X288342Y23052D01*
X289338Y21838D01*
X290551Y20842D01*
X291936Y20102D01*
X293438Y19647D01*
X295000Y19493D01*
X296562Y19647D01*
X298064Y20102D01*
X299448Y20842D01*
X300662Y21838D01*
X301658Y23052D01*
X302398Y24436D01*
X302853Y25938D01*
X303007Y27500D01*
X302853Y29062D01*
X302398Y30564D01*
X301658Y31949D01*
X300662Y33162D01*
X299448Y34158D01*
X298064Y34898D01*
X296562Y35353D01*
X295000Y35507D01*
D02*
G37*
G36*
X159500Y26516D02*
X158072Y26328D01*
X156742Y25777D01*
X155600Y24900D01*
X154723Y23758D01*
X154172Y22428D01*
X153984Y21000D01*
X154172Y19572D01*
X154723Y18242D01*
X155600Y17100D01*
X156742Y16223D01*
X158072Y15672D01*
X159500Y15484D01*
X160928Y15672D01*
X162258Y16223D01*
X163400Y17100D01*
X164277Y18242D01*
X164828Y19572D01*
X165016Y21000D01*
X164828Y22428D01*
X164277Y23758D01*
X163400Y24900D01*
X162258Y25777D01*
X160928Y26328D01*
X159500Y26516D01*
D02*
G37*
G36*
X124500D02*
X123072Y26328D01*
X121742Y25777D01*
X120600Y24900D01*
X119723Y23758D01*
X119172Y22428D01*
X118984Y21000D01*
X119172Y19572D01*
X119723Y18242D01*
X120600Y17100D01*
X121742Y16223D01*
X123072Y15672D01*
X124500Y15484D01*
X125928Y15672D01*
X127258Y16223D01*
X128400Y17100D01*
X129277Y18242D01*
X129828Y19572D01*
X130016Y21000D01*
X129828Y22428D01*
X129277Y23758D01*
X128400Y24900D01*
X127258Y25777D01*
X125928Y26328D01*
X124500Y26516D01*
D02*
G37*
G36*
X187471Y28000D02*
X181500D01*
X175529D01*
X175609Y27391D01*
X176038Y26357D01*
X176719Y25469D01*
X177607Y24788D01*
X178640Y24359D01*
X179711Y24218D01*
X179678Y23719D01*
X174531D01*
Y13282D01*
X188469D01*
Y23719D01*
X183322D01*
X183289Y24218D01*
X184360Y24359D01*
X185393Y24788D01*
X186281Y25469D01*
X186962Y26357D01*
X187391Y27391D01*
X187471Y28000D01*
D02*
G37*
G36*
X263500Y24016D02*
X262072Y23828D01*
X260742Y23277D01*
X259600Y22400D01*
X258723Y21258D01*
X258172Y19928D01*
X257984Y18500D01*
X258172Y17072D01*
X258723Y15742D01*
X259600Y14600D01*
X260742Y13723D01*
X262072Y13172D01*
X263500Y12984D01*
X264928Y13172D01*
X266258Y13723D01*
X267400Y14600D01*
X268277Y15742D01*
X268828Y17072D01*
X269016Y18500D01*
X268828Y19928D01*
X268277Y21258D01*
X267400Y22400D01*
X266258Y23277D01*
X264928Y23828D01*
X263500Y24016D01*
D02*
G37*
G36*
X228500D02*
X227072Y23828D01*
X225742Y23277D01*
X224600Y22400D01*
X223723Y21258D01*
X223172Y19928D01*
X222984Y18500D01*
X223172Y17072D01*
X223723Y15742D01*
X224600Y14600D01*
X225742Y13723D01*
X227072Y13172D01*
X228500Y12984D01*
X229928Y13172D01*
X231258Y13723D01*
X232400Y14600D01*
X233277Y15742D01*
X233828Y17072D01*
X234016Y18500D01*
X233828Y19928D01*
X233277Y21258D01*
X232400Y22400D01*
X231258Y23277D01*
X229928Y23828D01*
X228500Y24016D01*
D02*
G37*
G36*
X212471Y27500D02*
X206500D01*
X200529D01*
X200609Y26891D01*
X201038Y25857D01*
X201719Y24969D01*
X202607Y24288D01*
X203641Y23859D01*
X204711Y23719D01*
X204678Y23219D01*
X199531D01*
Y12781D01*
X213469D01*
Y23219D01*
X208322D01*
X208289Y23719D01*
X209360Y23859D01*
X210393Y24288D01*
X211281Y24969D01*
X211962Y25857D01*
X212391Y26891D01*
X212471Y27500D01*
D02*
G37*
G36*
X134000Y161662D02*
X132664Y161486D01*
X131419Y160971D01*
X130350Y160150D01*
X129529Y159081D01*
X129014Y157836D01*
X128838Y156500D01*
X129014Y155164D01*
X129529Y153919D01*
X129533Y153915D01*
Y108850D01*
X124150Y103467D01*
X93000D01*
X91844Y103315D01*
X90766Y102869D01*
X89841Y102159D01*
X74841Y87159D01*
X74131Y86234D01*
X73685Y85156D01*
X73533Y84000D01*
Y18585D01*
X73529Y18581D01*
X73014Y17336D01*
X72838Y16000D01*
X73014Y14664D01*
X73529Y13419D01*
X74350Y12350D01*
X75419Y11529D01*
X76664Y11014D01*
X78000Y10838D01*
X79336Y11014D01*
X80581Y11529D01*
X81650Y12350D01*
X82471Y13419D01*
X82986Y14664D01*
X83162Y16000D01*
X82986Y17336D01*
X82471Y18581D01*
X82467Y18585D01*
Y82150D01*
X94850Y94533D01*
X126000D01*
X127156Y94685D01*
X128234Y95131D01*
X129159Y95841D01*
X137159Y103841D01*
X137869Y104766D01*
X138315Y105844D01*
X138467Y107000D01*
Y153915D01*
X138471Y153919D01*
X138986Y155164D01*
X139162Y156500D01*
X138986Y157836D01*
X138471Y159081D01*
X137650Y160150D01*
X136581Y160971D01*
X135336Y161486D01*
X134000Y161662D01*
D02*
G37*
%LPD*%
G36*
X13374Y317547D02*
X13345Y317828D01*
X13256Y318079D01*
X13108Y318300D01*
X12900Y318492D01*
X12633Y318654D01*
X12307Y318787D01*
X11922Y318891D01*
X11477Y318965D01*
X10973Y319009D01*
X10410Y319024D01*
Y321976D01*
X10973Y321991D01*
X11477Y322035D01*
X11922Y322109D01*
X12307Y322213D01*
X12633Y322345D01*
X12900Y322508D01*
X13108Y322700D01*
X13256Y322921D01*
X13345Y323172D01*
X13374Y323453D01*
Y317547D01*
D02*
G37*
G36*
X22733Y281536D02*
X23231Y281524D01*
Y278571D01*
X22733Y278559D01*
Y277095D01*
X22703Y277375D01*
X22614Y277626D01*
X22467Y277847D01*
X22260Y278039D01*
X21994Y278202D01*
X21669Y278335D01*
X21422Y278401D01*
X21153Y278336D01*
X20796Y278204D01*
X20504Y278042D01*
X20276Y277851D01*
X20114Y277631D01*
X20016Y277381D01*
X19984Y277102D01*
Y278566D01*
X19780Y278571D01*
Y281524D01*
X19984Y281529D01*
Y282993D01*
X20016Y282714D01*
X20114Y282464D01*
X20276Y282243D01*
X20504Y282052D01*
X20796Y281891D01*
X21153Y281759D01*
X21422Y281693D01*
X21669Y281760D01*
X21994Y281893D01*
X22260Y282055D01*
X22467Y282247D01*
X22614Y282469D01*
X22703Y282719D01*
X22733Y283000D01*
Y281536D01*
D02*
G37*
G36*
X13016Y281529D02*
X13231Y281524D01*
Y278571D01*
X13016Y278566D01*
Y277102D01*
X12984Y277381D01*
X12886Y277631D01*
X12724Y277851D01*
X12496Y278042D01*
X12204Y278204D01*
X11847Y278336D01*
X11500Y278420D01*
X11153Y278336D01*
X10796Y278204D01*
X10503Y278042D01*
X10276Y277851D01*
X10114Y277631D01*
X10016Y277381D01*
X9984Y277102D01*
Y278566D01*
X9769Y278571D01*
Y281524D01*
X9984Y281529D01*
Y282993D01*
X10016Y282714D01*
X10114Y282464D01*
X10276Y282243D01*
X10503Y282052D01*
X10796Y281891D01*
X11153Y281759D01*
X11500Y281674D01*
X11847Y281759D01*
X12204Y281891D01*
X12496Y282052D01*
X12724Y282243D01*
X12886Y282464D01*
X12984Y282714D01*
X13016Y282993D01*
Y281529D01*
D02*
G37*
G36*
X25277Y281231D02*
X25340Y281089D01*
X25445Y280915D01*
X25592Y280709D01*
X26012Y280197D01*
X26600Y279554D01*
X27162Y278978D01*
X27639Y278984D01*
X29082Y279093D01*
X29473Y279158D01*
X29819Y279239D01*
X30119Y279333D01*
X30375Y279443D01*
X30585Y279566D01*
X30751Y279705D01*
Y275295D01*
X30585Y275434D01*
X30375Y275557D01*
X30119Y275667D01*
X29819Y275761D01*
X29473Y275841D01*
X29082Y275907D01*
X28166Y275994D01*
X27639Y276016D01*
X27068Y276024D01*
Y278419D01*
X25503Y276456D01*
X25472Y276486D01*
X25390Y276557D01*
X25365Y276575D01*
X25342Y276589D01*
X25321Y276600D01*
X25302Y276608D01*
X25284Y276613D01*
X25267Y276614D01*
X25256Y281339D01*
X25277Y281231D01*
D02*
G37*
G36*
X42251Y264295D02*
X42085Y264434D01*
X41875Y264558D01*
X41620Y264667D01*
X41319Y264761D01*
X40973Y264842D01*
X40582Y264907D01*
X39665Y264995D01*
X39139Y265016D01*
X38568Y265024D01*
Y267976D01*
X39139Y267984D01*
X40582Y268093D01*
X40973Y268159D01*
X41319Y268239D01*
X41620Y268333D01*
X41875Y268443D01*
X42085Y268566D01*
X42251Y268705D01*
Y264295D01*
D02*
G37*
G36*
X42759Y244840D02*
X43856Y243897D01*
X44179Y243667D01*
X44480Y243479D01*
X44760Y243333D01*
X45017Y243230D01*
X45254Y243168D01*
X45469Y243149D01*
X42351Y240032D01*
X42331Y240246D01*
X42270Y240483D01*
X42167Y240740D01*
X42021Y241020D01*
X41833Y241321D01*
X41603Y241644D01*
X41017Y242354D01*
X40660Y242741D01*
X40262Y243150D01*
X42350Y245238D01*
X42759Y244840D01*
D02*
G37*
G36*
X364896Y249715D02*
X365138Y249560D01*
X365419Y249423D01*
X365740Y249305D01*
X366101Y249204D01*
X366502Y249122D01*
X366942Y249058D01*
X367941Y248986D01*
X368500Y248976D01*
Y246024D01*
X367941Y246014D01*
X366942Y245942D01*
X366502Y245878D01*
X366101Y245796D01*
X365740Y245695D01*
X365419Y245577D01*
X365138Y245440D01*
X364896Y245285D01*
X364694Y245112D01*
Y249888D01*
X364896Y249715D01*
D02*
G37*
G36*
X377025Y233958D02*
Y224475D01*
X375998D01*
X375957Y224483D01*
X375415Y224490D01*
X374972Y224509D01*
X374179Y224584D01*
X373920Y224628D01*
X373710Y224676D01*
X373578Y224718D01*
X373558Y224726D01*
X373537Y224744D01*
X373506Y224761D01*
X372581Y225471D01*
X371336Y225986D01*
X370000Y226162D01*
X369175Y226054D01*
X368941Y226527D01*
X376564Y234150D01*
X377025Y233958D01*
D02*
G37*
G36*
X372415Y223066D02*
X372625Y222942D01*
X372881Y222833D01*
X373181Y222739D01*
X373527Y222658D01*
X373918Y222593D01*
X374834Y222505D01*
X375361Y222484D01*
X375932Y222476D01*
Y219524D01*
X375361Y219516D01*
X373918Y219407D01*
X373527Y219341D01*
X373181Y219261D01*
X372881Y219167D01*
X372625Y219057D01*
X372415Y218934D01*
X372249Y218795D01*
Y223205D01*
X372415Y223066D01*
D02*
G37*
G36*
X233415Y142566D02*
X233625Y142443D01*
X233880Y142333D01*
X234181Y142239D01*
X234527Y142158D01*
X234918Y142093D01*
X235835Y142006D01*
X236361Y141984D01*
X236932Y141976D01*
Y139024D01*
X236361Y139016D01*
X234918Y138907D01*
X234527Y138841D01*
X234181Y138761D01*
X233880Y138667D01*
X233625Y138558D01*
X233415Y138434D01*
X233249Y138295D01*
Y142705D01*
X233415Y142566D01*
D02*
G37*
G36*
X234415Y132566D02*
X234625Y132442D01*
X234880Y132333D01*
X235181Y132239D01*
X235527Y132159D01*
X235918Y132093D01*
X236835Y132006D01*
X237361Y131984D01*
X237932Y131976D01*
Y129024D01*
X237361Y129016D01*
X235918Y128907D01*
X235527Y128841D01*
X235181Y128761D01*
X234880Y128667D01*
X234625Y128558D01*
X234415Y128434D01*
X234249Y128295D01*
Y132705D01*
X234415Y132566D01*
D02*
G37*
G36*
X368314Y111326D02*
X368297Y111393D01*
X368265Y111438D01*
X368219Y111459D01*
X368159Y111457D01*
X368084Y111431D01*
X367995Y111383D01*
X367892Y111311D01*
X367775Y111216D01*
X367497Y110956D01*
X365634Y113269D01*
X366042Y113681D01*
X367566Y115415D01*
X367666Y115581D01*
X367722Y115711D01*
X367734Y115806D01*
X368314Y111326D01*
D02*
G37*
G36*
X325915Y114066D02*
X326125Y113943D01*
X326380Y113833D01*
X326681Y113739D01*
X327027Y113658D01*
X327418Y113593D01*
X328334Y113505D01*
X328861Y113484D01*
X329432Y113476D01*
Y110524D01*
X328861Y110516D01*
X327418Y110407D01*
X327027Y110342D01*
X326681Y110261D01*
X326380Y110167D01*
X326125Y110057D01*
X325915Y109934D01*
X325749Y109795D01*
Y114205D01*
X325915Y114066D01*
D02*
G37*
G36*
X272984Y82790D02*
X273093Y81347D01*
X273159Y80956D01*
X273239Y80610D01*
X273333Y80310D01*
X273443Y80054D01*
X273566Y79844D01*
X273705Y79678D01*
X269295D01*
X269434Y79844D01*
X269557Y80054D01*
X269667Y80310D01*
X269761Y80610D01*
X269842Y80956D01*
X269907Y81347D01*
X269994Y82264D01*
X270016Y82790D01*
X270024Y83361D01*
X272976D01*
X272984Y82790D01*
D02*
G37*
G36*
X94751Y139795D02*
X94585Y139934D01*
X94375Y140058D01*
X94120Y140167D01*
X93819Y140261D01*
X93473Y140341D01*
X93082Y140407D01*
X92165Y140495D01*
X91639Y140516D01*
X91068Y140524D01*
Y143476D01*
X91639Y143484D01*
X93082Y143593D01*
X93473Y143658D01*
X93819Y143739D01*
X94120Y143833D01*
X94375Y143942D01*
X94585Y144066D01*
X94751Y144205D01*
Y139795D01*
D02*
G37*
G36*
X42251Y88795D02*
X42085Y88934D01*
X41875Y89057D01*
X41620Y89167D01*
X41319Y89261D01*
X40973Y89341D01*
X40582Y89407D01*
X39665Y89495D01*
X39139Y89516D01*
X38568Y89524D01*
Y92476D01*
X39139Y92484D01*
X40582Y92593D01*
X40973Y92659D01*
X41319Y92739D01*
X41620Y92833D01*
X41875Y92943D01*
X42085Y93066D01*
X42251Y93205D01*
Y88795D01*
D02*
G37*
D18*
X369000Y92500D02*
D03*
X10500Y76500D02*
D03*
X24000Y280047D02*
D03*
X380500Y279547D02*
D03*
D19*
X374000Y92500D02*
D03*
X379000D02*
D03*
X384000D02*
D03*
X369000Y114547D02*
D03*
X374000D02*
D03*
X379000D02*
D03*
X384000D02*
D03*
X25500Y98547D02*
D03*
X20500D02*
D03*
X15500D02*
D03*
X10500D02*
D03*
X25500Y76500D02*
D03*
X20500D02*
D03*
X15500D02*
D03*
X9000Y258000D02*
D03*
X14000D02*
D03*
X19000D02*
D03*
X24000D02*
D03*
X9000Y280047D02*
D03*
X14000D02*
D03*
X19000D02*
D03*
X365500Y257500D02*
D03*
X370500D02*
D03*
X375500D02*
D03*
X380500D02*
D03*
X365500Y279547D02*
D03*
X370500D02*
D03*
X375500D02*
D03*
D42*
X9000Y320500D02*
X16500D01*
X6000Y317500D02*
X9000Y320500D01*
X6000Y291000D02*
Y317500D01*
Y291000D02*
X9000Y288000D01*
Y280047D02*
Y288000D01*
Y280047D02*
X14000D01*
X201000Y123500D02*
Y124425D01*
X370000Y221000D02*
X379500D01*
X380500Y222000D01*
X231000Y140500D02*
X336500D01*
X341500Y145500D01*
Y204000D01*
X26547Y277500D02*
X33000D01*
X380500Y222000D02*
Y257500D01*
X341500Y204000D02*
X375500Y238000D01*
Y257500D01*
X5000Y67500D02*
Y73500D01*
X8000Y76500D01*
X10500D01*
X15500D01*
X384000Y114547D02*
Y121028D01*
X387345Y124373D01*
Y131155D01*
X383500Y135000D02*
X387345Y131155D01*
X381500Y135000D02*
X383500D01*
X379000Y124500D02*
X381500Y127000D01*
X379000Y114547D02*
Y124500D01*
X8500Y237000D02*
X12000D01*
X6155Y239345D02*
X8500Y237000D01*
X6155Y239345D02*
Y249155D01*
X9000Y252000D01*
Y258000D01*
X12000Y245000D02*
X14000Y247000D01*
Y258000D01*
X22500Y119000D02*
X27000D01*
X30000Y116000D01*
Y108500D02*
Y116000D01*
X25500Y104000D02*
X30000Y108500D01*
X25500Y98547D02*
Y104000D01*
X20500Y109000D02*
X22500Y111000D01*
X20500Y98547D02*
Y109000D01*
X353000Y257500D02*
X365500D01*
X349500Y254000D02*
X353000Y257500D01*
X349500Y243500D02*
Y254000D01*
Y243500D02*
X353500Y239500D01*
X363500D01*
Y247500D02*
X368500D01*
X370500Y249500D01*
Y257500D01*
X374000Y114547D02*
Y124000D01*
X367500Y130500D02*
X374000Y124000D01*
X232000Y130500D02*
X367500D01*
X369000Y114547D02*
Y120000D01*
X364500Y124500D02*
X369000Y120000D01*
X12000Y91000D02*
X44500D01*
X26000Y246000D02*
X39500D01*
X19000Y253000D02*
X26000Y246000D01*
X39500D02*
X45500Y240000D01*
X365500Y279547D02*
Y286500D01*
Y279547D02*
X370500D01*
X380500Y283500D02*
X383500Y286500D01*
X380500Y279547D02*
Y283500D01*
X375500Y279547D02*
X380500D01*
X366453Y112000D02*
X369000Y114547D01*
X323500Y112000D02*
X366453D01*
X19000Y253000D02*
Y258000D01*
X26000Y266500D02*
X44500D01*
X24000Y264500D02*
X26000Y266500D01*
X11697Y106197D02*
X15500Y102394D01*
X11697Y106197D02*
Y125197D01*
X28500Y142000D01*
X97000D01*
X15500Y98547D02*
Y102394D01*
X271500Y77429D02*
Y101500D01*
X294500Y124500D01*
X364500D01*
X384000Y77000D02*
Y92500D01*
X379000D02*
X384000D01*
X359500Y76000D02*
Y89000D01*
X363000Y92500D01*
X369000D01*
X374000D01*
X10500D02*
Y98547D01*
Y92500D02*
X12000Y91000D01*
X25500Y76500D02*
X26000Y76000D01*
X34000D01*
X20500Y76500D02*
X25500D01*
X24000Y258000D02*
Y264500D01*
Y280047D02*
X26547Y277500D01*
X19000Y280047D02*
X24000D01*
D43*
X199000Y104500D02*
X243000D01*
X6500Y24000D02*
X16500D01*
X5000Y25500D02*
X6500Y24000D01*
X5000Y25500D02*
Y67500D01*
X72000Y112500D02*
Y134500D01*
X134000Y107000D02*
Y156500D01*
X126000Y99000D02*
X134000Y107000D01*
X78000Y16000D02*
Y84000D01*
X93000Y99000D01*
X126000D01*
D44*
X381000Y166157D02*
D03*
Y176000D02*
D03*
Y185843D02*
D03*
Y195685D02*
D03*
X369189Y166157D02*
D03*
Y176000D02*
D03*
Y185843D02*
D03*
D45*
Y195685D02*
D03*
D46*
X181500Y152000D02*
D03*
X191500D02*
D03*
X201500D02*
D03*
X201150Y209000D02*
D03*
X191150D02*
D03*
X181150D02*
D03*
X201500Y176500D02*
D03*
X191500D02*
D03*
X181500D02*
D03*
X191500Y123500D02*
D03*
X201500D02*
D03*
X211500D02*
D03*
D47*
Y152000D02*
D03*
X211150Y209000D02*
D03*
X211500Y176500D02*
D03*
X181500Y123500D02*
D03*
D48*
Y28500D02*
D03*
X206500Y28000D02*
D03*
D49*
X181500Y18500D02*
D03*
X206500Y18000D02*
D03*
D50*
X271000Y69000D02*
D03*
X122500Y35000D02*
D03*
Y289500D02*
D03*
X273000Y323500D02*
D03*
D51*
X271000Y34000D02*
D03*
X122500Y70000D02*
D03*
Y324500D02*
D03*
X273000Y288500D02*
D03*
D52*
X228500Y18500D02*
D03*
X263500D02*
D03*
X159500Y21000D02*
D03*
X124500D02*
D03*
X121000Y350000D02*
D03*
X156000D02*
D03*
X271000Y350500D02*
D03*
X236000D02*
D03*
X233000Y288000D02*
D03*
Y323000D02*
D03*
X172500Y258500D02*
D03*
Y223500D02*
D03*
X189167Y258500D02*
D03*
Y223500D02*
D03*
X222500Y258500D02*
D03*
Y223500D02*
D03*
X205833Y258500D02*
D03*
Y223500D02*
D03*
X161500Y69500D02*
D03*
Y34500D02*
D03*
Y323500D02*
D03*
Y288500D02*
D03*
X231500Y68500D02*
D03*
Y33500D02*
D03*
D53*
X12000Y245000D02*
D03*
Y237000D02*
D03*
X22500Y119000D02*
D03*
Y111000D02*
D03*
X381500Y135000D02*
D03*
Y127000D02*
D03*
X363500Y239500D02*
D03*
Y247500D02*
D03*
D54*
X376500Y60000D02*
D03*
X16500Y300500D02*
D03*
Y39500D02*
D03*
X378500Y321000D02*
D03*
X370000Y221000D02*
D03*
X33000Y277500D02*
D03*
X243000Y104500D02*
D03*
X199000D02*
D03*
X16500Y24000D02*
D03*
X72000Y134500D02*
D03*
Y112500D02*
D03*
X134000Y156500D02*
D03*
X365500Y286500D02*
D03*
X383500D02*
D03*
X323500Y112000D02*
D03*
X78000Y16000D02*
D03*
X231000Y140500D02*
D03*
X232000Y130500D02*
D03*
X44500Y266500D02*
D03*
X45500Y240000D02*
D03*
X97000Y142000D02*
D03*
X271500Y77429D02*
D03*
X384000Y77000D02*
D03*
X359500Y76000D02*
D03*
X44500Y91000D02*
D03*
X34000Y76000D02*
D03*
D55*
X376500Y40000D02*
D03*
X16500Y320500D02*
D03*
Y59500D02*
D03*
X378500Y301000D02*
D03*
D56*
X275500Y181500D02*
D03*
X276000Y221500D02*
D03*
D57*
X275500Y171500D02*
D03*
Y161500D02*
D03*
Y151500D02*
D03*
X276000Y191500D02*
D03*
Y201500D02*
D03*
Y211500D02*
D03*
D58*
X99500Y76000D02*
D03*
X51500Y28000D02*
D03*
X109500Y52000D02*
D03*
X51500Y76000D02*
D03*
X99500Y28000D02*
D03*
Y284000D02*
D03*
X51500Y332000D02*
D03*
X109500Y308000D02*
D03*
X51500Y284000D02*
D03*
X99500Y332000D02*
D03*
X295000Y75500D02*
D03*
X343000Y27500D02*
D03*
X285000Y51500D02*
D03*
X343000Y75500D02*
D03*
X295000Y27500D02*
D03*
X296500Y331500D02*
D03*
X344500Y283500D02*
D03*
X286500Y307500D02*
D03*
X344500Y331500D02*
D03*
X296500Y283500D02*
D03*
D59*
X172000Y349500D02*
D03*
X221500Y350000D02*
D03*
D60*
X182000Y349500D02*
D03*
X211500Y350000D02*
D03*
D61*
X136500Y38000D02*
D03*
Y292500D02*
D03*
X248000Y37500D02*
D03*
X249500Y291000D02*
D03*
D62*
X146500Y38000D02*
D03*
Y68000D02*
D03*
X136500D02*
D03*
X146500Y292500D02*
D03*
Y322500D02*
D03*
X136500D02*
D03*
X258000Y37500D02*
D03*
Y67500D02*
D03*
X248000D02*
D03*
X259500Y291000D02*
D03*
Y321000D02*
D03*
X249500D02*
D03*
D63*
X178500Y46000D02*
D03*
Y56000D02*
D03*
Y66000D02*
D03*
Y298000D02*
D03*
Y308000D02*
D03*
Y318000D02*
D03*
X210500Y45000D02*
D03*
Y55000D02*
D03*
Y65000D02*
D03*
X212000Y297000D02*
D03*
Y307000D02*
D03*
Y317000D02*
D03*
M02*
