G04*
G04 #@! TF.GenerationSoftware,Altium Limited,Altium Designer,18.0.7 (293)*
G04*
G04 Layer_Physical_Order=1*
G04 Layer_Color=255*
%FSTAX24Y24*%
%MOIN*%
G70*
G01*
G75*
%ADD18R,0.0256X0.0689*%
%ADD19O,0.0256X0.0689*%
%ADD40C,0.0295*%
%ADD41C,0.0492*%
%ADD42C,0.0689*%
%ADD43O,0.1000X0.0650*%
%ADD44R,0.1000X0.0650*%
%ADD45R,0.0800X0.0800*%
%ADD46C,0.0800*%
%ADD47C,0.0700*%
%ADD48P,0.0520X8X292.5*%
%ADD49C,0.0630*%
%ADD50R,0.0630X0.0630*%
%ADD51R,0.0900X0.0750*%
%ADD52O,0.0900X0.0750*%
%ADD53R,0.0750X0.0900*%
%ADD54O,0.0750X0.0900*%
%ADD55C,0.1200*%
%ADD56R,0.0650X0.1000*%
%ADD57O,0.0650X0.1000*%
%ADD58R,0.0600X0.0900*%
%ADD59O,0.0600X0.0900*%
%ADD60O,0.1000X0.0660*%
G36*
X06995Y01D02*
X0308D01*
Y0475D01*
X06995D01*
Y01D01*
D02*
G37*
%LPC*%
G36*
X053472Y045697D02*
X052428D01*
Y045182D01*
X052378Y045179D01*
X052364Y045286D01*
X052321Y045389D01*
X052253Y045478D01*
X052164Y045546D01*
X052061Y045589D01*
X052Y045597D01*
Y045D01*
Y044403D01*
X052061Y044411D01*
X052164Y044454D01*
X052253Y044522D01*
X052321Y044611D01*
X052364Y044714D01*
X052378Y044821D01*
X052428Y044818D01*
Y044303D01*
X053472D01*
Y045697D01*
D02*
G37*
G36*
X0519Y045597D02*
X051839Y045589D01*
X051736Y045546D01*
X051647Y045478D01*
X051579Y045389D01*
X051536Y045286D01*
X051521Y045175D01*
Y04505D01*
X0519D01*
Y045597D01*
D02*
G37*
G36*
X04905Y045547D02*
Y045D01*
X049429D01*
Y045125D01*
X049414Y045236D01*
X049371Y045339D01*
X049303Y045428D01*
X049214Y045496D01*
X049111Y045539D01*
X04905Y045547D01*
D02*
G37*
G36*
X0579Y045602D02*
X057757Y045583D01*
X057624Y045528D01*
X05751Y04544D01*
X057422Y045326D01*
X057367Y045193D01*
X057348Y04505D01*
X057367Y044907D01*
X057422Y044774D01*
X05751Y04466D01*
X057624Y044572D01*
X057757Y044517D01*
X0579Y044498D01*
X058043Y044517D01*
X058176Y044572D01*
X05829Y04466D01*
X058378Y044774D01*
X058433Y044907D01*
X058452Y04505D01*
X058433Y045193D01*
X058378Y045326D01*
X05829Y04544D01*
X058176Y045528D01*
X058043Y045583D01*
X0579Y045602D01*
D02*
G37*
G36*
X0544D02*
X054257Y045583D01*
X054124Y045528D01*
X05401Y04544D01*
X053922Y045326D01*
X053867Y045193D01*
X053848Y04505D01*
X053867Y044907D01*
X053922Y044774D01*
X05401Y04466D01*
X054124Y044572D01*
X054257Y044517D01*
X0544Y044498D01*
X054543Y044517D01*
X054676Y044572D01*
X05479Y04466D01*
X054878Y044774D01*
X054933Y044907D01*
X054952Y04505D01*
X054933Y045193D01*
X054878Y045326D01*
X05479Y04544D01*
X054676Y045528D01*
X054543Y045583D01*
X0544Y045602D01*
D02*
G37*
G36*
X0464Y045552D02*
X046257Y045533D01*
X046124Y045478D01*
X04601Y04539D01*
X045922Y045276D01*
X045867Y045143D01*
X045848Y045D01*
X045867Y044857D01*
X045922Y044724D01*
X04601Y04461D01*
X046124Y044522D01*
X046257Y044467D01*
X0464Y044448D01*
X046543Y044467D01*
X046676Y044522D01*
X04679Y04461D01*
X046878Y044724D01*
X046933Y044857D01*
X046952Y045D01*
X046933Y045143D01*
X046878Y045276D01*
X04679Y04539D01*
X046676Y045478D01*
X046543Y045533D01*
X0464Y045552D01*
D02*
G37*
G36*
X0429D02*
X042757Y045533D01*
X042624Y045478D01*
X04251Y04539D01*
X042422Y045276D01*
X042367Y045143D01*
X042348Y045D01*
X042367Y044857D01*
X042422Y044724D01*
X04251Y04461D01*
X042624Y044522D01*
X042757Y044467D01*
X0429Y044448D01*
X043043Y044467D01*
X043176Y044522D01*
X04329Y04461D01*
X043378Y044724D01*
X043433Y044857D01*
X043452Y045D01*
X043433Y045143D01*
X043378Y045276D01*
X04329Y04539D01*
X043176Y045478D01*
X043043Y045533D01*
X0429Y045552D01*
D02*
G37*
G36*
X0519Y04495D02*
X051521D01*
Y044825D01*
X051536Y044714D01*
X051579Y044611D01*
X051647Y044522D01*
X051736Y044454D01*
X051839Y044411D01*
X0519Y044403D01*
Y04495D01*
D02*
G37*
G36*
X049429Y0449D02*
X04905D01*
Y044353D01*
X049111Y044361D01*
X049214Y044404D01*
X049303Y044472D01*
X049371Y044561D01*
X049414Y044664D01*
X049429Y044775D01*
Y0449D01*
D02*
G37*
G36*
X048522Y045647D02*
X047478D01*
Y044253D01*
X048522D01*
Y044768D01*
X048572Y044771D01*
X048586Y044664D01*
X048629Y044561D01*
X048697Y044472D01*
X048786Y044404D01*
X048889Y044361D01*
X04895Y044353D01*
Y04495D01*
Y045547D01*
X048889Y045539D01*
X048786Y045496D01*
X048697Y045428D01*
X048629Y045339D01*
X048586Y045236D01*
X048572Y045129D01*
X048522Y045132D01*
Y045647D01*
D02*
G37*
G36*
X04545Y042901D02*
X04532Y042884D01*
X045199Y042834D01*
X045096Y042754D01*
X045016Y042651D01*
X044977Y042557D01*
X044923D01*
X044884Y042651D01*
X044804Y042754D01*
X044701Y042834D01*
X04458Y042884D01*
X04445Y042901D01*
X04432Y042884D01*
X044199Y042834D01*
X044096Y042754D01*
X044016Y042651D01*
X043966Y04253D01*
X043949Y0424D01*
Y0421D01*
X043966Y04197D01*
X044016Y041849D01*
X044096Y041746D01*
X044199Y041666D01*
X04432Y041616D01*
X04445Y041599D01*
X04458Y041616D01*
X044701Y041666D01*
X044804Y041746D01*
X044884Y041849D01*
X044923Y041943D01*
X044977D01*
X045016Y041849D01*
X045096Y041746D01*
X045199Y041666D01*
X04532Y041616D01*
X04545Y041599D01*
X04558Y041616D01*
X045701Y041666D01*
X045804Y041746D01*
X045884Y041849D01*
X045934Y04197D01*
X045951Y0421D01*
Y0424D01*
X045934Y04253D01*
X045884Y042651D01*
X045804Y042754D01*
X045701Y042834D01*
X04558Y042884D01*
X04545Y042901D01*
D02*
G37*
G36*
X05675Y042751D02*
X05662Y042734D01*
X056499Y042684D01*
X056396Y042604D01*
X056316Y042501D01*
X056277Y042407D01*
X056223D01*
X056184Y042501D01*
X056104Y042604D01*
X056001Y042684D01*
X05588Y042734D01*
X05575Y042751D01*
X05562Y042734D01*
X055499Y042684D01*
X055396Y042604D01*
X055316Y042501D01*
X055266Y04238D01*
X055249Y04225D01*
Y04195D01*
X055266Y04182D01*
X055316Y041699D01*
X055396Y041596D01*
X055499Y041516D01*
X05562Y041466D01*
X05575Y041449D01*
X05588Y041466D01*
X056001Y041516D01*
X056104Y041596D01*
X056184Y041699D01*
X056223Y041793D01*
X056277D01*
X056316Y041699D01*
X056396Y041596D01*
X056499Y041516D01*
X05662Y041466D01*
X05675Y041449D01*
X05688Y041466D01*
X057001Y041516D01*
X057104Y041596D01*
X057184Y041699D01*
X057234Y04182D01*
X057251Y04195D01*
Y04225D01*
X057234Y04238D01*
X057184Y042501D01*
X057104Y042604D01*
X057001Y042684D01*
X05688Y042734D01*
X05675Y042751D01*
D02*
G37*
G36*
X04075Y044001D02*
X040594Y043985D01*
X040444Y04394D01*
X040305Y043866D01*
X040184Y043766D01*
X040084Y043645D01*
X04001Y043506D01*
X039965Y043356D01*
X039949Y0432D01*
X039965Y043044D01*
X04001Y042894D01*
X040084Y042755D01*
X040184Y042634D01*
X040305Y042534D01*
X040444Y04246D01*
X040594Y042415D01*
X04075Y042399D01*
X040906Y042415D01*
X041056Y04246D01*
X041195Y042534D01*
X041316Y042634D01*
X041416Y042755D01*
X04149Y042894D01*
X041535Y043044D01*
X041551Y0432D01*
X041535Y043356D01*
X04149Y043506D01*
X041416Y043645D01*
X041316Y043766D01*
X041195Y043866D01*
X041056Y04394D01*
X040906Y043985D01*
X04075Y044001D01*
D02*
G37*
G36*
X03595D02*
X035794Y043985D01*
X035644Y04394D01*
X035505Y043866D01*
X035384Y043766D01*
X035284Y043645D01*
X03521Y043506D01*
X035165Y043356D01*
X035149Y0432D01*
X035165Y043044D01*
X03521Y042894D01*
X035284Y042755D01*
X035384Y042634D01*
X035505Y042534D01*
X035644Y04246D01*
X035794Y042415D01*
X03595Y042399D01*
X036106Y042415D01*
X036256Y04246D01*
X036395Y042534D01*
X036516Y042634D01*
X036616Y042755D01*
X03669Y042894D01*
X036735Y043044D01*
X036751Y0432D01*
X036735Y043356D01*
X03669Y043506D01*
X036616Y043645D01*
X036516Y043766D01*
X036395Y043866D01*
X036256Y04394D01*
X036106Y043985D01*
X03595Y044001D01*
D02*
G37*
G36*
X06525Y043951D02*
X065094Y043935D01*
X064944Y04389D01*
X064805Y043816D01*
X064684Y043716D01*
X064584Y043595D01*
X06451Y043456D01*
X064465Y043306D01*
X064449Y04315D01*
X064465Y042994D01*
X06451Y042844D01*
X064584Y042705D01*
X064684Y042584D01*
X064805Y042484D01*
X064944Y04241D01*
X065094Y042365D01*
X06525Y042349D01*
X065406Y042365D01*
X065556Y04241D01*
X065695Y042484D01*
X065816Y042584D01*
X065916Y042705D01*
X06599Y042844D01*
X066035Y042994D01*
X066051Y04315D01*
X066035Y043306D01*
X06599Y043456D01*
X065916Y043595D01*
X065816Y043716D01*
X065695Y043816D01*
X065556Y04389D01*
X065406Y043935D01*
X06525Y043951D01*
D02*
G37*
G36*
X06045D02*
X060294Y043935D01*
X060144Y04389D01*
X060005Y043816D01*
X059884Y043716D01*
X059784Y043595D01*
X05971Y043456D01*
X059665Y043306D01*
X059649Y04315D01*
X059665Y042994D01*
X05971Y042844D01*
X059784Y042705D01*
X059884Y042584D01*
X060005Y042484D01*
X060144Y04241D01*
X060294Y042365D01*
X06045Y042349D01*
X060606Y042365D01*
X060756Y04241D01*
X060895Y042484D01*
X061016Y042584D01*
X061116Y042705D01*
X06119Y042844D01*
X061235Y042994D01*
X061251Y04315D01*
X061235Y043306D01*
X06119Y043456D01*
X061116Y043595D01*
X061016Y043716D01*
X060895Y043816D01*
X060756Y04389D01*
X060606Y043935D01*
X06045Y043951D01*
D02*
G37*
G36*
X04305Y04305D02*
X042933Y043038D01*
X04282Y043004D01*
X042717Y042949D01*
X042626Y042874D01*
X042551Y042783D01*
X042496Y04268D01*
X042462Y042567D01*
X04245Y04245D01*
X042462Y042333D01*
X042496Y04222D01*
X042551Y042117D01*
X042626Y042026D01*
X042717Y041951D01*
X04282Y041896D01*
X042933Y041862D01*
X04305Y04185D01*
X043167Y041862D01*
X04328Y041896D01*
X043383Y041951D01*
X043474Y042026D01*
X043549Y042117D01*
X043604Y04222D01*
X043638Y042333D01*
X04365Y04245D01*
X043638Y042567D01*
X043604Y04268D01*
X043549Y042783D01*
X043474Y042874D01*
X043383Y042949D01*
X04328Y043004D01*
X043167Y043038D01*
X04305Y04305D01*
D02*
G37*
G36*
X04882Y042234D02*
X0487D01*
Y04185D01*
X049247D01*
X049239Y041912D01*
X049196Y042017D01*
X049127Y042107D01*
X049037Y042176D01*
X048932Y042219D01*
X04882Y042234D01*
D02*
G37*
G36*
X0486D02*
X04848D01*
X048368Y042219D01*
X048263Y042176D01*
X048173Y042107D01*
X048104Y042017D01*
X048061Y041912D01*
X048053Y04185D01*
X0486D01*
Y042234D01*
D02*
G37*
G36*
X04695Y042902D02*
X046807Y042883D01*
X046674Y042828D01*
X04656Y04274D01*
X046472Y042626D01*
X046417Y042493D01*
X046398Y04235D01*
X046417Y042207D01*
X046472Y042074D01*
X04656Y04196D01*
X046674Y041872D01*
X046807Y041817D01*
X04695Y041798D01*
X047093Y041817D01*
X047226Y041872D01*
X04734Y04196D01*
X047428Y042074D01*
X047483Y042207D01*
X047502Y04235D01*
X047483Y042493D01*
X047428Y042626D01*
X04734Y04274D01*
X047226Y042828D01*
X047093Y042883D01*
X04695Y042902D01*
D02*
G37*
G36*
X058697Y042947D02*
X057503D01*
Y041753D01*
X058697D01*
Y042947D01*
D02*
G37*
G36*
X05217Y042134D02*
X05205D01*
Y04175D01*
X052597D01*
X052589Y041812D01*
X052546Y041917D01*
X052477Y042007D01*
X052387Y042076D01*
X052282Y042119D01*
X05217Y042134D01*
D02*
G37*
G36*
X05195D02*
X05183D01*
X051718Y042119D01*
X051613Y042076D01*
X051523Y042007D01*
X051454Y041917D01*
X051411Y041812D01*
X051403Y04175D01*
X05195D01*
Y042134D01*
D02*
G37*
G36*
X0541Y042852D02*
X053957Y042833D01*
X053824Y042778D01*
X05371Y04269D01*
X053622Y042576D01*
X053567Y042443D01*
X053548Y0423D01*
X053567Y042157D01*
X053622Y042024D01*
X05371Y04191D01*
X053824Y041822D01*
X053957Y041767D01*
X0541Y041748D01*
X054243Y041767D01*
X054376Y041822D01*
X05449Y04191D01*
X054578Y042024D01*
X054633Y042157D01*
X054652Y0423D01*
X054633Y042443D01*
X054578Y042576D01*
X05449Y04269D01*
X054376Y042778D01*
X054243Y042833D01*
X0541Y042852D01*
D02*
G37*
G36*
X06865Y042616D02*
X068516Y042599D01*
X068392Y042547D01*
X068285Y042465D01*
X068203Y042358D01*
X068151Y042234D01*
X068134Y0421D01*
X068151Y041966D01*
X068203Y041842D01*
X068285Y041735D01*
X068392Y041653D01*
X068516Y041601D01*
X06865Y041584D01*
X068784Y041601D01*
X068908Y041653D01*
X069015Y041735D01*
X069097Y041842D01*
X069149Y041966D01*
X069166Y0421D01*
X069149Y042234D01*
X069097Y042358D01*
X069015Y042465D01*
X068908Y042547D01*
X068784Y042599D01*
X06865Y042616D01*
D02*
G37*
G36*
X04175Y041601D02*
X041594Y041585D01*
X041444Y04154D01*
X041305Y041466D01*
X041184Y041366D01*
X041084Y041245D01*
X04101Y041106D01*
X040965Y040956D01*
X040949Y0408D01*
X040965Y040644D01*
X04101Y040494D01*
X041084Y040355D01*
X041184Y040234D01*
X041305Y040134D01*
X041444Y04006D01*
X041594Y040015D01*
X04175Y039999D01*
X041906Y040015D01*
X042056Y04006D01*
X042195Y040134D01*
X042316Y040234D01*
X042416Y040355D01*
X04249Y040494D01*
X042535Y040644D01*
X042551Y0408D01*
X042535Y040956D01*
X04249Y041106D01*
X042416Y041245D01*
X042316Y041366D01*
X042195Y041466D01*
X042056Y04154D01*
X041906Y041585D01*
X04175Y041601D01*
D02*
G37*
G36*
X05945Y041551D02*
X059294Y041535D01*
X059144Y04149D01*
X059005Y041416D01*
X058884Y041316D01*
X058784Y041195D01*
X05871Y041056D01*
X058665Y040906D01*
X058649Y04075D01*
X058665Y040594D01*
X05871Y040444D01*
X058784Y040305D01*
X058884Y040184D01*
X059005Y040084D01*
X059144Y04001D01*
X059294Y039965D01*
X05945Y039949D01*
X059606Y039965D01*
X059756Y04001D01*
X059895Y040084D01*
X060016Y040184D01*
X060116Y040305D01*
X06019Y040444D01*
X060235Y040594D01*
X060251Y04075D01*
X060235Y040906D01*
X06019Y041056D01*
X060116Y041195D01*
X060016Y041316D01*
X059895Y041416D01*
X059756Y04149D01*
X059606Y041535D01*
X05945Y041551D01*
D02*
G37*
G36*
X069162Y040612D02*
X068138D01*
Y039588D01*
X069162D01*
Y040612D01*
D02*
G37*
G36*
X03245Y042596D02*
X03205D01*
X031909Y042577D01*
X031777Y042523D01*
X031664Y042436D01*
X031208Y04198D01*
X031121Y041867D01*
X031066Y041735D01*
X031048Y041594D01*
Y039556D01*
X031066Y039415D01*
X031121Y039283D01*
X031208Y03917D01*
X031321Y039083D01*
X031353Y03907D01*
Y038005D01*
X031364Y037915D01*
X031372Y037895D01*
Y037788D01*
X031384Y037703D01*
X031416Y037624D01*
X031468Y037557D01*
X031536Y037504D01*
X031615Y037472D01*
X0317Y037461D01*
X031785Y037472D01*
X031864Y037504D01*
X031915Y037544D01*
X03195Y037552D01*
X031985Y037544D01*
X032036Y037504D01*
X032115Y037472D01*
X0322Y037461D01*
X032285Y037472D01*
X032364Y037504D01*
X032415Y037544D01*
X03245Y037552D01*
X032485Y037544D01*
X032536Y037504D01*
X032615Y037472D01*
X0327Y037461D01*
X032785Y037472D01*
X032825Y037488D01*
X032875Y037463D01*
Y037463D01*
X033262D01*
X033281Y037449D01*
X03333Y037429D01*
X033365Y037414D01*
X033455Y037403D01*
X033721D01*
X033735Y037385D01*
X033842Y037303D01*
X033966Y037251D01*
X0341Y037234D01*
X034234Y037251D01*
X034358Y037303D01*
X034465Y037385D01*
X034547Y037492D01*
X034599Y037616D01*
X034616Y03775D01*
X034599Y037884D01*
X034547Y038008D01*
X034465Y038115D01*
X034358Y038197D01*
X034234Y038249D01*
X0341Y038266D01*
X033966Y038249D01*
X033842Y038197D01*
X033735Y038115D01*
X033721Y038097D01*
X033599D01*
X033525Y038171D01*
Y038546D01*
X032875D01*
Y038546D01*
X032825Y038521D01*
X032785Y038538D01*
X0327Y038549D01*
X032615Y038538D01*
X032536Y038505D01*
X032485Y038466D01*
X03245Y038457D01*
X032415Y038466D01*
X032364Y038505D01*
X032285Y038538D01*
X0322Y038549D01*
X032115Y038538D01*
X032089Y038527D01*
X032047Y038555D01*
Y039258D01*
X032067Y039283D01*
X032121Y039415D01*
X03214Y039556D01*
Y039586D01*
X032185Y039609D01*
X032192Y039603D01*
X032316Y039551D01*
X03245Y039534D01*
X032584Y039551D01*
X032708Y039603D01*
X032815Y039685D01*
X032897Y039792D01*
X032949Y039916D01*
X032966Y04005D01*
X032949Y040184D01*
X032897Y040308D01*
X032815Y040415D01*
X032708Y040497D01*
X032584Y040549D01*
X03245Y040566D01*
X032316Y040549D01*
X032192Y040497D01*
X032185Y040491D01*
X03214Y040514D01*
Y041368D01*
X032276Y041504D01*
X03245D01*
X032591Y041523D01*
X032629Y041538D01*
X032962D01*
Y041871D01*
X032977Y041909D01*
X032996Y04205D01*
X032977Y042191D01*
X032962Y042229D01*
Y042562D01*
X032629D01*
X032591Y042577D01*
X03245Y042596D01*
D02*
G37*
G36*
X0455Y039797D02*
Y0393D01*
X045853D01*
Y0394D01*
X04584Y039504D01*
X045799Y039602D01*
X045735Y039685D01*
X045652Y039749D01*
X045554Y03979D01*
X0455Y039797D01*
D02*
G37*
G36*
X0454D02*
X045346Y03979D01*
X045248Y039749D01*
X045165Y039685D01*
X045101Y039602D01*
X04506Y039504D01*
X045047Y0394D01*
Y0393D01*
X0454D01*
Y039797D01*
D02*
G37*
G36*
X049247Y04175D02*
X04865D01*
X048053D01*
X048061Y041688D01*
X048104Y041583D01*
X048173Y041493D01*
X048263Y041424D01*
X048368Y041381D01*
X048421Y041374D01*
Y041324D01*
X048342Y041313D01*
X048214Y04126D01*
X048104Y041176D01*
X04802Y041066D01*
X047967Y040938D01*
X047949Y0408D01*
X047967Y040662D01*
X04802Y040534D01*
X048104Y040424D01*
X048214Y04034D01*
X04825Y040325D01*
Y040275D01*
X048214Y04026D01*
X048104Y040176D01*
X04802Y040066D01*
X047967Y039938D01*
X047949Y0398D01*
X047967Y039662D01*
X04802Y039534D01*
X048104Y039424D01*
X048214Y03934D01*
X048342Y039287D01*
X04848Y039269D01*
X04882D01*
X048958Y039287D01*
X049086Y03934D01*
X049196Y039424D01*
X04928Y039534D01*
X049333Y039662D01*
X049351Y0398D01*
X049333Y039938D01*
X04928Y040066D01*
X049196Y040176D01*
X049086Y04026D01*
X04905Y040275D01*
Y040325D01*
X049086Y04034D01*
X049196Y040424D01*
X04928Y040534D01*
X049333Y040662D01*
X049351Y0408D01*
X049333Y040938D01*
X04928Y041066D01*
X049196Y041176D01*
X049086Y04126D01*
X048958Y041313D01*
X048879Y041324D01*
Y041374D01*
X048932Y041381D01*
X049037Y041424D01*
X049127Y041493D01*
X049196Y041583D01*
X049239Y041688D01*
X049247Y04175D01*
D02*
G37*
G36*
X052Y0417D02*
D01*
Y04165D01*
X051403D01*
X051411Y041588D01*
X051454Y041483D01*
X051523Y041393D01*
X051613Y041324D01*
X051718Y041281D01*
X051771Y041274D01*
Y041224D01*
X051692Y041213D01*
X051564Y04116D01*
X051454Y041076D01*
X05137Y040966D01*
X051317Y040838D01*
X051299Y0407D01*
X051317Y040562D01*
X05137Y040434D01*
X051454Y040324D01*
X051564Y04024D01*
X0516Y040225D01*
Y040175D01*
X051564Y04016D01*
X051454Y040076D01*
X05137Y039966D01*
X051317Y039838D01*
X051299Y0397D01*
X051317Y039562D01*
X05137Y039434D01*
X051454Y039324D01*
X051564Y03924D01*
X051692Y039187D01*
X05183Y039169D01*
X05217D01*
X052308Y039187D01*
X052436Y03924D01*
X052546Y039324D01*
X05263Y039434D01*
X052683Y039562D01*
X052701Y0397D01*
X052683Y039838D01*
X05263Y039966D01*
X052546Y040076D01*
X052436Y04016D01*
X0524Y040175D01*
Y040225D01*
X052436Y04024D01*
X052546Y040324D01*
X05263Y040434D01*
X052683Y040562D01*
X052701Y0407D01*
X052683Y040838D01*
X05263Y040966D01*
X052546Y041076D01*
X052436Y04116D01*
X052308Y041213D01*
X052229Y041224D01*
Y041274D01*
X052282Y041281D01*
X052387Y041324D01*
X052477Y041393D01*
X052546Y041483D01*
X052589Y041588D01*
X052597Y04165D01*
X052D01*
Y0417D01*
D02*
G37*
G36*
X0568Y039647D02*
Y03915D01*
X057153D01*
Y03925D01*
X05714Y039354D01*
X057099Y039452D01*
X057035Y039535D01*
X056952Y039599D01*
X056854Y03964D01*
X0568Y039647D01*
D02*
G37*
G36*
X0567D02*
X056646Y03964D01*
X056548Y039599D01*
X056465Y039535D01*
X056401Y039452D01*
X05636Y039354D01*
X056347Y03925D01*
Y03915D01*
X0567D01*
Y039647D01*
D02*
G37*
G36*
X045853Y0392D02*
X0455D01*
Y038703D01*
X045554Y03871D01*
X045652Y038751D01*
X045735Y038815D01*
X045799Y038898D01*
X04584Y038996D01*
X045853Y0391D01*
Y0392D01*
D02*
G37*
G36*
X0454D02*
X045047D01*
Y0391D01*
X04506Y038996D01*
X045101Y038898D01*
X045165Y038815D01*
X045248Y038751D01*
X045346Y03871D01*
X0454Y038703D01*
Y0392D01*
D02*
G37*
G36*
X044947Y039897D02*
X043953D01*
Y038603D01*
X044947D01*
Y039897D01*
D02*
G37*
G36*
X057153Y03905D02*
X0568D01*
Y038553D01*
X056854Y03856D01*
X056952Y038601D01*
X057035Y038665D01*
X057099Y038748D01*
X05714Y038846D01*
X057153Y03895D01*
Y03905D01*
D02*
G37*
G36*
X0567D02*
X056347D01*
Y03895D01*
X05636Y038846D01*
X056401Y038748D01*
X056465Y038665D01*
X056548Y038601D01*
X056646Y03856D01*
X0567Y038553D01*
Y03905D01*
D02*
G37*
G36*
X06915Y039166D02*
X069016Y039149D01*
X068892Y039097D01*
X068785Y039015D01*
X068703Y038908D01*
X068651Y038784D01*
X068634Y03865D01*
X068637Y038628D01*
X068604Y038596D01*
X068556Y038532D01*
X068525Y038496D01*
X068475Y038471D01*
X068435Y038488D01*
X06835Y038499D01*
X068265Y038488D01*
X068186Y038455D01*
X068118Y038403D01*
X068082D01*
X068014Y038455D01*
X067935Y038488D01*
X067893Y038493D01*
X067851Y038515D01*
X067853Y038546D01*
X067866Y03865D01*
X067849Y038784D01*
X067797Y038908D01*
X067715Y039015D01*
X067608Y039097D01*
X067484Y039149D01*
X06735Y039166D01*
X067216Y039149D01*
X067092Y039097D01*
X066985Y039015D01*
X066903Y038908D01*
X066851Y038784D01*
X066834Y03865D01*
X066851Y038516D01*
X066903Y038392D01*
X066985Y038285D01*
X067003Y038271D01*
Y037955D01*
X067014Y037865D01*
X067022Y037845D01*
Y037738D01*
X067034Y037653D01*
X067066Y037574D01*
X067118Y037507D01*
X067186Y037454D01*
X067265Y037422D01*
X06735Y037411D01*
X067435Y037422D01*
X067514Y037454D01*
X067565Y037494D01*
X0676Y037502D01*
X067635Y037494D01*
X067686Y037454D01*
X067765Y037422D01*
X06785Y037411D01*
X067935Y037422D01*
X068014Y037454D01*
X068065Y037494D01*
X0681Y037502D01*
X068135Y037494D01*
X068186Y037454D01*
X068265Y037422D01*
X06835Y037411D01*
X068435Y037422D01*
X068475Y037438D01*
X068525Y037413D01*
Y037413D01*
X069175D01*
Y037839D01*
X069186Y037865D01*
X069197Y037955D01*
Y03814D01*
X069284Y038151D01*
X069408Y038203D01*
X069515Y038285D01*
X069597Y038392D01*
X069649Y038516D01*
X069666Y03865D01*
X069649Y038784D01*
X069597Y038908D01*
X069515Y039015D01*
X069408Y039097D01*
X069284Y039149D01*
X06915Y039166D01*
D02*
G37*
G36*
X056247Y039747D02*
X055253D01*
Y038453D01*
X056247D01*
Y039747D01*
D02*
G37*
G36*
X043647Y039547D02*
X042453D01*
Y038353D01*
X043647D01*
Y039547D01*
D02*
G37*
G36*
X04695Y039402D02*
X046807Y039383D01*
X046674Y039328D01*
X04656Y03924D01*
X046472Y039126D01*
X046417Y038993D01*
X046398Y03885D01*
X046417Y038707D01*
X046472Y038574D01*
X04656Y03846D01*
X046674Y038372D01*
X046807Y038317D01*
X04695Y038298D01*
X047093Y038317D01*
X047226Y038372D01*
X04734Y03846D01*
X047428Y038574D01*
X047483Y038707D01*
X047502Y03885D01*
X047483Y038993D01*
X047428Y039126D01*
X04734Y03924D01*
X047226Y039328D01*
X047093Y039383D01*
X04695Y039402D01*
D02*
G37*
G36*
X0581Y03945D02*
X057983Y039438D01*
X05787Y039404D01*
X057767Y039349D01*
X057676Y039274D01*
X057601Y039183D01*
X057546Y03908D01*
X057512Y038967D01*
X0575Y03885D01*
X057512Y038733D01*
X057546Y03862D01*
X057601Y038517D01*
X057676Y038426D01*
X057767Y038351D01*
X05787Y038296D01*
X057983Y038262D01*
X0581Y03825D01*
X058217Y038262D01*
X05833Y038296D01*
X058433Y038351D01*
X058524Y038426D01*
X058599Y038517D01*
X058654Y03862D01*
X058688Y038733D01*
X0587Y03885D01*
X058688Y038967D01*
X058654Y03908D01*
X058599Y039183D01*
X058524Y039274D01*
X058433Y039349D01*
X05833Y039404D01*
X058217Y039438D01*
X0581Y03945D01*
D02*
G37*
G36*
X0541Y039352D02*
X053957Y039333D01*
X053824Y039278D01*
X05371Y03919D01*
X053622Y039076D01*
X053567Y038943D01*
X053548Y0388D01*
X053567Y038657D01*
X053622Y038524D01*
X05371Y03841D01*
X053824Y038322D01*
X053957Y038267D01*
X0541Y038248D01*
X054243Y038267D01*
X054376Y038322D01*
X05449Y03841D01*
X054578Y038524D01*
X054633Y038657D01*
X054652Y0388D01*
X054633Y038943D01*
X054578Y039076D01*
X05449Y03919D01*
X054376Y039278D01*
X054243Y039333D01*
X0541Y039352D01*
D02*
G37*
G36*
X04075Y039201D02*
X040594Y039185D01*
X040444Y03914D01*
X040305Y039066D01*
X040184Y038966D01*
X040084Y038845D01*
X04001Y038706D01*
X039965Y038556D01*
X039949Y0384D01*
X039965Y038244D01*
X04001Y038094D01*
X040084Y037955D01*
X040184Y037834D01*
X040305Y037734D01*
X040444Y03766D01*
X040594Y037615D01*
X04075Y037599D01*
X040906Y037615D01*
X041056Y03766D01*
X041195Y037734D01*
X041316Y037834D01*
X041416Y037955D01*
X04149Y038094D01*
X041535Y038244D01*
X041551Y0384D01*
X041535Y038556D01*
X04149Y038706D01*
X041416Y038845D01*
X041316Y038966D01*
X041195Y039066D01*
X041056Y03914D01*
X040906Y039185D01*
X04075Y039201D01*
D02*
G37*
G36*
X03595D02*
X035794Y039185D01*
X035644Y03914D01*
X035505Y039066D01*
X035384Y038966D01*
X035284Y038845D01*
X03521Y038706D01*
X035165Y038556D01*
X035149Y0384D01*
X035165Y038244D01*
X03521Y038094D01*
X035284Y037955D01*
X035384Y037834D01*
X035505Y037734D01*
X035644Y03766D01*
X035794Y037615D01*
X03595Y037599D01*
X036106Y037615D01*
X036256Y03766D01*
X036395Y037734D01*
X036516Y037834D01*
X036616Y037955D01*
X03669Y038094D01*
X036735Y038244D01*
X036751Y0384D01*
X036735Y038556D01*
X03669Y038706D01*
X036616Y038845D01*
X036516Y038966D01*
X036395Y039066D01*
X036256Y03914D01*
X036106Y039185D01*
X03595Y039201D01*
D02*
G37*
G36*
X06525Y039151D02*
X065094Y039135D01*
X064944Y03909D01*
X064805Y039016D01*
X064684Y038916D01*
X064584Y038795D01*
X06451Y038656D01*
X064465Y038506D01*
X064449Y03835D01*
X064465Y038194D01*
X06451Y038044D01*
X064584Y037905D01*
X064684Y037784D01*
X064805Y037684D01*
X064944Y03761D01*
X065094Y037565D01*
X06525Y037549D01*
X065406Y037565D01*
X065556Y03761D01*
X065695Y037684D01*
X065816Y037784D01*
X065916Y037905D01*
X06599Y038044D01*
X066035Y038194D01*
X066051Y03835D01*
X066035Y038506D01*
X06599Y038656D01*
X065916Y038795D01*
X065816Y038916D01*
X065695Y039016D01*
X065556Y03909D01*
X065406Y039135D01*
X06525Y039151D01*
D02*
G37*
G36*
X06045D02*
X060294Y039135D01*
X060144Y03909D01*
X060005Y039016D01*
X059884Y038916D01*
X059784Y038795D01*
X05971Y038656D01*
X059665Y038506D01*
X059649Y03835D01*
X059665Y038194D01*
X05971Y038044D01*
X059784Y037905D01*
X059884Y037784D01*
X060005Y037684D01*
X060144Y03761D01*
X060294Y037565D01*
X06045Y037549D01*
X060606Y037565D01*
X060756Y03761D01*
X060895Y037684D01*
X061016Y037784D01*
X061116Y037905D01*
X06119Y038044D01*
X061235Y038194D01*
X061251Y03835D01*
X061235Y038506D01*
X06119Y038656D01*
X061116Y038795D01*
X061016Y038916D01*
X060895Y039016D01*
X060756Y03909D01*
X060606Y039135D01*
X06045Y039151D01*
D02*
G37*
G36*
X03525Y037166D02*
X035116Y037149D01*
X034992Y037097D01*
X034885Y037015D01*
X034871Y036997D01*
X0334D01*
X03331Y036986D01*
X033226Y036951D01*
X033154Y036896D01*
X032954Y036696D01*
X032899Y036624D01*
X032864Y03654D01*
X032853Y03645D01*
Y03635D01*
X032811Y036322D01*
X032785Y036333D01*
X0327Y036344D01*
X032615Y036333D01*
X032536Y0363D01*
X032468Y036248D01*
X032432D01*
X032364Y0363D01*
X032285Y036333D01*
X0322Y036344D01*
X032115Y036333D01*
X032036Y0363D01*
X031968Y036248D01*
X031921Y036186D01*
X031871Y036177D01*
X031863Y036182D01*
X031789Y036231D01*
X03175Y036239D01*
Y0358D01*
Y035361D01*
X031789Y035369D01*
X031808Y035382D01*
X031853Y035358D01*
Y034937D01*
X031782D01*
X031563Y034718D01*
Y034282D01*
X031782Y034063D01*
X031782D01*
X031803Y034013D01*
X03166Y03387D01*
Y03375D01*
X032D01*
X03234D01*
Y03387D01*
X032197Y034013D01*
X032218Y034063D01*
X032218D01*
X032437Y034282D01*
Y034445D01*
X032446Y034454D01*
X032501Y034526D01*
X032536Y03461D01*
X032547Y0347D01*
Y034896D01*
X032594Y034915D01*
X033154Y034354D01*
X033226Y034299D01*
X03331Y034264D01*
X0334Y034253D01*
X034606D01*
X034837Y034022D01*
X034834Y034D01*
X034851Y033866D01*
X034903Y033742D01*
X034985Y033635D01*
X035092Y033553D01*
X035216Y033501D01*
X03535Y033484D01*
X035484Y033501D01*
X035608Y033553D01*
X035715Y033635D01*
X035797Y033742D01*
X035849Y033866D01*
X035866Y034D01*
X035849Y034134D01*
X035797Y034258D01*
X035715Y034365D01*
X035608Y034447D01*
X035484Y034499D01*
X03535Y034516D01*
X035328Y034513D01*
X034996Y034846D01*
X034924Y034901D01*
X03484Y034936D01*
X03475Y034947D01*
X033544D01*
X033271Y035221D01*
X033292Y03527D01*
X033364Y0353D01*
X033432Y035352D01*
X033484Y03542D01*
X033516Y035499D01*
X033528Y035583D01*
Y035691D01*
X033536Y03571D01*
X033547Y0358D01*
Y036303D01*
X034871D01*
X034885Y036285D01*
X034992Y036203D01*
X035116Y036151D01*
X03525Y036134D01*
X035384Y036151D01*
X035508Y036203D01*
X035615Y036285D01*
X035697Y036392D01*
X035749Y036516D01*
X035766Y03665D01*
X035749Y036784D01*
X035697Y036908D01*
X035615Y037015D01*
X035508Y037097D01*
X035384Y037149D01*
X03525Y037166D01*
D02*
G37*
G36*
X06885Y036294D02*
X068765Y036283D01*
X068686Y03625D01*
X068635Y036211D01*
X0686Y036203D01*
X068565Y036211D01*
X068514Y03625D01*
X068435Y036283D01*
X06835Y036294D01*
X068265Y036283D01*
X068186Y03625D01*
X068135Y036211D01*
X0681Y036203D01*
X068065Y036211D01*
X068014Y03625D01*
X067935Y036283D01*
X06785Y036294D01*
X067765Y036283D01*
X067686Y03625D01*
X067618Y036198D01*
X067571Y036136D01*
X067521Y036127D01*
X067513Y036132D01*
X067439Y036181D01*
X0674Y036189D01*
Y03575D01*
Y035311D01*
X067439Y035319D01*
X067458Y035332D01*
X067503Y035308D01*
Y03511D01*
X067453Y035103D01*
X067368Y035187D01*
X066932D01*
X066713Y034968D01*
Y034532D01*
X066932Y034313D01*
X066932D01*
X066953Y034263D01*
X06681Y03412D01*
Y034D01*
X06715D01*
X06749D01*
Y03412D01*
X067347Y034263D01*
X067368Y034313D01*
X067368D01*
X067458Y034403D01*
X06765D01*
X06774Y034414D01*
X067824Y034449D01*
X067896Y034504D01*
X067956Y034565D01*
X068003Y034546D01*
Y033944D01*
X067804Y033746D01*
X067749Y033674D01*
X067714Y03359D01*
X067703Y0335D01*
Y030925D01*
X067663Y030873D01*
X067618Y030766D01*
X067603Y03065D01*
Y027835D01*
X064265Y024497D01*
X054159D01*
X054158Y024497D01*
X054034Y024549D01*
X0539Y024566D01*
X053766Y024549D01*
X053642Y024497D01*
X053535Y024415D01*
X053453Y024308D01*
X053401Y024184D01*
X053384Y02405D01*
X053401Y023916D01*
X053453Y023792D01*
X053535Y023685D01*
X053642Y023603D01*
X053754Y023556D01*
X053761Y023505D01*
X053742Y023497D01*
X053635Y023415D01*
X053553Y023308D01*
X053501Y023184D01*
X053484Y02305D01*
X053501Y022916D01*
X053553Y022792D01*
X053635Y022685D01*
X053742Y022603D01*
X053866Y022551D01*
X054Y022534D01*
X054134Y022551D01*
X054258Y022603D01*
X054365Y022685D01*
X054379Y022703D01*
X05994D01*
X059961Y022653D01*
X057704Y020396D01*
X057649Y020324D01*
X057614Y02024D01*
X057603Y02015D01*
Y018121D01*
X057585Y018108D01*
X057503Y018001D01*
X057451Y017877D01*
X057434Y017743D01*
X057451Y017609D01*
X057481Y017538D01*
X057453Y017497D01*
X057303D01*
Y016303D01*
X058497D01*
Y017497D01*
X058447D01*
X058419Y017538D01*
X058449Y017609D01*
X058466Y017743D01*
X058449Y017877D01*
X058397Y018001D01*
X058315Y018108D01*
X058297Y018121D01*
Y020006D01*
X060394Y022103D01*
X067106D01*
X067353Y021856D01*
Y021599D01*
X067301Y021547D01*
X063529D01*
X063515Y021565D01*
X063408Y021647D01*
X063284Y021699D01*
X06315Y021716D01*
X063016Y021699D01*
X062892Y021647D01*
X062785Y021565D01*
X062703Y021458D01*
X062651Y021334D01*
X062634Y0212D01*
X062651Y021066D01*
X062703Y020942D01*
X062785Y020835D01*
X062892Y020753D01*
X063016Y020701D01*
X06315Y020684D01*
X063284Y020701D01*
X063408Y020753D01*
X063515Y020835D01*
X063529Y020853D01*
X067445D01*
X067535Y020864D01*
X067619Y020899D01*
X067644Y020918D01*
X0677Y020911D01*
X067785Y020922D01*
X067864Y020954D01*
X067915Y020994D01*
X06795Y021002D01*
X067985Y020994D01*
X068036Y020954D01*
X068115Y020922D01*
X0682Y020911D01*
X068285Y020922D01*
X068364Y020954D01*
X068415Y020994D01*
X06845Y021002D01*
X068485Y020994D01*
X068536Y020954D01*
X068615Y020922D01*
X0687Y020911D01*
X068785Y020922D01*
X068864Y020954D01*
X068932Y021007D01*
X068979Y021068D01*
X069029Y021078D01*
X069037Y021073D01*
X069111Y021023D01*
X06915Y021016D01*
Y021455D01*
Y021894D01*
X069111Y021886D01*
X069092Y021873D01*
X069047Y021897D01*
Y022263D01*
X069168D01*
X069387Y022482D01*
Y022918D01*
X069168Y023137D01*
X069168D01*
X069147Y023187D01*
X06929Y02333D01*
Y02345D01*
X06895D01*
X06861D01*
Y02333D01*
X068753Y023187D01*
X068732Y023137D01*
X068732D01*
X068513Y022918D01*
Y022755D01*
X068454Y022696D01*
X068452Y022693D01*
X068402Y022689D01*
X067796Y023296D01*
X067724Y023351D01*
X06764Y023386D01*
X06755Y023397D01*
X054379D01*
X054365Y023415D01*
X054258Y023497D01*
X054183Y023528D01*
X054171Y023587D01*
X054187Y023603D01*
X06445D01*
X064566Y023618D01*
X064673Y023663D01*
X064766Y023734D01*
X068366Y027334D01*
X068437Y027427D01*
X068482Y027534D01*
X068497Y02765D01*
Y03065D01*
X068482Y030766D01*
X068437Y030873D01*
X068397Y030925D01*
Y031758D01*
X068447Y031775D01*
X068542Y031703D01*
X068666Y031651D01*
X0688Y031634D01*
X068934Y031651D01*
X069058Y031703D01*
X069165Y031785D01*
X069247Y031892D01*
X069299Y032016D01*
X069316Y03215D01*
X069299Y032284D01*
X069247Y032408D01*
X069197Y032473D01*
Y03575D01*
X069186Y03584D01*
X069178Y035859D01*
Y035967D01*
X069166Y036051D01*
X069134Y03613D01*
X069082Y036198D01*
X069014Y03625D01*
X068935Y036283D01*
X06885Y036294D01*
D02*
G37*
G36*
X03165Y036239D02*
X031611Y036231D01*
X031536Y036181D01*
X031485Y036105D01*
X031468Y036017D01*
Y03585D01*
X03165D01*
Y036239D01*
D02*
G37*
G36*
X0673Y036189D02*
X067261Y036181D01*
X067186Y036131D01*
X067135Y036055D01*
X067118Y035967D01*
Y0358D01*
X0673D01*
Y036189D01*
D02*
G37*
G36*
X03165Y03575D02*
X031468D01*
Y035583D01*
X031485Y035495D01*
X031536Y035419D01*
X031611Y035369D01*
X03165Y035361D01*
Y03575D01*
D02*
G37*
G36*
X0673Y0357D02*
X067118D01*
Y035533D01*
X067135Y035445D01*
X067186Y035369D01*
X067261Y035319D01*
X0673Y035311D01*
Y0357D01*
D02*
G37*
G36*
X06749Y0339D02*
X0672D01*
Y03361D01*
X06732D01*
X06749Y03378D01*
Y0339D01*
D02*
G37*
G36*
X0671D02*
X06681D01*
Y03378D01*
X06698Y03361D01*
X0671D01*
Y0339D01*
D02*
G37*
G36*
X03234Y03365D02*
X03205D01*
Y03336D01*
X03217D01*
X03234Y03353D01*
Y03365D01*
D02*
G37*
G36*
X03195D02*
X03166D01*
Y03353D01*
X03183Y03336D01*
X03195D01*
Y03365D01*
D02*
G37*
G36*
X05305Y034252D02*
X052907Y034233D01*
X052774Y034178D01*
X05266Y03409D01*
X052572Y033976D01*
X052517Y033843D01*
X052498Y0337D01*
X052517Y033557D01*
X052572Y033424D01*
X05266Y03331D01*
X052774Y033222D01*
X052907Y033167D01*
X05305Y033148D01*
X053193Y033167D01*
X053326Y033222D01*
X05344Y03331D01*
X053528Y033424D01*
X053583Y033557D01*
X053602Y0337D01*
X053583Y033843D01*
X053528Y033976D01*
X05344Y03409D01*
X053326Y034178D01*
X053193Y034233D01*
X05305Y034252D01*
D02*
G37*
G36*
X051383D02*
X051241Y034233D01*
X051108Y034178D01*
X050993Y03409D01*
X050906Y033976D01*
X050851Y033843D01*
X050832Y0337D01*
X050851Y033557D01*
X050906Y033424D01*
X050993Y03331D01*
X051108Y033222D01*
X051241Y033167D01*
X051383Y033148D01*
X051526Y033167D01*
X051659Y033222D01*
X051773Y03331D01*
X051861Y033424D01*
X051916Y033557D01*
X051935Y0337D01*
X051916Y033843D01*
X051861Y033976D01*
X051773Y03409D01*
X051659Y034178D01*
X051526Y034233D01*
X051383Y034252D01*
D02*
G37*
G36*
X049717D02*
X049574Y034233D01*
X049441Y034178D01*
X049327Y03409D01*
X049239Y033976D01*
X049184Y033843D01*
X049165Y0337D01*
X049184Y033557D01*
X049239Y033424D01*
X049327Y03331D01*
X049441Y033222D01*
X049574Y033167D01*
X049717Y033148D01*
X049859Y033167D01*
X049992Y033222D01*
X050107Y03331D01*
X050194Y033424D01*
X050249Y033557D01*
X050268Y0337D01*
X050249Y033843D01*
X050194Y033976D01*
X050107Y03409D01*
X049992Y034178D01*
X049859Y034233D01*
X049717Y034252D01*
D02*
G37*
G36*
X04805D02*
X047907Y034233D01*
X047774Y034178D01*
X04766Y03409D01*
X047572Y033976D01*
X047517Y033843D01*
X047498Y0337D01*
X047517Y033557D01*
X047572Y033424D01*
X04766Y03331D01*
X047774Y033222D01*
X047907Y033167D01*
X04805Y033148D01*
X048193Y033167D01*
X048326Y033222D01*
X04844Y03331D01*
X048528Y033424D01*
X048583Y033557D01*
X048602Y0337D01*
X048583Y033843D01*
X048528Y033976D01*
X04844Y03409D01*
X048326Y034178D01*
X048193Y034233D01*
X04805Y034252D01*
D02*
G37*
G36*
X05305Y030752D02*
X052907Y030733D01*
X052774Y030678D01*
X05266Y03059D01*
X052572Y030476D01*
X052517Y030343D01*
X052498Y0302D01*
X052517Y030057D01*
X052572Y029924D01*
X05266Y02981D01*
X052774Y029722D01*
X052907Y029667D01*
X05305Y029648D01*
X053193Y029667D01*
X053326Y029722D01*
X05344Y02981D01*
X053528Y029924D01*
X053583Y030057D01*
X053602Y0302D01*
X053583Y030343D01*
X053528Y030476D01*
X05344Y03059D01*
X053326Y030678D01*
X053193Y030733D01*
X05305Y030752D01*
D02*
G37*
G36*
X051383D02*
X051241Y030733D01*
X051108Y030678D01*
X050993Y03059D01*
X050906Y030476D01*
X050851Y030343D01*
X050832Y0302D01*
X050851Y030057D01*
X050906Y029924D01*
X050993Y02981D01*
X051108Y029722D01*
X051241Y029667D01*
X051383Y029648D01*
X051526Y029667D01*
X051659Y029722D01*
X051773Y02981D01*
X051861Y029924D01*
X051916Y030057D01*
X051935Y0302D01*
X051916Y030343D01*
X051861Y030476D01*
X051773Y03059D01*
X051659Y030678D01*
X051526Y030733D01*
X051383Y030752D01*
D02*
G37*
G36*
X049717D02*
X049574Y030733D01*
X049441Y030678D01*
X049327Y03059D01*
X049239Y030476D01*
X049184Y030343D01*
X049165Y0302D01*
X049184Y030057D01*
X049239Y029924D01*
X049327Y02981D01*
X049441Y029722D01*
X049574Y029667D01*
X049717Y029648D01*
X049859Y029667D01*
X049992Y029722D01*
X050107Y02981D01*
X050194Y029924D01*
X050249Y030057D01*
X050268Y0302D01*
X050249Y030343D01*
X050194Y030476D01*
X050107Y03059D01*
X049992Y030678D01*
X049859Y030733D01*
X049717Y030752D01*
D02*
G37*
G36*
X04805D02*
X047907Y030733D01*
X047774Y030678D01*
X04766Y03059D01*
X047572Y030476D01*
X047517Y030343D01*
X047498Y0302D01*
X047517Y030057D01*
X047572Y029924D01*
X04766Y02981D01*
X047774Y029722D01*
X047907Y029667D01*
X04805Y029648D01*
X048193Y029667D01*
X048326Y029722D01*
X04844Y02981D01*
X048528Y029924D01*
X048583Y030057D01*
X048602Y0302D01*
X048583Y030343D01*
X048528Y030476D01*
X04844Y03059D01*
X048326Y030678D01*
X048193Y030733D01*
X04805Y030752D01*
D02*
G37*
G36*
X050915Y029402D02*
X050766Y029382D01*
X050627Y029325D01*
X050507Y029233D01*
X050447Y029154D01*
X050383D01*
X050323Y029233D01*
X050203Y029325D01*
X050064Y029382D01*
X049915Y029402D01*
X049766Y029382D01*
X049627Y029325D01*
X049507Y029233D01*
X049447Y029154D01*
X049383D01*
X049323Y029233D01*
X049203Y029325D01*
X049064Y029382D01*
X048915Y029402D01*
X048766Y029382D01*
X048627Y029325D01*
X048507Y029233D01*
X048415Y029113D01*
X048358Y028974D01*
X048338Y028825D01*
Y028675D01*
X048358Y028526D01*
X048415Y028387D01*
X048507Y028267D01*
X048627Y028175D01*
X048766Y028118D01*
X048915Y028098D01*
X049064Y028118D01*
X049203Y028175D01*
X049323Y028267D01*
X049383Y028346D01*
X049447D01*
X049507Y028267D01*
X049627Y028175D01*
X049766Y028118D01*
X049915Y028098D01*
X050064Y028118D01*
X050203Y028175D01*
X050323Y028267D01*
X050383Y028346D01*
X050447D01*
X050507Y028267D01*
X050627Y028175D01*
X050766Y028118D01*
X050915Y028098D01*
X051064Y028118D01*
X051203Y028175D01*
X051293Y028244D01*
X051343Y02822D01*
Y028103D01*
X052487D01*
Y029397D01*
X051343D01*
Y02928D01*
X051293Y029256D01*
X051203Y029325D01*
X051064Y029382D01*
X050915Y029402D01*
D02*
G37*
G36*
X059047Y032722D02*
X057753D01*
Y031578D01*
X05787D01*
X057894Y031528D01*
X057825Y031438D01*
X057768Y031299D01*
X057748Y03115D01*
X057768Y031001D01*
X057825Y030862D01*
X057917Y030742D01*
X057996Y030682D01*
Y030618D01*
X057917Y030558D01*
X057825Y030438D01*
X057768Y030299D01*
X057748Y03015D01*
X057768Y030001D01*
X057825Y029862D01*
X057917Y029742D01*
X057996Y029682D01*
Y029618D01*
X057917Y029558D01*
X057825Y029438D01*
X057768Y029299D01*
X057748Y02915D01*
X057768Y029001D01*
X057825Y028862D01*
X057917Y028742D01*
X058005Y028675D01*
X057988Y028625D01*
X0578D01*
Y0282D01*
X05835D01*
X0589D01*
Y028625D01*
X058812D01*
X058795Y028675D01*
X058883Y028742D01*
X058975Y028862D01*
X059032Y029001D01*
X059052Y02915D01*
X059032Y029299D01*
X058975Y029438D01*
X058883Y029558D01*
X058804Y029618D01*
Y029682D01*
X058883Y029742D01*
X058975Y029862D01*
X059032Y030001D01*
X059052Y03015D01*
X059032Y030299D01*
X058975Y030438D01*
X058883Y030558D01*
X058804Y030618D01*
Y030682D01*
X058883Y030742D01*
X058975Y030862D01*
X059032Y031001D01*
X059052Y03115D01*
X059032Y031299D01*
X058975Y031438D01*
X058906Y031528D01*
X05893Y031578D01*
X059047D01*
Y032722D01*
D02*
G37*
G36*
X0589Y0281D02*
X05835D01*
X0578D01*
Y027675D01*
X058241D01*
X058244Y027625D01*
X058151Y027613D01*
X058035Y027565D01*
X057936Y027489D01*
X05786Y02739D01*
X057812Y027274D01*
X057802Y0272D01*
X05835D01*
X058898D01*
X058888Y027274D01*
X05884Y02739D01*
X058764Y027489D01*
X058665Y027565D01*
X058549Y027613D01*
X058456Y027625D01*
X058459Y027675D01*
X0589D01*
Y0281D01*
D02*
G37*
G36*
X058898Y0271D02*
X05835D01*
X057802D01*
X057812Y027026D01*
X05786Y02691D01*
X057936Y026811D01*
X058035Y026735D01*
X058151Y026687D01*
X058242Y026675D01*
Y026625D01*
X058151Y026613D01*
X058035Y026565D01*
X057936Y026489D01*
X05786Y02639D01*
X057812Y026274D01*
X057802Y0262D01*
X05835D01*
X058898D01*
X058888Y026274D01*
X05884Y02639D01*
X058764Y026489D01*
X058665Y026565D01*
X058549Y026613D01*
X058458Y026625D01*
Y026675D01*
X058549Y026687D01*
X058665Y026735D01*
X058764Y026811D01*
X05884Y02691D01*
X058888Y027026D01*
X058898Y0271D01*
D02*
G37*
G36*
X05095Y026152D02*
X050801Y026132D01*
X050662Y026075D01*
X050542Y025983D01*
X050482Y025904D01*
X050418D01*
X050358Y025983D01*
X050238Y026075D01*
X050099Y026132D01*
X04995Y026152D01*
X049801Y026132D01*
X049662Y026075D01*
X049542Y025983D01*
X049482Y025904D01*
X049418D01*
X049358Y025983D01*
X049238Y026075D01*
X049099Y026132D01*
X04895Y026152D01*
X048801Y026132D01*
X048662Y026075D01*
X048542Y025983D01*
X04845Y025863D01*
X048393Y025724D01*
X048373Y025575D01*
Y025425D01*
X048393Y025276D01*
X04845Y025137D01*
X048542Y025017D01*
X048662Y024925D01*
X048801Y024868D01*
X04895Y024848D01*
X049099Y024868D01*
X049238Y024925D01*
X049358Y025017D01*
X049418Y025096D01*
X049482D01*
X049542Y025017D01*
X049662Y024925D01*
X049801Y024868D01*
X04995Y024848D01*
X050099Y024868D01*
X050238Y024925D01*
X050358Y025017D01*
X050418Y025096D01*
X050482D01*
X050542Y025017D01*
X050662Y024925D01*
X050801Y024868D01*
X05095Y024848D01*
X051099Y024868D01*
X051238Y024925D01*
X051328Y024994D01*
X051378Y02497D01*
Y024853D01*
X052522D01*
Y026147D01*
X051378D01*
Y02603D01*
X051328Y026006D01*
X051238Y026075D01*
X051099Y026132D01*
X05095Y026152D01*
D02*
G37*
G36*
X058898Y0261D02*
X05835D01*
X057802D01*
X057812Y026026D01*
X05786Y02591D01*
X057936Y025811D01*
X058035Y025735D01*
X058151Y025687D01*
X058242Y025675D01*
Y025625D01*
X058151Y025613D01*
X058035Y025565D01*
X057936Y025489D01*
X05786Y02539D01*
X057812Y025274D01*
X057802Y0252D01*
X05835D01*
X058898D01*
X058888Y025274D01*
X05884Y02539D01*
X058764Y025489D01*
X058665Y025565D01*
X058549Y025613D01*
X058458Y025625D01*
Y025675D01*
X058549Y025687D01*
X058665Y025735D01*
X058764Y025811D01*
X05884Y02591D01*
X058888Y026026D01*
X058898Y0261D01*
D02*
G37*
G36*
Y0251D02*
X0584D01*
Y024671D01*
X058425D01*
X058549Y024687D01*
X058665Y024735D01*
X058764Y024811D01*
X05884Y02491D01*
X058888Y025026D01*
X058898Y0251D01*
D02*
G37*
G36*
X0583D02*
X057802D01*
X057812Y025026D01*
X05786Y02491D01*
X057936Y024811D01*
X058035Y024735D01*
X058151Y024687D01*
X058275Y024671D01*
X0583D01*
Y0251D01*
D02*
G37*
G36*
X0405Y024716D02*
X040366Y024699D01*
X040242Y024647D01*
X040135Y024565D01*
X040121Y024547D01*
X03365D01*
X03356Y024536D01*
X033476Y024501D01*
X033404Y024446D01*
X031724Y022765D01*
X031669Y022693D01*
X031634Y02261D01*
X031622Y02252D01*
Y02062D01*
X031634Y02053D01*
X031669Y020446D01*
X031694Y020413D01*
X031686Y020355D01*
X031618Y020303D01*
X031566Y020235D01*
X031534Y020156D01*
X031522Y020071D01*
Y019964D01*
X031514Y019945D01*
X031503Y019855D01*
Y01925D01*
X031514Y01916D01*
X031549Y019076D01*
X031604Y019004D01*
X031754Y018854D01*
X031826Y018799D01*
X031875Y018779D01*
X03191Y018764D01*
X032Y018753D01*
X034871D01*
X034885Y018735D01*
X034992Y018653D01*
X035116Y018601D01*
X03525Y018584D01*
X035384Y018601D01*
X035508Y018653D01*
X035615Y018735D01*
X035697Y018842D01*
X035749Y018966D01*
X035766Y0191D01*
X035749Y019234D01*
X035697Y019358D01*
X035615Y019465D01*
X035508Y019547D01*
X035384Y019599D01*
X03525Y019616D01*
X035116Y019599D01*
X034992Y019547D01*
X034885Y019465D01*
X034871Y019447D01*
X033557D01*
X03353Y019497D01*
X033565Y019549D01*
X033582Y019638D01*
Y019805D01*
X03335D01*
Y019855D01*
X0333D01*
Y020294D01*
X033261Y020286D01*
X033242Y020273D01*
X033197Y020297D01*
Y020663D01*
X033268D01*
X033487Y020882D01*
Y021318D01*
X033268Y021537D01*
X033268D01*
X033247Y021587D01*
X03339Y02173D01*
Y02185D01*
X03305D01*
X03271D01*
Y02173D01*
X032853Y021587D01*
X032832Y021537D01*
X032832D01*
X032613Y021318D01*
Y021155D01*
X032604Y021146D01*
X032549Y021074D01*
X032514Y02099D01*
X032503Y0209D01*
Y020644D01*
X032456Y020624D01*
X032317Y020764D01*
Y022376D01*
X033794Y023853D01*
X037608D01*
X037625Y023803D01*
X037553Y023708D01*
X037501Y023584D01*
X037484Y02345D01*
X037501Y023316D01*
X037553Y023192D01*
X037553Y023191D01*
Y021509D01*
X037553Y021508D01*
X037501Y021384D01*
X037484Y02125D01*
X037501Y021116D01*
X037553Y020992D01*
X037635Y020885D01*
X037742Y020803D01*
X037866Y020751D01*
X038Y020734D01*
X038134Y020751D01*
X038258Y020803D01*
X038365Y020885D01*
X038447Y020992D01*
X038499Y021116D01*
X038516Y02125D01*
X038499Y021384D01*
X038447Y021508D01*
X038447Y021509D01*
Y023191D01*
X038447Y023192D01*
X038499Y023316D01*
X038516Y02345D01*
X038499Y023584D01*
X038447Y023708D01*
X038375Y023803D01*
X038392Y023853D01*
X040121D01*
X040135Y023835D01*
X040242Y023753D01*
X040366Y023701D01*
X0405Y023684D01*
X040634Y023701D01*
X040758Y023753D01*
X040865Y023835D01*
X040947Y023942D01*
X040999Y024066D01*
X041016Y0242D01*
X040999Y024334D01*
X040947Y024458D01*
X040865Y024565D01*
X040758Y024647D01*
X040634Y024699D01*
X0405Y024716D01*
D02*
G37*
G36*
X06912Y02384D02*
X069D01*
Y02355D01*
X06929D01*
Y02367D01*
X06912Y02384D01*
D02*
G37*
G36*
X0689D02*
X06878D01*
X06861Y02367D01*
Y02355D01*
X0689D01*
Y02384D01*
D02*
G37*
G36*
X0519Y023002D02*
X051751Y022982D01*
X051612Y022925D01*
X051492Y022833D01*
X051432Y022754D01*
X051368D01*
X051308Y022833D01*
X051188Y022925D01*
X051049Y022982D01*
X0509Y023002D01*
X050751Y022982D01*
X050612Y022925D01*
X050492Y022833D01*
X050432Y022754D01*
X050368D01*
X050308Y022833D01*
X050188Y022925D01*
X050049Y022982D01*
X0499Y023002D01*
X049751Y022982D01*
X049612Y022925D01*
X049522Y022856D01*
X049472Y02288D01*
Y022997D01*
X048328D01*
Y021703D01*
X049472D01*
Y02182D01*
X049522Y021844D01*
X049612Y021775D01*
X049751Y021718D01*
X0499Y021698D01*
X050049Y021718D01*
X050188Y021775D01*
X050308Y021867D01*
X050368Y021946D01*
X050432D01*
X050492Y021867D01*
X050612Y021775D01*
X050751Y021718D01*
X0509Y021698D01*
X051049Y021718D01*
X051188Y021775D01*
X051308Y021867D01*
X051368Y021946D01*
X051432D01*
X051492Y021867D01*
X051612Y021775D01*
X051751Y021718D01*
X0519Y021698D01*
X052049Y021718D01*
X052188Y021775D01*
X052308Y021867D01*
X0524Y021987D01*
X052457Y022126D01*
X052477Y022275D01*
Y022425D01*
X052457Y022574D01*
X0524Y022713D01*
X052308Y022833D01*
X052188Y022925D01*
X052049Y022982D01*
X0519Y023002D01*
D02*
G37*
G36*
X03322Y02224D02*
X0331D01*
Y02195D01*
X03339D01*
Y02207D01*
X03322Y02224D01*
D02*
G37*
G36*
X033D02*
X03288D01*
X03271Y02207D01*
Y02195D01*
X033D01*
Y02224D01*
D02*
G37*
G36*
X06925Y021894D02*
Y021505D01*
X069432D01*
Y021671D01*
X069415Y02176D01*
X069364Y021836D01*
X069289Y021886D01*
X06925Y021894D01*
D02*
G37*
G36*
X069432Y021405D02*
X06925D01*
Y021016D01*
X069289Y021023D01*
X069364Y021074D01*
X069415Y021149D01*
X069432Y021238D01*
Y021405D01*
D02*
G37*
G36*
X0551Y020966D02*
X054966Y020949D01*
X054842Y020897D01*
X054841Y020897D01*
X050959D01*
X050958Y020897D01*
X050834Y020949D01*
X0507Y020966D01*
X050566Y020949D01*
X050442Y020897D01*
X050335Y020815D01*
X050253Y020708D01*
X050201Y020584D01*
X050184Y02045D01*
X050201Y020316D01*
X050253Y020192D01*
X050335Y020085D01*
X050442Y020003D01*
X050566Y019951D01*
X0507Y019934D01*
X050834Y019951D01*
X050958Y020003D01*
X050959Y020003D01*
X054841D01*
X054842Y020003D01*
X054966Y019951D01*
X0551Y019934D01*
X055234Y019951D01*
X055358Y020003D01*
X055465Y020085D01*
X055547Y020192D01*
X055599Y020316D01*
X055616Y02045D01*
X055599Y020584D01*
X055547Y020708D01*
X055465Y020815D01*
X055358Y020897D01*
X055234Y020949D01*
X0551Y020966D01*
D02*
G37*
G36*
X0334Y020294D02*
Y019905D01*
X033582D01*
Y020071D01*
X033565Y02016D01*
X033514Y020236D01*
X033439Y020286D01*
X0334Y020294D01*
D02*
G37*
G36*
X0692Y019794D02*
X069115Y019783D01*
X069036Y01975D01*
X068968Y019698D01*
X068932D01*
X068864Y01975D01*
X068785Y019783D01*
X0687Y019794D01*
X068615Y019783D01*
X068536Y01975D01*
X068468Y019698D01*
X068432D01*
X068364Y01975D01*
X068285Y019783D01*
X0682Y019794D01*
X068115Y019783D01*
X068075Y019766D01*
X068025Y019791D01*
Y019791D01*
X067375D01*
Y019597D01*
X0671D01*
X06701Y019586D01*
X066926Y019551D01*
X066854Y019496D01*
X066504Y019146D01*
X066449Y019074D01*
X066414Y01899D01*
X066403Y0189D01*
Y017979D01*
X066385Y017965D01*
X066303Y017858D01*
X066251Y017734D01*
X066234Y0176D01*
X066251Y017466D01*
X066303Y017342D01*
X066385Y017235D01*
X066492Y017153D01*
X066616Y017101D01*
X06675Y017084D01*
X066884Y017101D01*
X067008Y017153D01*
X067115Y017235D01*
X067197Y017342D01*
X067249Y017466D01*
X067266Y0176D01*
X067249Y017734D01*
X067197Y017858D01*
X067115Y017965D01*
X067097Y017979D01*
Y018756D01*
X067244Y018903D01*
X067375D01*
Y018709D01*
X068025D01*
Y018709D01*
X068075Y018734D01*
X068115Y018717D01*
X0682Y018706D01*
X068285Y018717D01*
X068364Y01875D01*
X068432Y018802D01*
X068468D01*
X068536Y01875D01*
X068615Y018717D01*
X0687Y018706D01*
X068785Y018717D01*
X068811Y018728D01*
X068853Y0187D01*
Y018079D01*
X068835Y018065D01*
X068753Y017958D01*
X068701Y017834D01*
X068684Y0177D01*
X068701Y017566D01*
X068753Y017442D01*
X068835Y017335D01*
X068942Y017253D01*
X069066Y017201D01*
X0692Y017184D01*
X069334Y017201D01*
X069458Y017253D01*
X069565Y017335D01*
X069647Y017442D01*
X069699Y017566D01*
X069716Y0177D01*
X069699Y017834D01*
X069647Y017958D01*
X069565Y018065D01*
X069547Y018079D01*
Y01925D01*
X069536Y01934D01*
X069528Y019359D01*
Y019467D01*
X069516Y019551D01*
X069484Y01963D01*
X069432Y019698D01*
X069364Y01975D01*
X069285Y019783D01*
X0692Y019794D01*
D02*
G37*
G36*
X03335Y018194D02*
X033265Y018183D01*
X033186Y01815D01*
X033118Y018098D01*
X033082D01*
X033014Y01815D01*
X032935Y018183D01*
X03285Y018194D01*
X032765Y018183D01*
X032686Y01815D01*
X032618Y018098D01*
X032582D01*
X032514Y01815D01*
X032435Y018183D01*
X03235Y018194D01*
X032265Y018183D01*
X032225Y018166D01*
X032175Y018191D01*
Y018191D01*
X031525D01*
Y017988D01*
X03151Y017986D01*
X031475Y017971D01*
X031426Y017951D01*
X031354Y017896D01*
X031054Y017596D01*
X030999Y017524D01*
X030964Y01744D01*
X030953Y01735D01*
Y017025D01*
X030913Y016973D01*
X030868Y016866D01*
X030853Y01675D01*
Y01255D01*
X030868Y012434D01*
X030913Y012327D01*
X030984Y012234D01*
X031134Y012084D01*
X031227Y012013D01*
X031334Y011968D01*
X03145Y011953D01*
X032191D01*
X032192Y011953D01*
X032316Y011901D01*
X03245Y011884D01*
X032584Y011901D01*
X032708Y011953D01*
X032815Y012035D01*
X032897Y012142D01*
X032949Y012266D01*
X032966Y0124D01*
X032949Y012534D01*
X032897Y012658D01*
X032815Y012765D01*
X032708Y012847D01*
X032584Y012899D01*
X03245Y012916D01*
X032316Y012899D01*
X032192Y012847D01*
X032191Y012847D01*
X031747D01*
Y01675D01*
X031732Y016866D01*
X031687Y016973D01*
X031647Y017025D01*
Y017109D01*
X032175D01*
Y017109D01*
X032225Y017134D01*
X032265Y017117D01*
X03235Y017106D01*
X032435Y017117D01*
X032514Y01715D01*
X032582Y017202D01*
X032618D01*
X032686Y01715D01*
X032765Y017117D01*
X03285Y017106D01*
X032935Y017117D01*
X033014Y01715D01*
X033082Y017202D01*
X033118D01*
X033186Y01715D01*
X033265Y017117D01*
X03335Y017106D01*
X033435Y017117D01*
X033514Y01715D01*
X033582Y017202D01*
X033621Y017253D01*
X033821D01*
X033835Y017235D01*
X033942Y017153D01*
X034066Y017101D01*
X0342Y017084D01*
X034334Y017101D01*
X034458Y017153D01*
X034565Y017235D01*
X034647Y017342D01*
X034699Y017466D01*
X034716Y0176D01*
X034699Y017734D01*
X034647Y017858D01*
X034565Y017965D01*
X034458Y018047D01*
X034334Y018099D01*
X0342Y018116D01*
X034066Y018099D01*
X033942Y018047D01*
X033835Y017965D01*
X033821Y017947D01*
X033667D01*
X033666Y017951D01*
X033634Y01803D01*
X033582Y018098D01*
X033514Y01815D01*
X033435Y018183D01*
X03335Y018194D01*
D02*
G37*
G36*
X04545Y017451D02*
X04532Y017434D01*
X045199Y017384D01*
X045096Y017304D01*
X045016Y017201D01*
X044977Y017107D01*
X044923D01*
X044884Y017201D01*
X044804Y017304D01*
X044701Y017384D01*
X04458Y017434D01*
X04445Y017451D01*
X04432Y017434D01*
X044199Y017384D01*
X044096Y017304D01*
X044016Y017201D01*
X043966Y01708D01*
X043949Y01695D01*
Y01665D01*
X043966Y01652D01*
X044016Y016399D01*
X044096Y016296D01*
X044199Y016216D01*
X04432Y016166D01*
X04445Y016149D01*
X04458Y016166D01*
X044701Y016216D01*
X044804Y016296D01*
X044884Y016399D01*
X044923Y016493D01*
X044977D01*
X045016Y016399D01*
X045096Y016296D01*
X045199Y016216D01*
X04532Y016166D01*
X04545Y016149D01*
X04558Y016166D01*
X045701Y016216D01*
X045804Y016296D01*
X045884Y016399D01*
X045934Y01652D01*
X045951Y01665D01*
Y01695D01*
X045934Y01708D01*
X045884Y017201D01*
X045804Y017304D01*
X045701Y017384D01*
X04558Y017434D01*
X04545Y017451D01*
D02*
G37*
G36*
X0566Y017401D02*
X05647Y017384D01*
X056349Y017334D01*
X056246Y017254D01*
X056166Y017151D01*
X056127Y017057D01*
X056073D01*
X056034Y017151D01*
X055954Y017254D01*
X055851Y017334D01*
X05573Y017384D01*
X0556Y017401D01*
X05547Y017384D01*
X055349Y017334D01*
X055246Y017254D01*
X055166Y017151D01*
X055116Y01703D01*
X055099Y0169D01*
Y0166D01*
X055116Y01647D01*
X055166Y016349D01*
X055246Y016246D01*
X055349Y016166D01*
X05547Y016116D01*
X0556Y016099D01*
X05573Y016116D01*
X055851Y016166D01*
X055954Y016246D01*
X056034Y016349D01*
X056073Y016443D01*
X056127D01*
X056166Y016349D01*
X056246Y016246D01*
X056349Y016166D01*
X05647Y016116D01*
X0566Y016099D01*
X05673Y016116D01*
X056851Y016166D01*
X056954Y016246D01*
X057034Y016349D01*
X057084Y01647D01*
X057101Y0166D01*
Y0169D01*
X057084Y01703D01*
X057034Y017151D01*
X056954Y017254D01*
X056851Y017334D01*
X05673Y017384D01*
X0566Y017401D01*
D02*
G37*
G36*
X04075Y018401D02*
X040594Y018385D01*
X040444Y01834D01*
X040305Y018266D01*
X040184Y018166D01*
X040084Y018045D01*
X04001Y017906D01*
X039965Y017756D01*
X039949Y0176D01*
X039965Y017444D01*
X04001Y017294D01*
X040084Y017155D01*
X040184Y017034D01*
X040305Y016934D01*
X040444Y01686D01*
X040594Y016815D01*
X04075Y016799D01*
X040906Y016815D01*
X041056Y01686D01*
X041195Y016934D01*
X041316Y017034D01*
X041416Y017155D01*
X04149Y017294D01*
X041535Y017444D01*
X041551Y0176D01*
X041535Y017756D01*
X04149Y017906D01*
X041416Y018045D01*
X041316Y018166D01*
X041195Y018266D01*
X041056Y01834D01*
X040906Y018385D01*
X04075Y018401D01*
D02*
G37*
G36*
X03595D02*
X035794Y018385D01*
X035644Y01834D01*
X035505Y018266D01*
X035384Y018166D01*
X035284Y018045D01*
X03521Y017906D01*
X035165Y017756D01*
X035149Y0176D01*
X035165Y017444D01*
X03521Y017294D01*
X035284Y017155D01*
X035384Y017034D01*
X035505Y016934D01*
X035644Y01686D01*
X035794Y016815D01*
X03595Y016799D01*
X036106Y016815D01*
X036256Y01686D01*
X036395Y016934D01*
X036516Y017034D01*
X036616Y017155D01*
X03669Y017294D01*
X036735Y017444D01*
X036751Y0176D01*
X036735Y017756D01*
X03669Y017906D01*
X036616Y018045D01*
X036516Y018166D01*
X036395Y018266D01*
X036256Y01834D01*
X036106Y018385D01*
X03595Y018401D01*
D02*
G37*
G36*
X0651Y018351D02*
X064944Y018335D01*
X064794Y01829D01*
X064655Y018216D01*
X064534Y018116D01*
X064434Y017995D01*
X06436Y017856D01*
X064315Y017706D01*
X064299Y01755D01*
X064315Y017394D01*
X06436Y017244D01*
X064434Y017105D01*
X064534Y016984D01*
X064655Y016884D01*
X064794Y01681D01*
X064944Y016765D01*
X0651Y016749D01*
X065256Y016765D01*
X065406Y01681D01*
X065545Y016884D01*
X065666Y016984D01*
X065766Y017105D01*
X06584Y017244D01*
X065885Y017394D01*
X065901Y01755D01*
X065885Y017706D01*
X06584Y017856D01*
X065766Y017995D01*
X065666Y018116D01*
X065545Y018216D01*
X065406Y01829D01*
X065256Y018335D01*
X0651Y018351D01*
D02*
G37*
G36*
X0603D02*
X060144Y018335D01*
X059994Y01829D01*
X059855Y018216D01*
X059734Y018116D01*
X059634Y017995D01*
X05956Y017856D01*
X059515Y017706D01*
X059499Y01755D01*
X059515Y017394D01*
X05956Y017244D01*
X059634Y017105D01*
X059734Y016984D01*
X059855Y016884D01*
X059994Y01681D01*
X060144Y016765D01*
X0603Y016749D01*
X060456Y016765D01*
X060606Y01681D01*
X060745Y016884D01*
X060866Y016984D01*
X060966Y017105D01*
X06104Y017244D01*
X061085Y017394D01*
X061101Y01755D01*
X061085Y017706D01*
X06104Y017856D01*
X060966Y017995D01*
X060866Y018116D01*
X060745Y018216D01*
X060606Y01829D01*
X060456Y018335D01*
X0603Y018351D01*
D02*
G37*
G36*
X04882Y017034D02*
X0487D01*
Y01665D01*
X049247D01*
X049239Y016712D01*
X049196Y016817D01*
X049127Y016907D01*
X049037Y016976D01*
X048932Y017019D01*
X04882Y017034D01*
D02*
G37*
G36*
X0486D02*
X04848D01*
X048368Y017019D01*
X048263Y016976D01*
X048173Y016907D01*
X048104Y016817D01*
X048061Y016712D01*
X048053Y01665D01*
X0486D01*
Y017034D01*
D02*
G37*
G36*
X05202Y016934D02*
X0519D01*
Y01655D01*
X052447D01*
X052439Y016612D01*
X052396Y016717D01*
X052327Y016807D01*
X052237Y016876D01*
X052132Y016919D01*
X05202Y016934D01*
D02*
G37*
G36*
X0518D02*
X05168D01*
X051568Y016919D01*
X051463Y016876D01*
X051373Y016807D01*
X051304Y016717D01*
X051261Y016612D01*
X051253Y01655D01*
X0518D01*
Y016934D01*
D02*
G37*
G36*
X04305Y0176D02*
X042933Y017588D01*
X04282Y017554D01*
X042717Y017499D01*
X042626Y017424D01*
X042551Y017333D01*
X042496Y01723D01*
X042462Y017117D01*
X04245Y017D01*
X042462Y016883D01*
X042496Y01677D01*
X042551Y016667D01*
X042626Y016576D01*
X042717Y016501D01*
X04282Y016446D01*
X042933Y016412D01*
X04305Y0164D01*
X043167Y016412D01*
X04328Y016446D01*
X043383Y016501D01*
X043474Y016576D01*
X043549Y016667D01*
X043604Y01677D01*
X043638Y016883D01*
X04365Y017D01*
X043638Y017117D01*
X043604Y01723D01*
X043549Y017333D01*
X043474Y017424D01*
X043383Y017499D01*
X04328Y017554D01*
X043167Y017588D01*
X04305Y0176D01*
D02*
G37*
G36*
X04695Y017502D02*
X046807Y017483D01*
X046674Y017428D01*
X04656Y01734D01*
X046472Y017226D01*
X046417Y017093D01*
X046398Y01695D01*
X046417Y016807D01*
X046472Y016674D01*
X04656Y01656D01*
X046674Y016472D01*
X046807Y016417D01*
X04695Y016398D01*
X047093Y016417D01*
X047226Y016472D01*
X04734Y01656D01*
X047428Y016674D01*
X047483Y016807D01*
X047502Y01695D01*
X047483Y017093D01*
X047428Y017226D01*
X04734Y01734D01*
X047226Y017428D01*
X047093Y017483D01*
X04695Y017502D01*
D02*
G37*
G36*
X05395Y017402D02*
X053807Y017383D01*
X053674Y017328D01*
X05356Y01724D01*
X053472Y017126D01*
X053417Y016993D01*
X053398Y01685D01*
X053417Y016707D01*
X053472Y016574D01*
X05356Y01646D01*
X053674Y016372D01*
X053807Y016317D01*
X05395Y016298D01*
X054093Y016317D01*
X054226Y016372D01*
X05434Y01646D01*
X054428Y016574D01*
X054483Y016707D01*
X054502Y01685D01*
X054483Y016993D01*
X054428Y017126D01*
X05434Y01724D01*
X054226Y017328D01*
X054093Y017383D01*
X05395Y017402D01*
D02*
G37*
G36*
X06845Y016516D02*
X068316Y016499D01*
X068192Y016447D01*
X068085Y016365D01*
X068003Y016258D01*
X067951Y016134D01*
X067934Y016D01*
X067951Y015866D01*
X068003Y015742D01*
X068085Y015635D01*
X068192Y015553D01*
X068316Y015501D01*
X06845Y015484D01*
X068584Y015501D01*
X068708Y015553D01*
X068815Y015635D01*
X068897Y015742D01*
X068949Y015866D01*
X068966Y016D01*
X068949Y016134D01*
X068897Y016258D01*
X068815Y016365D01*
X068708Y016447D01*
X068584Y016499D01*
X06845Y016516D01*
D02*
G37*
G36*
X032962Y016462D02*
X031938D01*
Y015438D01*
X032962D01*
Y016462D01*
D02*
G37*
G36*
X04175Y016001D02*
X041594Y015985D01*
X041444Y01594D01*
X041305Y015866D01*
X041184Y015766D01*
X041084Y015645D01*
X04101Y015506D01*
X040965Y015356D01*
X040949Y0152D01*
X040965Y015044D01*
X04101Y014894D01*
X041084Y014755D01*
X041184Y014634D01*
X041305Y014534D01*
X041444Y01446D01*
X041594Y014415D01*
X04175Y014399D01*
X041906Y014415D01*
X042056Y01446D01*
X042195Y014534D01*
X042316Y014634D01*
X042416Y014755D01*
X04249Y014894D01*
X042535Y015044D01*
X042551Y0152D01*
X042535Y015356D01*
X04249Y015506D01*
X042416Y015645D01*
X042316Y015766D01*
X042195Y015866D01*
X042056Y01594D01*
X041906Y015985D01*
X04175Y016001D01*
D02*
G37*
G36*
X0593Y015951D02*
X059144Y015935D01*
X058994Y01589D01*
X058855Y015816D01*
X058734Y015716D01*
X058634Y015595D01*
X05856Y015456D01*
X058515Y015306D01*
X058499Y01515D01*
X058515Y014994D01*
X05856Y014844D01*
X058634Y014705D01*
X058734Y014584D01*
X058855Y014484D01*
X058994Y01441D01*
X059144Y014365D01*
X0593Y014349D01*
X059456Y014365D01*
X059606Y01441D01*
X059745Y014484D01*
X059866Y014584D01*
X059966Y014705D01*
X06004Y014844D01*
X060085Y014994D01*
X060101Y01515D01*
X060085Y015306D01*
X06004Y015456D01*
X059966Y015595D01*
X059866Y015716D01*
X059745Y015816D01*
X059606Y01589D01*
X059456Y015935D01*
X0593Y015951D01*
D02*
G37*
G36*
X049247Y01655D02*
X04865D01*
X048053D01*
X048061Y016488D01*
X048104Y016383D01*
X048173Y016293D01*
X048263Y016224D01*
X048368Y016181D01*
X048421Y016174D01*
Y016124D01*
X048342Y016113D01*
X048214Y01606D01*
X048104Y015976D01*
X04802Y015866D01*
X047967Y015738D01*
X047949Y0156D01*
X047967Y015462D01*
X04802Y015334D01*
X048104Y015224D01*
X048214Y01514D01*
X04825Y015125D01*
Y015075D01*
X048214Y01506D01*
X048104Y014976D01*
X04802Y014866D01*
X047967Y014738D01*
X047949Y0146D01*
X047967Y014462D01*
X04802Y014334D01*
X048104Y014224D01*
X048214Y01414D01*
X048342Y014087D01*
X04848Y014069D01*
X04882D01*
X048958Y014087D01*
X049086Y01414D01*
X049196Y014224D01*
X04928Y014334D01*
X049333Y014462D01*
X049351Y0146D01*
X049333Y014738D01*
X04928Y014866D01*
X049196Y014976D01*
X049086Y01506D01*
X04905Y015075D01*
Y015125D01*
X049086Y01514D01*
X049196Y015224D01*
X04928Y015334D01*
X049333Y015462D01*
X049351Y0156D01*
X049333Y015738D01*
X04928Y015866D01*
X049196Y015976D01*
X049086Y01606D01*
X048958Y016113D01*
X048879Y016124D01*
Y016174D01*
X048932Y016181D01*
X049037Y016224D01*
X049127Y016293D01*
X049196Y016383D01*
X049239Y016488D01*
X049247Y01655D01*
D02*
G37*
G36*
X05185Y0165D02*
D01*
Y01645D01*
X051253D01*
X051261Y016388D01*
X051304Y016283D01*
X051373Y016193D01*
X051463Y016124D01*
X051568Y016081D01*
X051621Y016074D01*
Y016024D01*
X051542Y016013D01*
X051414Y01596D01*
X051304Y015876D01*
X05122Y015766D01*
X051167Y015638D01*
X051149Y0155D01*
X051167Y015362D01*
X05122Y015234D01*
X051304Y015124D01*
X051414Y01504D01*
X05145Y015025D01*
Y014975D01*
X051414Y01496D01*
X051304Y014876D01*
X05122Y014766D01*
X051167Y014638D01*
X051149Y0145D01*
X051167Y014362D01*
X05122Y014234D01*
X051304Y014124D01*
X051414Y01404D01*
X051542Y013987D01*
X05168Y013969D01*
X05202D01*
X052158Y013987D01*
X052286Y01404D01*
X052396Y014124D01*
X05248Y014234D01*
X052533Y014362D01*
X052551Y0145D01*
X052533Y014638D01*
X05248Y014766D01*
X052396Y014876D01*
X052286Y01496D01*
X05225Y014975D01*
Y015025D01*
X052286Y01504D01*
X052396Y015124D01*
X05248Y015234D01*
X052533Y015362D01*
X052551Y0155D01*
X052533Y015638D01*
X05248Y015766D01*
X052396Y015876D01*
X052286Y01596D01*
X052158Y016013D01*
X052079Y016024D01*
Y016074D01*
X052132Y016081D01*
X052237Y016124D01*
X052327Y016193D01*
X052396Y016283D01*
X052439Y016388D01*
X052447Y01645D01*
X05185D01*
Y0165D01*
D02*
G37*
G36*
X0455Y014347D02*
Y01385D01*
X045853D01*
Y01395D01*
X04584Y014054D01*
X045799Y014152D01*
X045735Y014235D01*
X045652Y014299D01*
X045554Y01434D01*
X0455Y014347D01*
D02*
G37*
G36*
X0454D02*
X045346Y01434D01*
X045248Y014299D01*
X045165Y014235D01*
X045101Y014152D01*
X04506Y014054D01*
X045047Y01395D01*
Y01385D01*
X0454D01*
Y014347D01*
D02*
G37*
G36*
X05665Y014297D02*
Y0138D01*
X057003D01*
Y0139D01*
X05699Y014004D01*
X056949Y014102D01*
X056885Y014185D01*
X056802Y014249D01*
X056704Y01429D01*
X05665Y014297D01*
D02*
G37*
G36*
X05655D02*
X056496Y01429D01*
X056398Y014249D01*
X056315Y014185D01*
X056251Y014102D01*
X05621Y014004D01*
X056197Y0139D01*
Y0138D01*
X05655D01*
Y014297D01*
D02*
G37*
G36*
X068962Y014512D02*
X067938D01*
Y013488D01*
X068962D01*
Y014512D01*
D02*
G37*
G36*
X03245Y014466D02*
X032316Y014449D01*
X032192Y014397D01*
X032085Y014315D01*
X032003Y014208D01*
X031951Y014084D01*
X031934Y01395D01*
X031951Y013816D01*
X032003Y013692D01*
X032085Y013585D01*
X032192Y013503D01*
X032316Y013451D01*
X03245Y013434D01*
X032584Y013451D01*
X032708Y013503D01*
X032815Y013585D01*
X032897Y013692D01*
X032949Y013816D01*
X032966Y01395D01*
X032949Y014084D01*
X032897Y014208D01*
X032815Y014315D01*
X032708Y014397D01*
X032584Y014449D01*
X03245Y014466D01*
D02*
G37*
G36*
X045853Y01375D02*
X0455D01*
Y013253D01*
X045554Y01326D01*
X045652Y013301D01*
X045735Y013365D01*
X045799Y013448D01*
X04584Y013546D01*
X045853Y01365D01*
Y01375D01*
D02*
G37*
G36*
X0454D02*
X045047D01*
Y01365D01*
X04506Y013546D01*
X045101Y013448D01*
X045165Y013365D01*
X045248Y013301D01*
X045346Y01326D01*
X0454Y013253D01*
Y01375D01*
D02*
G37*
G36*
X057003Y0137D02*
X05665D01*
Y013203D01*
X056704Y01321D01*
X056802Y013251D01*
X056885Y013315D01*
X056949Y013398D01*
X05699Y013496D01*
X057003Y0136D01*
Y0137D01*
D02*
G37*
G36*
X05655D02*
X056197D01*
Y0136D01*
X05621Y013496D01*
X056251Y013398D01*
X056315Y013315D01*
X056398Y013251D01*
X056496Y01321D01*
X05655Y013203D01*
Y0137D01*
D02*
G37*
G36*
X044947Y014447D02*
X043953D01*
Y013153D01*
X044947D01*
Y014447D01*
D02*
G37*
G36*
X056097Y014397D02*
X055103D01*
Y013103D01*
X056097D01*
Y014397D01*
D02*
G37*
G36*
X043647Y014097D02*
X042453D01*
Y012903D01*
X043647D01*
Y014097D01*
D02*
G37*
G36*
X049125Y013279D02*
X049D01*
Y0129D01*
X049547D01*
X049539Y012961D01*
X049496Y013064D01*
X049428Y013153D01*
X049339Y013221D01*
X049236Y013264D01*
X049125Y013279D01*
D02*
G37*
G36*
X0489D02*
X048775D01*
X048664Y013264D01*
X048561Y013221D01*
X048472Y013153D01*
X048404Y013064D01*
X048361Y012961D01*
X048353Y0129D01*
X0489D01*
Y013279D01*
D02*
G37*
G36*
X04695Y014002D02*
X046807Y013983D01*
X046674Y013928D01*
X04656Y01384D01*
X046472Y013726D01*
X046417Y013593D01*
X046398Y01345D01*
X046417Y013307D01*
X046472Y013174D01*
X04656Y01306D01*
X046674Y012972D01*
X046807Y012917D01*
X04695Y012898D01*
X047093Y012917D01*
X047226Y012972D01*
X04734Y01306D01*
X047428Y013174D01*
X047483Y013307D01*
X047502Y01345D01*
X047483Y013593D01*
X047428Y013726D01*
X04734Y01384D01*
X047226Y013928D01*
X047093Y013983D01*
X04695Y014002D01*
D02*
G37*
G36*
X051625Y013229D02*
X0515D01*
Y01285D01*
X052047D01*
X052039Y012911D01*
X051996Y013014D01*
X051928Y013103D01*
X051839Y013171D01*
X051736Y013214D01*
X051625Y013229D01*
D02*
G37*
G36*
X0514D02*
X051275D01*
X051164Y013214D01*
X051061Y013171D01*
X050972Y013103D01*
X050904Y013014D01*
X050861Y012911D01*
X050853Y01285D01*
X0514D01*
Y013229D01*
D02*
G37*
G36*
X0579Y014D02*
X057783Y013988D01*
X05767Y013954D01*
X057567Y013899D01*
X057476Y013824D01*
X057401Y013733D01*
X057346Y01363D01*
X057312Y013517D01*
X0573Y0134D01*
X057312Y013283D01*
X057346Y01317D01*
X057401Y013067D01*
X057476Y012976D01*
X057567Y012901D01*
X05767Y012846D01*
X057783Y012812D01*
X0579Y0128D01*
X058017Y012812D01*
X05813Y012846D01*
X058233Y012901D01*
X058324Y012976D01*
X058399Y013067D01*
X058454Y01317D01*
X058488Y013283D01*
X0585Y0134D01*
X058488Y013517D01*
X058454Y01363D01*
X058399Y013733D01*
X058324Y013824D01*
X058233Y013899D01*
X05813Y013954D01*
X058017Y013988D01*
X0579Y014D01*
D02*
G37*
G36*
X05395Y013902D02*
X053807Y013883D01*
X053674Y013828D01*
X05356Y01374D01*
X053472Y013626D01*
X053417Y013493D01*
X053398Y01335D01*
X053417Y013207D01*
X053472Y013074D01*
X05356Y01296D01*
X053674Y012872D01*
X053807Y012817D01*
X05395Y012798D01*
X054093Y012817D01*
X054226Y012872D01*
X05434Y01296D01*
X054428Y013074D01*
X054483Y013207D01*
X054502Y01335D01*
X054483Y013493D01*
X054428Y013626D01*
X05434Y01374D01*
X054226Y013828D01*
X054093Y013883D01*
X05395Y013902D01*
D02*
G37*
G36*
X04075Y013601D02*
X040594Y013585D01*
X040444Y01354D01*
X040305Y013466D01*
X040184Y013366D01*
X040084Y013245D01*
X04001Y013106D01*
X039965Y012956D01*
X039949Y0128D01*
X039965Y012644D01*
X04001Y012494D01*
X040084Y012355D01*
X040184Y012234D01*
X040305Y012134D01*
X040444Y01206D01*
X040594Y012015D01*
X04075Y011999D01*
X040906Y012015D01*
X041056Y01206D01*
X041195Y012134D01*
X041316Y012234D01*
X041416Y012355D01*
X04149Y012494D01*
X041535Y012644D01*
X041551Y0128D01*
X041535Y012956D01*
X04149Y013106D01*
X041416Y013245D01*
X041316Y013366D01*
X041195Y013466D01*
X041056Y01354D01*
X040906Y013585D01*
X04075Y013601D01*
D02*
G37*
G36*
X03595D02*
X035794Y013585D01*
X035644Y01354D01*
X035505Y013466D01*
X035384Y013366D01*
X035284Y013245D01*
X03521Y013106D01*
X035165Y012956D01*
X035149Y0128D01*
X035165Y012644D01*
X03521Y012494D01*
X035284Y012355D01*
X035384Y012234D01*
X035505Y012134D01*
X035644Y01206D01*
X035794Y012015D01*
X03595Y011999D01*
X036106Y012015D01*
X036256Y01206D01*
X036395Y012134D01*
X036516Y012234D01*
X036616Y012355D01*
X03669Y012494D01*
X036735Y012644D01*
X036751Y0128D01*
X036735Y012956D01*
X03669Y013106D01*
X036616Y013245D01*
X036516Y013366D01*
X036395Y013466D01*
X036256Y01354D01*
X036106Y013585D01*
X03595Y013601D01*
D02*
G37*
G36*
X0651Y013551D02*
X064944Y013535D01*
X064794Y01349D01*
X064655Y013416D01*
X064534Y013316D01*
X064434Y013195D01*
X06436Y013056D01*
X064315Y012906D01*
X064299Y01275D01*
X064315Y012594D01*
X06436Y012444D01*
X064434Y012305D01*
X064534Y012184D01*
X064655Y012084D01*
X064794Y01201D01*
X064944Y011965D01*
X0651Y011949D01*
X065256Y011965D01*
X065406Y01201D01*
X065545Y012084D01*
X065666Y012184D01*
X065766Y012305D01*
X06584Y012444D01*
X065885Y012594D01*
X065901Y01275D01*
X065885Y012906D01*
X06584Y013056D01*
X065766Y013195D01*
X065666Y013316D01*
X065545Y013416D01*
X065406Y01349D01*
X065256Y013535D01*
X0651Y013551D01*
D02*
G37*
G36*
X0603D02*
X060144Y013535D01*
X059994Y01349D01*
X059855Y013416D01*
X059734Y013316D01*
X059634Y013195D01*
X05956Y013056D01*
X059515Y012906D01*
X059499Y01275D01*
X059515Y012594D01*
X05956Y012444D01*
X059634Y012305D01*
X059734Y012184D01*
X059855Y012084D01*
X059994Y01201D01*
X060144Y011965D01*
X0603Y011949D01*
X060456Y011965D01*
X060606Y01201D01*
X060745Y012084D01*
X060866Y012184D01*
X060966Y012305D01*
X06104Y012444D01*
X061085Y012594D01*
X061101Y01275D01*
X061085Y012906D01*
X06104Y013056D01*
X060966Y013195D01*
X060866Y013316D01*
X060745Y013416D01*
X060606Y01349D01*
X060456Y013535D01*
X0603Y013551D01*
D02*
G37*
G36*
X04675Y012652D02*
X046607Y012633D01*
X046474Y012578D01*
X04636Y01249D01*
X046272Y012376D01*
X046217Y012243D01*
X046198Y0121D01*
X046217Y011957D01*
X046272Y011824D01*
X04636Y01171D01*
X046474Y011622D01*
X046607Y011567D01*
X04675Y011548D01*
X046893Y011567D01*
X047026Y011622D01*
X04714Y01171D01*
X047228Y011824D01*
X047283Y011957D01*
X047302Y0121D01*
X047283Y012243D01*
X047228Y012376D01*
X04714Y01249D01*
X047026Y012578D01*
X046893Y012633D01*
X04675Y012652D01*
D02*
G37*
G36*
X04325D02*
X043107Y012633D01*
X042974Y012578D01*
X04286Y01249D01*
X042772Y012376D01*
X042717Y012243D01*
X042698Y0121D01*
X042717Y011957D01*
X042772Y011824D01*
X04286Y01171D01*
X042974Y011622D01*
X043107Y011567D01*
X04325Y011548D01*
X043393Y011567D01*
X043526Y011622D01*
X04364Y01171D01*
X043728Y011824D01*
X043783Y011957D01*
X043802Y0121D01*
X043783Y012243D01*
X043728Y012376D01*
X04364Y01249D01*
X043526Y012578D01*
X043393Y012633D01*
X04325Y012652D01*
D02*
G37*
G36*
X049547Y0128D02*
X04895D01*
X048353D01*
X048361Y012739D01*
X048404Y012636D01*
X048472Y012547D01*
X048561Y012479D01*
X048664Y012436D01*
X048771Y012422D01*
X048768Y012372D01*
X048253D01*
Y011328D01*
X049647D01*
Y012372D01*
X049132D01*
X049129Y012422D01*
X049236Y012436D01*
X049339Y012479D01*
X049428Y012547D01*
X049496Y012636D01*
X049539Y012739D01*
X049547Y0128D01*
D02*
G37*
G36*
X05715Y012402D02*
X057007Y012383D01*
X056874Y012328D01*
X05676Y01224D01*
X056672Y012126D01*
X056617Y011993D01*
X056598Y01185D01*
X056617Y011707D01*
X056672Y011574D01*
X05676Y01146D01*
X056874Y011372D01*
X057007Y011317D01*
X05715Y011298D01*
X057293Y011317D01*
X057426Y011372D01*
X05754Y01146D01*
X057628Y011574D01*
X057683Y011707D01*
X057702Y01185D01*
X057683Y011993D01*
X057628Y012126D01*
X05754Y01224D01*
X057426Y012328D01*
X057293Y012383D01*
X05715Y012402D01*
D02*
G37*
G36*
X05365D02*
X053507Y012383D01*
X053374Y012328D01*
X05326Y01224D01*
X053172Y012126D01*
X053117Y011993D01*
X053098Y01185D01*
X053117Y011707D01*
X053172Y011574D01*
X05326Y01146D01*
X053374Y011372D01*
X053507Y011317D01*
X05365Y011298D01*
X053793Y011317D01*
X053926Y011372D01*
X05404Y01146D01*
X054128Y011574D01*
X054183Y011707D01*
X054202Y01185D01*
X054183Y011993D01*
X054128Y012126D01*
X05404Y01224D01*
X053926Y012328D01*
X053793Y012383D01*
X05365Y012402D01*
D02*
G37*
G36*
X052047Y01275D02*
X05145D01*
X050853D01*
X050861Y012689D01*
X050904Y012586D01*
X050972Y012497D01*
X051061Y012429D01*
X051164Y012386D01*
X051271Y012372D01*
X051268Y012322D01*
X050753D01*
Y011278D01*
X052147D01*
Y012322D01*
X051632D01*
X051629Y012372D01*
X051736Y012386D01*
X051839Y012429D01*
X051928Y012497D01*
X051996Y012586D01*
X052039Y012689D01*
X052047Y01275D01*
D02*
G37*
G36*
X0442Y026166D02*
X044066Y026149D01*
X043942Y026097D01*
X043835Y026015D01*
X043753Y025908D01*
X043701Y025784D01*
X043684Y02565D01*
X043701Y025516D01*
X043753Y025392D01*
X043753Y025391D01*
Y020885D01*
X043215Y020347D01*
X0401D01*
X039984Y020332D01*
X039877Y020287D01*
X039784Y020216D01*
X038284Y018716D01*
X038213Y018623D01*
X038168Y018516D01*
X038153Y0184D01*
Y011859D01*
X038153Y011858D01*
X038101Y011734D01*
X038084Y0116D01*
X038101Y011466D01*
X038153Y011342D01*
X038235Y011235D01*
X038342Y011153D01*
X038466Y011101D01*
X0386Y011084D01*
X038734Y011101D01*
X038858Y011153D01*
X038965Y011235D01*
X039047Y011342D01*
X039099Y011466D01*
X039116Y0116D01*
X039099Y011734D01*
X039047Y011858D01*
X039047Y011859D01*
Y018215D01*
X040285Y019453D01*
X0434D01*
X043516Y019468D01*
X043623Y019513D01*
X043716Y019584D01*
X044516Y020384D01*
X044587Y020477D01*
X044632Y020584D01*
X044647Y0207D01*
Y025391D01*
X044647Y025392D01*
X044699Y025516D01*
X044716Y02565D01*
X044699Y025784D01*
X044647Y025908D01*
X044565Y026015D01*
X044458Y026097D01*
X044334Y026149D01*
X0442Y026166D01*
D02*
G37*
%LPD*%
D18*
X0677Y01925D02*
D03*
X03185Y01765D02*
D03*
X0332Y038005D02*
D03*
X06885Y037955D02*
D03*
D19*
X0682Y01925D02*
D03*
X0687D02*
D03*
X0692D02*
D03*
X0677Y021455D02*
D03*
X0682D02*
D03*
X0687D02*
D03*
X0692D02*
D03*
X03335Y019855D02*
D03*
X03285D02*
D03*
X03235D02*
D03*
X03185D02*
D03*
X03335Y01765D02*
D03*
X03285D02*
D03*
X03235D02*
D03*
X0317Y0358D02*
D03*
X0322D02*
D03*
X0327D02*
D03*
X0332D02*
D03*
X0317Y038005D02*
D03*
X0322D02*
D03*
X0327D02*
D03*
X06735Y03575D02*
D03*
X06785D02*
D03*
X06835D02*
D03*
X06885D02*
D03*
X06735Y037955D02*
D03*
X06785D02*
D03*
X06835D02*
D03*
D40*
X033455Y03775D02*
X0341D01*
X06885Y0322D02*
Y03575D01*
X0688Y03215D02*
X06885Y0322D01*
X06805Y03065D02*
Y0335D01*
X06835Y0338D01*
Y03575D01*
X0313Y01675D02*
Y01735D01*
X0316Y01765D01*
X03185D01*
X03235D01*
X0692Y021455D02*
Y022103D01*
X069534Y022437D01*
Y023116D01*
X06915Y0235D02*
X069534Y023116D01*
X06895Y0235D02*
X06915D01*
X0687Y02245D02*
X06895Y0227D01*
X0687Y021455D02*
Y02245D01*
X03165Y0337D02*
X032D01*
X031416Y033934D02*
X03165Y0337D01*
X031416Y033934D02*
Y034916D01*
X0317Y0352D01*
Y0358D01*
X032Y0345D02*
X0322Y0347D01*
Y0358D01*
X03305Y0219D02*
X0335D01*
X0338Y0216D01*
Y02085D02*
Y0216D01*
X03335Y0204D02*
X0338Y02085D01*
X03335Y019855D02*
Y0204D01*
X03285Y0209D02*
X03305Y0211D01*
X03285Y019855D02*
Y0209D01*
X0661Y03575D02*
X06735D01*
X06575Y0354D02*
X0661Y03575D01*
X06575Y03435D02*
Y0354D01*
Y03435D02*
X06615Y03395D01*
X06715D01*
Y03475D02*
X06765D01*
X06785Y03495D01*
Y03575D01*
X0682Y021455D02*
Y0224D01*
X06755Y02305D02*
X0682Y0224D01*
X054Y02305D02*
X06755D01*
X0677Y021455D02*
Y022D01*
X06725Y02245D02*
X0677Y022D01*
X032Y0191D02*
X03525D01*
X0334Y0346D02*
X03475D01*
X0327Y0353D02*
X0334Y0346D01*
X03475D02*
X03535Y034D01*
X06735Y037955D02*
Y03865D01*
Y037955D02*
X06785D01*
X06885Y03835D02*
X06915Y03865D01*
X06885Y037955D02*
Y03835D01*
X06835Y037955D02*
X06885D01*
X067445Y0212D02*
X0677Y021455D01*
X06315Y0212D02*
X067445D01*
X0509Y02235D02*
Y022443D01*
X0327Y0353D02*
Y0358D01*
X0334Y03665D02*
X03525D01*
X0332Y03645D02*
X0334Y03665D01*
X03197Y02062D02*
X03235Y020239D01*
X03197Y02062D02*
Y02252D01*
X03365Y0242D01*
X0405D01*
X03235Y019855D02*
Y020239D01*
X05795Y017743D02*
Y02015D01*
X06025Y02245D01*
X06725D01*
X0692Y0177D02*
Y01925D01*
X0687D02*
X0692D01*
X06675Y0176D02*
Y0189D01*
X0671Y01925D01*
X0677D01*
X0682D01*
X03185D02*
Y019855D01*
Y01925D02*
X032Y0191D01*
X03335Y01765D02*
X0334Y0176D01*
X0342D01*
X03285Y01765D02*
X03335D01*
X0332Y0358D02*
Y03645D01*
Y038005D02*
X033455Y03775D01*
X0327Y038005D02*
X0332D01*
X0317D02*
X0322D01*
X0317D02*
Y03945D01*
X031594Y039556D02*
X0317Y03945D01*
D41*
X0507Y02045D02*
X0551D01*
X03145Y0124D02*
X03245D01*
X0313Y01255D02*
X03145Y0124D01*
X0313Y01255D02*
Y01675D01*
X06445Y02405D02*
X06805Y02765D01*
Y03065D01*
X038Y02125D02*
Y02345D01*
X0442Y0207D02*
Y02565D01*
X0434Y0199D02*
X0442Y0207D01*
X0386Y0116D02*
Y0184D01*
X0401Y0199D01*
X0434D01*
X0539Y02405D02*
X06445D01*
D42*
X031594Y039556D02*
Y041594D01*
X03205Y04205D01*
X03245D01*
D43*
X04895Y01285D02*
D03*
X05145Y0128D02*
D03*
D44*
X04895Y01185D02*
D03*
X05145Y0118D02*
D03*
D45*
X0579Y0169D02*
D03*
X04305Y0135D02*
D03*
Y03895D02*
D03*
X0581Y04235D02*
D03*
D46*
X0579Y0134D02*
D03*
X04305Y017D02*
D03*
Y04245D02*
D03*
X0581Y03885D02*
D03*
D47*
X05365Y01185D02*
D03*
X05715D02*
D03*
X04675Y0121D02*
D03*
X04325D02*
D03*
X0429Y045D02*
D03*
X0464D02*
D03*
X0579Y04505D02*
D03*
X0544D02*
D03*
X0541Y0388D02*
D03*
Y0423D02*
D03*
X04805Y0337D02*
D03*
Y0302D02*
D03*
X049717Y0337D02*
D03*
Y0302D02*
D03*
X05305Y0337D02*
D03*
Y0302D02*
D03*
X051383Y0337D02*
D03*
Y0302D02*
D03*
X04695Y01695D02*
D03*
Y01345D02*
D03*
Y04235D02*
D03*
Y03885D02*
D03*
X05395Y01685D02*
D03*
Y01335D02*
D03*
D48*
X032Y0345D02*
D03*
Y0337D02*
D03*
X03305Y0219D02*
D03*
Y0211D02*
D03*
X06895Y0235D02*
D03*
Y0227D02*
D03*
X06715Y03395D02*
D03*
Y03475D02*
D03*
D49*
X06845Y016D02*
D03*
X03245Y04005D02*
D03*
Y01395D02*
D03*
X06865Y0421D02*
D03*
X0341Y03775D02*
D03*
X0551Y02045D02*
D03*
X0507D02*
D03*
X03245Y0124D02*
D03*
X0688Y03215D02*
D03*
X038Y02345D02*
D03*
Y02125D02*
D03*
X0442Y02565D02*
D03*
X06735Y03865D02*
D03*
X06915D02*
D03*
X06315Y0212D02*
D03*
X0386Y0116D02*
D03*
X0539Y02405D02*
D03*
X054Y02305D02*
D03*
X03525Y03665D02*
D03*
X03535Y034D02*
D03*
X0405Y0242D02*
D03*
X05795Y017743D02*
D03*
X0692Y0177D02*
D03*
X06675Y0176D02*
D03*
X03525Y0191D02*
D03*
X0342Y0176D02*
D03*
D50*
X06845Y014D02*
D03*
X03245Y04205D02*
D03*
Y01595D02*
D03*
X06865Y0401D02*
D03*
D51*
X05835Y02815D02*
D03*
X0584Y03215D02*
D03*
D52*
X05835Y02715D02*
D03*
Y02615D02*
D03*
Y02515D02*
D03*
X0584Y02915D02*
D03*
Y03015D02*
D03*
Y03115D02*
D03*
D53*
X051915Y02875D02*
D03*
X05195Y0255D02*
D03*
X0489Y02235D02*
D03*
D54*
X050915Y02875D02*
D03*
X049915D02*
D03*
X048915D02*
D03*
X05095Y0255D02*
D03*
X04995D02*
D03*
X04895D02*
D03*
X0499Y02235D02*
D03*
X0509D02*
D03*
X0519D02*
D03*
D55*
X04075Y0176D02*
D03*
X03595Y0128D02*
D03*
X04175Y0152D02*
D03*
X03595Y0176D02*
D03*
X04075Y0128D02*
D03*
Y0384D02*
D03*
X03595Y0432D02*
D03*
X04175Y0408D02*
D03*
X03595Y0384D02*
D03*
X04075Y0432D02*
D03*
X0603Y01755D02*
D03*
X0651Y01275D02*
D03*
X0593Y01515D02*
D03*
X0651Y01755D02*
D03*
X0603Y01275D02*
D03*
X06045Y04315D02*
D03*
X06525Y03835D02*
D03*
X05945Y04075D02*
D03*
X06525Y04315D02*
D03*
X06045Y03835D02*
D03*
D56*
X048Y04495D02*
D03*
X05295Y045D02*
D03*
D57*
X049Y04495D02*
D03*
X05195Y045D02*
D03*
D58*
X04445Y0138D02*
D03*
Y03925D02*
D03*
X0556Y01375D02*
D03*
X05575Y0391D02*
D03*
D59*
X04545Y0138D02*
D03*
Y0168D02*
D03*
X04445D02*
D03*
X04545Y03925D02*
D03*
Y04225D02*
D03*
X04445D02*
D03*
X0566Y01375D02*
D03*
Y01675D02*
D03*
X0556D02*
D03*
X05675Y0391D02*
D03*
Y0421D02*
D03*
X05575D02*
D03*
D60*
X04865Y0146D02*
D03*
Y0156D02*
D03*
Y0166D02*
D03*
Y0398D02*
D03*
Y0408D02*
D03*
Y0418D02*
D03*
X05185Y0145D02*
D03*
Y0155D02*
D03*
Y0165D02*
D03*
X052Y0397D02*
D03*
Y0407D02*
D03*
Y0417D02*
D03*
M02*
