G04*
G04 #@! TF.GenerationSoftware,Altium Limited,Altium Designer,18.0.7 (293)*
G04*
G04 Layer_Physical_Order=2*
G04 Layer_Color=16711680*
%FSLAX25Y25*%
%MOIN*%
G70*
G01*
G75*
%ADD40C,0.02953*%
%ADD41C,0.04921*%
%ADD42C,0.06890*%
%ADD43O,0.10000X0.06500*%
%ADD44R,0.10000X0.06500*%
%ADD45R,0.08000X0.08000*%
%ADD46C,0.08000*%
%ADD47C,0.07000*%
%ADD48P,0.05196X8X292.5*%
%ADD49C,0.06299*%
%ADD50R,0.06299X0.06299*%
%ADD51R,0.09000X0.07500*%
%ADD52O,0.09000X0.07500*%
%ADD53R,0.07500X0.09000*%
%ADD54O,0.07500X0.09000*%
%ADD55C,0.12000*%
%ADD56R,0.06500X0.10000*%
%ADD57O,0.06500X0.10000*%
%ADD58R,0.06000X0.09000*%
%ADD59O,0.06000X0.09000*%
%ADD60O,0.10000X0.06600*%
G36*
X391500Y0D02*
X0D01*
Y375000D01*
X391500D01*
Y0D01*
D02*
G37*
%LPC*%
G36*
X177218Y356469D02*
X166781D01*
Y353967D01*
X159813D01*
X158758Y354777D01*
X157428Y355328D01*
X156000Y355516D01*
X154572Y355328D01*
X153242Y354777D01*
X152100Y353900D01*
X151223Y352758D01*
X150672Y351428D01*
X150484Y350000D01*
X150672Y348572D01*
X151223Y347242D01*
X152100Y346100D01*
X153242Y345223D01*
X154572Y344672D01*
X156000Y344484D01*
X157428Y344672D01*
X158298Y345033D01*
X166781D01*
Y342531D01*
X177218D01*
Y347678D01*
X177718Y347711D01*
X177859Y346640D01*
X178288Y345607D01*
X178969Y344719D01*
X179857Y344038D01*
X180891Y343609D01*
X181500Y343529D01*
Y349500D01*
Y355471D01*
X180891Y355391D01*
X179857Y354962D01*
X178969Y354281D01*
X178288Y353393D01*
X177859Y352360D01*
X177718Y351289D01*
X177218Y351322D01*
Y356469D01*
D02*
G37*
G36*
X211000Y355971D02*
X210390Y355891D01*
X209357Y355462D01*
X208469Y354781D01*
X207788Y353893D01*
X207359Y352859D01*
X207213Y351750D01*
Y350500D01*
X211000D01*
Y355971D01*
D02*
G37*
G36*
X182500Y355471D02*
Y350000D01*
X186287D01*
Y351250D01*
X186141Y352360D01*
X185712Y353393D01*
X185031Y354281D01*
X184143Y354962D01*
X183109Y355391D01*
X182500Y355471D01*
D02*
G37*
G36*
X211000Y349500D02*
X207213D01*
Y348250D01*
X207359Y347141D01*
X207788Y346107D01*
X208469Y345219D01*
X209357Y344538D01*
X210390Y344109D01*
X211000Y344029D01*
Y349500D01*
D02*
G37*
G36*
X186287Y349000D02*
X182500D01*
Y343529D01*
X183109Y343609D01*
X184143Y344038D01*
X185031Y344719D01*
X185712Y345607D01*
X186141Y346640D01*
X186287Y347750D01*
Y349000D01*
D02*
G37*
G36*
X51500Y340007D02*
X49938Y339853D01*
X48436Y339398D01*
X47052Y338658D01*
X45838Y337662D01*
X44842Y336449D01*
X44102Y335064D01*
X43647Y333562D01*
X43493Y332000D01*
X43647Y330438D01*
X44102Y328936D01*
X44842Y327552D01*
X45838Y326338D01*
X47052Y325342D01*
X48436Y324602D01*
X49938Y324147D01*
X51500Y323993D01*
X53062Y324147D01*
X54564Y324602D01*
X55949Y325342D01*
X57162Y326338D01*
X58158Y327552D01*
X58898Y328936D01*
X59353Y330438D01*
X59507Y332000D01*
X59353Y333562D01*
X58898Y335064D01*
X58158Y336449D01*
X57162Y337662D01*
X55949Y338658D01*
X54564Y339398D01*
X53062Y339853D01*
X51500Y340007D01*
D02*
G37*
G36*
X180200Y322337D02*
X179000D01*
Y318500D01*
X184471D01*
X184389Y319123D01*
X183956Y320169D01*
X183267Y321067D01*
X182369Y321756D01*
X181323Y322189D01*
X180200Y322337D01*
D02*
G37*
G36*
X178000D02*
X176800D01*
X175678Y322189D01*
X174631Y321756D01*
X173733Y321067D01*
X173044Y320169D01*
X172611Y319123D01*
X172529Y318500D01*
X178000D01*
Y322337D01*
D02*
G37*
G36*
X213700Y321337D02*
X212500D01*
Y317500D01*
X217971D01*
X217889Y318123D01*
X217456Y319169D01*
X216767Y320067D01*
X215869Y320756D01*
X214823Y321189D01*
X213700Y321337D01*
D02*
G37*
G36*
X211500D02*
X210300D01*
X209177Y321189D01*
X208131Y320756D01*
X207233Y320067D01*
X206544Y319169D01*
X206111Y318123D01*
X206029Y317500D01*
X211500D01*
Y321337D01*
D02*
G37*
G36*
X263500Y367960D02*
X127000D01*
X125587Y367774D01*
X124270Y367229D01*
X123139Y366361D01*
X117139Y360361D01*
X116271Y359230D01*
X115726Y357913D01*
X115540Y356500D01*
Y354467D01*
X95000D01*
X93844Y354315D01*
X92766Y353869D01*
X91841Y353159D01*
X81841Y343159D01*
X81131Y342234D01*
X80685Y341156D01*
X80533Y340000D01*
Y327500D01*
X80685Y326344D01*
X81131Y325266D01*
X81841Y324341D01*
X88341Y317841D01*
X89266Y317131D01*
X90344Y316685D01*
X91500Y316533D01*
X109787D01*
X109822Y316478D01*
X109530Y316004D01*
X109500Y316007D01*
X107938Y315853D01*
X106436Y315398D01*
X105052Y314658D01*
X103838Y313662D01*
X103673Y313460D01*
X47762D01*
X36861Y324361D01*
X35730Y325229D01*
X34413Y325774D01*
X33000Y325960D01*
X16500D01*
X15087Y325774D01*
X14710Y325618D01*
X11382D01*
Y322290D01*
X11226Y321913D01*
X11040Y320500D01*
X11226Y319087D01*
X11382Y318710D01*
Y315382D01*
X14710D01*
X15087Y315226D01*
X16500Y315040D01*
X30738D01*
X41639Y304139D01*
X42770Y303271D01*
X44087Y302726D01*
X45500Y302540D01*
X45500Y302540D01*
X103673D01*
X103838Y302338D01*
X105052Y301342D01*
X106436Y300602D01*
X107938Y300147D01*
X109500Y299993D01*
X111062Y300147D01*
X112564Y300602D01*
X113949Y301342D01*
X115162Y302338D01*
X116158Y303552D01*
X116898Y304936D01*
X117353Y306438D01*
X117507Y308000D01*
X117451Y308565D01*
X117903Y308779D01*
X121980Y304702D01*
X118639Y301361D01*
X117771Y300230D01*
X117226Y298913D01*
X117040Y297500D01*
Y295468D01*
X116532D01*
Y291253D01*
X114738Y289460D01*
X105327D01*
X105162Y289662D01*
X103948Y290658D01*
X102564Y291398D01*
X101062Y291853D01*
X99500Y292007D01*
X97938Y291853D01*
X96436Y291398D01*
X95051Y290658D01*
X93838Y289662D01*
X93673Y289460D01*
X76000D01*
X74587Y289274D01*
X73270Y288729D01*
X72139Y287861D01*
X71705Y287295D01*
X71139Y286861D01*
X68139Y283861D01*
X68139Y283861D01*
X56238Y271960D01*
X44500D01*
X43087Y271774D01*
X41770Y271229D01*
X40639Y270361D01*
X39771Y269230D01*
X39226Y267913D01*
X39040Y266500D01*
X39226Y265087D01*
X39771Y263770D01*
X40639Y262639D01*
X41770Y261771D01*
X43087Y261226D01*
X44500Y261040D01*
X58500D01*
X59913Y261226D01*
X61230Y261771D01*
X62361Y262639D01*
X66078Y266356D01*
X66540Y266165D01*
Y134500D01*
X66726Y133087D01*
X67271Y131770D01*
X68139Y130639D01*
X69270Y129771D01*
X70587Y129226D01*
X72000Y129040D01*
X73413Y129226D01*
X74730Y129771D01*
X75861Y130639D01*
X76729Y131770D01*
X77274Y133087D01*
X77460Y134500D01*
Y277738D01*
X78262Y278540D01*
X93673D01*
X93838Y278338D01*
X95051Y277342D01*
X96436Y276602D01*
X97938Y276147D01*
X99500Y275993D01*
X101062Y276147D01*
X102564Y276602D01*
X103948Y277342D01*
X105162Y278338D01*
X105327Y278540D01*
X117000D01*
X118413Y278726D01*
X119730Y279271D01*
X120861Y280139D01*
X124253Y283531D01*
X128469D01*
Y295468D01*
X128469Y295468D01*
X128469D01*
X128632Y295910D01*
X131070Y298348D01*
X131532Y298156D01*
Y286032D01*
X132033D01*
Y283500D01*
X132185Y282344D01*
X132631Y281266D01*
X133341Y280341D01*
X144341Y269341D01*
X145266Y268631D01*
X146344Y268185D01*
X147500Y268033D01*
X175150D01*
X184699Y258483D01*
Y240161D01*
X184390Y239758D01*
X183839Y238428D01*
X183651Y237000D01*
X183839Y235572D01*
X184390Y234242D01*
X185266Y233100D01*
X186409Y232223D01*
X187739Y231672D01*
X189167Y231484D01*
X190594Y231672D01*
X191925Y232223D01*
X193067Y233100D01*
X193943Y234242D01*
X194494Y235572D01*
X194682Y237000D01*
X194494Y238428D01*
X193943Y239758D01*
X193634Y240161D01*
Y260333D01*
X193482Y261490D01*
X193035Y262567D01*
X192326Y263492D01*
X180159Y275659D01*
X179234Y276369D01*
X178156Y276815D01*
X177000Y276967D01*
X149350D01*
X140967Y285350D01*
Y286032D01*
X141469D01*
Y298969D01*
X132343D01*
X132152Y299430D01*
X132861Y300139D01*
X140361Y307639D01*
X141229Y308770D01*
X141774Y310087D01*
X141960Y311500D01*
Y317934D01*
X142460Y318103D01*
X142956Y317456D01*
X143994Y316660D01*
X145203Y316159D01*
X146500Y315989D01*
X147797Y316159D01*
X149006Y316660D01*
X150044Y317456D01*
X150486Y318033D01*
X160500D01*
X160816Y318074D01*
X161500Y317984D01*
X162928Y318172D01*
X164258Y318723D01*
X165400Y319600D01*
X166277Y320742D01*
X166828Y322072D01*
X167016Y323500D01*
X166828Y324928D01*
X166277Y326258D01*
X165400Y327400D01*
X164258Y328277D01*
X162928Y328828D01*
X161500Y329016D01*
X160072Y328828D01*
X158742Y328277D01*
X157600Y327400D01*
X157268Y326967D01*
X150486D01*
X150044Y327544D01*
X149006Y328340D01*
X147797Y328841D01*
X146500Y329011D01*
X145203Y328841D01*
X143994Y328340D01*
X142956Y327544D01*
X142160Y326506D01*
X141771Y325566D01*
X141229D01*
X140840Y326506D01*
X140044Y327544D01*
X139006Y328340D01*
X137797Y328841D01*
X136500Y329011D01*
X135203Y328841D01*
X133994Y328340D01*
X132956Y327544D01*
X132160Y326506D01*
X131659Y325297D01*
X131594Y324802D01*
X131226Y323913D01*
X131040Y322500D01*
Y313762D01*
X128298Y311020D01*
X121102Y318216D01*
X121415Y318609D01*
X122500Y318503D01*
X123670Y318618D01*
X124795Y318959D01*
X125832Y319513D01*
X126741Y320259D01*
X127487Y321168D01*
X128041Y322205D01*
X128382Y323330D01*
X128497Y324500D01*
X128382Y325670D01*
X128041Y326795D01*
X127487Y327832D01*
X126741Y328741D01*
X125832Y329487D01*
X124795Y330041D01*
X124631Y330091D01*
X124151Y330571D01*
X124342Y331033D01*
X181150D01*
X188033Y324150D01*
Y312850D01*
X187650Y312467D01*
X183033D01*
X182857Y312602D01*
X181575Y313133D01*
X180790Y313236D01*
Y313741D01*
X181323Y313811D01*
X182369Y314244D01*
X183267Y314933D01*
X183956Y315831D01*
X184389Y316878D01*
X184471Y317500D01*
X178500D01*
Y318000D01*
D01*
Y317500D01*
X172529D01*
X172611Y316878D01*
X173044Y315831D01*
X173733Y314933D01*
X174631Y314244D01*
X175678Y313811D01*
X176210Y313741D01*
Y313236D01*
X175425Y313133D01*
X174143Y312602D01*
X173043Y311757D01*
X172198Y310657D01*
X171667Y309375D01*
X171486Y308000D01*
X171667Y306625D01*
X172198Y305343D01*
X173043Y304242D01*
X174143Y303398D01*
X174500Y303250D01*
Y302750D01*
X174143Y302602D01*
X173043Y301758D01*
X172198Y300657D01*
X171667Y299375D01*
X171486Y298000D01*
X171667Y296625D01*
X172198Y295343D01*
X173043Y294243D01*
X173524Y293873D01*
X173556Y293374D01*
X173150Y292967D01*
X164661D01*
X164258Y293277D01*
X162928Y293828D01*
X161500Y294016D01*
X160072Y293828D01*
X158742Y293277D01*
X157600Y292400D01*
X156723Y291258D01*
X156172Y289928D01*
X155984Y288500D01*
X156172Y287072D01*
X156723Y285742D01*
X157600Y284600D01*
X158742Y283723D01*
X160072Y283172D01*
X161500Y282984D01*
X162928Y283172D01*
X164258Y283723D01*
X164661Y284033D01*
X175000D01*
X176156Y284185D01*
X177234Y284631D01*
X178159Y285341D01*
X181659Y288841D01*
X182369Y289766D01*
X182815Y290844D01*
X182967Y292000D01*
Y293483D01*
X183958Y294243D01*
X184802Y295343D01*
X185333Y296625D01*
X185514Y298000D01*
X185333Y299375D01*
X184802Y300657D01*
X183958Y301758D01*
X182857Y302602D01*
X182500Y302750D01*
Y303250D01*
X182857Y303398D01*
X183033Y303533D01*
X189500D01*
X190656Y303685D01*
X191734Y304131D01*
X192659Y304841D01*
X195659Y307841D01*
X196369Y308766D01*
X196815Y309844D01*
X196967Y311000D01*
Y326000D01*
X196815Y327156D01*
X196369Y328234D01*
X195659Y329159D01*
X186159Y338659D01*
X185234Y339369D01*
X184156Y339815D01*
X183000Y339967D01*
X118500D01*
X117344Y339815D01*
X116266Y339369D01*
X115341Y338659D01*
X114142Y337460D01*
X105327D01*
X105162Y337662D01*
X103948Y338658D01*
X102564Y339398D01*
X101062Y339853D01*
X99500Y340007D01*
X97938Y339853D01*
X96436Y339398D01*
X95051Y338658D01*
X93838Y337662D01*
X92842Y336449D01*
X92102Y335064D01*
X91647Y333562D01*
X91493Y332000D01*
X91647Y330438D01*
X92102Y328936D01*
X92842Y327552D01*
X93838Y326338D01*
X94326Y325938D01*
X94157Y325467D01*
X93350D01*
X89467Y329350D01*
Y338150D01*
X96850Y345533D01*
X117839D01*
X118242Y345223D01*
X119572Y344672D01*
X121000Y344484D01*
X122428Y344672D01*
X123758Y345223D01*
X124900Y346100D01*
X125777Y347242D01*
X126328Y348572D01*
X126516Y350000D01*
X126460Y350422D01*
Y354238D01*
X129262Y357040D01*
X215811D01*
X216282Y356968D01*
X216282Y356540D01*
Y351822D01*
X215781Y351789D01*
X215641Y352859D01*
X215212Y353893D01*
X214531Y354781D01*
X213643Y355462D01*
X212610Y355891D01*
X212000Y355971D01*
Y350000D01*
Y344029D01*
X212610Y344109D01*
X213643Y344538D01*
X214531Y345219D01*
X215212Y346107D01*
X215641Y347141D01*
X215781Y348211D01*
X216282Y348178D01*
Y343032D01*
X226718D01*
Y345533D01*
X233702D01*
X234572Y345172D01*
X236000Y344984D01*
X237428Y345172D01*
X238758Y345723D01*
X239900Y346600D01*
X240777Y347742D01*
X241328Y349072D01*
X241516Y350500D01*
X241328Y351928D01*
X240777Y353258D01*
X239900Y354400D01*
X238758Y355277D01*
X237428Y355828D01*
X236000Y356016D01*
X234572Y355828D01*
X233242Y355277D01*
X232187Y354467D01*
X226718D01*
X226718Y356968D01*
X227189Y357040D01*
X261238D01*
X265540Y352738D01*
Y350922D01*
X265484Y350500D01*
X265672Y349072D01*
X266223Y347742D01*
X267100Y346600D01*
X268242Y345723D01*
X268533Y345603D01*
Y335967D01*
X255000D01*
X253844Y335815D01*
X252766Y335369D01*
X251841Y334659D01*
X246341Y329159D01*
X245631Y328234D01*
X245185Y327156D01*
X245033Y326000D01*
Y324698D01*
X244659Y323797D01*
X244489Y322500D01*
Y319500D01*
X244659Y318203D01*
X245160Y316994D01*
X245956Y315956D01*
X246994Y315160D01*
X248203Y314659D01*
X249500Y314489D01*
X250797Y314659D01*
X252006Y315160D01*
X252562Y315587D01*
X252892Y315210D01*
X251650Y313967D01*
X238350D01*
X237467Y314850D01*
Y319839D01*
X237777Y320242D01*
X238328Y321572D01*
X238516Y323000D01*
X238328Y324428D01*
X237777Y325758D01*
X236900Y326900D01*
X235758Y327777D01*
X234428Y328328D01*
X233000Y328516D01*
X231572Y328328D01*
X230242Y327777D01*
X229100Y326900D01*
X228223Y325758D01*
X227672Y324428D01*
X227484Y323000D01*
X227672Y321572D01*
X228223Y320242D01*
X228533Y319839D01*
Y313000D01*
X228685Y311844D01*
X229131Y310766D01*
X229841Y309841D01*
X232253Y307429D01*
X232062Y306967D01*
X230850D01*
X227659Y310159D01*
X226734Y310869D01*
X225656Y311315D01*
X224500Y311467D01*
X216532D01*
X216357Y311602D01*
X215075Y312133D01*
X214290Y312236D01*
Y312741D01*
X214823Y312811D01*
X215869Y313244D01*
X216767Y313933D01*
X217456Y314831D01*
X217889Y315878D01*
X217971Y316500D01*
X212000D01*
Y317000D01*
D01*
Y316500D01*
X206029D01*
X206111Y315878D01*
X206544Y314831D01*
X207233Y313933D01*
X208131Y313244D01*
X209177Y312811D01*
X209710Y312741D01*
Y312236D01*
X208925Y312133D01*
X207643Y311602D01*
X206542Y310757D01*
X205698Y309657D01*
X205167Y308375D01*
X204986Y307000D01*
X205167Y305625D01*
X205698Y304343D01*
X206542Y303242D01*
X207643Y302398D01*
X208000Y302250D01*
Y301750D01*
X207643Y301602D01*
X206542Y300758D01*
X205698Y299657D01*
X205167Y298375D01*
X204986Y297000D01*
X205167Y295625D01*
X205698Y294343D01*
X206542Y293243D01*
X207533Y292483D01*
Y291500D01*
X207685Y290344D01*
X208131Y289266D01*
X208841Y288341D01*
X212341Y284841D01*
X213266Y284131D01*
X214344Y283685D01*
X215500Y283533D01*
X229839D01*
X230242Y283223D01*
X231572Y282672D01*
X233000Y282484D01*
X234428Y282672D01*
X235758Y283223D01*
X236900Y284100D01*
X237777Y285242D01*
X238328Y286572D01*
X238516Y288000D01*
X238328Y289428D01*
X237777Y290758D01*
X236900Y291900D01*
X235758Y292777D01*
X234428Y293328D01*
X233000Y293516D01*
X231572Y293328D01*
X230242Y292777D01*
X229839Y292467D01*
X217680D01*
X217486Y292673D01*
X217458Y293243D01*
X218302Y294343D01*
X218833Y295625D01*
X219014Y297000D01*
X218833Y298375D01*
X218302Y299657D01*
X217458Y300758D01*
X216357Y301602D01*
X216000Y301750D01*
Y302250D01*
X216357Y302398D01*
X216532Y302533D01*
X222650D01*
X225841Y299341D01*
X226766Y298631D01*
X227844Y298185D01*
X229000Y298033D01*
X260150D01*
X261781Y296402D01*
X261517Y295994D01*
X260544Y296397D01*
X260000Y296469D01*
Y291500D01*
X263534D01*
Y292500D01*
X263397Y293544D01*
X262994Y294517D01*
X263402Y294780D01*
X267442Y290740D01*
X267118Y289670D01*
X267003Y288500D01*
X267118Y287330D01*
X267459Y286205D01*
X268013Y285168D01*
X268759Y284259D01*
X269668Y283513D01*
X270705Y282959D01*
X271830Y282618D01*
X273000Y282503D01*
X274170Y282618D01*
X275295Y282959D01*
X276332Y283513D01*
X276965Y284033D01*
X288173D01*
X288509Y283662D01*
X288493Y283500D01*
X288647Y281938D01*
X289102Y280436D01*
X289842Y279051D01*
X290838Y277838D01*
X292052Y276842D01*
X293436Y276102D01*
X294938Y275647D01*
X296500Y275493D01*
X298062Y275647D01*
X299564Y276102D01*
X300949Y276842D01*
X302162Y277838D01*
X303158Y279051D01*
X303898Y280436D01*
X304353Y281938D01*
X304507Y283500D01*
X304353Y285062D01*
X303898Y286564D01*
X303158Y287948D01*
X302162Y289162D01*
X300949Y290158D01*
X299564Y290898D01*
X298062Y291353D01*
X296500Y291507D01*
X294962Y291356D01*
X294659Y291659D01*
X293734Y292369D01*
X292656Y292815D01*
X291500Y292967D01*
X277186D01*
X276869Y293734D01*
X276159Y294659D01*
X265159Y305659D01*
X264234Y306369D01*
X263156Y306815D01*
X262000Y306967D01*
X257938D01*
X257747Y307429D01*
X262659Y312341D01*
X263369Y313266D01*
X263815Y314344D01*
X263967Y315500D01*
Y317302D01*
X264341Y318203D01*
X264511Y319500D01*
Y322500D01*
X264341Y323797D01*
X263840Y325006D01*
X263044Y326044D01*
X262406Y326533D01*
X262576Y327033D01*
X267032D01*
Y317531D01*
X278969D01*
Y327033D01*
X289858D01*
X290838Y325838D01*
X292052Y324842D01*
X293436Y324102D01*
X294938Y323647D01*
X296500Y323493D01*
X298062Y323647D01*
X299564Y324102D01*
X300949Y324842D01*
X302162Y325838D01*
X303158Y327051D01*
X303898Y328436D01*
X304353Y329938D01*
X304507Y331500D01*
X304353Y333062D01*
X303898Y334564D01*
X303158Y335948D01*
X302162Y337162D01*
X300949Y338158D01*
X299564Y338898D01*
X298062Y339353D01*
X296500Y339507D01*
X294938Y339353D01*
X293436Y338898D01*
X292052Y338158D01*
X290838Y337162D01*
X289858Y335967D01*
X277467D01*
Y348500D01*
X277315Y349656D01*
X276869Y350734D01*
X276460Y351266D01*
Y355000D01*
X276274Y356413D01*
X275729Y357730D01*
X274861Y358861D01*
X267361Y366361D01*
X266230Y367229D01*
X264913Y367774D01*
X263500Y367960D01*
D02*
G37*
G36*
X344500Y339507D02*
X342938Y339353D01*
X341436Y338898D01*
X340052Y338158D01*
X338838Y337162D01*
X337842Y335948D01*
X337102Y334564D01*
X336647Y333062D01*
X336493Y331500D01*
X336647Y329938D01*
X337102Y328436D01*
X337842Y327051D01*
X338838Y325838D01*
X340052Y324842D01*
X341436Y324102D01*
X342938Y323647D01*
X344500Y323493D01*
X346062Y323647D01*
X347564Y324102D01*
X348949Y324842D01*
X350162Y325838D01*
X351142Y327033D01*
X365650D01*
X373864Y318818D01*
X374029Y318419D01*
X374850Y317350D01*
X375919Y316529D01*
X376318Y316364D01*
X381111Y311571D01*
Y306118D01*
X379200D01*
X374659Y310659D01*
X373734Y311369D01*
X372656Y311815D01*
X371500Y311967D01*
X293142D01*
X292162Y313162D01*
X290949Y314158D01*
X289564Y314898D01*
X288062Y315353D01*
X286500Y315507D01*
X284938Y315353D01*
X283436Y314898D01*
X282051Y314158D01*
X280838Y313162D01*
X279842Y311948D01*
X279102Y310564D01*
X278647Y309062D01*
X278493Y307500D01*
X278647Y305938D01*
X279102Y304436D01*
X279842Y303051D01*
X280838Y301838D01*
X282051Y300842D01*
X283436Y300102D01*
X284938Y299647D01*
X286500Y299493D01*
X288062Y299647D01*
X289564Y300102D01*
X290949Y300842D01*
X292162Y301838D01*
X293142Y303033D01*
X361033D01*
Y289085D01*
X361029Y289081D01*
X360514Y287836D01*
X360338Y286500D01*
X360514Y285164D01*
X361029Y283919D01*
X361850Y282850D01*
X362919Y282029D01*
X364164Y281514D01*
X365500Y281338D01*
X366836Y281514D01*
X368081Y282029D01*
X369150Y282850D01*
X369971Y283919D01*
X370486Y285164D01*
X370662Y286500D01*
X370486Y287836D01*
X369971Y289081D01*
X369967Y289085D01*
Y302062D01*
X370429Y302253D01*
X373382Y299300D01*
Y295882D01*
X379062D01*
X379339Y295466D01*
X379185Y295093D01*
X379033Y293937D01*
Y289085D01*
X379029Y289081D01*
X378514Y287836D01*
X378338Y286500D01*
X378514Y285164D01*
X379029Y283919D01*
X379850Y282850D01*
X380919Y282029D01*
X382164Y281514D01*
X383500Y281338D01*
X384836Y281514D01*
X386081Y282029D01*
X387150Y282850D01*
X387971Y283919D01*
X388486Y285164D01*
X388662Y286500D01*
X388486Y287836D01*
X387971Y289081D01*
X387967Y289085D01*
Y292087D01*
X388738Y292857D01*
X389448Y293782D01*
X389894Y294860D01*
X390046Y296016D01*
Y313421D01*
X389894Y314578D01*
X389448Y315655D01*
X388738Y316580D01*
X383563Y321755D01*
X383486Y322336D01*
X382971Y323581D01*
X382150Y324650D01*
X381081Y325471D01*
X379836Y325986D01*
X379255Y326063D01*
X370659Y334659D01*
X369734Y335369D01*
X368656Y335815D01*
X367500Y335967D01*
X351142D01*
X350162Y337162D01*
X348949Y338158D01*
X347564Y338898D01*
X346062Y339353D01*
X344500Y339507D01*
D02*
G37*
G36*
X147000Y297969D02*
Y293000D01*
X150534D01*
Y294000D01*
X150397Y295044D01*
X149994Y296017D01*
X149353Y296853D01*
X148517Y297494D01*
X147544Y297897D01*
X147000Y297969D01*
D02*
G37*
G36*
X146000D02*
X145456Y297897D01*
X144483Y297494D01*
X143647Y296853D01*
X143006Y296017D01*
X142603Y295044D01*
X142465Y294000D01*
Y293000D01*
X146000D01*
Y297969D01*
D02*
G37*
G36*
X259000Y296469D02*
X258456Y296397D01*
X257483Y295994D01*
X256647Y295353D01*
X256006Y294517D01*
X255603Y293544D01*
X255466Y292500D01*
Y291500D01*
X259000D01*
Y296469D01*
D02*
G37*
G36*
X150534Y292000D02*
X147000D01*
Y287031D01*
X147544Y287103D01*
X148517Y287506D01*
X149353Y288147D01*
X149994Y288983D01*
X150397Y289956D01*
X150534Y291000D01*
Y292000D01*
D02*
G37*
G36*
X146000D02*
X142465D01*
Y291000D01*
X142603Y289956D01*
X143006Y288983D01*
X143647Y288147D01*
X144483Y287506D01*
X145456Y287103D01*
X146000Y287031D01*
Y292000D01*
D02*
G37*
G36*
X263534Y290500D02*
X260000D01*
Y285531D01*
X260544Y285603D01*
X261517Y286006D01*
X262353Y286647D01*
X262994Y287483D01*
X263397Y288456D01*
X263534Y289500D01*
Y290500D01*
D02*
G37*
G36*
X259000D02*
X255466D01*
Y289500D01*
X255603Y288456D01*
X256006Y287483D01*
X256647Y286647D01*
X257483Y286006D01*
X258456Y285603D01*
X259000Y285531D01*
Y290500D01*
D02*
G37*
G36*
X16500Y305960D02*
X15087Y305774D01*
X13770Y305229D01*
X12639Y304361D01*
X11771Y303230D01*
X11226Y301913D01*
X11040Y300500D01*
X11226Y299087D01*
X11771Y297770D01*
X12639Y296639D01*
X27540Y281738D01*
Y277500D01*
X27726Y276087D01*
X28271Y274770D01*
X29139Y273639D01*
X30270Y272771D01*
X31587Y272226D01*
X33000Y272040D01*
X34413Y272226D01*
X35730Y272771D01*
X36861Y273639D01*
X37729Y274770D01*
X38274Y276087D01*
X38460Y277500D01*
Y278540D01*
X45673D01*
X45838Y278338D01*
X47052Y277342D01*
X48436Y276602D01*
X49938Y276147D01*
X51500Y275993D01*
X53062Y276147D01*
X54564Y276602D01*
X55949Y277342D01*
X57162Y278338D01*
X58158Y279552D01*
X58898Y280936D01*
X59353Y282438D01*
X59507Y284000D01*
X59353Y285562D01*
X58898Y287064D01*
X58158Y288449D01*
X57162Y289662D01*
X55949Y290658D01*
X54564Y291398D01*
X53062Y291853D01*
X51500Y292007D01*
X49938Y291853D01*
X48436Y291398D01*
X47052Y290658D01*
X45838Y289662D01*
X45673Y289460D01*
X35262D01*
X20361Y304361D01*
X19230Y305229D01*
X17913Y305774D01*
X16500Y305960D01*
D02*
G37*
G36*
X344500Y291507D02*
X342938Y291353D01*
X341436Y290898D01*
X340052Y290158D01*
X338838Y289162D01*
X337842Y287948D01*
X337102Y286564D01*
X336647Y285062D01*
X336493Y283500D01*
X336647Y281938D01*
X337102Y280436D01*
X337842Y279051D01*
X338838Y277838D01*
X340052Y276842D01*
X341436Y276102D01*
X342938Y275647D01*
X344500Y275493D01*
X346062Y275647D01*
X347564Y276102D01*
X348949Y276842D01*
X350162Y277838D01*
X351158Y279051D01*
X351898Y280436D01*
X352353Y281938D01*
X352507Y283500D01*
X352353Y285062D01*
X351898Y286564D01*
X351158Y287948D01*
X350162Y289162D01*
X348949Y290158D01*
X347564Y290898D01*
X346062Y291353D01*
X344500Y291507D01*
D02*
G37*
G36*
X365684Y251869D02*
X361316D01*
X359132Y249684D01*
Y245316D01*
X361316Y243131D01*
X361324D01*
X361531Y242632D01*
X360100Y241200D01*
Y240000D01*
X363500D01*
X366900D01*
Y241200D01*
X365469Y242632D01*
X365676Y243131D01*
X365684D01*
X367868Y245316D01*
Y249684D01*
X365684Y251869D01*
D02*
G37*
G36*
X14184Y249369D02*
X9816D01*
X7632Y247184D01*
Y242816D01*
X9816Y240632D01*
X9824D01*
X10031Y240131D01*
X8600Y238700D01*
Y237500D01*
X12000D01*
X15400D01*
Y238700D01*
X13969Y240131D01*
X14176Y240632D01*
X14184D01*
X16368Y242816D01*
Y247184D01*
X14184Y249369D01*
D02*
G37*
G36*
X366900Y239000D02*
X364000D01*
Y236100D01*
X365200D01*
X366900Y237800D01*
Y239000D01*
D02*
G37*
G36*
X363000D02*
X360100D01*
Y237800D01*
X361800Y236100D01*
X363000D01*
Y239000D01*
D02*
G37*
G36*
X15400Y236500D02*
X12500D01*
Y233600D01*
X13700D01*
X15400Y235300D01*
Y236500D01*
D02*
G37*
G36*
X11500D02*
X8600D01*
Y235300D01*
X10300Y233600D01*
X11500D01*
Y236500D01*
D02*
G37*
G36*
X254468Y297468D02*
X244531D01*
Y284531D01*
X245033D01*
Y279850D01*
X243650Y278467D01*
X222500D01*
X221344Y278315D01*
X220266Y277869D01*
X219341Y277159D01*
X202674Y260492D01*
X201964Y259567D01*
X201518Y258490D01*
X201366Y257333D01*
Y240161D01*
X201057Y239758D01*
X200506Y238428D01*
X200318Y237000D01*
X200506Y235572D01*
X201057Y234242D01*
X201933Y233100D01*
X203076Y232223D01*
X204406Y231672D01*
X205833Y231484D01*
X207261Y231672D01*
X208591Y232223D01*
X209734Y233100D01*
X210610Y234242D01*
X211161Y235572D01*
X211349Y237000D01*
X211161Y238428D01*
X210610Y239758D01*
X210301Y240161D01*
Y255483D01*
X224350Y269533D01*
X245500D01*
X246656Y269685D01*
X247734Y270131D01*
X248659Y270841D01*
X252659Y274841D01*
X253369Y275766D01*
X253815Y276844D01*
X253967Y278000D01*
Y284531D01*
X254468D01*
Y297468D01*
D02*
G37*
G36*
X172500Y242516D02*
X171072Y242328D01*
X169742Y241777D01*
X169339Y241467D01*
X145000D01*
X143844Y241315D01*
X142766Y240869D01*
X141841Y240159D01*
X130841Y229159D01*
X130131Y228234D01*
X129685Y227156D01*
X129533Y226000D01*
Y159085D01*
X129529Y159081D01*
X129014Y157836D01*
X128838Y156500D01*
X129014Y155164D01*
X129529Y153919D01*
X130350Y152850D01*
X131419Y152029D01*
X132664Y151514D01*
X134000Y151338D01*
X135336Y151514D01*
X136581Y152029D01*
X137650Y152850D01*
X138471Y153919D01*
X138986Y155164D01*
X139162Y156500D01*
X138986Y157836D01*
X138471Y159081D01*
X138467Y159085D01*
Y224150D01*
X146850Y232533D01*
X169339D01*
X169742Y232223D01*
X171072Y231672D01*
X172500Y231484D01*
X173928Y231672D01*
X175258Y232223D01*
X176400Y233100D01*
X177277Y234242D01*
X177828Y235572D01*
X178016Y237000D01*
X177828Y238428D01*
X177277Y239758D01*
X176400Y240900D01*
X175258Y241777D01*
X173928Y242328D01*
X172500Y242516D01*
D02*
G37*
G36*
X282469Y227219D02*
X269531D01*
Y215781D01*
X270697D01*
X270944Y215282D01*
X270255Y214384D01*
X269679Y212993D01*
X269482Y211500D01*
X269679Y210007D01*
X270255Y208616D01*
X271171Y207421D01*
X271533Y207144D01*
Y205856D01*
X271171Y205578D01*
X270255Y204384D01*
X269679Y202993D01*
X269482Y201500D01*
X269679Y200007D01*
X270255Y198616D01*
X271171Y197422D01*
X271533Y197144D01*
Y195856D01*
X271171Y195579D01*
X270255Y194384D01*
X269679Y192993D01*
X269482Y191500D01*
X269679Y190007D01*
X270255Y188616D01*
X271171Y187422D01*
X272047Y186750D01*
X271877Y186250D01*
X270000D01*
Y182000D01*
X275500D01*
X281000D01*
Y186250D01*
X280123D01*
X279953Y186750D01*
X280828Y187422D01*
X281745Y188616D01*
X282321Y190007D01*
X282518Y191500D01*
X282321Y192993D01*
X281745Y194384D01*
X280828Y195579D01*
X280467Y195856D01*
Y197144D01*
X280828Y197422D01*
X281745Y198616D01*
X282321Y200007D01*
X282518Y201500D01*
X282321Y202993D01*
X281745Y204384D01*
X280828Y205578D01*
X280467Y205856D01*
Y207144D01*
X280828Y207421D01*
X281745Y208616D01*
X282321Y210007D01*
X282518Y211500D01*
X282321Y212993D01*
X281745Y214384D01*
X281056Y215282D01*
X281303Y215781D01*
X282469D01*
Y217033D01*
X319033D01*
Y114585D01*
X319029Y114581D01*
X318514Y113336D01*
X318338Y112000D01*
X318514Y110664D01*
X319029Y109419D01*
X319850Y108350D01*
X320919Y107529D01*
X322164Y107014D01*
X323500Y106838D01*
X324836Y107014D01*
X326081Y107529D01*
X327150Y108350D01*
X327971Y109419D01*
X328486Y110664D01*
X328662Y112000D01*
X328486Y113336D01*
X327971Y114581D01*
X327967Y114585D01*
Y217033D01*
X377415D01*
X377419Y217029D01*
X378664Y216514D01*
X380000Y216338D01*
X381336Y216514D01*
X382581Y217029D01*
X383650Y217850D01*
X384471Y218919D01*
X384986Y220164D01*
X385162Y221500D01*
X384986Y222836D01*
X384471Y224081D01*
X383650Y225150D01*
X382581Y225971D01*
X381336Y226486D01*
X380000Y226662D01*
X378664Y226486D01*
X377419Y225971D01*
X377415Y225967D01*
X282469D01*
Y227219D01*
D02*
G37*
G36*
X222500Y207516D02*
X221072Y207328D01*
X219742Y206777D01*
X218600Y205900D01*
X217723Y204758D01*
X217172Y203428D01*
X216984Y202000D01*
X217172Y200572D01*
X217723Y199242D01*
X218033Y198839D01*
Y193850D01*
X217330Y193148D01*
X216868Y193340D01*
Y193968D01*
X205617D01*
Y195466D01*
X206757Y196606D01*
X207261Y196672D01*
X208591Y197223D01*
X209734Y198100D01*
X210610Y199242D01*
X211161Y200572D01*
X211349Y202000D01*
X211161Y203428D01*
X210610Y204758D01*
X209734Y205900D01*
X208591Y206777D01*
X207261Y207328D01*
X205833Y207516D01*
X204406Y207328D01*
X203076Y206777D01*
X201933Y205900D01*
X201057Y204758D01*
X200506Y203428D01*
X200439Y202924D01*
X197991Y200476D01*
X197281Y199550D01*
X196835Y198473D01*
X196683Y197317D01*
Y191822D01*
X196484Y191563D01*
X195990Y191549D01*
X195617Y191948D01*
Y200017D01*
X195465Y201173D01*
X195019Y202250D01*
X194573Y202832D01*
X194494Y203428D01*
X193943Y204758D01*
X193067Y205900D01*
X191925Y206777D01*
X190594Y207328D01*
X189167Y207516D01*
X187739Y207328D01*
X186409Y206777D01*
X185266Y205900D01*
X184390Y204758D01*
X183839Y203428D01*
X183651Y202000D01*
X183839Y200572D01*
X184390Y199242D01*
X185266Y198100D01*
X186409Y197223D01*
X186683Y197110D01*
Y191822D01*
X186465Y191538D01*
X185835D01*
X185229Y192329D01*
X184034Y193245D01*
X182643Y193821D01*
X181150Y194018D01*
X180973Y193995D01*
X176967Y198000D01*
Y198839D01*
X177277Y199242D01*
X177828Y200572D01*
X178016Y202000D01*
X177828Y203428D01*
X177277Y204758D01*
X176400Y205900D01*
X175258Y206777D01*
X173928Y207328D01*
X172500Y207516D01*
X171072Y207328D01*
X169742Y206777D01*
X168600Y205900D01*
X167723Y204758D01*
X167172Y203428D01*
X166984Y202000D01*
X167172Y200572D01*
X167723Y199242D01*
X168033Y198839D01*
Y196150D01*
X168185Y194994D01*
X168631Y193916D01*
X169341Y192991D01*
X175382Y186950D01*
Y186750D01*
X175579Y185257D01*
X176155Y183866D01*
X176683Y183178D01*
Y158866D01*
X176505Y158634D01*
X175929Y157243D01*
X175732Y155750D01*
Y154250D01*
X175929Y152757D01*
X176505Y151366D01*
X177421Y150171D01*
X178616Y149255D01*
X180007Y148679D01*
X181500Y148482D01*
X182993Y148679D01*
X184384Y149255D01*
X185579Y150171D01*
X186185Y150962D01*
X186815D01*
X187422Y150171D01*
X188616Y149255D01*
X190007Y148679D01*
X191500Y148482D01*
X192993Y148679D01*
X194384Y149255D01*
X195579Y150171D01*
X196185Y150962D01*
X196815D01*
X197422Y150171D01*
X198616Y149255D01*
X200007Y148679D01*
X201500Y148482D01*
X202993Y148679D01*
X204384Y149255D01*
X205281Y149944D01*
X205782Y149697D01*
Y148531D01*
X217218D01*
Y161469D01*
X215617D01*
Y181032D01*
X216868D01*
Y183533D01*
X218500D01*
X219656Y183685D01*
X220734Y184131D01*
X221659Y184841D01*
X225659Y188841D01*
X226369Y189766D01*
X226815Y190844D01*
X226967Y192000D01*
Y198839D01*
X227277Y199242D01*
X227828Y200572D01*
X228016Y202000D01*
X227828Y203428D01*
X227277Y204758D01*
X226400Y205900D01*
X225258Y206777D01*
X223928Y207328D01*
X222500Y207516D01*
D02*
G37*
G36*
X281000Y181000D02*
X275500D01*
X270000D01*
Y176750D01*
X274406D01*
X274439Y176250D01*
X273510Y176128D01*
X272355Y175649D01*
X271362Y174888D01*
X270601Y173896D01*
X270122Y172740D01*
X270025Y172000D01*
X275500D01*
X280975D01*
X280878Y172740D01*
X280399Y173896D01*
X279638Y174888D01*
X278645Y175649D01*
X277490Y176128D01*
X276561Y176250D01*
X276594Y176750D01*
X281000D01*
Y181000D01*
D02*
G37*
G36*
X280975Y171000D02*
X275500D01*
X270025D01*
X270122Y170260D01*
X270601Y169105D01*
X271362Y168112D01*
X272355Y167351D01*
X273510Y166872D01*
X274422Y166752D01*
Y166248D01*
X273510Y166128D01*
X272355Y165649D01*
X271362Y164888D01*
X270601Y163895D01*
X270122Y162740D01*
X270025Y162000D01*
X275500D01*
X280975D01*
X280878Y162740D01*
X280399Y163895D01*
X279638Y164888D01*
X278645Y165649D01*
X277490Y166128D01*
X276578Y166248D01*
Y166752D01*
X277490Y166872D01*
X278645Y167351D01*
X279638Y168112D01*
X280399Y169105D01*
X280878Y170260D01*
X280975Y171000D01*
D02*
G37*
G36*
Y161000D02*
X275500D01*
X270025D01*
X270122Y160260D01*
X270601Y159105D01*
X271362Y158112D01*
X272355Y157351D01*
X273510Y156872D01*
X274422Y156752D01*
Y156248D01*
X273510Y156128D01*
X272355Y155649D01*
X271362Y154888D01*
X270601Y153895D01*
X270122Y152740D01*
X270025Y152000D01*
X275500D01*
X280975D01*
X280878Y152740D01*
X280399Y153895D01*
X279638Y154888D01*
X278645Y155649D01*
X277490Y156128D01*
X276578Y156248D01*
Y156752D01*
X277490Y156872D01*
X278645Y157351D01*
X279638Y158112D01*
X280399Y159105D01*
X280878Y160260D01*
X280975Y161000D01*
D02*
G37*
G36*
Y151000D02*
X276000D01*
Y146709D01*
X276250D01*
X277490Y146872D01*
X278645Y147351D01*
X279638Y148112D01*
X280399Y149104D01*
X280878Y150260D01*
X280975Y151000D01*
D02*
G37*
G36*
X275000D02*
X270025D01*
X270122Y150260D01*
X270601Y149104D01*
X271362Y148112D01*
X272355Y147351D01*
X273510Y146872D01*
X274750Y146709D01*
X275000D01*
Y151000D01*
D02*
G37*
G36*
X383200Y138400D02*
X382000D01*
Y135500D01*
X384900D01*
Y136700D01*
X383200Y138400D01*
D02*
G37*
G36*
X381000D02*
X379800D01*
X378100Y136700D01*
Y135500D01*
X381000D01*
Y138400D01*
D02*
G37*
G36*
X384900Y134500D02*
X381500D01*
X378100D01*
Y133300D01*
X379532Y131869D01*
X379324Y131369D01*
X379316D01*
X377132Y129184D01*
Y124816D01*
X379316Y122632D01*
X383684D01*
X385869Y124816D01*
Y129184D01*
X383684Y131369D01*
X383676D01*
X383469Y131869D01*
X384900Y133300D01*
Y134500D01*
D02*
G37*
G36*
X24200Y122400D02*
X23000D01*
Y119500D01*
X25900D01*
Y120700D01*
X24200Y122400D01*
D02*
G37*
G36*
X22000D02*
X20800D01*
X19100Y120700D01*
Y119500D01*
X22000D01*
Y122400D01*
D02*
G37*
G36*
X25900Y118500D02*
X22500D01*
X19100D01*
Y117300D01*
X20531Y115868D01*
X20324Y115368D01*
X20316D01*
X18132Y113184D01*
Y108816D01*
X20316Y106632D01*
X24684D01*
X26869Y108816D01*
Y113184D01*
X24684Y115368D01*
X24676D01*
X24468Y115868D01*
X25900Y117300D01*
Y118500D01*
D02*
G37*
G36*
X45500Y245162D02*
X44164Y244986D01*
X42919Y244471D01*
X41850Y243650D01*
X41029Y242581D01*
X40514Y241336D01*
X40338Y240000D01*
X40514Y238664D01*
X41029Y237419D01*
X41033Y237415D01*
Y131500D01*
X41185Y130344D01*
X41631Y129266D01*
X42341Y128341D01*
X50341Y120341D01*
X51266Y119631D01*
X52344Y119185D01*
X53500Y119033D01*
X175282D01*
Y117032D01*
X186718D01*
Y118197D01*
X187218Y118444D01*
X188116Y117755D01*
X189507Y117179D01*
X191000Y116982D01*
X192493Y117179D01*
X193884Y117755D01*
X195079Y118672D01*
X195685Y119462D01*
X196315D01*
X196922Y118672D01*
X198116Y117755D01*
X199507Y117179D01*
X201000Y116982D01*
X202493Y117179D01*
X203884Y117755D01*
X205079Y118672D01*
X205685Y119462D01*
X206315D01*
X206922Y118672D01*
X208116Y117755D01*
X209507Y117179D01*
X211000Y116982D01*
X212493Y117179D01*
X213884Y117755D01*
X215078Y118672D01*
X215995Y119866D01*
X216571Y121257D01*
X216768Y122750D01*
Y122950D01*
X219850Y126033D01*
X229415D01*
X229419Y126029D01*
X230664Y125514D01*
X232000Y125338D01*
X233336Y125514D01*
X234581Y126029D01*
X235533Y126760D01*
X236033Y126588D01*
Y122350D01*
X196841Y83159D01*
X196131Y82234D01*
X195685Y81156D01*
X195533Y80000D01*
Y76438D01*
X195033Y76338D01*
X194869Y76734D01*
X194159Y77659D01*
X189159Y82659D01*
X188234Y83369D01*
X187156Y83815D01*
X186000Y83967D01*
X120000D01*
X118844Y83815D01*
X117766Y83369D01*
X116841Y82659D01*
X114650Y80467D01*
X106142D01*
X105162Y81662D01*
X103948Y82658D01*
X102564Y83398D01*
X101062Y83853D01*
X99500Y84007D01*
X97938Y83853D01*
X96436Y83398D01*
X95051Y82658D01*
X93838Y81662D01*
X92842Y80449D01*
X92102Y79064D01*
X91647Y77562D01*
X91493Y76000D01*
X91647Y74438D01*
X92102Y72936D01*
X92842Y71552D01*
X93838Y70338D01*
X95051Y69342D01*
X96436Y68602D01*
X97938Y68147D01*
X99500Y67993D01*
X101062Y68147D01*
X102564Y68602D01*
X103948Y69342D01*
X105162Y70338D01*
X106142Y71533D01*
X114650D01*
X116538Y69645D01*
X116618Y68830D01*
X116894Y67920D01*
X116563Y67459D01*
X116500Y67467D01*
X91850D01*
X68818Y90500D01*
X75159Y96841D01*
X75869Y97766D01*
X76315Y98844D01*
X76467Y100000D01*
Y100033D01*
X196415D01*
X196419Y100029D01*
X197664Y99514D01*
X199000Y99338D01*
X200336Y99514D01*
X201581Y100029D01*
X202650Y100850D01*
X203471Y101919D01*
X203986Y103164D01*
X204162Y104500D01*
X203986Y105836D01*
X203471Y107081D01*
X202650Y108150D01*
X201581Y108971D01*
X200336Y109486D01*
X199000Y109662D01*
X197664Y109486D01*
X196419Y108971D01*
X196415Y108967D01*
X76467D01*
Y109915D01*
X76471Y109919D01*
X76986Y111164D01*
X77162Y112500D01*
X76986Y113836D01*
X76471Y115081D01*
X75650Y116150D01*
X74581Y116971D01*
X73336Y117486D01*
X72000Y117662D01*
X70664Y117486D01*
X69419Y116971D01*
X68350Y116150D01*
X67529Y115081D01*
X67014Y113836D01*
X66838Y112500D01*
X67014Y111164D01*
X67529Y109919D01*
X67533Y109915D01*
Y104500D01*
Y101850D01*
X60650Y94967D01*
X47737D01*
X47081Y95471D01*
X45836Y95986D01*
X44500Y96162D01*
X43164Y95986D01*
X41919Y95471D01*
X40850Y94650D01*
X40029Y93581D01*
X39514Y92336D01*
X39338Y91000D01*
X39514Y89664D01*
X40029Y88419D01*
X40850Y87350D01*
X41919Y86529D01*
X43164Y86014D01*
X44500Y85838D01*
X45836Y86014D01*
X45882Y86033D01*
X60650D01*
X86841Y59841D01*
X87766Y59131D01*
X88844Y58685D01*
X90000Y58533D01*
X104157D01*
X104326Y58062D01*
X103838Y57662D01*
X103673Y57460D01*
X45762D01*
X41460Y61762D01*
Y74000D01*
X41460Y74000D01*
X41274Y75413D01*
X40729Y76730D01*
X39861Y77861D01*
X39861Y77861D01*
X37861Y79861D01*
X36730Y80729D01*
X35413Y81274D01*
X34000Y81460D01*
X32587Y81274D01*
X31270Y80729D01*
X30139Y79861D01*
X29271Y78730D01*
X28726Y77413D01*
X28540Y76000D01*
X28726Y74587D01*
X29271Y73270D01*
X30139Y72139D01*
X30540Y71738D01*
Y64960D01*
X16500D01*
X15087Y64774D01*
X14710Y64618D01*
X11382D01*
Y61290D01*
X11226Y60913D01*
X11040Y59500D01*
X11226Y58087D01*
X11382Y57710D01*
Y54382D01*
X14710D01*
X15087Y54226D01*
X16500Y54040D01*
X33738D01*
X39639Y48139D01*
X40770Y47271D01*
X42087Y46726D01*
X43500Y46540D01*
X103673D01*
X103838Y46338D01*
X105052Y45342D01*
X106436Y44602D01*
X107938Y44147D01*
X109500Y43993D01*
X111062Y44147D01*
X112564Y44602D01*
X113949Y45342D01*
X115162Y46338D01*
X116158Y47552D01*
X116898Y48936D01*
X117353Y50438D01*
X117507Y52000D01*
X117353Y53562D01*
X116898Y55064D01*
X116308Y56167D01*
X116714Y56468D01*
X118033Y55150D01*
Y53500D01*
Y40968D01*
X116532D01*
Y35349D01*
X113650Y32467D01*
X106142D01*
X105162Y33662D01*
X103948Y34658D01*
X102564Y35398D01*
X101062Y35853D01*
X99500Y36007D01*
X97938Y35853D01*
X96436Y35398D01*
X95051Y34658D01*
X93838Y33662D01*
X92842Y32449D01*
X92102Y31064D01*
X91647Y29562D01*
X91493Y28000D01*
X91647Y26438D01*
X92102Y24936D01*
X92842Y23551D01*
X93838Y22338D01*
X95051Y21342D01*
X95753Y20967D01*
X95628Y20467D01*
X80585D01*
X80581Y20471D01*
X79336Y20986D01*
X78000Y21162D01*
X76664Y20986D01*
X75419Y20471D01*
X74350Y19650D01*
X73529Y18581D01*
X73014Y17336D01*
X72838Y16000D01*
X73014Y14664D01*
X73529Y13419D01*
X74350Y12350D01*
X75419Y11529D01*
X76664Y11014D01*
X76789Y10997D01*
X77266Y10631D01*
X78344Y10185D01*
X79500Y10033D01*
X80656Y10185D01*
X81734Y10631D01*
X82659Y11341D01*
X82806Y11533D01*
X103150D01*
X104770Y9912D01*
X105695Y9202D01*
X106773Y8756D01*
X107929Y8603D01*
X127784D01*
X128941Y8756D01*
X130018Y9202D01*
X130943Y9912D01*
X139659Y18628D01*
X140369Y19553D01*
X140815Y20630D01*
X140967Y21787D01*
Y31532D01*
X141469D01*
Y44469D01*
X131532D01*
Y31532D01*
X132033D01*
Y23637D01*
X130343Y21948D01*
X129870Y22108D01*
X129828Y22428D01*
X129277Y23758D01*
X128400Y24900D01*
X127258Y25777D01*
X126967Y25897D01*
Y29032D01*
X128469D01*
Y40968D01*
X126967D01*
Y51650D01*
X136853Y61535D01*
X137797Y61659D01*
X139006Y62160D01*
X140044Y62956D01*
X140840Y63994D01*
X141229Y64934D01*
X141771D01*
X142160Y63994D01*
X142956Y62956D01*
X143994Y62160D01*
X145203Y61659D01*
X146500Y61489D01*
X147797Y61659D01*
X149006Y62160D01*
X150044Y62956D01*
X150840Y63994D01*
X151270Y65033D01*
X158339D01*
X158742Y64723D01*
X160072Y64172D01*
X161500Y63984D01*
X162928Y64172D01*
X164258Y64723D01*
X165400Y65600D01*
X166277Y66742D01*
X166828Y68072D01*
X167016Y69500D01*
X166828Y70928D01*
X166277Y72258D01*
X165400Y73400D01*
X164258Y74277D01*
X163640Y74533D01*
X163740Y75033D01*
X184150D01*
X186533Y72650D01*
Y61850D01*
X185150Y60467D01*
X183033D01*
X182857Y60602D01*
X181575Y61133D01*
X180790Y61236D01*
Y61741D01*
X181323Y61811D01*
X182369Y62244D01*
X183267Y62933D01*
X183956Y63831D01*
X184389Y64877D01*
X184471Y65500D01*
X178500D01*
Y66000D01*
D01*
Y65500D01*
X172529D01*
X172611Y64877D01*
X173044Y63831D01*
X173733Y62933D01*
X174631Y62244D01*
X175678Y61811D01*
X176210Y61741D01*
Y61236D01*
X175425Y61133D01*
X174143Y60602D01*
X173043Y59758D01*
X172198Y58657D01*
X171667Y57375D01*
X171486Y56000D01*
X171667Y54625D01*
X172198Y53343D01*
X173043Y52242D01*
X174143Y51398D01*
X174500Y51250D01*
Y50750D01*
X174143Y50602D01*
X173043Y49758D01*
X172198Y48657D01*
X171667Y47375D01*
X171486Y46000D01*
X171667Y44625D01*
X172198Y43343D01*
X173043Y42243D01*
X174033Y41483D01*
Y40850D01*
X172150Y38967D01*
X164661D01*
X164258Y39277D01*
X162928Y39828D01*
X161500Y40016D01*
X160072Y39828D01*
X158742Y39277D01*
X157600Y38400D01*
X156723Y37258D01*
X156172Y35928D01*
X155984Y34500D01*
X156172Y33072D01*
X156723Y31742D01*
X157600Y30600D01*
X158742Y29723D01*
X160072Y29172D01*
X161500Y28984D01*
X162928Y29172D01*
X164258Y29723D01*
X164661Y30033D01*
X174000D01*
X175156Y30185D01*
X175387Y30281D01*
X175741Y29927D01*
X175609Y29610D01*
X175529Y29000D01*
X181000D01*
Y32787D01*
X179750D01*
X179245Y32720D01*
X179012Y33194D01*
X181659Y35841D01*
X182369Y36766D01*
X182815Y37844D01*
X182967Y39000D01*
Y41483D01*
X183958Y42243D01*
X184802Y43343D01*
X185333Y44625D01*
X185514Y46000D01*
X185333Y47375D01*
X184802Y48657D01*
X183958Y49758D01*
X182857Y50602D01*
X182500Y50750D01*
Y51250D01*
X182857Y51398D01*
X183033Y51533D01*
X187000D01*
X188156Y51685D01*
X189234Y52131D01*
X190159Y52841D01*
X194159Y56841D01*
X194869Y57766D01*
X195033Y58162D01*
X195533Y58062D01*
Y49500D01*
X195685Y48344D01*
X196131Y47266D01*
X196525Y46753D01*
Y40000D01*
X196644Y39101D01*
X196991Y38263D01*
X197543Y37543D01*
X202766Y32320D01*
X202758Y31775D01*
X202607Y31712D01*
X201719Y31031D01*
X201038Y30143D01*
X200609Y29109D01*
X200529Y28500D01*
X206500D01*
X212471D01*
X212391Y29109D01*
X211962Y30143D01*
X211520Y30720D01*
X211766Y31220D01*
X212366D01*
X220543Y23043D01*
X220642Y22967D01*
X220472Y22467D01*
X213469D01*
Y23219D01*
X208322D01*
X208289Y23719D01*
X209360Y23859D01*
X210393Y24288D01*
X211281Y24969D01*
X211962Y25857D01*
X212391Y26891D01*
X212471Y27500D01*
X206500D01*
X200529D01*
X200609Y26891D01*
X201038Y25857D01*
X201719Y24969D01*
X202607Y24288D01*
X203641Y23859D01*
X204711Y23719D01*
X204678Y23219D01*
X199531D01*
Y12781D01*
X213469D01*
Y13533D01*
X226202D01*
X227072Y13172D01*
X228500Y12984D01*
X229928Y13172D01*
X231258Y13723D01*
X232400Y14600D01*
X233277Y15742D01*
X233828Y17072D01*
X234016Y18500D01*
X233828Y19928D01*
X233277Y21258D01*
X233032Y21577D01*
X233253Y22025D01*
X235253D01*
X235766Y21631D01*
X236844Y21185D01*
X238000Y21033D01*
X244000D01*
X245156Y21185D01*
X246234Y21631D01*
X247159Y22341D01*
X251159Y26341D01*
X251869Y27266D01*
X252315Y28344D01*
X252467Y29500D01*
Y31032D01*
X252969D01*
Y43968D01*
X243032D01*
Y31032D01*
X243032Y31032D01*
X243032D01*
X242809Y30626D01*
X242150Y29967D01*
X238000D01*
X236844Y29815D01*
X235894Y29422D01*
X235578Y29832D01*
X236277Y30742D01*
X236828Y32072D01*
X237016Y33500D01*
X236828Y34928D01*
X236277Y36258D01*
X235400Y37400D01*
X234258Y38277D01*
X232928Y38828D01*
X231848Y38970D01*
X222659Y48159D01*
X221734Y48869D01*
X220656Y49315D01*
X219500Y49467D01*
X215033D01*
X214857Y49602D01*
X214500Y49750D01*
Y50250D01*
X214857Y50398D01*
X215033Y50533D01*
X221650D01*
X226341Y45841D01*
X227266Y45131D01*
X228344Y44685D01*
X229500Y44533D01*
X258150D01*
X259385Y43297D01*
X259102Y42873D01*
X259044Y42897D01*
X258500Y42969D01*
Y38000D01*
X262035D01*
Y39000D01*
X261897Y40044D01*
X261873Y40102D01*
X262297Y40385D01*
X265782Y36900D01*
X265459Y36295D01*
X265118Y35170D01*
X265003Y34000D01*
X265118Y32830D01*
X265459Y31705D01*
X266013Y30668D01*
X266759Y29759D01*
X267668Y29013D01*
X268705Y28459D01*
X269830Y28118D01*
X271000Y28003D01*
X272170Y28118D01*
X273295Y28459D01*
X274332Y29013D01*
X274965Y29533D01*
X286650D01*
X287144Y29038D01*
X286993Y27500D01*
X287147Y25938D01*
X287602Y24436D01*
X288120Y23467D01*
X287820Y22967D01*
X266661D01*
X266258Y23277D01*
X264928Y23828D01*
X263500Y24016D01*
X262072Y23828D01*
X260742Y23277D01*
X259600Y22400D01*
X258723Y21258D01*
X258172Y19928D01*
X257984Y18500D01*
X258172Y17072D01*
X258723Y15742D01*
X259600Y14600D01*
X260742Y13723D01*
X262072Y13172D01*
X263500Y12984D01*
X264928Y13172D01*
X266258Y13723D01*
X266661Y14033D01*
X287401D01*
X287521Y13912D01*
X288446Y13202D01*
X289524Y12756D01*
X290680Y12604D01*
X301571D01*
X302727Y12756D01*
X303804Y13202D01*
X304730Y13912D01*
X310159Y19341D01*
X310869Y20266D01*
X311315Y21344D01*
X311467Y22500D01*
Y33000D01*
X311315Y34156D01*
X310869Y35234D01*
X310159Y36159D01*
X302159Y44159D01*
X301234Y44869D01*
X300156Y45315D01*
X299000Y45467D01*
X291482D01*
X291222Y45967D01*
X291273Y46040D01*
X362738D01*
X371382Y37396D01*
Y34882D01*
X374710D01*
X375087Y34726D01*
X376500Y34540D01*
X377913Y34726D01*
X378290Y34882D01*
X381618D01*
Y35533D01*
X382000D01*
X383156Y35685D01*
X384234Y36131D01*
X385159Y36841D01*
X388159Y39841D01*
X388869Y40766D01*
X389315Y41844D01*
X389467Y43000D01*
Y76000D01*
X389315Y77156D01*
X389061Y77770D01*
X388986Y78336D01*
X388471Y79581D01*
X387650Y80650D01*
X386581Y81471D01*
X385336Y81986D01*
X384000Y82162D01*
X382664Y81986D01*
X381419Y81471D01*
X380350Y80650D01*
X379529Y79581D01*
X379014Y78336D01*
X378838Y77000D01*
X379014Y75664D01*
X379529Y74419D01*
X380350Y73350D01*
X380533Y73209D01*
Y70896D01*
X380033Y70689D01*
X371361Y79361D01*
X370230Y80229D01*
X368913Y80774D01*
X367500Y80960D01*
X360899D01*
X360836Y80986D01*
X359500Y81162D01*
X358164Y80986D01*
X358101Y80960D01*
X348827D01*
X348662Y81162D01*
X347448Y82158D01*
X346064Y82898D01*
X344562Y83353D01*
X343000Y83507D01*
X341438Y83353D01*
X339936Y82898D01*
X338551Y82158D01*
X337338Y81162D01*
X336342Y79949D01*
X335602Y78564D01*
X335147Y77062D01*
X334993Y75500D01*
X335147Y73938D01*
X335602Y72436D01*
X336342Y71052D01*
X337338Y69838D01*
X338551Y68842D01*
X339936Y68102D01*
X341438Y67647D01*
X343000Y67493D01*
X344562Y67647D01*
X346064Y68102D01*
X347448Y68842D01*
X348662Y69838D01*
X348827Y70040D01*
X365238D01*
X371040Y64238D01*
Y60000D01*
X371226Y58587D01*
X371771Y57270D01*
X372639Y56139D01*
X373770Y55271D01*
X375087Y54726D01*
X376500Y54540D01*
X377913Y54726D01*
X379230Y55271D01*
X380033Y55887D01*
X380533Y55641D01*
Y45118D01*
X379104D01*
X368861Y55361D01*
X367730Y56229D01*
X366413Y56774D01*
X365000Y56960D01*
X290827D01*
X290662Y57162D01*
X289448Y58158D01*
X288064Y58898D01*
X286562Y59353D01*
X285000Y59507D01*
X283438Y59353D01*
X281936Y58898D01*
X280552Y58158D01*
X279338Y57162D01*
X278342Y55949D01*
X277602Y54564D01*
X277147Y53062D01*
X277018Y51758D01*
X276498Y51571D01*
X275467Y52601D01*
Y63032D01*
X276969D01*
Y71962D01*
X287856D01*
X288342Y71052D01*
X289338Y69838D01*
X290551Y68842D01*
X291936Y68102D01*
X293438Y67647D01*
X295000Y67493D01*
X296562Y67647D01*
X298064Y68102D01*
X299448Y68842D01*
X300662Y69838D01*
X301658Y71052D01*
X302398Y72436D01*
X302853Y73938D01*
X303007Y75500D01*
X302853Y77062D01*
X302398Y78564D01*
X301658Y79949D01*
X300662Y81162D01*
X299448Y82158D01*
X298064Y82898D01*
X296562Y83353D01*
X295000Y83507D01*
X293438Y83353D01*
X291936Y82898D01*
X290551Y82158D01*
X289338Y81162D01*
X289120Y80897D01*
X275291D01*
X275150Y81079D01*
X274081Y81900D01*
X272836Y82415D01*
X271500Y82591D01*
X270164Y82415D01*
X268919Y81900D01*
X267850Y81079D01*
X267709Y80897D01*
X264467D01*
Y100000D01*
X264315Y101156D01*
X263869Y102234D01*
X263159Y103159D01*
X258659Y107659D01*
X257734Y108369D01*
X256656Y108815D01*
X255500Y108967D01*
X245585D01*
X245581Y108971D01*
X244336Y109486D01*
X243000Y109662D01*
X241664Y109486D01*
X240419Y108971D01*
X239350Y108150D01*
X238529Y107081D01*
X238014Y105836D01*
X237838Y104500D01*
X238014Y103164D01*
X238529Y101919D01*
X239350Y100850D01*
X240419Y100029D01*
X241664Y99514D01*
X243000Y99338D01*
X244336Y99514D01*
X245581Y100029D01*
X245585Y100033D01*
X253650D01*
X255533Y98150D01*
Y80897D01*
X250929D01*
X249773Y80744D01*
X248695Y80298D01*
X247770Y79588D01*
X244841Y76659D01*
X244131Y75734D01*
X243685Y74656D01*
X243533Y73500D01*
Y71198D01*
X243159Y70297D01*
X242989Y69000D01*
Y66000D01*
X243159Y64703D01*
X243660Y63494D01*
X244456Y62456D01*
X245094Y61967D01*
X244924Y61467D01*
X237850D01*
X235967Y63350D01*
Y65339D01*
X236277Y65742D01*
X236828Y67072D01*
X237016Y68500D01*
X236828Y69928D01*
X236277Y71258D01*
X235400Y72400D01*
X234258Y73277D01*
X232928Y73828D01*
X231500Y74016D01*
X230072Y73828D01*
X228742Y73277D01*
X227600Y72400D01*
X226723Y71258D01*
X226172Y69928D01*
X225984Y68500D01*
X226172Y67072D01*
X226723Y65742D01*
X227033Y65339D01*
Y61500D01*
X227185Y60344D01*
X227631Y59266D01*
X228341Y58341D01*
X232715Y53967D01*
X232536Y53467D01*
X231350D01*
X226659Y58159D01*
X225734Y58869D01*
X224656Y59315D01*
X223500Y59467D01*
X215033D01*
X214857Y59602D01*
X213575Y60133D01*
X212790Y60236D01*
Y60741D01*
X213322Y60811D01*
X214369Y61244D01*
X215267Y61933D01*
X215956Y62831D01*
X216389Y63877D01*
X216471Y64500D01*
X210500D01*
Y65000D01*
X210000D01*
Y69337D01*
X208800D01*
X207678Y69189D01*
X206631Y68756D01*
X205733Y68067D01*
X205044Y67169D01*
X204967Y66984D01*
X204467Y67083D01*
Y78150D01*
X243659Y117341D01*
X244369Y118266D01*
X244815Y119344D01*
X244967Y120500D01*
Y227500D01*
X244815Y228656D01*
X244369Y229734D01*
X243659Y230659D01*
X234159Y240159D01*
X233234Y240869D01*
X232156Y241315D01*
X231000Y241467D01*
X225661D01*
X225258Y241777D01*
X223928Y242328D01*
X222500Y242516D01*
X221072Y242328D01*
X219742Y241777D01*
X218600Y240900D01*
X217723Y239758D01*
X217172Y238428D01*
X216984Y237000D01*
X217172Y235572D01*
X217723Y234242D01*
X218600Y233100D01*
X219742Y232223D01*
X221072Y231672D01*
X222500Y231484D01*
X223928Y231672D01*
X225258Y232223D01*
X225661Y232533D01*
X229150D01*
X236033Y225650D01*
Y143031D01*
X235533Y142931D01*
X235471Y143081D01*
X234650Y144150D01*
X233581Y144971D01*
X232336Y145486D01*
X231000Y145662D01*
X229664Y145486D01*
X228419Y144971D01*
X228415Y144967D01*
X209500D01*
X208344Y144815D01*
X207266Y144369D01*
X206341Y143659D01*
X197841Y135159D01*
X197131Y134234D01*
X196685Y133156D01*
X196533Y132000D01*
Y127822D01*
X196315Y127538D01*
X195685D01*
X195079Y128329D01*
X194475Y128792D01*
Y133500D01*
X194356Y134399D01*
X194009Y135237D01*
X193457Y135957D01*
X184957Y144457D01*
X184237Y145009D01*
X183399Y145356D01*
X182500Y145475D01*
X100785D01*
X100650Y145650D01*
X99581Y146471D01*
X98336Y146986D01*
X97000Y147162D01*
X95664Y146986D01*
X94419Y146471D01*
X93350Y145650D01*
X92529Y144581D01*
X92014Y143336D01*
X91838Y142000D01*
X92014Y140664D01*
X92529Y139419D01*
X93350Y138350D01*
X94419Y137529D01*
X95664Y137014D01*
X97000Y136838D01*
X98336Y137014D01*
X99581Y137529D01*
X100650Y138350D01*
X100785Y138525D01*
X181061D01*
X187525Y132061D01*
Y128907D01*
X187158Y128656D01*
X186718Y128879D01*
Y129969D01*
X175282D01*
Y127967D01*
X55350D01*
X49967Y133350D01*
Y237415D01*
X49971Y237419D01*
X50486Y238664D01*
X50662Y240000D01*
X50486Y241336D01*
X49971Y242581D01*
X49150Y243650D01*
X48081Y244471D01*
X46836Y244986D01*
X45500Y245162D01*
D02*
G37*
G36*
X51500Y84007D02*
X49938Y83853D01*
X48436Y83398D01*
X47052Y82658D01*
X45838Y81662D01*
X44842Y80449D01*
X44102Y79064D01*
X43647Y77562D01*
X43493Y76000D01*
X43647Y74438D01*
X44102Y72936D01*
X44842Y71552D01*
X45838Y70338D01*
X47052Y69342D01*
X48436Y68602D01*
X49938Y68147D01*
X51500Y67993D01*
X53062Y68147D01*
X54564Y68602D01*
X55949Y69342D01*
X57162Y70338D01*
X58158Y71552D01*
X58898Y72936D01*
X59353Y74438D01*
X59507Y76000D01*
X59353Y77562D01*
X58898Y79064D01*
X58158Y80449D01*
X57162Y81662D01*
X55949Y82658D01*
X54564Y83398D01*
X53062Y83853D01*
X51500Y84007D01*
D02*
G37*
G36*
X180200Y70337D02*
X179000D01*
Y66500D01*
X184471D01*
X184389Y67123D01*
X183956Y68169D01*
X183267Y69067D01*
X182369Y69756D01*
X181323Y70189D01*
X180200Y70337D01*
D02*
G37*
G36*
X178000D02*
X176800D01*
X175678Y70189D01*
X174631Y69756D01*
X173733Y69067D01*
X173044Y68169D01*
X172611Y67123D01*
X172529Y66500D01*
X178000D01*
Y70337D01*
D02*
G37*
G36*
X212200Y69337D02*
X211000D01*
Y65500D01*
X216471D01*
X216389Y66123D01*
X215956Y67169D01*
X215267Y68067D01*
X214369Y68756D01*
X213322Y69189D01*
X212200Y69337D01*
D02*
G37*
G36*
X147000Y43469D02*
Y38500D01*
X150534D01*
Y39500D01*
X150397Y40544D01*
X149994Y41517D01*
X149353Y42353D01*
X148517Y42994D01*
X147544Y43397D01*
X147000Y43469D01*
D02*
G37*
G36*
X146000D02*
X145456Y43397D01*
X144483Y42994D01*
X143647Y42353D01*
X143006Y41517D01*
X142603Y40544D01*
X142465Y39500D01*
Y38500D01*
X146000D01*
Y43469D01*
D02*
G37*
G36*
X257500Y42969D02*
X256956Y42897D01*
X255983Y42494D01*
X255147Y41853D01*
X254506Y41017D01*
X254103Y40044D01*
X253965Y39000D01*
Y38000D01*
X257500D01*
Y42969D01*
D02*
G37*
G36*
X150534Y37500D02*
X147000D01*
Y32531D01*
X147544Y32603D01*
X148517Y33006D01*
X149353Y33647D01*
X149994Y34483D01*
X150397Y35456D01*
X150534Y36500D01*
Y37500D01*
D02*
G37*
G36*
X146000D02*
X142465D01*
Y36500D01*
X142603Y35456D01*
X143006Y34483D01*
X143647Y33647D01*
X144483Y33006D01*
X145456Y32603D01*
X146000Y32531D01*
Y37500D01*
D02*
G37*
G36*
X262035Y37000D02*
X258500D01*
Y32031D01*
X259044Y32103D01*
X260017Y32506D01*
X260853Y33147D01*
X261494Y33983D01*
X261897Y34956D01*
X262035Y36000D01*
Y37000D01*
D02*
G37*
G36*
X257500D02*
X253965D01*
Y36000D01*
X254103Y34956D01*
X254506Y33983D01*
X255147Y33147D01*
X255983Y32506D01*
X256956Y32103D01*
X257500Y32031D01*
Y37000D01*
D02*
G37*
G36*
X183250Y32787D02*
X182000D01*
Y29000D01*
X187471D01*
X187391Y29610D01*
X186962Y30643D01*
X186281Y31531D01*
X185393Y32212D01*
X184360Y32641D01*
X183250Y32787D01*
D02*
G37*
G36*
X187471Y28000D02*
X181500D01*
X175529D01*
X175609Y27391D01*
X176038Y26357D01*
X176474Y25788D01*
X176227Y25288D01*
X162894D01*
X162258Y25777D01*
X160928Y26328D01*
X159500Y26516D01*
X158072Y26328D01*
X156742Y25777D01*
X155600Y24900D01*
X154723Y23758D01*
X154172Y22428D01*
X153984Y21000D01*
X154172Y19572D01*
X154723Y18242D01*
X155600Y17100D01*
X156742Y16223D01*
X158072Y15672D01*
X159500Y15484D01*
X160928Y15672D01*
X162258Y16223D01*
X162428Y16353D01*
X174531D01*
Y13282D01*
X188469D01*
Y23719D01*
X183322D01*
X183289Y24218D01*
X184360Y24359D01*
X185393Y24788D01*
X186281Y25469D01*
X186962Y26357D01*
X187391Y27391D01*
X187471Y28000D01*
D02*
G37*
G36*
X16500Y44662D02*
X15164Y44486D01*
X13919Y43971D01*
X12850Y43150D01*
X12029Y42081D01*
X11514Y40836D01*
X11338Y39500D01*
X11514Y38164D01*
X12029Y36919D01*
X12533Y36263D01*
Y27237D01*
X12029Y26581D01*
X11514Y25336D01*
X11338Y24000D01*
X11514Y22664D01*
X12029Y21419D01*
X12850Y20350D01*
X13919Y19529D01*
X15164Y19014D01*
X16500Y18838D01*
X17836Y19014D01*
X19081Y19529D01*
X19191Y19613D01*
X19234Y19631D01*
X20159Y20341D01*
X20869Y21266D01*
X20887Y21309D01*
X20971Y21419D01*
X21486Y22664D01*
X21662Y24000D01*
X21486Y25336D01*
X21467Y25382D01*
Y35033D01*
X42150D01*
X44804Y32378D01*
X44102Y31064D01*
X43647Y29562D01*
X43493Y28000D01*
X43647Y26438D01*
X44102Y24936D01*
X44842Y23551D01*
X45838Y22338D01*
X47052Y21342D01*
X48436Y20602D01*
X49938Y20147D01*
X51500Y19993D01*
X53062Y20147D01*
X54564Y20602D01*
X55949Y21342D01*
X57162Y22338D01*
X58158Y23551D01*
X58898Y24936D01*
X59353Y26438D01*
X59507Y28000D01*
X59353Y29562D01*
X58898Y31064D01*
X58158Y32449D01*
X57162Y33662D01*
X55949Y34658D01*
X54564Y35398D01*
X54357Y35460D01*
X47159Y42659D01*
X46234Y43369D01*
X45156Y43815D01*
X44000Y43967D01*
X19085D01*
X19081Y43971D01*
X17836Y44486D01*
X16500Y44662D01*
D02*
G37*
G36*
X343000Y35507D02*
X341438Y35353D01*
X339936Y34898D01*
X338551Y34158D01*
X337338Y33162D01*
X336342Y31949D01*
X335602Y30564D01*
X335147Y29062D01*
X334993Y27500D01*
X335147Y25938D01*
X335602Y24436D01*
X336342Y23052D01*
X337338Y21838D01*
X338551Y20842D01*
X339936Y20102D01*
X341438Y19647D01*
X343000Y19493D01*
X344562Y19647D01*
X346064Y20102D01*
X347448Y20842D01*
X348662Y21838D01*
X349658Y23052D01*
X350398Y24436D01*
X350853Y25938D01*
X351007Y27500D01*
X350853Y29062D01*
X350398Y30564D01*
X349658Y31949D01*
X348662Y33162D01*
X347448Y34158D01*
X346064Y34898D01*
X344562Y35353D01*
X343000Y35507D01*
D02*
G37*
%LPD*%
G36*
X196683Y183052D02*
Y177500D01*
Y159211D01*
X196183Y159041D01*
X195617Y159778D01*
Y183178D01*
X195816Y183437D01*
X196310Y183451D01*
X196683Y183052D01*
D02*
G37*
G36*
X186683D02*
Y177500D01*
Y159211D01*
X186183Y159041D01*
X185617Y159778D01*
Y183178D01*
X185816Y183437D01*
X186310Y183451D01*
X186683Y183052D01*
D02*
G37*
G36*
X228419Y136029D02*
X229171Y135718D01*
X229289Y135128D01*
X229129Y134967D01*
X218000D01*
X216844Y134815D01*
X215766Y134369D01*
X214841Y133659D01*
X211177Y129995D01*
X211000Y130018D01*
X209507Y129821D01*
X208116Y129245D01*
X206922Y128329D01*
X206334Y127563D01*
X205840Y127549D01*
X205467Y127948D01*
Y130150D01*
X211350Y136033D01*
X228415D01*
X228419Y136029D01*
D02*
G37*
G36*
X159360Y74533D02*
X158742Y74277D01*
X158339Y73967D01*
X148698D01*
X147797Y74341D01*
X146500Y74511D01*
X145203Y74341D01*
X143994Y73840D01*
X142956Y73044D01*
X142160Y72006D01*
X141771Y71065D01*
X141229D01*
X140840Y72006D01*
X140044Y73044D01*
X139006Y73840D01*
X137797Y74341D01*
X136500Y74511D01*
X135203Y74341D01*
X133994Y73840D01*
X132956Y73044D01*
X132160Y72006D01*
X131659Y70797D01*
X131489Y69500D01*
Y68806D01*
X124250Y61568D01*
X122265Y63553D01*
X122415Y63871D01*
X122520Y64005D01*
X123670Y64118D01*
X124795Y64459D01*
X125832Y65013D01*
X126741Y65759D01*
X127487Y66668D01*
X128041Y67705D01*
X128382Y68830D01*
X128497Y70000D01*
X128382Y71170D01*
X128041Y72295D01*
X127487Y73332D01*
X126741Y74241D01*
X126385Y74533D01*
X126564Y75033D01*
X159260D01*
X159360Y74533D01*
D02*
G37*
G36*
X265032Y63032D02*
X266533D01*
Y50751D01*
X266685Y49595D01*
X266865Y49160D01*
X266441Y48877D01*
X263159Y52159D01*
X262234Y52869D01*
X261156Y53315D01*
X260000Y53467D01*
X256464D01*
X256285Y53967D01*
X261159Y58841D01*
X261869Y59766D01*
X262315Y60844D01*
X262467Y62000D01*
Y63802D01*
X262841Y64703D01*
X263011Y66000D01*
Y69000D01*
X262841Y70297D01*
X262358Y71462D01*
X262489Y71828D01*
X262555Y71962D01*
X265032D01*
Y63032D01*
D02*
G37*
G36*
X204198Y42343D02*
X205043Y41243D01*
X206143Y40398D01*
X207425Y39867D01*
X208800Y39686D01*
X212200D01*
X213575Y39867D01*
X214857Y40398D01*
X215033Y40533D01*
X217650D01*
X226216Y31966D01*
X226723Y30742D01*
X227600Y29600D01*
X227798Y29448D01*
X227637Y28975D01*
X224439D01*
X216262Y37152D01*
X215542Y37704D01*
X214704Y38051D01*
X213805Y38170D01*
X206744D01*
X203475Y41439D01*
Y42783D01*
X203975Y42882D01*
X204198Y42343D01*
D02*
G37*
G36*
X118033Y23777D02*
Y23000D01*
X118185Y21844D01*
X118631Y20766D01*
X119095Y20162D01*
X119172Y19572D01*
X119723Y18242D01*
X119919Y17987D01*
X119698Y17538D01*
X109780D01*
X108159Y19159D01*
X107234Y19869D01*
X106156Y20315D01*
X105000Y20467D01*
X103372D01*
X103247Y20967D01*
X103948Y21342D01*
X105162Y22338D01*
X106142Y23533D01*
X115500D01*
X116656Y23685D01*
X117533Y24048D01*
X118033Y23777D01*
D02*
G37*
D40*
X205305Y34695D02*
X213805D01*
X200000Y40000D02*
X205305Y34695D01*
X200000Y40000D02*
Y49500D01*
X97000Y142000D02*
X182500D01*
X191000Y123500D02*
Y133500D01*
X182500Y142000D02*
X191000Y133500D01*
X271000Y76429D02*
Y76929D01*
Y75929D02*
Y76429D01*
Y69000D02*
Y75929D01*
Y76929D02*
X271500Y77429D01*
X213805Y34695D02*
X223000Y25500D01*
X238000D01*
D41*
X205833Y237000D02*
Y257333D01*
X177000Y272500D02*
X189167Y260333D01*
Y237000D02*
Y260333D01*
X45500Y131500D02*
X53500Y123500D01*
X45500Y131500D02*
Y240000D01*
X53500Y123500D02*
X181000D01*
X260000Y76429D02*
X270500D01*
X250929D02*
X260000D01*
X72000Y104500D02*
Y112500D01*
Y100000D02*
Y104500D01*
X260000Y76429D02*
Y100000D01*
X255500Y104500D02*
X260000Y100000D01*
X243000Y104500D02*
X255500D01*
X72000D02*
X199000D01*
X211150Y188000D02*
X218500D01*
X222500Y192000D02*
Y202000D01*
X218500Y188000D02*
X222500Y192000D01*
X211150Y187500D02*
Y188000D01*
X172500Y196150D02*
Y202000D01*
X271000Y34000D02*
Y38000D01*
X260000Y49000D02*
X271000Y38000D01*
X229500Y49000D02*
X260000D01*
X17000Y23500D02*
Y39000D01*
X51500Y28000D02*
Y32000D01*
X44000Y39500D02*
X51500Y32000D01*
X16500Y39500D02*
X44000D01*
X16500D02*
X17000Y39000D01*
X16500Y24000D02*
X17000Y23500D01*
X85000Y327500D02*
Y340000D01*
X95000Y350000D01*
X121000D01*
X156000D02*
X156500Y349500D01*
X172000D01*
X273000Y331500D02*
Y348500D01*
X271000Y350500D02*
X273000Y348500D01*
X186000Y79500D02*
X191000Y74500D01*
Y60000D02*
Y74500D01*
X187000Y56000D02*
X191000Y60000D01*
X323000Y221500D02*
X380000D01*
X323000D02*
X323500Y221000D01*
X276000Y221500D02*
X323000D01*
X245500Y274000D02*
X249500Y278000D01*
X222500Y274000D02*
X245500D01*
X205833Y257333D02*
X222500Y274000D01*
X249500Y278000D02*
Y291000D01*
X75000Y283000D02*
X76000Y284000D01*
X62500Y90500D02*
X72000Y100000D01*
X323500Y112000D02*
Y221000D01*
X240500Y120500D02*
Y227500D01*
X200000Y80000D02*
X240500Y120500D01*
X200000Y49500D02*
Y80000D01*
X134000Y156500D02*
Y226000D01*
X365500Y307500D02*
X371500D01*
X286500D02*
X365500D01*
Y286500D02*
Y307500D01*
X378000Y321000D02*
X385579Y313421D01*
Y296016D02*
Y313421D01*
X383500Y293937D02*
X385579Y296016D01*
X383500Y286500D02*
Y293937D01*
X179179Y20821D02*
X181500Y18500D01*
X159500Y20821D02*
X179179D01*
X159500D02*
Y21000D01*
X122500Y23000D02*
X124500Y21000D01*
X122500Y23000D02*
Y35000D01*
X136500Y21787D02*
Y38000D01*
X127784Y13071D02*
X136500Y21787D01*
X107929Y13071D02*
X127784D01*
X105000Y16000D02*
X107929Y13071D01*
X78000Y16000D02*
X105000D01*
X78000D02*
X79500Y14500D01*
X62500Y90500D02*
X90000Y63000D01*
X116500D01*
X45000Y90500D02*
X62500D01*
X263500Y18500D02*
X289251D01*
X290680Y17071D01*
X301571D01*
X307000Y22500D01*
Y33000D01*
X299000Y41000D02*
X307000Y33000D01*
X280751Y41000D02*
X299000D01*
X271000Y50751D02*
X280751Y41000D01*
X271000Y50751D02*
Y69000D01*
X209500Y140500D02*
X231000D01*
X201000Y132000D02*
X209500Y140500D01*
X201000Y123500D02*
Y132000D01*
X211000Y123500D02*
X218000Y130500D01*
X232000D01*
X231000Y237000D02*
X240500Y227500D01*
X134000Y226000D02*
X145000Y237000D01*
X172500D01*
X136500Y283500D02*
Y292500D01*
Y283500D02*
X147500Y272500D01*
X112000Y321000D02*
X129000Y304000D01*
X147500Y272500D02*
X177000D01*
X249500Y321000D02*
Y326000D01*
X255000Y331500D01*
X273000D01*
Y323500D02*
Y331500D01*
X296500D01*
X235500Y350000D02*
X236000Y350500D01*
X221500Y350000D02*
X235500D01*
X91500Y321000D02*
X112000D01*
X85000Y327500D02*
X91500Y321000D01*
X271000Y76429D02*
X295000D01*
X270500D02*
X271000Y75929D01*
X276000Y211500D02*
Y221500D01*
Y201500D02*
Y211500D01*
Y191500D02*
Y201500D01*
X275500Y171500D02*
Y181500D01*
Y161500D02*
Y171500D01*
Y151500D02*
Y161500D01*
X376500Y40000D02*
X382000D01*
X385000Y43000D01*
Y76000D01*
X384000Y77000D02*
X385000Y76000D01*
X222500Y237000D02*
X231000D01*
X178500Y39000D02*
Y46000D01*
X174000Y34500D02*
X178500Y39000D01*
X161500Y34500D02*
X174000D01*
X238000Y25500D02*
X244000D01*
X248000Y29500D01*
Y37500D01*
X228000Y18000D02*
X228500Y18500D01*
X206500Y18000D02*
X228000D01*
X44500Y91000D02*
X45000Y90500D01*
X231000Y33500D02*
X231500D01*
X219500Y45000D02*
X231000Y33500D01*
X210500Y45000D02*
X219500D01*
X229000Y302500D02*
X262000D01*
X273000Y291500D01*
Y288500D02*
Y291500D01*
Y288500D02*
X291500D01*
X122500Y53500D02*
Y57000D01*
X116500Y63000D02*
X122500Y57000D01*
X172500Y196150D02*
X181150Y187500D01*
X191150Y177500D02*
Y200017D01*
X189167Y202000D02*
X191150Y200017D01*
X201150Y177500D02*
Y197317D01*
X205833Y202000D01*
X211150Y155350D02*
X211500Y155000D01*
X211150Y155350D02*
Y187500D01*
X201150Y155350D02*
X201500Y155000D01*
X201150Y155350D02*
Y187500D01*
X191150Y155350D02*
X191500Y155000D01*
X191150Y155350D02*
Y187500D01*
X181150Y155350D02*
X181500Y155000D01*
X181150Y155350D02*
Y187500D01*
X223500Y55000D02*
X229500Y49000D01*
X210500Y55000D02*
X223500D01*
X231500Y61500D02*
Y68500D01*
Y61500D02*
X236000Y57000D01*
X253000D01*
X258000Y62000D01*
Y67500D01*
X248000D02*
Y73500D01*
X250929Y76429D01*
X295000Y75500D02*
Y76429D01*
X288500Y34000D02*
X295000Y27500D01*
X271000Y34000D02*
X288500D01*
X224500Y307000D02*
X229000Y302500D01*
X212000Y307000D02*
X224500D01*
X291500Y288500D02*
X296500Y283500D01*
X233000Y313000D02*
Y323000D01*
Y313000D02*
X236500Y309500D01*
X253500D01*
X259500Y315500D01*
Y321000D01*
X215500Y288000D02*
X233000D01*
X212000Y291500D02*
X215500Y288000D01*
X212000Y291500D02*
Y297000D01*
X344500Y331500D02*
X367500D01*
X378000Y321000D01*
X371500Y307500D02*
X378000Y301000D01*
X146500Y68000D02*
X148000Y69500D01*
X161500D01*
X116500Y76000D02*
X120000Y79500D01*
X186000D01*
X178500Y56000D02*
X187000D01*
X136500Y67500D02*
Y68000D01*
X122500Y53500D02*
X136500Y67500D01*
X122500Y35000D02*
Y53500D01*
X99500Y28000D02*
X115500D01*
X122500Y35000D01*
X116500Y76000D02*
X122500Y70000D01*
X99500Y76000D02*
X116500D01*
X115000Y332000D02*
X118500Y335500D01*
X183000D01*
X192500Y326000D01*
Y311000D02*
Y326000D01*
X189500Y308000D02*
X192500Y311000D01*
X178500Y308000D02*
X189500D01*
X146500Y322500D02*
X160500D01*
X161500Y323500D01*
Y288500D02*
X175000D01*
X178500Y292000D01*
Y298000D01*
D42*
X33000Y277500D02*
Y284000D01*
X58500Y266500D02*
X72000Y280000D01*
X75000Y283000D01*
X72000Y134500D02*
Y280000D01*
X121000Y350000D02*
Y356500D01*
X127000Y362500D01*
X263500D01*
X271000Y355000D01*
Y350500D02*
Y355000D01*
X43500Y52000D02*
X109500D01*
X44500Y266500D02*
X58500D01*
X129000Y304000D02*
X136500Y311500D01*
X122500Y297500D02*
X129000Y304000D01*
X343000Y75500D02*
X367500D01*
X34000Y76000D02*
X36000Y74000D01*
Y59500D02*
Y74000D01*
X76000Y284000D02*
X99500D01*
X33000D02*
X51500D01*
X99500D02*
X117000D01*
X122500Y289500D01*
Y297500D01*
X136500Y311500D02*
Y322500D01*
X16500Y300500D02*
X33000Y284000D01*
X285000Y51500D02*
X365000D01*
X376500Y40000D01*
Y60000D02*
Y66500D01*
X367500Y75500D02*
X376500Y66500D01*
X115000Y332000D02*
X122500Y324500D01*
X99500Y332000D02*
X115000D01*
X16500Y59500D02*
X36000D01*
X43500Y52000D01*
X45500Y308000D02*
X109500D01*
X33000Y320500D02*
X45500Y308000D01*
X16500Y320500D02*
X33000D01*
D43*
X181500Y28500D02*
D03*
X206500Y28000D02*
D03*
D44*
X181500Y18500D02*
D03*
X206500Y18000D02*
D03*
D45*
X271000Y69000D02*
D03*
X122500Y35000D02*
D03*
Y289500D02*
D03*
X273000Y323500D02*
D03*
D46*
X271000Y34000D02*
D03*
X122500Y70000D02*
D03*
Y324500D02*
D03*
X273000Y288500D02*
D03*
D47*
X228500Y18500D02*
D03*
X263500D02*
D03*
X159500Y21000D02*
D03*
X124500D02*
D03*
X121000Y350000D02*
D03*
X156000D02*
D03*
X271000Y350500D02*
D03*
X236000D02*
D03*
X233000Y288000D02*
D03*
Y323000D02*
D03*
X172500Y237000D02*
D03*
Y202000D02*
D03*
X189167Y237000D02*
D03*
Y202000D02*
D03*
X222500Y237000D02*
D03*
Y202000D02*
D03*
X205833Y237000D02*
D03*
Y202000D02*
D03*
X161500Y69500D02*
D03*
Y34500D02*
D03*
Y323500D02*
D03*
Y288500D02*
D03*
X231500Y68500D02*
D03*
Y33500D02*
D03*
D48*
X12000Y245000D02*
D03*
Y237000D02*
D03*
X22500Y119000D02*
D03*
Y111000D02*
D03*
X381500Y135000D02*
D03*
Y127000D02*
D03*
X363500Y239500D02*
D03*
Y247500D02*
D03*
D49*
X376500Y60000D02*
D03*
X16500Y300500D02*
D03*
Y39500D02*
D03*
X378500Y321000D02*
D03*
X33000Y277500D02*
D03*
X243000Y104500D02*
D03*
X199000D02*
D03*
X16500Y24000D02*
D03*
X380000Y221500D02*
D03*
X72000Y134500D02*
D03*
Y112500D02*
D03*
X134000Y156500D02*
D03*
X365500Y286500D02*
D03*
X383500D02*
D03*
X323500Y112000D02*
D03*
X78000Y16000D02*
D03*
X231000Y140500D02*
D03*
X232000Y130500D02*
D03*
X44500Y266500D02*
D03*
X45500Y240000D02*
D03*
X97000Y142000D02*
D03*
X271500Y77429D02*
D03*
X384000Y77000D02*
D03*
X359500Y76000D02*
D03*
X44500Y91000D02*
D03*
X34000Y76000D02*
D03*
D50*
X376500Y40000D02*
D03*
X16500Y320500D02*
D03*
Y59500D02*
D03*
X378500Y301000D02*
D03*
D51*
X275500Y181500D02*
D03*
X276000Y221500D02*
D03*
D52*
X275500Y171500D02*
D03*
Y161500D02*
D03*
Y151500D02*
D03*
X276000Y191500D02*
D03*
Y201500D02*
D03*
Y211500D02*
D03*
D53*
X211150Y187500D02*
D03*
X211500Y155000D02*
D03*
X181000Y123500D02*
D03*
D54*
X201150Y187500D02*
D03*
X191150D02*
D03*
X181150D02*
D03*
X201500Y155000D02*
D03*
X191500D02*
D03*
X181500D02*
D03*
X191000Y123500D02*
D03*
X201000D02*
D03*
X211000D02*
D03*
D55*
X99500Y76000D02*
D03*
X51500Y28000D02*
D03*
X109500Y52000D02*
D03*
X51500Y76000D02*
D03*
X99500Y28000D02*
D03*
Y284000D02*
D03*
X51500Y332000D02*
D03*
X109500Y308000D02*
D03*
X51500Y284000D02*
D03*
X99500Y332000D02*
D03*
X295000Y75500D02*
D03*
X343000Y27500D02*
D03*
X285000Y51500D02*
D03*
X343000Y75500D02*
D03*
X295000Y27500D02*
D03*
X296500Y331500D02*
D03*
X344500Y283500D02*
D03*
X286500Y307500D02*
D03*
X344500Y331500D02*
D03*
X296500Y283500D02*
D03*
D56*
X172000Y349500D02*
D03*
X221500Y350000D02*
D03*
D57*
X182000Y349500D02*
D03*
X211500Y350000D02*
D03*
D58*
X136500Y38000D02*
D03*
Y292500D02*
D03*
X248000Y37500D02*
D03*
X249500Y291000D02*
D03*
D59*
X146500Y38000D02*
D03*
Y68000D02*
D03*
X136500D02*
D03*
X146500Y292500D02*
D03*
Y322500D02*
D03*
X136500D02*
D03*
X258000Y37500D02*
D03*
Y67500D02*
D03*
X248000D02*
D03*
X259500Y291000D02*
D03*
Y321000D02*
D03*
X249500D02*
D03*
D60*
X178500Y46000D02*
D03*
Y56000D02*
D03*
Y66000D02*
D03*
Y298000D02*
D03*
Y308000D02*
D03*
Y318000D02*
D03*
X210500Y45000D02*
D03*
Y55000D02*
D03*
Y65000D02*
D03*
X212000Y297000D02*
D03*
Y307000D02*
D03*
Y317000D02*
D03*
M02*
