G04*
G04 #@! TF.GenerationSoftware,Altium Limited,Altium Designer,18.0.7 (293)*
G04*
G04 Layer_Color=128*
%FSLAX25Y25*%
%MOIN*%
G70*
G01*
G75*
%ADD61C,0.00200*%
D61*
X179900Y28500D02*
X183100D01*
X181500Y26900D02*
Y30100D01*
X179900Y18500D02*
X183100D01*
X181500Y16900D02*
Y20100D01*
X204900Y28000D02*
X208100D01*
X206500Y26400D02*
Y29600D01*
X204900Y18000D02*
X208100D01*
X206500Y16400D02*
Y19600D01*
X269250Y69000D02*
X272750D01*
X271000Y67250D02*
Y70750D01*
X269250Y34000D02*
X272750D01*
X271000Y32250D02*
Y35750D01*
X226950Y18500D02*
X230050D01*
X228500Y16950D02*
Y20050D01*
X261950Y18500D02*
X265050D01*
X263500Y16950D02*
Y20050D01*
X10400Y245000D02*
X13600D01*
X12000Y243400D02*
Y246600D01*
X10400Y237000D02*
X13600D01*
X12000Y235400D02*
Y238600D01*
X374925Y60000D02*
X378075D01*
X376500Y58425D02*
Y61575D01*
X374925Y40000D02*
X378075D01*
X376500Y38425D02*
Y41575D01*
X273800Y181500D02*
X277200D01*
X275500Y179800D02*
Y183200D01*
X273800Y171500D02*
X277200D01*
X275500Y169800D02*
Y173200D01*
X273800Y161500D02*
X277200D01*
X275500Y159800D02*
Y163200D01*
X273800Y151500D02*
X277200D01*
X275500Y149800D02*
Y153200D01*
X209450Y187500D02*
X212850D01*
X211150Y185800D02*
Y189200D01*
X199450Y187500D02*
X202850D01*
X201150Y185800D02*
Y189200D01*
X189450Y187500D02*
X192850D01*
X191150Y185800D02*
Y189200D01*
X179450Y187500D02*
X182850D01*
X181150Y185800D02*
Y189200D01*
X209800Y155000D02*
X213200D01*
X211500Y153300D02*
Y156700D01*
X199800Y155000D02*
X203200D01*
X201500Y153300D02*
Y156700D01*
X189800Y155000D02*
X193200D01*
X191500Y153300D02*
Y156700D01*
X179800Y155000D02*
X183200D01*
X181500Y153300D02*
Y156700D01*
X179300Y123500D02*
X182700D01*
X181000Y121800D02*
Y125200D01*
X189300Y123500D02*
X192700D01*
X191000Y121800D02*
Y125200D01*
X199300Y123500D02*
X202700D01*
X201000Y121800D02*
Y125200D01*
X209300Y123500D02*
X212700D01*
X211000Y121800D02*
Y125200D01*
X14925Y300500D02*
X18075D01*
X16500Y298925D02*
Y302075D01*
X14925Y320500D02*
X18075D01*
X16500Y318925D02*
Y322075D01*
X14925Y39500D02*
X18075D01*
X16500Y37925D02*
Y41075D01*
X14925Y59500D02*
X18075D01*
X16500Y57925D02*
Y61075D01*
X376925Y321000D02*
X380075D01*
X378500Y319425D02*
Y322575D01*
X376925Y301000D02*
X380075D01*
X378500Y299425D02*
Y302575D01*
X157950Y21000D02*
X161050D01*
X159500Y19450D02*
Y22550D01*
X122950Y21000D02*
X126050D01*
X124500Y19450D02*
Y22550D01*
X97250Y76000D02*
X101750D01*
X99500Y73750D02*
Y78250D01*
X49250Y28000D02*
X53750D01*
X51500Y25750D02*
Y30250D01*
X107250Y52000D02*
X111750D01*
X109500Y49750D02*
Y54250D01*
X49250Y76000D02*
X53750D01*
X51500Y73750D02*
Y78250D01*
X97250Y28000D02*
X101750D01*
X99500Y25750D02*
Y30250D01*
X119450Y350000D02*
X122550D01*
X121000Y348450D02*
Y351550D01*
X154450Y350000D02*
X157550D01*
X156000Y348450D02*
Y351550D01*
X170400Y349500D02*
X173600D01*
X172000Y347900D02*
Y351100D01*
X180400Y349500D02*
X183600D01*
X182000Y347900D02*
Y351100D01*
X269450Y350500D02*
X272550D01*
X271000Y348950D02*
Y352050D01*
X234450Y350500D02*
X237550D01*
X236000Y348950D02*
Y352050D01*
X231450Y288000D02*
X234550D01*
X233000Y286450D02*
Y289550D01*
X231450Y323000D02*
X234550D01*
X233000Y321450D02*
Y324550D01*
X219900Y350000D02*
X223100D01*
X221500Y348400D02*
Y351600D01*
X209900Y350000D02*
X213100D01*
X211500Y348400D02*
Y351600D01*
X20900Y119000D02*
X24100D01*
X22500Y117400D02*
Y120600D01*
X20900Y111000D02*
X24100D01*
X22500Y109400D02*
Y112600D01*
X379900Y135000D02*
X383100D01*
X381500Y133400D02*
Y136600D01*
X379900Y127000D02*
X383100D01*
X381500Y125400D02*
Y128600D01*
X361900Y239500D02*
X365100D01*
X363500Y237900D02*
Y241100D01*
X361900Y247500D02*
X365100D01*
X363500Y245900D02*
Y249100D01*
X134950Y38000D02*
X138050D01*
X136500Y36450D02*
Y39550D01*
X144950Y38000D02*
X148050D01*
X146500Y36450D02*
Y39550D01*
X144950Y68000D02*
X148050D01*
X146500Y66450D02*
Y69550D01*
X134950Y68000D02*
X138050D01*
X136500Y66450D02*
Y69550D01*
X134950Y292500D02*
X138050D01*
X136500Y290950D02*
Y294050D01*
X144950Y292500D02*
X148050D01*
X146500Y290950D02*
Y294050D01*
X144950Y322500D02*
X148050D01*
X146500Y320950D02*
Y324050D01*
X134950Y322500D02*
X138050D01*
X136500Y320950D02*
Y324050D01*
X170950Y237000D02*
X174050D01*
X172500Y235450D02*
Y238550D01*
X170950Y202000D02*
X174050D01*
X172500Y200450D02*
Y203550D01*
X187617Y237000D02*
X190717D01*
X189167Y235450D02*
Y238550D01*
X187617Y202000D02*
X190717D01*
X189167Y200450D02*
Y203550D01*
X246450Y37500D02*
X249550D01*
X248000Y35950D02*
Y39050D01*
X256450Y37500D02*
X259550D01*
X258000Y35950D02*
Y39050D01*
X256450Y67500D02*
X259550D01*
X258000Y65950D02*
Y69050D01*
X246450Y67500D02*
X249550D01*
X248000Y65950D02*
Y69050D01*
X247950Y291000D02*
X251050D01*
X249500Y289450D02*
Y292550D01*
X257950Y291000D02*
X261050D01*
X259500Y289450D02*
Y292550D01*
X257950Y321000D02*
X261050D01*
X259500Y319450D02*
Y322550D01*
X247950Y321000D02*
X251050D01*
X249500Y319450D02*
Y322550D01*
X220950Y237000D02*
X224050D01*
X222500Y235450D02*
Y238550D01*
X220950Y202000D02*
X224050D01*
X222500Y200450D02*
Y203550D01*
X204283Y237000D02*
X207383D01*
X205833Y235450D02*
Y238550D01*
X204283Y202000D02*
X207383D01*
X205833Y200450D02*
Y203550D01*
X274300Y191500D02*
X277700D01*
X276000Y189800D02*
Y193200D01*
X274300Y201500D02*
X277700D01*
X276000Y199800D02*
Y203200D01*
X274300Y211500D02*
X277700D01*
X276000Y209800D02*
Y213200D01*
X274300Y221500D02*
X277700D01*
X276000Y219800D02*
Y223200D01*
X97250Y284000D02*
X101750D01*
X99500Y281750D02*
Y286250D01*
X49250Y332000D02*
X53750D01*
X51500Y329750D02*
Y334250D01*
X107250Y308000D02*
X111750D01*
X109500Y305750D02*
Y310250D01*
X49250Y284000D02*
X53750D01*
X51500Y281750D02*
Y286250D01*
X97250Y332000D02*
X101750D01*
X99500Y329750D02*
Y334250D01*
X120750Y70000D02*
X124250D01*
X122500Y68250D02*
Y71750D01*
X120750Y35000D02*
X124250D01*
X122500Y33250D02*
Y36750D01*
X120750Y324500D02*
X124250D01*
X122500Y322750D02*
Y326250D01*
X120750Y289500D02*
X124250D01*
X122500Y287750D02*
Y291250D01*
X159950Y69500D02*
X163050D01*
X161500Y67950D02*
Y71050D01*
X159950Y34500D02*
X163050D01*
X161500Y32950D02*
Y36050D01*
X159950Y323500D02*
X163050D01*
X161500Y321950D02*
Y325050D01*
X159950Y288500D02*
X163050D01*
X161500Y286950D02*
Y290050D01*
X176900Y46000D02*
X180100D01*
X178500Y44400D02*
Y47600D01*
X176900Y56000D02*
X180100D01*
X178500Y54400D02*
Y57600D01*
X176900Y66000D02*
X180100D01*
X178500Y64400D02*
Y67600D01*
X176900Y298000D02*
X180100D01*
X178500Y296400D02*
Y299600D01*
X176900Y308000D02*
X180100D01*
X178500Y306400D02*
Y309600D01*
X176900Y318000D02*
X180100D01*
X178500Y316400D02*
Y319600D01*
X292750Y75500D02*
X297250D01*
X295000Y73250D02*
Y77750D01*
X340750Y27500D02*
X345250D01*
X343000Y25250D02*
Y29750D01*
X282750Y51500D02*
X287250D01*
X285000Y49250D02*
Y53750D01*
X340750Y75500D02*
X345250D01*
X343000Y73250D02*
Y77750D01*
X292750Y27500D02*
X297250D01*
X295000Y25250D02*
Y29750D01*
X294250Y331500D02*
X298750D01*
X296500Y329250D02*
Y333750D01*
X342250Y283500D02*
X346750D01*
X344500Y281250D02*
Y285750D01*
X284250Y307500D02*
X288750D01*
X286500Y305250D02*
Y309750D01*
X342250Y331500D02*
X346750D01*
X344500Y329250D02*
Y333750D01*
X294250Y283500D02*
X298750D01*
X296500Y281250D02*
Y285750D01*
X271250Y288500D02*
X274750D01*
X273000Y286750D02*
Y290250D01*
X271250Y323500D02*
X274750D01*
X273000Y321750D02*
Y325250D01*
X229950Y68500D02*
X233050D01*
X231500Y66950D02*
Y70050D01*
X229950Y33500D02*
X233050D01*
X231500Y31950D02*
Y35050D01*
X208900Y45000D02*
X212100D01*
X210500Y43400D02*
Y46600D01*
X208900Y55000D02*
X212100D01*
X210500Y53400D02*
Y56600D01*
X208900Y65000D02*
X212100D01*
X210500Y63400D02*
Y66600D01*
X210400Y297000D02*
X213600D01*
X212000Y295400D02*
Y298600D01*
X210400Y307000D02*
X213600D01*
X212000Y305400D02*
Y308600D01*
X210400Y317000D02*
X213600D01*
X212000Y315400D02*
Y318600D01*
X31425Y277500D02*
X34575D01*
X33000Y275925D02*
Y279075D01*
X241425Y104500D02*
X244575D01*
X243000Y102925D02*
Y106075D01*
X197425Y104500D02*
X200575D01*
X199000Y102925D02*
Y106075D01*
X14925Y24000D02*
X18075D01*
X16500Y22425D02*
Y25575D01*
X378425Y221500D02*
X381575D01*
X380000Y219925D02*
Y223075D01*
X70425Y134500D02*
X73575D01*
X72000Y132925D02*
Y136075D01*
X70425Y112500D02*
X73575D01*
X72000Y110925D02*
Y114075D01*
X132425Y156500D02*
X135575D01*
X134000Y154925D02*
Y158075D01*
X363925Y286500D02*
X367075D01*
X365500Y284925D02*
Y288075D01*
X381925Y286500D02*
X385075D01*
X383500Y284925D02*
Y288075D01*
X321925Y112000D02*
X325075D01*
X323500Y110425D02*
Y113575D01*
X76425Y16000D02*
X79575D01*
X78000Y14425D02*
Y17575D01*
X229425Y140500D02*
X232575D01*
X231000Y138925D02*
Y142075D01*
X230425Y130500D02*
X233575D01*
X232000Y128925D02*
Y132075D01*
X42925Y266500D02*
X46075D01*
X44500Y264925D02*
Y268075D01*
X43925Y240000D02*
X47075D01*
X45500Y238425D02*
Y241575D01*
X95425Y142000D02*
X98575D01*
X97000Y140425D02*
Y143575D01*
X269925Y77429D02*
X273075D01*
X271500Y75854D02*
Y79004D01*
X382425Y77000D02*
X385575D01*
X384000Y75425D02*
Y78575D01*
X357925Y76000D02*
X361075D01*
X359500Y74425D02*
Y77575D01*
X42925Y91000D02*
X46075D01*
X44500Y89425D02*
Y92575D01*
X32425Y76000D02*
X35575D01*
X34000Y74425D02*
Y77575D01*
M02*
