M48
;Layer_Color=9474304
;FILE_FORMAT=2:4
INCH,LZ
;TYPE=PLATED
T1F00S00C0.0310
T2F00S00C0.0315
T3F00S00C0.0320
T4F00S00C0.0340
T5F00S00C0.0350
T6F00S00C0.0450
%
T01
X01245Y0021
X01365Y0038
X01465
X01595Y0021
X01615Y00345
X02315Y00335
X02285Y00185
X02635
X0258Y00375
X0248
Y00675
X0258
X02315Y00685
X01615Y00695
X01725Y0202
X018917
X020583
X02225
X01465Y0068
X01365
Y02925
X01465
Y03225
X01365
X0121Y035
X0156
X01615Y03235
Y02885
X01725Y0237
X018917
X020583
X02225
X0233Y0288
X02495Y0291
X02595
Y0321
X02495
X0233Y0323
X0236Y03505
X0271
T02
X00165Y0024
Y00395
X0078Y0016
X03765Y004
Y006
X0384Y0077
X03595Y0076
X03235Y0112
X02715Y007743
X0243Y01045
X0232Y01305
X0231Y01405
X0199Y01045
X0134Y01565
X0097Y0142
X0072Y01345
Y01125
X00445Y0091
X0034Y0076
X00165Y00595
X00455Y024
X00445Y02665
X0033Y02775
X00165Y03005
Y03205
X03785Y0321
Y0301
X03835Y02865
X03655
X038Y02215
T03
X01815Y00185
Y00285
X01785Y0046
Y0056
X02105Y0055
Y0045
X02065Y0028
Y0018
X03815Y0127
Y0135
X02105Y0065
X01785Y0066
X00225Y0111
Y0119
X0012Y0237
Y0245
X01785Y0298
Y0308
Y0318
X0212Y0317
Y0307
Y0297
X02115Y035
X02215
X0182Y03495
X0172
X03635Y02475
Y02395
T04
X0181Y01235
X0191
X0201
X0211
X02115Y0155
X02015
X01915
X01815
X018115Y01875
X019115
X020115
X021115
X0276Y01915
Y02015
Y02115
X02755Y01815
Y01715
Y01615
Y01515
X0276Y02215
T05
X01225Y0035
X0271Y0034
Y0069
X01225Y007
Y02895
Y03245
X0273Y03235
Y02885
T06
X00515Y0028
X00995
X01095Y0052
X0285Y00515
X0295Y00275
X0343
Y00755
X0295
X00995Y0076
X00515
Y0284
X00995
X01095Y0308
X00995Y0332
X00515
X02965Y03315
X02865Y03075
X02965Y02835
X03445
Y03315
M30
