G04*
G04 #@! TF.GenerationSoftware,Altium Limited,Altium Designer,18.0.7 (293)*
G04*
G04 Layer_Color=128*
%FSTAX24Y24*%
%MOIN*%
G70*
G01*
G75*
%ADD61C,0.0020*%
D61*
X04879Y01285D02*
X04911D01*
X04895Y01269D02*
Y01301D01*
X04879Y01185D02*
X04911D01*
X04895Y01169D02*
Y01201D01*
X05129Y0128D02*
X05161D01*
X05145Y01264D02*
Y01296D01*
X05129Y0118D02*
X05161D01*
X05145Y01164D02*
Y01196D01*
X057725Y0169D02*
X058075D01*
X0579Y016725D02*
Y017075D01*
X057725Y0134D02*
X058075D01*
X0579Y013225D02*
Y013575D01*
X053495Y01185D02*
X053805D01*
X05365Y011695D02*
Y012005D01*
X056995Y01185D02*
X057305D01*
X05715Y011695D02*
Y012005D01*
X03184Y0345D02*
X03216D01*
X032Y03434D02*
Y03466D01*
X03184Y0337D02*
X03216D01*
X032Y03354D02*
Y03386D01*
X068293Y016D02*
X068607D01*
X06845Y015843D02*
Y016157D01*
X068293Y014D02*
X068607D01*
X06845Y013843D02*
Y014157D01*
X05818Y02815D02*
X05852D01*
X05835Y02798D02*
Y02832D01*
X05818Y02715D02*
X05852D01*
X05835Y02698D02*
Y02732D01*
X05818Y02615D02*
X05852D01*
X05835Y02598D02*
Y02632D01*
X05818Y02515D02*
X05852D01*
X05835Y02498D02*
Y02532D01*
X051745Y02875D02*
X052085D01*
X051915Y02858D02*
Y02892D01*
X050745Y02875D02*
X051085D01*
X050915Y02858D02*
Y02892D01*
X049745Y02875D02*
X050085D01*
X049915Y02858D02*
Y02892D01*
X048745Y02875D02*
X049085D01*
X048915Y02858D02*
Y02892D01*
X05178Y0255D02*
X05212D01*
X05195Y02533D02*
Y02567D01*
X05078Y0255D02*
X05112D01*
X05095Y02533D02*
Y02567D01*
X04978Y0255D02*
X05012D01*
X04995Y02533D02*
Y02567D01*
X04878Y0255D02*
X04912D01*
X04895Y02533D02*
Y02567D01*
X04873Y02235D02*
X04907D01*
X0489Y02218D02*
Y02252D01*
X04973Y02235D02*
X05007D01*
X0499Y02218D02*
Y02252D01*
X05073Y02235D02*
X05107D01*
X0509Y02218D02*
Y02252D01*
X05173Y02235D02*
X05207D01*
X0519Y02218D02*
Y02252D01*
X032293Y04005D02*
X032607D01*
X03245Y039893D02*
Y040207D01*
X032293Y04205D02*
X032607D01*
X03245Y041893D02*
Y042207D01*
X032293Y01395D02*
X032607D01*
X03245Y013793D02*
Y014107D01*
X032293Y01595D02*
X032607D01*
X03245Y015793D02*
Y016107D01*
X068493Y0421D02*
X068807D01*
X06865Y041943D02*
Y042257D01*
X068493Y0401D02*
X068807D01*
X06865Y039943D02*
Y040257D01*
X046595Y0121D02*
X046905D01*
X04675Y011945D02*
Y012255D01*
X043095Y0121D02*
X043405D01*
X04325Y011945D02*
Y012255D01*
X040525Y0176D02*
X040975D01*
X04075Y017375D02*
Y017825D01*
X035725Y0128D02*
X036175D01*
X03595Y012575D02*
Y013025D01*
X041525Y0152D02*
X041975D01*
X04175Y014975D02*
Y015425D01*
X035725Y0176D02*
X036175D01*
X03595Y017375D02*
Y017825D01*
X040525Y0128D02*
X040975D01*
X04075Y012575D02*
Y013025D01*
X042745Y045D02*
X043055D01*
X0429Y044845D02*
Y045155D01*
X046245Y045D02*
X046555D01*
X0464Y044845D02*
Y045155D01*
X04784Y04495D02*
X04816D01*
X048Y04479D02*
Y04511D01*
X04884Y04495D02*
X04916D01*
X049Y04479D02*
Y04511D01*
X057745Y04505D02*
X058055D01*
X0579Y044895D02*
Y045205D01*
X054245Y04505D02*
X054555D01*
X0544Y044895D02*
Y045205D01*
X053945Y0388D02*
X054255D01*
X0541Y038645D02*
Y038955D01*
X053945Y0423D02*
X054255D01*
X0541Y042145D02*
Y042455D01*
X05279Y045D02*
X05311D01*
X05295Y04484D02*
Y04516D01*
X05179Y045D02*
X05211D01*
X05195Y04484D02*
Y04516D01*
X03289Y0219D02*
X03321D01*
X03305Y02174D02*
Y02206D01*
X03289Y0211D02*
X03321D01*
X03305Y02094D02*
Y02126D01*
X06879Y0235D02*
X06911D01*
X06895Y02334D02*
Y02366D01*
X06879Y0227D02*
X06911D01*
X06895Y02254D02*
Y02286D01*
X06699Y03395D02*
X06731D01*
X06715Y03379D02*
Y03411D01*
X06699Y03475D02*
X06731D01*
X06715Y03459D02*
Y03491D01*
X044295Y0138D02*
X044605D01*
X04445Y013645D02*
Y013955D01*
X045295Y0138D02*
X045605D01*
X04545Y013645D02*
Y013955D01*
X045295Y0168D02*
X045605D01*
X04545Y016645D02*
Y016955D01*
X044295Y0168D02*
X044605D01*
X04445Y016645D02*
Y016955D01*
X044295Y03925D02*
X044605D01*
X04445Y039095D02*
Y039405D01*
X045295Y03925D02*
X045605D01*
X04545Y039095D02*
Y039405D01*
X045295Y04225D02*
X045605D01*
X04545Y042095D02*
Y042405D01*
X044295Y04225D02*
X044605D01*
X04445Y042095D02*
Y042405D01*
X047895Y0337D02*
X048205D01*
X04805Y033545D02*
Y033855D01*
X047895Y0302D02*
X048205D01*
X04805Y030045D02*
Y030355D01*
X049562Y0337D02*
X049872D01*
X049717Y033545D02*
Y033855D01*
X049562Y0302D02*
X049872D01*
X049717Y030045D02*
Y030355D01*
X055445Y01375D02*
X055755D01*
X0556Y013595D02*
Y013905D01*
X056445Y01375D02*
X056755D01*
X0566Y013595D02*
Y013905D01*
X056445Y01675D02*
X056755D01*
X0566Y016595D02*
Y016905D01*
X055445Y01675D02*
X055755D01*
X0556Y016595D02*
Y016905D01*
X055595Y0391D02*
X055905D01*
X05575Y038945D02*
Y039255D01*
X056595Y0391D02*
X056905D01*
X05675Y038945D02*
Y039255D01*
X056595Y0421D02*
X056905D01*
X05675Y041945D02*
Y042255D01*
X055595Y0421D02*
X055905D01*
X05575Y041945D02*
Y042255D01*
X052895Y0337D02*
X053205D01*
X05305Y033545D02*
Y033855D01*
X052895Y0302D02*
X053205D01*
X05305Y030045D02*
Y030355D01*
X051228Y0337D02*
X051538D01*
X051383Y033545D02*
Y033855D01*
X051228Y0302D02*
X051538D01*
X051383Y030045D02*
Y030355D01*
X05823Y02915D02*
X05857D01*
X0584Y02898D02*
Y02932D01*
X05823Y03015D02*
X05857D01*
X0584Y02998D02*
Y03032D01*
X05823Y03115D02*
X05857D01*
X0584Y03098D02*
Y03132D01*
X05823Y03215D02*
X05857D01*
X0584Y03198D02*
Y03232D01*
X040525Y0384D02*
X040975D01*
X04075Y038175D02*
Y038625D01*
X035725Y0432D02*
X036175D01*
X03595Y042975D02*
Y043425D01*
X041525Y0408D02*
X041975D01*
X04175Y040575D02*
Y041025D01*
X035725Y0384D02*
X036175D01*
X03595Y038175D02*
Y038625D01*
X040525Y0432D02*
X040975D01*
X04075Y042975D02*
Y043425D01*
X042875Y017D02*
X043225D01*
X04305Y016825D02*
Y017175D01*
X042875Y0135D02*
X043225D01*
X04305Y013325D02*
Y013675D01*
X042875Y04245D02*
X043225D01*
X04305Y042275D02*
Y042625D01*
X042875Y03895D02*
X043225D01*
X04305Y038775D02*
Y039125D01*
X046795Y01695D02*
X047105D01*
X04695Y016795D02*
Y017105D01*
X046795Y01345D02*
X047105D01*
X04695Y013295D02*
Y013605D01*
X046795Y04235D02*
X047105D01*
X04695Y042195D02*
Y042505D01*
X046795Y03885D02*
X047105D01*
X04695Y038695D02*
Y039005D01*
X04849Y0146D02*
X04881D01*
X04865Y01444D02*
Y01476D01*
X04849Y0156D02*
X04881D01*
X04865Y01544D02*
Y01576D01*
X04849Y0166D02*
X04881D01*
X04865Y01644D02*
Y01676D01*
X04849Y0398D02*
X04881D01*
X04865Y03964D02*
Y03996D01*
X04849Y0408D02*
X04881D01*
X04865Y04064D02*
Y04096D01*
X04849Y0418D02*
X04881D01*
X04865Y04164D02*
Y04196D01*
X060075Y01755D02*
X060525D01*
X0603Y017325D02*
Y017775D01*
X064875Y01275D02*
X065325D01*
X0651Y012525D02*
Y012975D01*
X059075Y01515D02*
X059525D01*
X0593Y014925D02*
Y015375D01*
X064875Y01755D02*
X065325D01*
X0651Y017325D02*
Y017775D01*
X060075Y01275D02*
X060525D01*
X0603Y012525D02*
Y012975D01*
X060225Y04315D02*
X060675D01*
X06045Y042925D02*
Y043375D01*
X065025Y03835D02*
X065475D01*
X06525Y038125D02*
Y038575D01*
X059225Y04075D02*
X059675D01*
X05945Y040525D02*
Y040975D01*
X065025Y04315D02*
X065475D01*
X06525Y042925D02*
Y043375D01*
X060225Y03835D02*
X060675D01*
X06045Y038125D02*
Y038575D01*
X057925Y03885D02*
X058275D01*
X0581Y038675D02*
Y039025D01*
X057925Y04235D02*
X058275D01*
X0581Y042175D02*
Y042525D01*
X053795Y01685D02*
X054105D01*
X05395Y016695D02*
Y017005D01*
X053795Y01335D02*
X054105D01*
X05395Y013195D02*
Y013505D01*
X05169Y0145D02*
X05201D01*
X05185Y01434D02*
Y01466D01*
X05169Y0155D02*
X05201D01*
X05185Y01534D02*
Y01566D01*
X05169Y0165D02*
X05201D01*
X05185Y01634D02*
Y01666D01*
X05184Y0397D02*
X05216D01*
X052Y03954D02*
Y03986D01*
X05184Y0407D02*
X05216D01*
X052Y04054D02*
Y04086D01*
X05184Y0417D02*
X05216D01*
X052Y04154D02*
Y04186D01*
X033943Y03775D02*
X034257D01*
X0341Y037593D02*
Y037907D01*
X054943Y02045D02*
X055257D01*
X0551Y020293D02*
Y020607D01*
X050543Y02045D02*
X050857D01*
X0507Y020293D02*
Y020607D01*
X032293Y0124D02*
X032607D01*
X03245Y012243D02*
Y012557D01*
X068643Y03215D02*
X068957D01*
X0688Y031993D02*
Y032307D01*
X037843Y02345D02*
X038157D01*
X038Y023293D02*
Y023607D01*
X037843Y02125D02*
X038157D01*
X038Y021093D02*
Y021407D01*
X044043Y02565D02*
X044357D01*
X0442Y025493D02*
Y025807D01*
X067193Y03865D02*
X067507D01*
X06735Y038493D02*
Y038807D01*
X068993Y03865D02*
X069307D01*
X06915Y038493D02*
Y038807D01*
X062993Y0212D02*
X063307D01*
X06315Y021043D02*
Y021357D01*
X038443Y0116D02*
X038757D01*
X0386Y011443D02*
Y011757D01*
X053743Y02405D02*
X054057D01*
X0539Y023893D02*
Y024207D01*
X053843Y02305D02*
X054157D01*
X054Y022893D02*
Y023207D01*
X035093Y03665D02*
X035407D01*
X03525Y036493D02*
Y036807D01*
X035193Y034D02*
X035507D01*
X03535Y033843D02*
Y034157D01*
X040343Y0242D02*
X040657D01*
X0405Y024043D02*
Y024357D01*
X057793Y017743D02*
X058107D01*
X05795Y017585D02*
Y0179D01*
X069043Y0177D02*
X069357D01*
X0692Y017543D02*
Y017857D01*
X066593Y0176D02*
X066907D01*
X06675Y017443D02*
Y017757D01*
X035093Y0191D02*
X035407D01*
X03525Y018943D02*
Y019257D01*
X034043Y0176D02*
X034357D01*
X0342Y017443D02*
Y017757D01*
M02*
