G04*
G04 #@! TF.GenerationSoftware,Altium Limited,Altium Designer,18.0.7 (293)*
G04*
G04 Layer_Color=255*
%FSLAX25Y25*%
%MOIN*%
G70*
G01*
G75*
%ADD43O,0.10000X0.06500*%
%ADD44R,0.10000X0.06500*%
%ADD45R,0.08000X0.08000*%
%ADD46C,0.08000*%
%ADD47C,0.07000*%
%ADD48P,0.05196X8X292.5*%
%ADD49C,0.06299*%
%ADD50R,0.06299X0.06299*%
%ADD51R,0.09000X0.07500*%
%ADD52O,0.09000X0.07500*%
%ADD53R,0.07500X0.09000*%
%ADD54O,0.07500X0.09000*%
%ADD55C,0.12000*%
%ADD56R,0.06500X0.10000*%
%ADD57O,0.06500X0.10000*%
%ADD58R,0.06000X0.09000*%
%ADD59O,0.06000X0.09000*%
%ADD60O,0.10000X0.06600*%
D43*
X181500Y28500D02*
D03*
X206500Y28000D02*
D03*
D44*
X181500Y18500D02*
D03*
X206500Y18000D02*
D03*
D45*
X271000Y69000D02*
D03*
X122500Y35000D02*
D03*
Y289500D02*
D03*
X273000Y323500D02*
D03*
D46*
X271000Y34000D02*
D03*
X122500Y70000D02*
D03*
Y324500D02*
D03*
X273000Y288500D02*
D03*
D47*
X228500Y18500D02*
D03*
X263500D02*
D03*
X159500Y21000D02*
D03*
X124500D02*
D03*
X121000Y350000D02*
D03*
X156000D02*
D03*
X271000Y350500D02*
D03*
X236000D02*
D03*
X233000Y288000D02*
D03*
Y323000D02*
D03*
X172500Y237000D02*
D03*
Y202000D02*
D03*
X189167Y237000D02*
D03*
Y202000D02*
D03*
X222500Y237000D02*
D03*
Y202000D02*
D03*
X205833Y237000D02*
D03*
Y202000D02*
D03*
X161500Y69500D02*
D03*
Y34500D02*
D03*
Y323500D02*
D03*
Y288500D02*
D03*
X231500Y68500D02*
D03*
Y33500D02*
D03*
D48*
X12000Y245000D02*
D03*
Y237000D02*
D03*
X22500Y119000D02*
D03*
Y111000D02*
D03*
X381500Y135000D02*
D03*
Y127000D02*
D03*
X363500Y239500D02*
D03*
Y247500D02*
D03*
D49*
X376500Y60000D02*
D03*
X16500Y300500D02*
D03*
Y39500D02*
D03*
X378500Y321000D02*
D03*
D50*
X376500Y40000D02*
D03*
X16500Y320500D02*
D03*
Y59500D02*
D03*
X378500Y301000D02*
D03*
D51*
X275500Y181500D02*
D03*
X276000Y221500D02*
D03*
D52*
X275500Y171500D02*
D03*
Y161500D02*
D03*
Y151500D02*
D03*
X276000Y191500D02*
D03*
Y201500D02*
D03*
Y211500D02*
D03*
D53*
X211150Y187500D02*
D03*
X211500Y155000D02*
D03*
X181000Y123500D02*
D03*
D54*
X201150Y187500D02*
D03*
X191150D02*
D03*
X181150D02*
D03*
X201500Y155000D02*
D03*
X191500D02*
D03*
X181500D02*
D03*
X191000Y123500D02*
D03*
X201000D02*
D03*
X211000D02*
D03*
D55*
X99500Y76000D02*
D03*
X51500Y28000D02*
D03*
X109500Y52000D02*
D03*
X51500Y76000D02*
D03*
X99500Y28000D02*
D03*
Y284000D02*
D03*
X51500Y332000D02*
D03*
X109500Y308000D02*
D03*
X51500Y284000D02*
D03*
X99500Y332000D02*
D03*
X295000Y75500D02*
D03*
X343000Y27500D02*
D03*
X285000Y51500D02*
D03*
X343000Y75500D02*
D03*
X295000Y27500D02*
D03*
X296500Y331500D02*
D03*
X344500Y283500D02*
D03*
X286500Y307500D02*
D03*
X344500Y331500D02*
D03*
X296500Y283500D02*
D03*
D56*
X172000Y349500D02*
D03*
X221500Y350000D02*
D03*
D57*
X182000Y349500D02*
D03*
X211500Y350000D02*
D03*
D58*
X136500Y38000D02*
D03*
Y292500D02*
D03*
X248000Y37500D02*
D03*
X249500Y291000D02*
D03*
D59*
X146500Y38000D02*
D03*
Y68000D02*
D03*
X136500D02*
D03*
X146500Y292500D02*
D03*
Y322500D02*
D03*
X136500D02*
D03*
X258000Y37500D02*
D03*
Y67500D02*
D03*
X248000D02*
D03*
X259500Y291000D02*
D03*
Y321000D02*
D03*
X249500D02*
D03*
D60*
X178500Y46000D02*
D03*
Y56000D02*
D03*
Y66000D02*
D03*
Y298000D02*
D03*
Y308000D02*
D03*
Y318000D02*
D03*
X210500Y45000D02*
D03*
Y55000D02*
D03*
Y65000D02*
D03*
X212000Y297000D02*
D03*
Y307000D02*
D03*
Y317000D02*
D03*
M02*
