G04*
G04 #@! TF.GenerationSoftware,Altium Limited,Altium Designer,18.0.7 (293)*
G04*
G04 Layer_Color=65535*
%FSLAX25Y25*%
%MOIN*%
G70*
G01*
G75*
%ADD10C,0.00701*%
%ADD11C,0.00600*%
%ADD12C,0.00787*%
%ADD13C,0.00700*%
%ADD14C,0.01500*%
%ADD15C,0.00800*%
%ADD16C,0.01000*%
%ADD17R,0.10000X0.02000*%
G36*
X177450Y108550D02*
X184550D01*
X181050Y112050D01*
Y112150D01*
X177450Y108550D01*
D02*
G37*
G36*
X215050Y169950D02*
X207950D01*
X211450Y166450D01*
Y166350D01*
X215050Y169950D01*
D02*
G37*
G36*
X214700Y202450D02*
X207600D01*
X211100Y198950D01*
Y198850D01*
X214700Y202450D01*
D02*
G37*
G36*
X260550Y185050D02*
Y177950D01*
X264050Y181450D01*
X264150D01*
X260550Y185050D01*
D02*
G37*
G36*
X261050Y225050D02*
Y217950D01*
X264550Y221450D01*
X264650D01*
X261050Y225050D01*
D02*
G37*
D10*
X177481Y30272D02*
X176652Y29711D01*
X175900Y29050D01*
X175238Y28298D01*
X174676Y27468D01*
X174225Y26575D01*
X173890Y25630D01*
X173679Y24652D01*
X173593Y23654D01*
X173635Y22653D01*
X173803Y21666D01*
X174095Y20708D01*
X174507Y19795D01*
X175031Y18941D01*
X175659Y18161D01*
X176381Y17467D01*
X177185Y16870D01*
X178059Y16380D01*
X178988Y16006D01*
X179956Y15752D01*
X180950Y15622D01*
X181951Y15621D01*
X182945Y15746D01*
X183914Y15996D01*
X184845Y16368D01*
X185720Y16854D01*
X186527Y17448D01*
X187251Y18139D01*
X187882Y18917D01*
X188410Y19769D01*
X188825Y20680D01*
X189120Y21637D01*
X189293Y22624D01*
X189338Y23624D01*
X189256Y24622D01*
X189048Y25602D01*
X188717Y26547D01*
X188269Y27443D01*
X187711Y28275D01*
X187052Y29029D01*
X186302Y29693D01*
X185474Y30257D01*
X202481Y29772D02*
X201652Y29211D01*
X200900Y28550D01*
X200237Y27798D01*
X199676Y26969D01*
X199225Y26074D01*
X198890Y25130D01*
X198679Y24151D01*
X198593Y23154D01*
X198635Y22153D01*
X198803Y21166D01*
X199095Y20208D01*
X199507Y19295D01*
X200031Y18441D01*
X200659Y17661D01*
X201381Y16967D01*
X202185Y16370D01*
X203059Y15880D01*
X203988Y15506D01*
X204956Y15251D01*
X205950Y15123D01*
X206951Y15121D01*
X207945Y15246D01*
X208914Y15496D01*
X209845Y15868D01*
X210720Y16354D01*
X211527Y16948D01*
X212251Y17639D01*
X212882Y18417D01*
X213410Y19268D01*
X213825Y20180D01*
X214121Y21137D01*
X214293Y22124D01*
X214338Y23124D01*
X214256Y24122D01*
X214048Y25102D01*
X213717Y26047D01*
X213269Y26943D01*
X212711Y27775D01*
X212052Y28529D01*
X211302Y29193D01*
X210474Y29757D01*
X183772Y353519D02*
X183211Y354348D01*
X182550Y355100D01*
X181798Y355763D01*
X180968Y356324D01*
X180075Y356775D01*
X179130Y357109D01*
X178152Y357321D01*
X177154Y357407D01*
X176153Y357365D01*
X175166Y357197D01*
X174208Y356905D01*
X173295Y356493D01*
X172441Y355969D01*
X171661Y355341D01*
X170967Y354619D01*
X170370Y353815D01*
X169880Y352941D01*
X169506Y352012D01*
X169252Y351044D01*
X169123Y350050D01*
X169121Y349049D01*
X169246Y348055D01*
X169496Y347085D01*
X169868Y346155D01*
X170354Y345280D01*
X170948Y344473D01*
X171639Y343749D01*
X172417Y343118D01*
X173268Y342590D01*
X174180Y342175D01*
X175137Y341880D01*
X176123Y341707D01*
X177124Y341662D01*
X178122Y341744D01*
X179102Y341952D01*
X180047Y342283D01*
X180943Y342731D01*
X181775Y343289D01*
X182529Y343948D01*
X183193Y344698D01*
X183757Y345526D01*
X209728Y345981D02*
X210289Y345151D01*
X210950Y344399D01*
X211702Y343738D01*
X212531Y343176D01*
X213425Y342725D01*
X214370Y342390D01*
X215349Y342179D01*
X216346Y342093D01*
X217347Y342135D01*
X218334Y342303D01*
X219292Y342595D01*
X220205Y343007D01*
X221059Y343531D01*
X221839Y344159D01*
X222533Y344881D01*
X223130Y345685D01*
X223620Y346559D01*
X223994Y347488D01*
X224249Y348456D01*
X224377Y349450D01*
X224379Y350451D01*
X224254Y351445D01*
X224004Y352415D01*
X223632Y353345D01*
X223146Y354220D01*
X222552Y355027D01*
X221861Y355751D01*
X221083Y356382D01*
X220232Y356910D01*
X219320Y357325D01*
X218363Y357621D01*
X217376Y357792D01*
X216376Y357838D01*
X215378Y357756D01*
X214398Y357548D01*
X213453Y357217D01*
X212557Y356769D01*
X211725Y356211D01*
X210971Y355552D01*
X210307Y354802D01*
X209743Y353974D01*
D11*
X16500Y246500D02*
X16232Y247500D01*
X15500Y248232D01*
X14500Y248500D01*
X9500D02*
X8500Y248232D01*
X7768Y247500D01*
X7500Y246500D01*
Y235500D02*
X7768Y234500D01*
X8500Y233768D01*
X9500Y233500D01*
X14500D02*
X15500Y233768D01*
X16232Y234500D01*
X16500Y235500D01*
X20000Y122500D02*
X19000Y122232D01*
X18268Y121500D01*
X18000Y120500D01*
X27000D02*
X26732Y121500D01*
X26000Y122232D01*
X25000Y122500D01*
Y107500D02*
X26000Y107768D01*
X26732Y108500D01*
X27000Y109500D01*
X18000D02*
X18268Y108500D01*
X19000Y107768D01*
X20000Y107500D01*
X379000Y138500D02*
X378000Y138232D01*
X377268Y137500D01*
X377000Y136500D01*
X386000D02*
X385732Y137500D01*
X385000Y138232D01*
X384000Y138500D01*
Y123500D02*
X385000Y123768D01*
X385732Y124500D01*
X386000Y125500D01*
X377000D02*
X377268Y124500D01*
X378000Y123768D01*
X379000Y123500D01*
X366000Y236000D02*
X367000Y236268D01*
X367732Y237000D01*
X368000Y238000D01*
X359000D02*
X359268Y237000D01*
X360000Y236268D01*
X361000Y236000D01*
Y251000D02*
X360000Y250732D01*
X359268Y250000D01*
X359000Y249000D01*
X368000D02*
X367732Y250000D01*
X367000Y250732D01*
X366000Y251000D01*
X9500Y248500D02*
X14500D01*
X9500Y233500D02*
X14500D01*
X7500Y235500D02*
Y246500D01*
X16500Y235500D02*
Y246500D01*
X18000Y109500D02*
Y120500D01*
X27000Y109500D02*
Y120500D01*
X20000Y122500D02*
X25000D01*
X20000Y107500D02*
X25000D01*
X377000Y125500D02*
Y136500D01*
X386000Y125500D02*
Y136500D01*
X379000Y138500D02*
X384000D01*
X379000Y123500D02*
X384000D01*
X368000Y238000D02*
Y249000D01*
X359000Y238000D02*
Y249000D01*
X361000Y236000D02*
X366000D01*
X361000Y251000D02*
X366000D01*
D12*
X366500Y102274D02*
X367384Y102640D01*
X367750Y103524D01*
X367384Y104408D01*
X366500Y104774D01*
X8000Y86274D02*
X8884Y86640D01*
X9250Y87524D01*
X8884Y88407D01*
X8000Y88774D01*
X26500Y270274D02*
X25616Y269907D01*
X25250Y269024D01*
X25616Y268140D01*
X26500Y267774D01*
X383000Y269774D02*
X382116Y269408D01*
X381750Y268524D01*
X382116Y267640D01*
X383000Y267274D01*
X366500Y99232D02*
Y102274D01*
Y104774D02*
Y107815D01*
X386500D01*
Y99232D02*
Y107815D01*
X366500Y99232D02*
X386500D01*
X8000Y83232D02*
X28000D01*
Y91815D01*
X8000D02*
X28000D01*
X8000Y88774D02*
Y91815D01*
Y83232D02*
Y86274D01*
X6500Y273315D02*
X26500D01*
X6500Y264732D02*
Y273315D01*
Y264732D02*
X26500D01*
Y267774D01*
Y270274D02*
Y273315D01*
X363000Y272815D02*
X383000D01*
X363000Y264232D02*
Y272815D01*
Y264232D02*
X383000D01*
Y267274D01*
Y269774D02*
Y272815D01*
D13*
X96600Y57900D02*
X95937Y57164D01*
X95367Y56354D01*
X94899Y55481D01*
X94540Y54558D01*
X94295Y53598D01*
X94167Y52616D01*
X94158Y51625D01*
X94269Y50641D01*
X94498Y49677D01*
X94841Y48748D01*
X95294Y47867D01*
X95850Y47047D01*
X96500Y46300D01*
X78861Y52000D02*
X78578Y52963D01*
X77820Y53620D01*
X76827Y53762D01*
X75915Y53346D01*
X75372Y52502D01*
Y51498D01*
X75915Y50654D01*
X76827Y50238D01*
X77820Y50380D01*
X78578Y51037D01*
X78861Y52000D01*
X57761Y45400D02*
X57478Y46363D01*
X56720Y47019D01*
X55727Y47162D01*
X54814Y46746D01*
X54272Y45902D01*
Y44898D01*
X54814Y44054D01*
X55727Y43638D01*
X56720Y43780D01*
X57478Y44437D01*
X57761Y45400D01*
X57861Y60500D02*
X57578Y61463D01*
X56820Y62120D01*
X55827Y62262D01*
X54914Y61846D01*
X54372Y61002D01*
Y59998D01*
X54914Y59154D01*
X55827Y58738D01*
X56820Y58880D01*
X57578Y59537D01*
X57861Y60500D01*
X131462Y48005D02*
X132459Y48071D01*
X133423Y48333D01*
X134315Y48783D01*
X135100Y49400D01*
X135747Y50161D01*
X136229Y51036D01*
X136528Y51989D01*
X136632Y52983D01*
X136535Y53977D01*
X136244Y54932D01*
X135768Y55811D01*
X135127Y56577D01*
X134347Y57200D01*
X133458Y57656D01*
X132496Y57926D01*
X131500Y58000D01*
X131462Y302505D02*
X132459Y302571D01*
X133423Y302834D01*
X134315Y303283D01*
X135100Y303900D01*
X135747Y304661D01*
X136229Y305536D01*
X136528Y306489D01*
X136632Y307483D01*
X136535Y308477D01*
X136244Y309432D01*
X135768Y310311D01*
X135127Y311077D01*
X134347Y311700D01*
X133458Y312156D01*
X132496Y312426D01*
X131500Y312500D01*
X242962Y47505D02*
X243959Y47571D01*
X244922Y47833D01*
X245815Y48283D01*
X246600Y48900D01*
X247247Y49661D01*
X247729Y50536D01*
X248028Y51489D01*
X248131Y52483D01*
X248035Y53477D01*
X247744Y54432D01*
X247268Y55311D01*
X246627Y56077D01*
X245847Y56700D01*
X244958Y57156D01*
X243996Y57426D01*
X243000Y57500D01*
X244462Y301005D02*
X245459Y301071D01*
X246423Y301333D01*
X247315Y301783D01*
X248100Y302400D01*
X248746Y303162D01*
X249229Y304036D01*
X249528Y304989D01*
X249632Y305983D01*
X249535Y306977D01*
X249244Y307932D01*
X248768Y308811D01*
X248127Y309577D01*
X247347Y310200D01*
X246458Y310656D01*
X245496Y310926D01*
X244500Y311000D01*
X57861Y316500D02*
X57578Y317463D01*
X56820Y318120D01*
X55827Y318262D01*
X54914Y317846D01*
X54372Y317002D01*
Y315998D01*
X54914Y315154D01*
X55827Y314738D01*
X56820Y314880D01*
X57578Y315537D01*
X57861Y316500D01*
X57761Y301400D02*
X57478Y302363D01*
X56720Y303019D01*
X55727Y303162D01*
X54814Y302746D01*
X54272Y301902D01*
Y300898D01*
X54814Y300054D01*
X55727Y299638D01*
X56720Y299781D01*
X57478Y300437D01*
X57761Y301400D01*
X78861Y308000D02*
X78578Y308963D01*
X77820Y309619D01*
X76827Y309762D01*
X75915Y309346D01*
X75372Y308502D01*
Y307498D01*
X75915Y306654D01*
X76827Y306238D01*
X77820Y306381D01*
X78578Y307037D01*
X78861Y308000D01*
X96600Y313900D02*
X95937Y313164D01*
X95367Y312354D01*
X94899Y311481D01*
X94540Y310558D01*
X94295Y309598D01*
X94167Y308616D01*
X94158Y307625D01*
X94269Y306641D01*
X94498Y305677D01*
X94841Y304748D01*
X95294Y303867D01*
X95850Y303047D01*
X96500Y302300D01*
X182497Y44006D02*
X183387Y44439D01*
X184242Y44939D01*
X185055Y45502D01*
X185824Y46125D01*
X186543Y46805D01*
X187208Y47538D01*
X187816Y48319D01*
X188362Y49144D01*
X188844Y50009D01*
X189259Y50907D01*
X189604Y51835D01*
X189878Y52786D01*
X190079Y53755D01*
X190205Y54737D01*
X190256Y55725D01*
X190232Y56714D01*
X190133Y57699D01*
X189959Y58674D01*
X189711Y59632D01*
X189392Y60568D01*
X189002Y61478D01*
X188543Y62355D01*
X188020Y63195D01*
X187434Y63993D01*
X186789Y64743D01*
X186089Y65443D01*
X185337Y66087D01*
X184539Y66672D01*
X183699Y67195D01*
X182821Y67652D01*
X182497Y296006D02*
X183387Y296439D01*
X184242Y296939D01*
X185055Y297502D01*
X185824Y298125D01*
X186543Y298805D01*
X187208Y299538D01*
X187816Y300319D01*
X188362Y301144D01*
X188844Y302009D01*
X189259Y302907D01*
X189604Y303835D01*
X189878Y304786D01*
X190079Y305755D01*
X190205Y306737D01*
X190256Y307725D01*
X190232Y308715D01*
X190133Y309699D01*
X189959Y310673D01*
X189711Y311632D01*
X189392Y312568D01*
X189002Y313478D01*
X188543Y314355D01*
X188020Y315195D01*
X187434Y315993D01*
X186789Y316743D01*
X186089Y317443D01*
X185337Y318087D01*
X184539Y318672D01*
X183699Y319195D01*
X182821Y319652D01*
X340200Y43000D02*
X339917Y43963D01*
X339159Y44620D01*
X338166Y44762D01*
X337254Y44346D01*
X336711Y43502D01*
Y42498D01*
X337254Y41654D01*
X338166Y41238D01*
X339159Y41381D01*
X339917Y42037D01*
X340200Y43000D01*
X340300Y58100D02*
X340017Y59063D01*
X339259Y59720D01*
X338266Y59862D01*
X337354Y59446D01*
X336811Y58602D01*
Y57598D01*
X337354Y56754D01*
X338266Y56338D01*
X339259Y56480D01*
X340017Y57137D01*
X340300Y58100D01*
X319200Y51500D02*
X318917Y52463D01*
X318159Y53120D01*
X317166Y53262D01*
X316254Y52846D01*
X315711Y52002D01*
Y50998D01*
X316254Y50154D01*
X317166Y49738D01*
X318159Y49880D01*
X318917Y50537D01*
X319200Y51500D01*
X297900Y45600D02*
X298563Y46336D01*
X299133Y47146D01*
X299601Y48019D01*
X299960Y48942D01*
X300205Y49902D01*
X300333Y50884D01*
X300342Y51875D01*
X300231Y52859D01*
X300002Y53823D01*
X299659Y54752D01*
X299206Y55633D01*
X298650Y56453D01*
X298000Y57200D01*
X341700Y299000D02*
X341417Y299963D01*
X340659Y300620D01*
X339666Y300762D01*
X338754Y300346D01*
X338211Y299502D01*
Y298498D01*
X338754Y297654D01*
X339666Y297238D01*
X340659Y297380D01*
X341417Y298037D01*
X341700Y299000D01*
X341800Y314100D02*
X341517Y315063D01*
X340759Y315720D01*
X339766Y315862D01*
X338854Y315446D01*
X338311Y314602D01*
Y313598D01*
X338854Y312754D01*
X339766Y312338D01*
X340759Y312480D01*
X341517Y313137D01*
X341800Y314100D01*
X320700Y307500D02*
X320417Y308463D01*
X319659Y309120D01*
X318666Y309262D01*
X317754Y308846D01*
X317211Y308002D01*
Y306998D01*
X317754Y306154D01*
X318666Y305738D01*
X319659Y305880D01*
X320417Y306537D01*
X320700Y307500D01*
X299400Y301600D02*
X300063Y302336D01*
X300633Y303146D01*
X301101Y304019D01*
X301460Y304942D01*
X301705Y305902D01*
X301833Y306884D01*
X301842Y307875D01*
X301731Y308859D01*
X301502Y309823D01*
X301159Y310752D01*
X300706Y311633D01*
X300150Y312453D01*
X299500Y313200D01*
X214497Y43006D02*
X215387Y43439D01*
X216242Y43939D01*
X217056Y44502D01*
X217824Y45125D01*
X218543Y45805D01*
X219209Y46538D01*
X219816Y47319D01*
X220362Y48144D01*
X220844Y49009D01*
X221259Y49907D01*
X221604Y50835D01*
X221878Y51786D01*
X222079Y52755D01*
X222205Y53737D01*
X222256Y54725D01*
X222232Y55714D01*
X222133Y56699D01*
X221959Y57674D01*
X221711Y58632D01*
X221392Y59568D01*
X221002Y60478D01*
X220543Y61355D01*
X220020Y62195D01*
X219434Y62993D01*
X218789Y63743D01*
X218089Y64443D01*
X217337Y65087D01*
X216539Y65672D01*
X215699Y66195D01*
X214821Y66652D01*
X215997Y295006D02*
X216887Y295439D01*
X217742Y295939D01*
X218555Y296502D01*
X219324Y297125D01*
X220043Y297805D01*
X220708Y298538D01*
X221316Y299319D01*
X221862Y300144D01*
X222344Y301009D01*
X222759Y301907D01*
X223105Y302835D01*
X223378Y303786D01*
X223579Y304755D01*
X223705Y305737D01*
X223756Y306725D01*
X223732Y307715D01*
X223633Y308699D01*
X223459Y309674D01*
X223211Y310632D01*
X222892Y311568D01*
X222501Y312478D01*
X222043Y313355D01*
X221520Y314195D01*
X220934Y314993D01*
X220289Y315743D01*
X219589Y316443D01*
X218837Y317087D01*
X218039Y317672D01*
X217199Y318195D01*
X216321Y318652D01*
X178300Y24800D02*
X184900D01*
X181500D02*
X184400Y21900D01*
X178600D02*
X181500Y24800D01*
X177516Y30292D02*
X185435D01*
X175100Y24800D02*
X176800Y23100D01*
X175400Y26400D02*
X177100Y24700D01*
X203300Y24300D02*
X209900D01*
X206500D02*
X209400Y21400D01*
X203600D02*
X206500Y24300D01*
X202516Y29792D02*
X210435D01*
X200100Y24300D02*
X201800Y22600D01*
X200400Y25900D02*
X202100Y24200D01*
X269400Y61500D02*
X271000D01*
X273100D01*
X266000Y57400D02*
X275700D01*
X271000Y61500D02*
Y64500D01*
Y38500D02*
Y41500D01*
X266000Y61500D02*
X271000D01*
X266000Y41500D02*
Y61500D01*
Y41500D02*
X276000D01*
Y61500D01*
X271000D02*
X276000D01*
X255200Y14700D02*
Y22300D01*
X236700Y14700D02*
Y22300D01*
X255200D01*
X233300Y18500D02*
X236700D01*
Y14700D02*
X255200D01*
Y18500D02*
X258700D01*
X265700Y151500D02*
X268700D01*
Y156500D01*
X265700D02*
X268700D01*
X265500Y176300D02*
X268500D01*
Y181300D01*
X265500D02*
X268500D01*
X289500Y141500D02*
Y191500D01*
X265500Y141500D02*
X275500D01*
X265500D02*
Y191500D01*
X289500D01*
X275500Y141500D02*
X289500D01*
X181150Y194300D02*
Y197300D01*
Y194300D02*
X186150D01*
Y197300D01*
X205950Y194500D02*
Y197500D01*
Y194500D02*
X210950D01*
Y197500D01*
X171150Y173500D02*
X221150D01*
X171150Y187500D02*
Y197500D01*
X221150D01*
Y173500D02*
Y197500D01*
X171150Y173500D02*
Y187500D01*
X181500Y161800D02*
Y164800D01*
Y161800D02*
X186500D01*
Y164800D01*
X206300Y162000D02*
Y165000D01*
Y162000D02*
X211300D01*
Y165000D01*
X171500Y141000D02*
X221500D01*
X171500Y155000D02*
Y165000D01*
X221500D01*
Y141000D02*
Y165000D01*
X171500Y141000D02*
Y155000D01*
X211000Y113700D02*
Y116700D01*
X206000D02*
X211000D01*
X206000Y113700D02*
Y116700D01*
X186200Y113500D02*
Y116500D01*
X181200D02*
X186200D01*
X181200Y113500D02*
Y116500D01*
X171000Y137500D02*
X221000D01*
Y113500D02*
Y123500D01*
X171000Y113500D02*
X221000D01*
X171000D02*
Y137500D01*
X221000Y123500D02*
Y137500D01*
X132800Y17200D02*
Y24800D01*
X151300Y17200D02*
Y24800D01*
X132800Y17200D02*
X151300D01*
Y21000D02*
X154700D01*
X132800Y24800D02*
X151300D01*
X129300Y21000D02*
X132800D01*
X96600Y34800D02*
Y46200D01*
X96700Y58000D02*
Y69300D01*
X56900Y48100D02*
X60800Y52000D01*
X75100D01*
X51600Y63200D02*
X54300Y60500D01*
X51600Y63200D02*
Y69800D01*
Y42200D02*
X54200Y44800D01*
X51600Y34600D02*
Y42200D01*
X39500Y20500D02*
X113500D01*
X39500Y83500D02*
X113500D01*
Y20500D02*
Y83500D01*
X39500Y20500D02*
Y83500D01*
X79100Y52100D02*
X102400D01*
X125800Y350000D02*
X129300D01*
Y353800D02*
X147800D01*
Y350000D02*
X151200D01*
X129300Y346200D02*
X147800D01*
Y353800D01*
X129300Y346200D02*
Y353800D01*
X178200Y353900D02*
X179900Y355600D01*
X176600Y354200D02*
X178300Y355900D01*
X183792Y345565D02*
Y353484D01*
X175400Y352400D02*
X178300Y349500D01*
X175400Y346600D02*
X178300Y349500D01*
Y346100D02*
Y352700D01*
X262700Y350500D02*
X266200D01*
X244200Y346700D02*
X262700D01*
X240800Y350500D02*
X244200D01*
Y354300D02*
X262700D01*
X244200Y346700D02*
Y354300D01*
X262700Y346700D02*
Y354300D01*
X229200Y314700D02*
X236800D01*
X229200Y296200D02*
X236800D01*
X229200D02*
Y314700D01*
X233000Y292800D02*
Y296200D01*
X236800D02*
Y314700D01*
X233000D02*
Y318200D01*
X213600Y343900D02*
X215300Y345600D01*
X215200Y343600D02*
X216900Y345300D01*
X209708Y346016D02*
Y353935D01*
X215200Y350000D02*
X218100Y347100D01*
X215200Y350000D02*
X218100Y352900D01*
X215200Y346800D02*
Y353400D01*
X131500Y73000D02*
X151500D01*
Y33000D02*
Y73000D01*
X131500Y33000D02*
X151500D01*
X131500Y58100D02*
Y73000D01*
Y33000D02*
Y48000D01*
Y327500D02*
X151500D01*
Y287500D02*
Y327500D01*
X131500Y287500D02*
X151500D01*
X131500Y312600D02*
Y327500D01*
Y287500D02*
Y302500D01*
X172500Y228700D02*
Y232200D01*
X176300Y210200D02*
Y228700D01*
X172500Y206800D02*
Y210200D01*
X168700D02*
Y228700D01*
Y210200D02*
X176300D01*
X168700Y228700D02*
X176300D01*
X189167D02*
Y232200D01*
X192967Y210200D02*
Y228700D01*
X189167Y206800D02*
Y210200D01*
X185367D02*
Y228700D01*
Y210200D02*
X192967D01*
X185367Y228700D02*
X192967D01*
X243000Y72500D02*
X263000D01*
Y32500D02*
Y72500D01*
X243000Y32500D02*
X263000D01*
X243000Y57600D02*
Y72500D01*
Y32500D02*
Y47500D01*
X244500Y326000D02*
X264500D01*
Y286000D02*
Y326000D01*
X244500Y286000D02*
X264500D01*
X244500Y311100D02*
Y326000D01*
Y286000D02*
Y301000D01*
X222500Y228700D02*
Y232200D01*
X226300Y210200D02*
Y228700D01*
X222500Y206800D02*
Y210200D01*
X218700D02*
Y228700D01*
Y210200D02*
X226300D01*
X218700Y228700D02*
X226300D01*
X205833D02*
Y232200D01*
X209633Y210200D02*
Y228700D01*
X205833Y206800D02*
Y210200D01*
X202033D02*
Y228700D01*
Y210200D02*
X209633D01*
X202033Y228700D02*
X209633D01*
X276000Y181500D02*
X290000D01*
X266000Y231500D02*
X290000D01*
X266000Y181500D02*
Y231500D01*
Y181500D02*
X276000D01*
X290000D02*
Y231500D01*
X266000Y221300D02*
X269000D01*
Y216300D02*
Y221300D01*
X266000Y216300D02*
X269000D01*
X266200Y196500D02*
X269200D01*
Y191500D02*
Y196500D01*
X266200Y191500D02*
X269200D01*
X79100Y308100D02*
X102400D01*
X39500Y276500D02*
Y339500D01*
X113500Y276500D02*
Y339500D01*
X39500D02*
X113500D01*
X39500Y276500D02*
X113500D01*
X51600Y290600D02*
Y298200D01*
X54200Y300800D01*
X51600Y319200D02*
Y325800D01*
Y319200D02*
X54300Y316500D01*
X60800Y308000D02*
X75100D01*
X56900Y304100D02*
X60800Y308000D01*
X96700Y314000D02*
Y325300D01*
X96600Y290800D02*
Y302200D01*
X117500Y42500D02*
X122500D01*
X117500D02*
Y62500D01*
X127500D01*
Y42500D02*
Y62500D01*
X122500Y42500D02*
X127500D01*
X122500Y62500D02*
Y65500D01*
Y39500D02*
Y42500D01*
X117800Y46600D02*
X127500D01*
X120400Y42500D02*
X122500D01*
X124100D01*
X117500Y297000D02*
X122500D01*
X117500D02*
Y317000D01*
X127500D01*
Y297000D02*
Y317000D01*
X122500Y297000D02*
X127500D01*
X122500Y317000D02*
Y320000D01*
Y294000D02*
Y297000D01*
X117800Y301100D02*
X127500D01*
X120400Y297000D02*
X122500D01*
X124100D01*
X161500Y61200D02*
Y64700D01*
X165300Y42700D02*
Y61200D01*
X161500Y39300D02*
Y42700D01*
X157700D02*
Y61200D01*
Y42700D02*
X165300D01*
X157700Y61200D02*
X165300D01*
X161500Y315200D02*
Y318700D01*
X165300Y296700D02*
Y315200D01*
X161500Y293300D02*
Y296700D01*
X157700D02*
Y315200D01*
Y296700D02*
X165300D01*
X157700Y315200D02*
X165300D01*
X172000Y45500D02*
Y65800D01*
Y45500D02*
X174600Y44200D01*
X172000Y65800D02*
X174476Y67534D01*
X172000Y297500D02*
Y317800D01*
Y297500D02*
X174600Y296200D01*
X172000Y317800D02*
X174476Y319534D01*
X292100Y51400D02*
X315400D01*
X355000Y20000D02*
Y83000D01*
X281000Y20000D02*
Y83000D01*
Y20000D02*
X355000D01*
X281000Y83000D02*
X355000D01*
X342900Y61300D02*
Y68900D01*
X340300Y58700D02*
X342900Y61300D01*
Y33700D02*
Y40300D01*
X340200Y43000D02*
X342900Y40300D01*
X319400Y51500D02*
X333700D01*
X337600Y55400D01*
X297800Y34200D02*
Y45500D01*
X297900Y57300D02*
Y68700D01*
X293600Y307400D02*
X316900D01*
X356500Y276000D02*
Y339000D01*
X282500Y276000D02*
Y339000D01*
Y276000D02*
X356500D01*
X282500Y339000D02*
X356500D01*
X344400Y317300D02*
Y324900D01*
X341800Y314700D02*
X344400Y317300D01*
Y289700D02*
Y296300D01*
X341700Y299000D02*
X344400Y296300D01*
X320900Y307500D02*
X335200D01*
X339100Y311400D01*
X299300Y290200D02*
Y301500D01*
X299400Y313300D02*
Y324700D01*
X273000Y316000D02*
X278000D01*
Y296000D02*
Y316000D01*
X268000Y296000D02*
X278000D01*
X268000D02*
Y316000D01*
X273000D01*
Y293000D02*
Y296000D01*
Y316000D02*
Y319000D01*
X268000Y311900D02*
X277700D01*
X273000Y316000D02*
X275100D01*
X271400D02*
X273000D01*
X231500Y60200D02*
Y63700D01*
X235300Y41700D02*
Y60200D01*
X231500Y38300D02*
Y41700D01*
X227700D02*
Y60200D01*
Y41700D02*
X235300D01*
X227700Y60200D02*
X235300D01*
X204000Y44500D02*
Y64800D01*
Y44500D02*
X206600Y43200D01*
X204000Y64800D02*
X206476Y66534D01*
X205500Y296500D02*
Y316800D01*
Y296500D02*
X208100Y295200D01*
X205500Y316800D02*
X207976Y318534D01*
D14*
X137400Y45700D02*
X136847Y46461D01*
X135953Y46170D01*
Y45230D01*
X136847Y44939D01*
X137400Y45700D01*
Y300200D02*
X136847Y300961D01*
X135953Y300670D01*
Y299730D01*
X136847Y299439D01*
X137400Y300200D01*
X248900Y45200D02*
X248347Y45961D01*
X247453Y45670D01*
Y44730D01*
X248347Y44439D01*
X248900Y45200D01*
X250400Y298700D02*
X249847Y299461D01*
X248953Y299170D01*
Y298230D01*
X249847Y297939D01*
X250400Y298700D01*
D15*
X9000Y242000D02*
X15000D01*
X9000Y240500D02*
X15000D01*
X19500Y115500D02*
X25500D01*
X19500Y114000D02*
X25500D01*
X378500Y131500D02*
X384500D01*
X378500Y130000D02*
X384500D01*
X360500Y243000D02*
X366500D01*
X360500Y244500D02*
X366500D01*
D16*
X384000Y35000D02*
Y65000D01*
X369000D02*
X384000D01*
X369000Y35000D02*
Y65000D01*
Y35000D02*
X384000D01*
X9000Y295500D02*
Y325500D01*
Y295500D02*
X24000D01*
Y325500D01*
X9000D02*
X24000D01*
X9000Y34500D02*
Y64500D01*
Y34500D02*
X24000D01*
Y64500D01*
X9000D02*
X24000D01*
X386000Y296000D02*
Y326000D01*
X371000D02*
X386000D01*
X371000Y296000D02*
Y326000D01*
Y296000D02*
X386000D01*
X355502Y94500D02*
X360500D01*
X361500Y95500D01*
Y97499D01*
X360500Y98499D01*
X355502D01*
X361500Y100498D02*
Y102497D01*
Y101498D01*
X355502D01*
X356502Y100498D01*
X361500Y109495D02*
Y105496D01*
X357501Y109495D01*
X356502D01*
X355502Y108495D01*
Y106496D01*
X356502Y105496D01*
X354002Y255047D02*
X359000D01*
X360000Y256047D01*
Y258046D01*
X359000Y259046D01*
X354002D01*
X360000Y261045D02*
Y263045D01*
Y262045D01*
X354002D01*
X355002Y261045D01*
X360000Y266044D02*
Y268043D01*
Y267043D01*
X354002D01*
X355002Y266044D01*
X502Y82000D02*
X5500D01*
X6500Y83000D01*
Y84999D01*
X5500Y85999D01*
X502D01*
Y91997D02*
X1502Y89997D01*
X3501Y87998D01*
X5500D01*
X6500Y88998D01*
Y90997D01*
X5500Y91997D01*
X4501D01*
X3501Y90997D01*
Y87998D01*
X11000Y271998D02*
Y267000D01*
X12000Y266000D01*
X13999D01*
X14999Y267000D01*
Y271998D01*
X16998Y270998D02*
X17998Y271998D01*
X19997D01*
X20997Y270998D01*
Y269999D01*
X19997Y268999D01*
X18997D01*
X19997D01*
X20997Y267999D01*
Y267000D01*
X19997Y266000D01*
X17998D01*
X16998Y267000D01*
X241000Y15000D02*
Y20998D01*
X243999D01*
X244999Y19998D01*
Y17999D01*
X243999Y16999D01*
X241000D01*
X242999D02*
X244999Y15000D01*
X250997Y20998D02*
X248997Y19998D01*
X246998Y17999D01*
Y16000D01*
X247998Y15000D01*
X249997D01*
X250997Y16000D01*
Y16999D01*
X249997Y17999D01*
X246998D01*
X232500Y338500D02*
Y344498D01*
X235499D01*
X236499Y343498D01*
Y341499D01*
X235499Y340499D01*
X232500D01*
X234499D02*
X236499Y338500D01*
X242497Y344498D02*
X238498D01*
Y341499D01*
X240497Y342499D01*
X241497D01*
X242497Y341499D01*
Y339500D01*
X241497Y338500D01*
X239498D01*
X238498Y339500D01*
X137000Y17500D02*
Y23498D01*
X139999D01*
X140999Y22498D01*
Y20499D01*
X139999Y19499D01*
X137000D01*
X138999D02*
X140999Y17500D01*
X145997D02*
Y23498D01*
X142998Y20499D01*
X146997D01*
X133000Y347000D02*
Y352998D01*
X135999D01*
X136999Y351998D01*
Y349999D01*
X135999Y348999D01*
X133000D01*
X134999D02*
X136999Y347000D01*
X138998Y351998D02*
X139998Y352998D01*
X141997D01*
X142997Y351998D01*
Y350999D01*
X141997Y349999D01*
X140997D01*
X141997D01*
X142997Y348999D01*
Y348000D01*
X141997Y347000D01*
X139998D01*
X138998Y348000D01*
X200500Y9998D02*
Y4000D01*
X204499D01*
X210497Y9998D02*
X206498D01*
Y4000D01*
X210497D01*
X206498Y6999D02*
X208497D01*
X212496Y9998D02*
Y4000D01*
X215495D01*
X216495Y5000D01*
Y8998D01*
X215495Y9998D01*
X212496D01*
X221493Y4000D02*
Y9998D01*
X218494Y6999D01*
X222493D01*
X199002Y336000D02*
X205000D01*
Y339999D01*
X199002Y345997D02*
Y341998D01*
X205000D01*
Y345997D01*
X202001Y341998D02*
Y343997D01*
X199002Y347996D02*
X205000D01*
Y350995D01*
X204000Y351995D01*
X200002D01*
X199002Y350995D01*
Y347996D01*
X200002Y353994D02*
X199002Y354994D01*
Y356993D01*
X200002Y357993D01*
X201001D01*
X202001Y356993D01*
Y355994D01*
Y356993D01*
X203001Y357993D01*
X204000D01*
X205000Y356993D01*
Y354994D01*
X204000Y353994D01*
X169500Y9998D02*
Y4000D01*
X173499D01*
X179497Y9998D02*
X175498D01*
Y4000D01*
X179497D01*
X175498Y6999D02*
X177497D01*
X181496Y9998D02*
Y4000D01*
X184495D01*
X185495Y5000D01*
Y8998D01*
X184495Y9998D01*
X181496D01*
X191493Y4000D02*
X187494D01*
X191493Y7999D01*
Y8998D01*
X190493Y9998D01*
X188494D01*
X187494Y8998D01*
X194998Y358000D02*
X189000D01*
Y354001D01*
X194998Y348003D02*
Y352002D01*
X189000D01*
Y348003D01*
X191999Y352002D02*
Y350003D01*
X194998Y346004D02*
X189000D01*
Y343005D01*
X190000Y342005D01*
X193998D01*
X194998Y343005D01*
Y346004D01*
X189000Y340006D02*
Y338006D01*
Y339006D01*
X194998D01*
X193998Y340006D01*
X156000Y116998D02*
Y111000D01*
Y113999D01*
X159999D01*
Y116998D01*
Y111000D01*
X165997Y116998D02*
X161998D01*
Y113999D01*
X163997Y114999D01*
X164997D01*
X165997Y113999D01*
Y112000D01*
X164997Y111000D01*
X162998D01*
X161998Y112000D01*
X381699Y146798D02*
X380699Y147798D01*
X378700D01*
X377700Y146798D01*
Y142800D01*
X378700Y141800D01*
X380699D01*
X381699Y142800D01*
X386697Y141800D02*
Y147798D01*
X383698Y144799D01*
X387697D01*
X363699Y259298D02*
X362699Y260298D01*
X360700D01*
X359700Y259298D01*
Y255300D01*
X360700Y254300D01*
X362699D01*
X363699Y255300D01*
X365698Y259298D02*
X366698Y260298D01*
X368697D01*
X369697Y259298D01*
Y258299D01*
X368697Y257299D01*
X367697D01*
X368697D01*
X369697Y256299D01*
Y255300D01*
X368697Y254300D01*
X366698D01*
X365698Y255300D01*
X22699Y130798D02*
X21699Y131798D01*
X19700D01*
X18700Y130798D01*
Y126800D01*
X19700Y125800D01*
X21699D01*
X22699Y126800D01*
X28697Y125800D02*
X24698D01*
X28697Y129799D01*
Y130798D01*
X27697Y131798D01*
X25698D01*
X24698Y130798D01*
X20502Y240999D02*
X19502Y239999D01*
Y238000D01*
X20502Y237000D01*
X24500D01*
X25500Y238000D01*
Y239999D01*
X24500Y240999D01*
X25500Y242998D02*
Y244997D01*
Y243998D01*
X19502D01*
X20502Y242998D01*
X155500Y161498D02*
Y155500D01*
Y158499D01*
X159499D01*
Y161498D01*
Y155500D01*
X164497D02*
Y161498D01*
X161498Y158499D01*
X165497D01*
X243100Y81798D02*
Y76800D01*
X244100Y75800D01*
X246099D01*
X247099Y76800D01*
Y81798D01*
X249098Y75800D02*
X251097D01*
X250098D01*
Y81798D01*
X249098Y80798D01*
X254096D02*
X255096Y81798D01*
X257096D01*
X258095Y80798D01*
Y76800D01*
X257096Y75800D01*
X255096D01*
X254096Y76800D01*
Y80798D01*
X244600Y335298D02*
Y330300D01*
X245600Y329300D01*
X247599D01*
X248599Y330300D01*
Y335298D01*
X250598Y330300D02*
X251598Y329300D01*
X253597D01*
X254597Y330300D01*
Y334298D01*
X253597Y335298D01*
X251598D01*
X250598Y334298D01*
Y333299D01*
X251598Y332299D01*
X254597D01*
X131600Y82298D02*
Y77300D01*
X132600Y76300D01*
X134599D01*
X135599Y77300D01*
Y82298D01*
X137598Y81298D02*
X138598Y82298D01*
X140597D01*
X141597Y81298D01*
Y80299D01*
X140597Y79299D01*
X141597Y78299D01*
Y77300D01*
X140597Y76300D01*
X138598D01*
X137598Y77300D01*
Y78299D01*
X138598Y79299D01*
X137598Y80299D01*
Y81298D01*
X138598Y79299D02*
X140597D01*
X131600Y336798D02*
Y331800D01*
X132600Y330800D01*
X134599D01*
X135599Y331800D01*
Y336798D01*
X137598D02*
X141597D01*
Y335798D01*
X137598Y331800D01*
Y330800D01*
X185467Y244000D02*
Y249998D01*
X188466D01*
X189465Y248998D01*
Y246999D01*
X188466Y245999D01*
X185467D01*
X187466D02*
X189465Y244000D01*
X194464D02*
Y249998D01*
X191465Y246999D01*
X195463D01*
X201462Y249998D02*
X199462Y248998D01*
X197463Y246999D01*
Y245000D01*
X198462Y244000D01*
X200462D01*
X201462Y245000D01*
Y245999D01*
X200462Y246999D01*
X197463D01*
X218800Y244000D02*
Y249998D01*
X221799D01*
X222799Y248998D01*
Y246999D01*
X221799Y245999D01*
X218800D01*
X220799D02*
X222799Y244000D01*
X224798D02*
X226797D01*
X225798D01*
Y249998D01*
X224798Y248998D01*
X229796Y244000D02*
X231796D01*
X230796D01*
Y249998D01*
X229796Y248998D01*
X202133Y244000D02*
Y249998D01*
X205132D01*
X206132Y248998D01*
Y246999D01*
X205132Y245999D01*
X202133D01*
X204133D02*
X206132Y244000D01*
X208131D02*
X210131D01*
X209131D01*
Y249998D01*
X208131Y248998D01*
X213130D02*
X214129Y249998D01*
X216129D01*
X217128Y248998D01*
Y245000D01*
X216129Y244000D01*
X214129D01*
X213130Y245000D01*
Y248998D01*
X168800Y244000D02*
Y249998D01*
X171799D01*
X172799Y248998D01*
Y246999D01*
X171799Y245999D01*
X168800D01*
X170799D02*
X172799Y244000D01*
X174798Y245000D02*
X175798Y244000D01*
X177797D01*
X178797Y245000D01*
Y248998D01*
X177797Y249998D01*
X175798D01*
X174798Y248998D01*
Y247999D01*
X175798Y246999D01*
X178797D01*
X368000Y89498D02*
Y84500D01*
X369000Y83500D01*
X370999D01*
X371999Y84500D01*
Y89498D01*
X377997D02*
X373998D01*
Y86499D01*
X375997Y87499D01*
X376997D01*
X377997Y86499D01*
Y84500D01*
X376997Y83500D01*
X374998D01*
X373998Y84500D01*
X374000Y338998D02*
Y334000D01*
X375000Y333000D01*
X376999D01*
X377999Y334000D01*
Y338998D01*
X382997Y333000D02*
Y338998D01*
X379998Y335999D01*
X383997D01*
X23000Y20998D02*
Y16000D01*
X24000Y15000D01*
X25999D01*
X26999Y16000D01*
Y20998D01*
X32997Y15000D02*
X28998D01*
X32997Y18999D01*
Y19998D01*
X31997Y20998D01*
X29998D01*
X28998Y19998D01*
X14500Y342998D02*
Y338000D01*
X15500Y337000D01*
X17499D01*
X18499Y338000D01*
Y342998D01*
X20498Y337000D02*
X22497D01*
X21498D01*
Y342998D01*
X20498Y341998D01*
X279600Y86300D02*
Y92298D01*
X282599D01*
X283599Y91298D01*
Y89299D01*
X282599Y88299D01*
X279600D01*
X281599D02*
X283599Y86300D01*
X285598Y92298D02*
Y86300D01*
X289597D01*
X294595D02*
Y92298D01*
X291596Y89299D01*
X295595D01*
X281100Y342400D02*
Y348398D01*
X284099D01*
X285099Y347398D01*
Y345399D01*
X284099Y344399D01*
X281100D01*
X283099D02*
X285099Y342400D01*
X287098Y348398D02*
Y342400D01*
X291097D01*
X293096Y347398D02*
X294096Y348398D01*
X296095D01*
X297095Y347398D01*
Y346399D01*
X296095Y345399D01*
X295095D01*
X296095D01*
X297095Y344399D01*
Y343400D01*
X296095Y342400D01*
X294096D01*
X293096Y343400D01*
X56000Y86000D02*
Y91998D01*
X58999D01*
X59999Y90998D01*
Y88999D01*
X58999Y87999D01*
X56000D01*
X57999D02*
X59999Y86000D01*
X61998Y91998D02*
Y86000D01*
X65997D01*
X71995D02*
X67996D01*
X71995Y89999D01*
Y90998D01*
X70995Y91998D01*
X68996D01*
X67996Y90998D01*
X39900Y342900D02*
Y348898D01*
X42899D01*
X43899Y347898D01*
Y345899D01*
X42899Y344899D01*
X39900D01*
X41899D02*
X43899Y342900D01*
X45898Y348898D02*
Y342900D01*
X49897D01*
X51896D02*
X53895D01*
X52896D01*
Y348898D01*
X51896Y347898D01*
X227800Y75500D02*
Y81498D01*
X230799D01*
X231799Y80498D01*
Y78499D01*
X230799Y77499D01*
X227800D01*
X229799D02*
X231799Y75500D01*
X233798Y80498D02*
X234798Y81498D01*
X236797D01*
X237797Y80498D01*
Y79499D01*
X236797Y78499D01*
X237797Y77499D01*
Y76500D01*
X236797Y75500D01*
X234798D01*
X233798Y76500D01*
Y77499D01*
X234798Y78499D01*
X233798Y79499D01*
Y80498D01*
X234798Y78499D02*
X236797D01*
X220500Y325500D02*
Y331498D01*
X223499D01*
X224499Y330498D01*
Y328499D01*
X223499Y327499D01*
X220500D01*
X222499D02*
X224499Y325500D01*
X226498Y331498D02*
X230497D01*
Y330498D01*
X226498Y326500D01*
Y325500D01*
X157800Y76500D02*
Y82498D01*
X160799D01*
X161799Y81498D01*
Y79499D01*
X160799Y78499D01*
X157800D01*
X159799D02*
X161799Y76500D01*
X167797D02*
X163798D01*
X167797Y80499D01*
Y81498D01*
X166797Y82498D01*
X164798D01*
X163798Y81498D01*
X157800Y330500D02*
Y336498D01*
X160799D01*
X161799Y335498D01*
Y333499D01*
X160799Y332499D01*
X157800D01*
X159799D02*
X161799Y330500D01*
X163798D02*
X165797D01*
X164798D01*
Y336498D01*
X163798Y335498D01*
X208599Y72700D02*
Y76698D01*
X207599Y77698D01*
X205600D01*
X204600Y76698D01*
Y72700D01*
X205600Y71700D01*
X207599D01*
X206599Y73699D02*
X208599Y71700D01*
X207599D02*
X208599Y72700D01*
X213597Y71700D02*
Y77698D01*
X210598Y74699D01*
X214597D01*
X210099Y324700D02*
Y328698D01*
X209099Y329698D01*
X207100D01*
X206100Y328698D01*
Y324700D01*
X207100Y323700D01*
X209099D01*
X208099Y325699D02*
X210099Y323700D01*
X209099D02*
X210099Y324700D01*
X212098Y328698D02*
X213098Y329698D01*
X215097D01*
X216097Y328698D01*
Y327699D01*
X215097Y326699D01*
X214097D01*
X215097D01*
X216097Y325699D01*
Y324700D01*
X215097Y323700D01*
X213098D01*
X212098Y324700D01*
X176599Y73700D02*
Y77698D01*
X175599Y78698D01*
X173600D01*
X172600Y77698D01*
Y73700D01*
X173600Y72700D01*
X175599D01*
X174599Y74699D02*
X176599Y72700D01*
X175599D02*
X176599Y73700D01*
X182597Y72700D02*
X178598D01*
X182597Y76699D01*
Y77698D01*
X181597Y78698D01*
X179598D01*
X178598Y77698D01*
X176699Y325700D02*
Y329698D01*
X175699Y330698D01*
X173700D01*
X172700Y329698D01*
Y325700D01*
X173700Y324700D01*
X175699D01*
X174699Y326699D02*
X176699Y324700D01*
X175699D02*
X176699Y325700D01*
X178698Y324700D02*
X180697D01*
X179698D01*
Y330698D01*
X178698Y329698D01*
X154500Y193498D02*
Y187500D01*
Y190499D01*
X158499D01*
Y193498D01*
Y187500D01*
X160498Y192498D02*
X161498Y193498D01*
X163497D01*
X164497Y192498D01*
Y191499D01*
X163497Y190499D01*
X162497D01*
X163497D01*
X164497Y189499D01*
Y188500D01*
X163497Y187500D01*
X161498D01*
X160498Y188500D01*
X256002Y160000D02*
X262000D01*
X259001D01*
Y163999D01*
X256002D01*
X262000D01*
Y169997D02*
Y165998D01*
X258001Y169997D01*
X257002D01*
X256002Y168997D01*
Y166998D01*
X257002Y165998D01*
X262000Y240798D02*
Y234800D01*
Y237799D01*
X265999D01*
Y240798D01*
Y234800D01*
X267998D02*
X269997D01*
X268998D01*
Y240798D01*
X267998Y239798D01*
X267000Y91498D02*
Y85500D01*
X269999D01*
X270999Y86500D01*
Y90498D01*
X269999Y91498D01*
X267000D01*
X275997Y85500D02*
Y91498D01*
X272998Y88499D01*
X276997D01*
X268600Y336898D02*
Y330900D01*
X271599D01*
X272599Y331900D01*
Y335898D01*
X271599Y336898D01*
X268600D01*
X274598Y335898D02*
X275598Y336898D01*
X277597D01*
X278597Y335898D01*
Y334899D01*
X277597Y333899D01*
X276597D01*
X277597D01*
X278597Y332899D01*
Y331900D01*
X277597Y330900D01*
X275598D01*
X274598Y331900D01*
X118200Y83398D02*
Y77400D01*
X121199D01*
X122199Y78400D01*
Y82398D01*
X121199Y83398D01*
X118200D01*
X128197Y77400D02*
X124198D01*
X128197Y81399D01*
Y82398D01*
X127197Y83398D01*
X125198D01*
X124198Y82398D01*
X118200Y337898D02*
Y331900D01*
X121199D01*
X122199Y332900D01*
Y336898D01*
X121199Y337898D01*
X118200D01*
X124198Y331900D02*
X126197D01*
X125198D01*
Y337898D01*
X124198Y336898D01*
D17*
X271000Y60500D02*
D03*
X122500Y43500D02*
D03*
Y298000D02*
D03*
X273000Y315000D02*
D03*
M02*
