G04*
G04 #@! TF.GenerationSoftware,Altium Limited,Altium Designer,18.0.7 (293)*
G04*
G04 Layer_Color=2752767*
%FSTAX24Y24*%
%MOIN*%
G70*
G01*
G75*
%ADD61C,0.0020*%
%ADD62C,0.0027*%
D61*
X04887Y01277D02*
Y01293D01*
X04903D01*
Y01277D01*
X04887D01*
Y01177D02*
Y01193D01*
X04903D01*
Y01177D01*
X04887D01*
X05137Y01272D02*
Y01288D01*
X05153D01*
Y01272D01*
X05137D01*
Y01172D02*
Y01188D01*
X05153D01*
Y01172D01*
X05137D01*
X05365Y01177D02*
X05357Y01193D01*
X05373D01*
X05365Y01177D01*
X05715D02*
X05707Y01193D01*
X05723D01*
X05715Y01177D01*
X03192Y03442D02*
Y03458D01*
X03208D01*
Y03442D01*
X03192D01*
Y03362D02*
Y03378D01*
X03208D01*
Y03362D01*
X03192D01*
X06845Y01592D02*
X06849Y01596D01*
X06853D01*
X06849Y016D01*
X06853Y01604D01*
X06849D01*
X06845Y01608D01*
X06841Y01604D01*
X06837D01*
X06841Y016D01*
X06837Y01596D01*
X06841D01*
X06845Y01592D01*
Y01392D02*
X06849Y01396D01*
X06853D01*
X06849Y014D01*
X06853Y01404D01*
X06849D01*
X06845Y01408D01*
X06841Y01404D01*
X06837D01*
X06841Y014D01*
X06837Y01396D01*
X06841D01*
X06845Y01392D01*
X05827Y02807D02*
X05831Y02815D01*
X05827Y02823D01*
X05835Y02819D01*
X05843Y02823D01*
X05839Y02815D01*
X05843Y02807D01*
X05835Y02811D01*
X05827Y02807D01*
Y02707D02*
X05831Y02715D01*
X05827Y02723D01*
X05835Y02719D01*
X05843Y02723D01*
X05839Y02715D01*
X05843Y02707D01*
X05835Y02711D01*
X05827Y02707D01*
Y02607D02*
X05831Y02615D01*
X05827Y02623D01*
X05835Y02619D01*
X05843Y02623D01*
X05839Y02615D01*
X05843Y02607D01*
X05835Y02611D01*
X05827Y02607D01*
Y02507D02*
X05831Y02515D01*
X05827Y02523D01*
X05835Y02519D01*
X05843Y02523D01*
X05839Y02515D01*
X05843Y02507D01*
X05835Y02511D01*
X05827Y02507D01*
X051835Y02867D02*
X051875Y02875D01*
X051835Y02883D01*
X051915Y02879D01*
X051995Y02883D01*
X051955Y02875D01*
X051995Y02867D01*
X051915Y02871D01*
X051835Y02867D01*
X050835D02*
X050875Y02875D01*
X050835Y02883D01*
X050915Y02879D01*
X050995Y02883D01*
X050955Y02875D01*
X050995Y02867D01*
X050915Y02871D01*
X050835Y02867D01*
X049835D02*
X049875Y02875D01*
X049835Y02883D01*
X049915Y02879D01*
X049995Y02883D01*
X049955Y02875D01*
X049995Y02867D01*
X049915Y02871D01*
X049835Y02867D01*
X048835D02*
X048875Y02875D01*
X048835Y02883D01*
X048915Y02879D01*
X048995Y02883D01*
X048955Y02875D01*
X048995Y02867D01*
X048915Y02871D01*
X048835Y02867D01*
X05187Y02542D02*
X05191Y0255D01*
X05187Y02558D01*
X05195Y02554D01*
X05203Y02558D01*
X05199Y0255D01*
X05203Y02542D01*
X05195Y02546D01*
X05187Y02542D01*
X05087D02*
X05091Y0255D01*
X05087Y02558D01*
X05095Y02554D01*
X05103Y02558D01*
X05099Y0255D01*
X05103Y02542D01*
X05095Y02546D01*
X05087Y02542D01*
X04987D02*
X04991Y0255D01*
X04987Y02558D01*
X04995Y02554D01*
X05003Y02558D01*
X04999Y0255D01*
X05003Y02542D01*
X04995Y02546D01*
X04987Y02542D01*
X04887D02*
X04891Y0255D01*
X04887Y02558D01*
X04895Y02554D01*
X04903Y02558D01*
X04899Y0255D01*
X04903Y02542D01*
X04895Y02546D01*
X04887Y02542D01*
X04882Y02227D02*
X04886Y02235D01*
X04882Y02243D01*
X0489Y02239D01*
X04898Y02243D01*
X04894Y02235D01*
X04898Y02227D01*
X0489Y02231D01*
X04882Y02227D01*
X04982D02*
X04986Y02235D01*
X04982Y02243D01*
X0499Y02239D01*
X04998Y02243D01*
X04994Y02235D01*
X04998Y02227D01*
X0499Y02231D01*
X04982Y02227D01*
X05082D02*
X05086Y02235D01*
X05082Y02243D01*
X0509Y02239D01*
X05098Y02243D01*
X05094Y02235D01*
X05098Y02227D01*
X0509Y02231D01*
X05082Y02227D01*
X05182D02*
X05186Y02235D01*
X05182Y02243D01*
X0519Y02239D01*
X05198Y02243D01*
X05194Y02235D01*
X05198Y02227D01*
X0519Y02231D01*
X05182Y02227D01*
X03245Y03997D02*
X03249Y04001D01*
X03253D01*
X03249Y04005D01*
X03253Y04009D01*
X03249D01*
X03245Y04013D01*
X03241Y04009D01*
X03237D01*
X03241Y04005D01*
X03237Y04001D01*
X03241D01*
X03245Y03997D01*
Y04197D02*
X03249Y04201D01*
X03253D01*
X03249Y04205D01*
X03253Y04209D01*
X03249D01*
X03245Y04213D01*
X03241Y04209D01*
X03237D01*
X03241Y04205D01*
X03237Y04201D01*
X03241D01*
X03245Y04197D01*
Y01387D02*
X03249Y01391D01*
X03253D01*
X03249Y01395D01*
X03253Y01399D01*
X03249D01*
X03245Y01403D01*
X03241Y01399D01*
X03237D01*
X03241Y01395D01*
X03237Y01391D01*
X03241D01*
X03245Y01387D01*
Y01587D02*
X03249Y01591D01*
X03253D01*
X03249Y01595D01*
X03253Y01599D01*
X03249D01*
X03245Y01603D01*
X03241Y01599D01*
X03237D01*
X03241Y01595D01*
X03237Y01591D01*
X03241D01*
X03245Y01587D01*
X06865Y04202D02*
X06869Y04206D01*
X06873D01*
X06869Y0421D01*
X06873Y04214D01*
X06869D01*
X06865Y04218D01*
X06861Y04214D01*
X06857D01*
X06861Y0421D01*
X06857Y04206D01*
X06861D01*
X06865Y04202D01*
Y04002D02*
X06869Y04006D01*
X06873D01*
X06869Y0401D01*
X06873Y04014D01*
X06869D01*
X06865Y04018D01*
X06861Y04014D01*
X06857D01*
X06861Y0401D01*
X06857Y04006D01*
X06861D01*
X06865Y04002D01*
X04675Y01202D02*
X04667Y01218D01*
X04683D01*
X04675Y01202D01*
X04325D02*
X04317Y01218D01*
X04333D01*
X04325Y01202D01*
X04071Y01756D02*
Y01752D01*
X04079D01*
Y01756D01*
X04083D01*
Y01764D01*
X04079D01*
Y01768D01*
X04071D01*
Y01764D01*
X04067D01*
Y01756D01*
X04071D01*
X03591Y01276D02*
Y01272D01*
X03599D01*
Y01276D01*
X03603D01*
Y01284D01*
X03599D01*
Y01288D01*
X03591D01*
Y01284D01*
X03587D01*
Y01276D01*
X03591D01*
X04171Y01516D02*
Y01512D01*
X04179D01*
Y01516D01*
X04183D01*
Y01524D01*
X04179D01*
Y01528D01*
X04171D01*
Y01524D01*
X04167D01*
Y01516D01*
X04171D01*
X03591Y01756D02*
Y01752D01*
X03599D01*
Y01756D01*
X03603D01*
Y01764D01*
X03599D01*
Y01768D01*
X03591D01*
Y01764D01*
X03587D01*
Y01756D01*
X03591D01*
X04071Y01276D02*
Y01272D01*
X04079D01*
Y01276D01*
X04083D01*
Y01284D01*
X04079D01*
Y01288D01*
X04071D01*
Y01284D01*
X04067D01*
Y01276D01*
X04071D01*
X0429Y04492D02*
X04282Y04508D01*
X04298D01*
X0429Y04492D01*
X0464D02*
X04632Y04508D01*
X04648D01*
X0464Y04492D01*
X04792Y04487D02*
Y04503D01*
X04808D01*
Y04487D01*
X04792D01*
X04892D02*
Y04503D01*
X04908D01*
Y04487D01*
X04892D01*
X0579Y04497D02*
X05782Y04513D01*
X05798D01*
X0579Y04497D01*
X0544D02*
X05432Y04513D01*
X05448D01*
X0544Y04497D01*
X0541Y03872D02*
X05402Y03888D01*
X05418D01*
X0541Y03872D01*
Y04222D02*
X05402Y04238D01*
X05418D01*
X0541Y04222D01*
X05287Y04492D02*
Y04508D01*
X05303D01*
Y04492D01*
X05287D01*
X05187D02*
Y04508D01*
X05203D01*
Y04492D01*
X05187D01*
X03297Y02182D02*
Y02198D01*
X03313D01*
Y02182D01*
X03297D01*
Y02102D02*
Y02118D01*
X03313D01*
Y02102D01*
X03297D01*
X06887Y02342D02*
Y02358D01*
X06903D01*
Y02342D01*
X06887D01*
Y02262D02*
Y02278D01*
X06903D01*
Y02262D01*
X06887D01*
X06707Y03387D02*
Y03403D01*
X06723D01*
Y03387D01*
X06707D01*
Y03467D02*
Y03483D01*
X06723D01*
Y03467D01*
X06707D01*
X04445Y01372D02*
X04437Y01388D01*
X04453D01*
X04445Y01372D01*
X04545D02*
X04537Y01388D01*
X04553D01*
X04545Y01372D01*
Y01672D02*
X04537Y01688D01*
X04553D01*
X04545Y01672D01*
X04445D02*
X04437Y01688D01*
X04453D01*
X04445Y01672D01*
Y03917D02*
X04437Y03933D01*
X04453D01*
X04445Y03917D01*
X04545D02*
X04537Y03933D01*
X04553D01*
X04545Y03917D01*
Y04217D02*
X04537Y04233D01*
X04553D01*
X04545Y04217D01*
X04445D02*
X04437Y04233D01*
X04453D01*
X04445Y04217D01*
X04805Y03362D02*
X04797Y03378D01*
X04813D01*
X04805Y03362D01*
Y03012D02*
X04797Y03028D01*
X04813D01*
X04805Y03012D01*
X049717Y03362D02*
X049637Y03378D01*
X049797D01*
X049717Y03362D01*
Y03012D02*
X049637Y03028D01*
X049797D01*
X049717Y03012D01*
X0556Y01367D02*
X05552Y01383D01*
X05568D01*
X0556Y01367D01*
X0566D02*
X05652Y01383D01*
X05668D01*
X0566Y01367D01*
Y01667D02*
X05652Y01683D01*
X05668D01*
X0566Y01667D01*
X0556D02*
X05552Y01683D01*
X05568D01*
X0556Y01667D01*
X05575Y03902D02*
X05567Y03918D01*
X05583D01*
X05575Y03902D01*
X05675D02*
X05667Y03918D01*
X05683D01*
X05675Y03902D01*
Y04202D02*
X05667Y04218D01*
X05683D01*
X05675Y04202D01*
X05575D02*
X05567Y04218D01*
X05583D01*
X05575Y04202D01*
X05305Y03362D02*
X05297Y03378D01*
X05313D01*
X05305Y03362D01*
Y03012D02*
X05297Y03028D01*
X05313D01*
X05305Y03012D01*
X051383Y03362D02*
X051303Y03378D01*
X051463D01*
X051383Y03362D01*
Y03012D02*
X051303Y03028D01*
X051463D01*
X051383Y03012D01*
X05832Y02907D02*
X05836Y02915D01*
X05832Y02923D01*
X0584Y02919D01*
X05848Y02923D01*
X05844Y02915D01*
X05848Y02907D01*
X0584Y02911D01*
X05832Y02907D01*
Y03007D02*
X05836Y03015D01*
X05832Y03023D01*
X0584Y03019D01*
X05848Y03023D01*
X05844Y03015D01*
X05848Y03007D01*
X0584Y03011D01*
X05832Y03007D01*
Y03107D02*
X05836Y03115D01*
X05832Y03123D01*
X0584Y03119D01*
X05848Y03123D01*
X05844Y03115D01*
X05848Y03107D01*
X0584Y03111D01*
X05832Y03107D01*
Y03207D02*
X05836Y03215D01*
X05832Y03223D01*
X0584Y03219D01*
X05848Y03223D01*
X05844Y03215D01*
X05848Y03207D01*
X0584Y03211D01*
X05832Y03207D01*
X04071Y03836D02*
Y03832D01*
X04079D01*
Y03836D01*
X04083D01*
Y03844D01*
X04079D01*
Y03848D01*
X04071D01*
Y03844D01*
X04067D01*
Y03836D01*
X04071D01*
X03591Y04316D02*
Y04312D01*
X03599D01*
Y04316D01*
X03603D01*
Y04324D01*
X03599D01*
Y04328D01*
X03591D01*
Y04324D01*
X03587D01*
Y04316D01*
X03591D01*
X04171Y04076D02*
Y04072D01*
X04179D01*
Y04076D01*
X04183D01*
Y04084D01*
X04179D01*
Y04088D01*
X04171D01*
Y04084D01*
X04167D01*
Y04076D01*
X04171D01*
X03591Y03836D02*
Y03832D01*
X03599D01*
Y03836D01*
X03603D01*
Y03844D01*
X03599D01*
Y03848D01*
X03591D01*
Y03844D01*
X03587D01*
Y03836D01*
X03591D01*
X04071Y04316D02*
Y04312D01*
X04079D01*
Y04316D01*
X04083D01*
Y04324D01*
X04079D01*
Y04328D01*
X04071D01*
Y04324D01*
X04067D01*
Y04316D01*
X04071D01*
X04695Y01687D02*
X04687Y01703D01*
X04703D01*
X04695Y01687D01*
Y01337D02*
X04687Y01353D01*
X04703D01*
X04695Y01337D01*
Y04227D02*
X04687Y04243D01*
X04703D01*
X04695Y04227D01*
Y03877D02*
X04687Y03893D01*
X04703D01*
X04695Y03877D01*
X04857Y01452D02*
Y01468D01*
X04873D01*
Y01452D01*
X04857D01*
Y01552D02*
Y01568D01*
X04873D01*
Y01552D01*
X04857D01*
Y01652D02*
Y01668D01*
X04873D01*
Y01652D01*
X04857D01*
Y03972D02*
Y03988D01*
X04873D01*
Y03972D01*
X04857D01*
Y04072D02*
Y04088D01*
X04873D01*
Y04072D01*
X04857D01*
Y04172D02*
Y04188D01*
X04873D01*
Y04172D01*
X04857D01*
X06026Y01751D02*
Y01747D01*
X06034D01*
Y01751D01*
X06038D01*
Y01759D01*
X06034D01*
Y01763D01*
X06026D01*
Y01759D01*
X06022D01*
Y01751D01*
X06026D01*
X06506Y01271D02*
Y01267D01*
X06514D01*
Y01271D01*
X06518D01*
Y01279D01*
X06514D01*
Y01283D01*
X06506D01*
Y01279D01*
X06502D01*
Y01271D01*
X06506D01*
X05926Y01511D02*
Y01507D01*
X05934D01*
Y01511D01*
X05938D01*
Y01519D01*
X05934D01*
Y01523D01*
X05926D01*
Y01519D01*
X05922D01*
Y01511D01*
X05926D01*
X06506Y01751D02*
Y01747D01*
X06514D01*
Y01751D01*
X06518D01*
Y01759D01*
X06514D01*
Y01763D01*
X06506D01*
Y01759D01*
X06502D01*
Y01751D01*
X06506D01*
X06026Y01271D02*
Y01267D01*
X06034D01*
Y01271D01*
X06038D01*
Y01279D01*
X06034D01*
Y01283D01*
X06026D01*
Y01279D01*
X06022D01*
Y01271D01*
X06026D01*
X06041Y04311D02*
Y04307D01*
X06049D01*
Y04311D01*
X06053D01*
Y04319D01*
X06049D01*
Y04323D01*
X06041D01*
Y04319D01*
X06037D01*
Y04311D01*
X06041D01*
X06521Y03831D02*
Y03827D01*
X06529D01*
Y03831D01*
X06533D01*
Y03839D01*
X06529D01*
Y03843D01*
X06521D01*
Y03839D01*
X06517D01*
Y03831D01*
X06521D01*
X05941Y04071D02*
Y04067D01*
X05949D01*
Y04071D01*
X05953D01*
Y04079D01*
X05949D01*
Y04083D01*
X05941D01*
Y04079D01*
X05937D01*
Y04071D01*
X05941D01*
X06521Y04311D02*
Y04307D01*
X06529D01*
Y04311D01*
X06533D01*
Y04319D01*
X06529D01*
Y04323D01*
X06521D01*
Y04319D01*
X06517D01*
Y04311D01*
X06521D01*
X06041Y03831D02*
Y03827D01*
X06049D01*
Y03831D01*
X06053D01*
Y03839D01*
X06049D01*
Y03843D01*
X06041D01*
Y03839D01*
X06037D01*
Y03831D01*
X06041D01*
X05395Y01677D02*
X05387Y01693D01*
X05403D01*
X05395Y01677D01*
Y01327D02*
X05387Y01343D01*
X05403D01*
X05395Y01327D01*
X05177Y01442D02*
Y01458D01*
X05193D01*
Y01442D01*
X05177D01*
Y01542D02*
Y01558D01*
X05193D01*
Y01542D01*
X05177D01*
Y01642D02*
Y01658D01*
X05193D01*
Y01642D01*
X05177D01*
X05192Y03962D02*
Y03978D01*
X05208D01*
Y03962D01*
X05192D01*
Y04062D02*
Y04078D01*
X05208D01*
Y04062D01*
X05192D01*
Y04162D02*
Y04178D01*
X05208D01*
Y04162D01*
X05192D01*
X0341Y03767D02*
X03414Y03771D01*
X03418D01*
X03414Y03775D01*
X03418Y03779D01*
X03414D01*
X0341Y03783D01*
X03406Y03779D01*
X03402D01*
X03406Y03775D01*
X03402Y03771D01*
X03406D01*
X0341Y03767D01*
X0551Y02037D02*
X05514Y02041D01*
X05518D01*
X05514Y02045D01*
X05518Y02049D01*
X05514D01*
X0551Y02053D01*
X05506Y02049D01*
X05502D01*
X05506Y02045D01*
X05502Y02041D01*
X05506D01*
X0551Y02037D01*
X0507D02*
X05074Y02041D01*
X05078D01*
X05074Y02045D01*
X05078Y02049D01*
X05074D01*
X0507Y02053D01*
X05066Y02049D01*
X05062D01*
X05066Y02045D01*
X05062Y02041D01*
X05066D01*
X0507Y02037D01*
X03245Y01232D02*
X03249Y01236D01*
X03253D01*
X03249Y0124D01*
X03253Y01244D01*
X03249D01*
X03245Y01248D01*
X03241Y01244D01*
X03237D01*
X03241Y0124D01*
X03237Y01236D01*
X03241D01*
X03245Y01232D01*
X0688Y03207D02*
X06884Y03211D01*
X06888D01*
X06884Y03215D01*
X06888Y03219D01*
X06884D01*
X0688Y03223D01*
X06876Y03219D01*
X06872D01*
X06876Y03215D01*
X06872Y03211D01*
X06876D01*
X0688Y03207D01*
X038Y02337D02*
X03804Y02341D01*
X03808D01*
X03804Y02345D01*
X03808Y02349D01*
X03804D01*
X038Y02353D01*
X03796Y02349D01*
X03792D01*
X03796Y02345D01*
X03792Y02341D01*
X03796D01*
X038Y02337D01*
Y02117D02*
X03804Y02121D01*
X03808D01*
X03804Y02125D01*
X03808Y02129D01*
X03804D01*
X038Y02133D01*
X03796Y02129D01*
X03792D01*
X03796Y02125D01*
X03792Y02121D01*
X03796D01*
X038Y02117D01*
X0442Y02557D02*
X04424Y02561D01*
X04428D01*
X04424Y02565D01*
X04428Y02569D01*
X04424D01*
X0442Y02573D01*
X04416Y02569D01*
X04412D01*
X04416Y02565D01*
X04412Y02561D01*
X04416D01*
X0442Y02557D01*
X06735Y03857D02*
X06739Y03861D01*
X06743D01*
X06739Y03865D01*
X06743Y03869D01*
X06739D01*
X06735Y03873D01*
X06731Y03869D01*
X06727D01*
X06731Y03865D01*
X06727Y03861D01*
X06731D01*
X06735Y03857D01*
X06915D02*
X06919Y03861D01*
X06923D01*
X06919Y03865D01*
X06923Y03869D01*
X06919D01*
X06915Y03873D01*
X06911Y03869D01*
X06907D01*
X06911Y03865D01*
X06907Y03861D01*
X06911D01*
X06915Y03857D01*
X06315Y02112D02*
X06319Y02116D01*
X06323D01*
X06319Y0212D01*
X06323Y02124D01*
X06319D01*
X06315Y02128D01*
X06311Y02124D01*
X06307D01*
X06311Y0212D01*
X06307Y02116D01*
X06311D01*
X06315Y02112D01*
X0386Y01152D02*
X03864Y01156D01*
X03868D01*
X03864Y0116D01*
X03868Y01164D01*
X03864D01*
X0386Y01168D01*
X03856Y01164D01*
X03852D01*
X03856Y0116D01*
X03852Y01156D01*
X03856D01*
X0386Y01152D01*
X0539Y02397D02*
X05394Y02401D01*
X05398D01*
X05394Y02405D01*
X05398Y02409D01*
X05394D01*
X0539Y02413D01*
X05386Y02409D01*
X05382D01*
X05386Y02405D01*
X05382Y02401D01*
X05386D01*
X0539Y02397D01*
X054Y02297D02*
X05404Y02301D01*
X05408D01*
X05404Y02305D01*
X05408Y02309D01*
X05404D01*
X054Y02313D01*
X05396Y02309D01*
X05392D01*
X05396Y02305D01*
X05392Y02301D01*
X05396D01*
X054Y02297D01*
X03525Y03657D02*
X03529Y03661D01*
X03533D01*
X03529Y03665D01*
X03533Y03669D01*
X03529D01*
X03525Y03673D01*
X03521Y03669D01*
X03517D01*
X03521Y03665D01*
X03517Y03661D01*
X03521D01*
X03525Y03657D01*
X03535Y03392D02*
X03539Y03396D01*
X03543D01*
X03539Y034D01*
X03543Y03404D01*
X03539D01*
X03535Y03408D01*
X03531Y03404D01*
X03527D01*
X03531Y034D01*
X03527Y03396D01*
X03531D01*
X03535Y03392D01*
X0405Y02412D02*
X04054Y02416D01*
X04058D01*
X04054Y0242D01*
X04058Y02424D01*
X04054D01*
X0405Y02428D01*
X04046Y02424D01*
X04042D01*
X04046Y0242D01*
X04042Y02416D01*
X04046D01*
X0405Y02412D01*
X05795Y017663D02*
X05799Y017703D01*
X05803D01*
X05799Y017743D01*
X05803Y017783D01*
X05799D01*
X05795Y017823D01*
X05791Y017783D01*
X05787D01*
X05791Y017743D01*
X05787Y017703D01*
X05791D01*
X05795Y017663D01*
X0692Y01762D02*
X06924Y01766D01*
X06928D01*
X06924Y0177D01*
X06928Y01774D01*
X06924D01*
X0692Y01778D01*
X06916Y01774D01*
X06912D01*
X06916Y0177D01*
X06912Y01766D01*
X06916D01*
X0692Y01762D01*
X06675Y01752D02*
X06679Y01756D01*
X06683D01*
X06679Y0176D01*
X06683Y01764D01*
X06679D01*
X06675Y01768D01*
X06671Y01764D01*
X06667D01*
X06671Y0176D01*
X06667Y01756D01*
X06671D01*
X06675Y01752D01*
X03525Y01902D02*
X03529Y01906D01*
X03533D01*
X03529Y0191D01*
X03533Y01914D01*
X03529D01*
X03525Y01918D01*
X03521Y01914D01*
X03517D01*
X03521Y0191D01*
X03517Y01906D01*
X03521D01*
X03525Y01902D01*
X0342Y01752D02*
X03424Y01756D01*
X03428D01*
X03424Y0176D01*
X03428Y01764D01*
X03424D01*
X0342Y01768D01*
X03416Y01764D01*
X03412D01*
X03416Y0176D01*
X03412Y01756D01*
X03416D01*
X0342Y01752D01*
D62*
X05798Y0169D02*
G03*
X05798Y0169I-00008J0D01*
G01*
Y0134D02*
G03*
X05798Y0134I-00008J0D01*
G01*
X04313Y017D02*
G03*
X04313Y017I-00008J0D01*
G01*
Y0135D02*
G03*
X04313Y0135I-00008J0D01*
G01*
Y04245D02*
G03*
X04313Y04245I-00008J0D01*
G01*
Y03895D02*
G03*
X04313Y03895I-00008J0D01*
G01*
X05818Y03885D02*
G03*
X05818Y03885I-00008J0D01*
G01*
Y04235D02*
G03*
X05818Y04235I-00008J0D01*
G01*
M02*
